<?xml version="1.0" encoding="utf-8"?>
<!-- Generator: Adobe Illustrator 21.1.0, SVG Export Plug-In . SVG Version: 6.00 Build 0)  -->
<svg version="1.1" id="Laag_1" xmlns="http://www.w3.org/2000/svg" xmlns:xlink="http://www.w3.org/1999/xlink" x="0px" y="0px"
	 width="112.5px" height="32.4px" viewBox="0 0 112.5 32.4" style="enable-background:new 0 0 112.5 32.4;" xml:space="preserve">
<style type="text/css">
	.st0{clip-path:url(#SVGID_2_);fill:#ED1164;}
	.st1{clip-path:url(#SVGID_2_);}
</style>
<g>
	<defs>
		<rect id="SVGID_1_" y="0" width="112.5" height="32.4"/>
	</defs>
	<clipPath id="SVGID_2_">
		<use xlink:href="#SVGID_1_"  style="overflow:visible;"/>
	</clipPath>
	<path class="st0" d="M17.6,9c0,0,0.4,4.8-4.8,5.7L11,15.9l0.5-1.7l-0.3-0.3l-2,0.5l0.7-2c0,0-1.3-1.6-2.2-4.2c0,0-2.3,0.3-4.4,1.8
		c2.5,2,3.7,2.9,6.1,7.8c1.8,3.7,5.2,6.9,6.3,3.2c0,0-3.7-4.1,0.9-4.1c4.1,0,6.5,6.8,3.4,9.2c-3.3,2.5-9.2-0.2-11.9-5.8
		c-2.9-6.2-4.3-6.6-6.4-8.9c-1.2,1.4-2,3.3-1.8,6l0,0l0,0c0,0,0,0.2,0.1,0.6c0.1,0.9,0.5,2.5,1.1,2.9c0.1,0,0.1,0.1,0.2,0.1
		c0.7,0.2,1.4-0.2,1.8-0.6C3.5,20.2,3.7,20,3.7,20l0.8,1.3l1.7-0.6l-0.3,1.2c-0.1,1,0.7,1.3-0.1,3c-0.2,0.5-0.3,1.1,0,1.6
		c0,0-1.6-0.9-1.4-1.9C3.8,25,2.9,26,2.9,27.5c0,0.3,0,0.5,0,0.7c2.9,2.5,6.6,4.1,10.8,4.1c9,0,16.3-7.3,16.3-16.3
		C30,8,24.1,1.3,16.5,0c2.9,4,3.1,8.6,3.1,8.6L17.6,9z"/>
	<path class="st0" d="M112.5,21.9c0,1.2-0.9,2.1-2.1,2.1c-1.2,0-2.1-0.9-2.1-2.1c0-1.2,0.9-2.1,2.1-2.1
		C111.6,19.8,112.5,20.8,112.5,21.9"/>
	<path class="st1" d="M48.7,15l-1.8-0.7c-1.4-0.5-2.2-0.8-2.2-1.5c0-0.7,0.6-1,1.6-1c1.1,0,2,0.4,3,1.1l2-2.5c-1.4-1.4-3.3-2-5-2
		c-3.3,0-5.6,2.1-5.6,4.7c0,2.2,1.4,3.6,3,4.2l1.9,0.8c1.3,0.5,2,0.7,2,1.5c0,0.7-0.5,1.1-1.7,1.1c-1.1,0-2.5-0.6-3.5-1.5l-2.3,2.7
		c1.6,1.5,3.8,2.2,5.7,2.2c3.8,0,5.9-2.3,5.9-4.8C51.7,17.1,50.6,15.8,48.7,15"/>
	<polygon class="st1" points="52.5,12 56.5,12 56.5,23.7 60.5,23.7 60.5,12 64.5,12 64.5,8.6 52.5,8.6 	"/>
	<polygon class="st1" points="70.8,17.7 75.7,17.7 75.7,14.3 70.8,14.3 70.8,12 76.5,12 76.5,8.6 66.8,8.6 66.8,23.7 76.8,23.7 
		76.8,20.4 70.8,20.4 	"/>
	<path class="st1" d="M91.5,13.5c0-3.8-2.8-4.9-6-4.9h-5.7v15.1h4v-5.1h1.5l2.6,5.1h4.5L89,17.9C90.5,17.1,91.5,15.7,91.5,13.5
		 M83.7,11.8h1.4c1.6,0,2.4,0.4,2.4,1.7c0,1.3-0.8,2-2.4,2h-1.4V11.8z"/>
	<path class="st1" d="M103.8,19.3c-0.6,0.7-1.6,1.3-2.7,1.3c-2,0-3.3-1.6-3.3-4.4c0-2.7,1.5-4.4,3.3-4.4c1,0,1.8,0.5,2.5,1.1
		l2.1-2.6c-1.1-1.1-2.7-2-4.7-2c-3.8,0-7.3,2.9-7.3,7.9c0,5.2,3.3,7.7,7.2,7.7c2,0,3.7-0.7,5-2.2L103.8,19.3z"/>
</g>
</svg>
