<?xml version="1.0" encoding="utf-8"?>
<!-- Generator: Adobe Illustrator 21.1.0, SVG Export Plug-In . SVG Version: 6.00 Build 0)  -->
<svg version="1.1" id="Laag_1" xmlns="http://www.w3.org/2000/svg" xmlns:xlink="http://www.w3.org/1999/xlink" x="0px" y="0px"
	 width="80px" height="235px" viewBox="0 0 80 235" style="enable-background:new 0 0 80 235;" xml:space="preserve">
<style type="text/css">
	.st0{fill:#858E8E;}
	.st1{fill:#EE3224;}
	.st2{fill:#FFFFFF;}
</style>
<g>
	<path class="st0" d="M24,178.4v-27.7h-7v7.6c0,2.3,0.1,5.9,0.2,7.1c-0.5-1.1-2.9-4.8-4.1-6.5l-5.7-8.2H1v27.7h7v-8.5
		c0-2.3-0.1-5.9-0.2-7.1c0.7,1.2,2.9,4.8,4.1,6.5l6.2,9.1L24,178.4L24,178.4z"/>
	<path class="st0" d="M79,169.9c0-5.2-2.9-7.4-9.5-9c-3.4-0.8-4.3-1.3-4.3-2.3s0.5-1.7,2.7-1.7c2.6,0,5,0.9,7.3,2.6l3.5-6
		c-2.8-2.1-6-3.2-10.4-3.2c-6.3,0-10.3,3.5-10.3,8.8c0,5.5,3.1,7.4,9.4,8.9c3.5,0.8,4.5,1.5,4.5,2.5c0,1.3-0.8,1.8-3.4,1.8
		c-2.4,0-5.8-1.4-7.7-2.8l-3.7,5.9c2.7,1.9,6.9,3.4,11.1,3.4C74.5,178.9,79,176.2,79,169.9L79,169.9z"/>
	<path class="st1" d="M41.4,150c-7.6,0-13.8,6.5-13.8,14.5S33.8,179,41.4,179s13.7-6.5,13.7-14.5C55.1,156.5,49,150,41.4,150z
		 M41.4,171.6c-3.7,0-6.7-3.2-6.7-7.1s3-7.1,6.7-7.1s6.7,3.2,6.7,7.1S45.1,171.6,41.4,171.6z"/>
</g>
<path class="st1" d="M0,0"/>
<g id="sZkec1.tif">
	<g>
		<path class="st2" d="M22,3.2C20.7,3.1,19.4,3,18.1,3c-1.2,0-2.5,0-3.7,0.2C10.2,3.8,7.6,7,7.3,11.1c-0.2,2.1-0.1,4.2-0.1,6.4
			c0,0.2,0,0.4,0,0.6c-2.1,0-4.2,0-6.2,0c0,2.4,0,4.8,0,7.2c2.1,0,4.1,0,6.2,0c0,6.3,0,12.5,0,18.7c2.5,0,4.9,0,7.4,0
			c0-6.3,0-12.5,0-18.7c2.1,0,4.1,0,6.2,0c0.3-2.4,0.6-4.8,0.9-7.2c-2.4,0-4.8,0-7.1,0c0-1.8-0.1-3.6,0-5.3c0.1-1.8,0.8-2.6,2.6-2.8
			c1.3-0.1,2.6-0.1,3.9-0.1c0.3,0,0.6,0,0.9,0C22,7.7,22,5.5,22,3.2z"/>
		<path class="st2" d="M22,3.2c0,2.3,0,4.4,0,6.7c-0.3,0-0.6,0-0.9,0c-1.3,0-2.6-0.1-3.9,0.1c-1.7,0.2-2.5,1-2.6,2.8s0,3.5,0,5.3
			c2.4,0,4.7,0,7.1,0c-0.3,2.4-0.6,4.8-0.9,7.2c-2.1,0-4.1,0-6.2,0c0,6.3,0,12.5,0,18.7c-2.5,0-4.9,0-7.4,0c0-6.2,0-12.5,0-18.7
			c-2.1,0-4.1,0-6.2,0c0-2.4,0-4.8,0-7.2c2,0,4.1,0,6.2,0c0-0.2,0-0.4,0-0.6c0-2.1-0.1-4.3,0.1-6.4c0.3-4.1,2.9-7.3,7.1-7.9
			C15.6,3,16.9,3,18.1,3C19.4,3,20.7,3.1,22,3.2z"/>
	</g>
</g>
<path class="st2" d="M41,57.6c-1.6,0.7-3.1,1.1-4.7,1.4c1.8-1.1,2.9-2.8,3.6-4.8c-1.6,0.9-3.3,1.6-5.1,2.1c-1.6-1.6-3.6-2.8-6-2.8
	c-4.4,0-8.2,3.9-8.2,8.7c0,0.7,0,1.4,0.2,2.1c-6.9-0.5-12.9-3.9-16.9-9.2c-0.7,1.4-1.1,2.8-1.1,4.4c0,3,1.1,5.7,3.3,7.4
	c-1.3,0-2-0.5-4-1.1l0,0c0,4.1,3.1,7.8,6.9,8.5c-0.7,0.2-1.3,0.2-2,0.2c-0.4,0-0.9,0-1.6-0.2c1.1,3.4,4.2,6,7.8,6
	C10.3,82.4,7,83.8,3,83.8c-0.7,0-1.3,0-2-0.2c3.6,2.5,8,3.9,12.7,3.9C28.8,87.5,37,74.2,37,62.7c0-0.5,0-0.7,0-1.1
	C38.6,60.9,39.9,59.2,41,57.6z"/>
<g>
	<path class="st2" d="M27.9,109.1c0,1.1-0.9,2-2,2s-2-0.9-2-2s0.9-2,2-2S27.9,108,27.9,109.1"/>
	<g>
		<path class="st2" d="M33.8,110.7c0-1.8-0.4-2.9-0.7-4c-0.4-1.1-0.9-2-1.8-2.9c-0.9-0.9-1.8-1.5-2.9-1.8s-2.2-0.7-4-0.7
			c-1.6-0.2-2.4-0.2-6.8-0.2s-5.1,0-6.8,0.2c-1.8,0-2.9,0.4-4,0.7c-1.1,0.4-2,0.9-2.9,1.8s-1.5,1.8-1.8,2.9c-0.4,1.1-0.7,2.2-0.7,4
			s-0.2,2.4-0.2,6.8s0,5.1,0.2,6.8c0,1.8,0.4,2.9,0.7,4c0.4,1.1,0.9,2,1.8,2.9s1.8,1.5,2.9,1.8c1.1,0.4,2.2,0.7,4,0.7
			s2.4,0.2,6.8,0.2s5.1,0,6.8-0.2c1.8,0,2.9-0.4,4-0.7c1.1-0.4,2-0.9,2.9-1.8s1.5-1.8,1.8-2.9c0.4-1.1,0.7-2.2,0.7-4
			s0.2-2.4,0.2-6.8S34,112.4,33.8,110.7z M30.9,124.1c0,1.6-0.4,2.6-0.5,3.1c-0.4,0.7-0.7,1.3-1.3,1.8c-0.5,0.6-1.1,0.9-1.8,1.3
			c-0.5,0.2-1.5,0.6-3.1,0.6s-2.2,0.2-6.6,0.2s-4.9,0-6.6-0.2c-1.6,0-2.6-0.4-3.1-0.6c-0.7-0.4-1.3-0.7-1.8-1.3s-0.9-1.1-1.3-1.8
			c-0.2-0.6-0.6-1.5-0.6-3.1S4,121.9,4,117.5s0-4.9,0.2-6.6c0-1.6,0.4-2.6,0.6-3.1c0.4-0.7,0.7-1.3,1.3-1.8c0.6-0.6,1.1-0.9,1.8-1.3
			c0.6-0.2,1.5-0.6,3.1-0.6c1.6-0.2,2.2-0.2,6.6-0.2s5,0,6.6,0.2c1.6,0,2.6,0.4,3.1,0.6c0.7,0.4,1.3,0.7,1.8,1.3
			c0.5,0.6,0.9,1.1,1.3,1.8c0.2,0.6,0.5,1.5,0.5,3.1s0.2,2.2,0.2,6.6S31.1,122.5,30.9,124.1z"/>
		<path class="st2" d="M17.5,109.1c-4.8,0-8.4,3.9-8.4,8.4c0,4.8,3.9,8.4,8.4,8.4c4.8,0,8.4-3.9,8.4-8.4
			C25.9,112.7,22.3,109.1,17.5,109.1 M17.5,123c-3.1,0-5.5-2.4-5.5-5.5s2.4-5.5,5.5-5.5s5.5,2.4,5.5,5.5S20.6,123,17.5,123"/>
	</g>
</g>
<g id="nu-logo-128" transform="translate(0,192.7944)">
	<path class="st2" d="M31.2,18.7c0-2.7,2-4.9,4.5-5.3c-2.2-7.3-9-12.7-17-12.7C8.9,0.7,1,8.8,1,18.7s7.9,18,17.7,18
		c8,0,14.7-5.3,17-12.7C33.1,23.7,31.2,21.4,31.2,18.7z M17.9,26c0,0.3-0.2,0.5-0.5,0.5h-4.2c-0.3,0-0.4-0.2-0.4-0.5V15.2
		c0-0.8-1.2-0.7-1.2,0V26c0,0.3-0.2,0.5-0.5,0.5H7c-0.3,0-0.5-0.2-0.5-0.5V11.5c0-0.3,0.3-0.6,0.5-0.6h10.4c0.3,0,0.5,0.3,0.5,0.6
		V26z M30.3,26c0,0.3-0.1,0.5-0.4,0.5H19.4c-0.3,0-0.3-0.2-0.3-0.5V11.5c0-0.3,0-0.6,0.3-0.6h4.1c0.3,0,0.4,0.3,0.4,0.6v10.8
		c0,0.7,1.2,0.8,1.2,0V11.5c0-0.3,0.2-0.6,0.5-0.6h4.2c0.3,0,0.4,0.3,0.4,0.6V26H30.3z"/>
	<path class="st2" d="M36.6,14.1c-2.4,0-4.4,2-4.4,4.5s2,4.5,4.4,4.5s4.4-2,4.4-4.5S39,14.1,36.6,14.1z M37.1,20.4h-0.7v-1.3
		c0-0.3,0-0.5,0-0.5c0-0.1-0.1-0.1-0.1-0.2c-0.1,0-0.1-0.1-0.2-0.1c-0.1,0-0.2,0-0.3,0.1s-0.2,0.2-0.2,0.3c0,0.1-0.1,0.3-0.1,0.6
		v1.2h-0.7v-2.6h0.6v0.4c0.2-0.3,0.5-0.4,0.9-0.4c0.2,0,0.3,0,0.4,0.1c0.1,0.1,0.2,0.1,0.3,0.2s0.1,0.2,0.1,0.3c0,0.1,0,0.3,0,0.5
		V20.4z M38.4,20.4h-0.7v-3.6h0.7V20.4z"/>
</g>
</svg>
