<?xml version="1.0" encoding="utf-8"?>
<!-- Generator: Adobe Illustrator 21.1.0, SVG Export Plug-In . SVG Version: 6.00 Build 0)  -->
<svg version="1.1" id="Laag_1" xmlns="http://www.w3.org/2000/svg" xmlns:xlink="http://www.w3.org/1999/xlink" x="0px" y="0px"
	 width="250px" height="250px" viewBox="0 0 250 250" style="enable-background:new 0 0 250 250;" xml:space="preserve">
<style type="text/css">
	.st0{fill:#239BB7;}
	.st1{fill:#333333;}
	.st2{fill:#BABABA;}
</style>
<g>
	<g>
		<path class="st0" d="M41.9,203.5c-1.2,0-2.5-0.4-3.7-0.8c-4.2-2.1-5.8-7.1-4.2-11.2l22-45.8c2.1-4.2,7.1-5.8,11.2-4.2
			c4.2,2.1,5.8,7.1,4.2,11.2l-22,45.8C48.1,201.5,45.2,203.5,41.9,203.5z"/>
	</g>
	<g>
		<path class="st0" d="M69.3,236.4c-1.2,0-2.5-0.4-3.7-0.8c-4.2-2.1-5.8-7.1-4.2-11.2l22-45.8c2.1-4.2,7.1-5.8,11.2-4.2
			c4.2,2.1,5.8,7.1,4.2,11.2l-22,45.8C75.5,234.8,72.6,236.4,69.3,236.4z"/>
	</g>
	<g>
		<path class="st0" d="M114.5,223.5c-1.2,0-2.5-0.4-3.7-0.8c-4.2-2.1-5.8-7.1-4.2-11.2l22-45.8c2.1-4.2,7.1-5.8,11.2-4.2
			c4.2,2.1,5.8,7.1,4.2,11.2l-22,45.8C120.8,221.4,117.5,223.5,114.5,223.5z"/>
	</g>
	<g>
		<path class="st1" d="M227.9,169.4c-2.1,0-4.2-0.8-5.8-2.5c-3.3-3.3-3.3-8.7,0-12.1c6.6-6.2,10-15,10-24.1
			c0-18.7-15-33.7-33.6-33.7H193l0,0c-2.5,0-5-1.2-6.6-2.9c-1.7-2.1-2.1-4.6-1.7-7.1c0.4-2.9,0.8-5.8,0.8-8.7
			c0-25.4-20.3-45.8-45.7-45.8C115,32.5,95,52.1,94.2,76.6c0,2.9-1.7,5.8-4.2,7.1c-2.5,1.2-5.8,1.2-8.3,0
			c-6.6-3.7-14.1-5.8-21.6-5.8C36.5,77.9,17,97.4,17,121.1c0,11.2,4.2,22.1,12,30.4c3.3,3.3,3.3,8.7,0,12.1c-3.3,3.3-8.7,3.3-12,0
			c-10.8-11.2-17-26.2-17-42c0-33.3,27-60.3,60.2-60.3c6.6,0,12.9,1.2,19.1,2.9c6.2-27.9,31.1-48.7,61-48.7
			c34.5,0,62.7,28.3,62.7,62.8c0,0.8,0,1.2,0,2.1c26.2,2.1,46.9,24.1,46.9,50.8c0,13.7-5.4,26.6-15,36.2
			C232.1,168.6,230,169.4,227.9,169.4z"/>
	</g>
	<g>
		<polygon class="st2" points="181.4,176.5 191.4,171.1 194.7,181.9 205.5,185.2 200.1,195.2 205.5,205.2 194.7,208.5 191.4,219.4 
			181.4,214 171,219.4 168.1,208.5 156.9,205.2 162.3,195.2 156.9,185.2 168.1,181.9 171,171.1 		"/>
	</g>
</g>
</svg>
