<?xml version="1.0" encoding="utf-8"?>
<!-- Generator: Adobe Illustrator 20.0.0, SVG Export Plug-In . SVG Version: 6.00 Build 0)  -->
<svg version="1.1" id="Layer_1" xmlns="http://www.w3.org/2000/svg" xmlns:xlink="http://www.w3.org/1999/xlink" x="0px" y="0px"
	 viewBox="0 0 153.2 102.7" style="enable-background:new 0 0 153.2 102.7;" xml:space="preserve">
<style type="text/css">
	.st0{fill:#DE007A;}
</style>
<path class="st0" d="M28.4,57.1c2.2,0.2,4.1,2.5,3.4,4.7c-0.5-0.1-1-0.2-1.5-0.2c-1.6,0-2.9,0.6-3.8,1.6h-0.1c0,0-0.1,0.2-0.3,0.4
	l-0.3,0.6c-0.6,1.4-1.4,3.8,0,5.9C22.5,75,19.7,81,22.7,86c-0.3,0.4-0.6,0.9-0.7,1.4c-0.9,1.6-1.2,4.1,0.8,7.5c0,0,1.1,1.4,0.3,2.9
	c0,0,3.4,0.3,3.1-3.7c0.5,1.3,1.6,2.9,4.5,4.4c0,0,2.3,2,0.5,4.2c0,0,6-5.5,1.2-9.5c-0.8-0.6-1.4-1.2-2-1.7h0.3
	c2.7,0.1,4.1-2.8,3.1-2.4c-1,0.4-2-0.4-3.7-2.2c-0.9-0.9-1.6-1.4-2.1-1.6c-1.3-0.9-3-1-4.3-0.2c-1-2.4-1.5-6.7,3.2-12.6
	c0.1-0.2,0.2-0.3,0.3-0.4c2,2.8,2.8,6,0,7c0,0,3.8-0.1,3.9-3.5c0.1-2.9-2.1-4.8-0.7-6.6c2.4-0.1,4.3-1.7,4.3-3.7
	c0-0.9-0.4-1.7-1.1-2.4c0.8-1.8,0.8-3.4,0.7-6.2l0.9-0.3c0.1,1.3,0.2,2.5,0.8,3.4c0.5,0.7,1.2,1.1,2,1.2c5.6,0.6,4.8,3.3,4.8,3.3
	c-0.6,0.8,0.8,1.8,0.8,1.8c3.9-1.7,2.5,4.1,1.5,2.9c-1.1-1.2-2.2,0.5-2.2,0.5c-1.1,1,0.8,4.4,1.5,4.8s-0.1,2.6-0.1,2.6
	c1,0.8,3.5-0.2,3.5-0.2c0.5,1.2-0.6,3.1-0.6,3.1c1.3,0.7,2.2-1.2,2.2-1.2c0.4,0.3,1.5,3.4,1.5,3.4c0.4,1.4,1.7,1.7,1.7,1.7
	c-0.1-1,1-1.1,1-1.1s0.6,0,0.7-0.2c0-0.1,1.6-1.3,2.1-0.2s1.4,1.6,1.9,1.8c0.4,0.2,1.5-0.5,1.5-0.5c0.4,0.5,1.4,0.6,1.4,0.6
	c0.8-1.3,0.5-3.1,0.5-3.1c0.2-0.1,1,0.2,1,0.2c0.4-1.1,0.2-2.6,0.2-2.6h0.6c0.3-2.7-1.6-4-1.6-4c-0.5-2-4.1-0.4-4,0.3
	s-0.4,1.8-0.4,1.8c0,1-2.7-0.4-2.9-1.5S53,72.1,53,72.1c0.6-0.1,1-2.3,1-2.3c1.3,0,3.1,2.6,3.1,2.6c0.6-0.7,0.3-3,0.3-3
	s0.1,1.1,2.2,1s3.1,1.1,3.1,1.1c0.2-1.8-2.1-3.7-2.1-3.7c1.2-0.5,0.8-1.5,0.8-1.5c-0.1,0.4-2.2,0.1-2.2,0.1c0.8-0.5,0.8-1.6,0.8-1.6
	c-0.2,0.4-1-0.3-1-0.3c0.9-0.3,0.8-1.7,0.8-1.7c-2.7,1-2.9-1.6-4-1.3c-1.2,0.2-1.7-0.5-1.7-0.5c-3.6-7-10.4-10-12.8-11.2
	c3.4,0.4,6.1-0.2,6.1-0.2c-1.6-0.2-3.4-3.2-4.7-5.8c0.5-1.2,1-2,1-2c1.1,3.9,7,5.1,7,5.1c-1.2-0.9-2.1-2.3-2.5-5.8
	c0.5,0.2,1.1,1,1.1,1c-0.2-0.6,0.5-1.4,0.5-1.4l1.4,0.9c-0.9-0.9,0.3-2,0.3-2l0.5,0.2c0.5-0.7,1-1.5,1-1.5c0.6,0.5,1.6-0.2,1.6-0.2
	c0.7,0.2,1.4,0.3,1.4,0.3c0.1-0.3,0.1-1.4,0.1-1.7c0.3-0.1,0.5-0.4,0.6-0.5c0.4,1,1.2,2,1.2,2c0.2-0.2,1.3-1.8,1.6-2.3V36
	c0.2,0.2,0.4,0.2,0.5,0.1c0.2,1,1.3,2.2,1.3,2.2c0.4-0.7,0.9-2.4,1-2.8c0.1,0,0.2,0.1,0.2,0.1c1.1-2.4-1.3-2.8-2-2.9
	c-0.8-0.1-2-0.5-2-0.5c0.2-5-3.9-3.9-3.9-3.9c-1.3,2.1-6.5,4.3-6.5,4.3s-0.1,0.2-0.2,0.6c-0.3-1.9-1-3.3-1.7-4.2
	c-0.1-0.4-0.2-0.8-0.2-1.3c0-0.8,0.5-1.3,0.8-1.6c0,0.3,0.7,1,0.7,1c-0.2-0.2-0.1-0.6-0.1-0.6c0.4-0.9,0.4-1.7,0.3-2v-0.6l-0.9,0.3
	l-0.4-0.7c-1.2,1.2-1.6,0.1-1.6,0.1c-0.6-2.3-0.1-3.8,0.7-4.8c1.1,1.2,3,4.1,3.7,5.5c0.8,1.7,4,3.6,5.7,2.5s0.3-4.6-1.7-5
	s-0.7,2-0.7,2c-0.6,1.9-2.5-0.9-2.5-0.9c-0.8-2.1-2.4-3.7-3.7-4.8c1.1-0.8,2.3-1,2.3-1c0.4,1.4,1.1,2.3,1.1,2.3l-0.3,1.1l1-0.3
	l0.2,0.2l-0.3,0.9l0.9-0.7c2.7-0.5,2.5-3.1,2.5-3.1l1-0.2c0,0-0.1-3.6-2.7-5.9c0,0,0-1.7-0.9-2.9s-3-2.3-3.5-2.8s-1.3-2.1-4.4-3.6
	c0,0-0.9-0.5-0.5-1.4c0,0-1.2,0.6-1.5,1.2c0,0-2.4-0.9-2.6-1.9c0,0-1.7,0.9-1.3,3.5c0,0-2.3,1.3-3.5,5.5c0,0-0.6,0.6-1.2-0.1
	l-0.9,2.9l-0.9-2.9C30.2,9.6,29.6,9,29.6,9c-1.2-4.2-3.5-5.5-3.5-5.5C26.5,0.9,24.8,0,24.8,0c-0.3,1-2.6,1.9-2.6,1.9
	c-0.3-0.6-1.5-1.2-1.5-1.2c0.4,1-0.5,1.4-0.5,1.4c-3.1,1.5-3.9,3-4.4,3.6c-0.5,0.5-2.6,1.6-3.5,2.8c-0.9,1.2-0.9,2.9-0.9,2.9
	c-2.6,2.3-2.7,5.9-2.7,5.9l1,0.2c0,0-0.2,2.6,2.5,3.1l0.9,0.7v-0.7l0.2-0.2l1,0.3L14,19.6c0,0,0.7-0.9,1.1-2.3c0,0,1.2,0.2,2.3,1
	c-1.3,1.1-2.9,2.7-3.7,4.8c0,0-1.8,2.8-2.5,0.9c0,0,1.3-2.4-0.7-2c-2.1,0.4-3.4,3.9-1.7,5s4.9-0.8,5.7-2.5c0.7-1.4,2.6-4.3,3.7-5.5
	c0.8,1,1.3,2.5,0.7,4.8c0,0-0.5,1.1-1.6-0.1l-0.4,0.7L16,24.1v0.6c0,0.3-0.1,1.1,0.3,2c0,0,0.1,0.4-0.1,0.6c0,0,0.7-0.7,0.7-1
	c0.3,0.2,0.7,0.8,0.8,1.6c0,0.5-0.1,0.9-0.2,1.3c-0.7,1-1.3,2.3-1.7,4.2c-0.1-0.4-0.2-0.6-0.2-0.6s-5.2-2.2-6.5-4.3
	c0,0-4.1-1.1-3.9,3.9c0,0-1.2,0.4-2,0.5s-3.1,0.5-2,2.9c0,0,0.1,0,0.2-0.1c0.1,0.4,0.6,2.1,1,2.8c0,0,1-1.2,1.2-2.2
	c0.1,0.1,0.3,0.1,0.5-0.1v-0.1c0.3,0.5,1.4,2.1,1.6,2.3c0,0,0.8-1,1.2-2c0.1,0.1,0.3,0.3,0.6,0.5c0,0.4,0,1.5,0.1,1.7
	c0,0,0.7-0.1,1.4-0.3c0,0,1,0.6,1.6,0.2c0,0,0.5,0.8,1,1.5l0.5-0.2c0,0,1.2,1.1,0.3,2l1.4-0.9c0,0,0.7,0.8,0.5,1.4
	c0,0,0.6-0.8,1.1-1c-0.4,3.4-1.3,4.9-2.5,5.8c0,0,5.9-1.2,7-5.1c0,0,0.5,0.8,1,2c-1.2,2.5-3,5.6-4.7,5.8c0,0,2.7,0.6,6.1,0.2
	c-2.3,1.2-9.1,4.2-12.8,11.2c0,0-0.5,0.7-1.7,0.5c-1.2-0.3-1.4,2.3-4,1.3c0,0-0.1,1.4,0.8,1.7c0,0-0.8,0.7-1,0.3
	c0,0-0.1,1.1,0.7,1.6c0,0-2.1,0.3-2.2-0.1c0,0-0.4,1,0.8,1.5c0,0-2.3,1.9-2.1,3.7c0,0,1-1.2,3.1-1.1c2.1,0,2.2-1,2.2-1
	s-0.3,2.3,0.3,3c0,0,1.8-2.6,3.1-2.6c0,0,0.5,2.2,1,2.3c0,0-1.4,2-1.6,3.1S6.1,77.9,6,76.9c0,0-0.5-1.1-0.4-1.8s-3.5-2.3-4-0.3
	c0,0-1.9,1.3-1.6,4h0.6c0,0-0.1,1.5,0.2,2.6c0,0,0.8-0.3,1-0.2c0,0-0.3,1.8,0.5,3.1c0,0,0.9-0.1,1.4-0.6c0,0,1.1,0.7,1.5,0.5
	s1.4-0.7,1.9-1.8s2.1,0.1,2.1,0.2c0,0.2,0.7,0.2,0.7,0.2s1.1,0.1,1,1.1c0,0,1.4-0.3,1.7-1.7c0,0,1.1-3.1,1.5-3.4
	c0,0,0.9,1.9,2.2,1.2c0,0-1.1-1.9-0.6-3.1c0,0,2.5,1,3.5,0.2c0,0-0.8-2.2-0.1-2.6c0.7-0.4,2.6-3.8,1.5-4.8c0,0-1.2-1.7-2.2-0.5
	s-2.5-4.6,1.5-2.9c0,0,1.4-1,0.8-1.8c0,0-0.8-2.7,4.8-3.3c0.9-0.1,1.5-0.5,2-1.2C28,59,28.3,58.4,28.4,57.1L28.4,57.1z M82.3,47.4
	H83v9.5h-0.7V47.4z M92.1,56.9h-0.7l-4.2-8.1v8.1h-0.7v-9.5h0.7l4.2,8.1v-8.1h0.7V56.9z M100.5,48.1h-2.6v8.8h-0.7v-8.8h-2.5v-0.7
	h5.8V48.1z M107.4,52.3h-3.5v3.9h4v0.7h-4.7v-9.5h4.7v0.7h-4v3.5h3.5V52.3z M113.5,52.9h-2.1v4h-0.7v-9.5h2.5c0.4,0,0.8,0.1,1.1,0.2
	c0.3,0.1,0.6,0.3,0.8,0.5c0.2,0.2,0.4,0.5,0.5,0.9c0.1,0.3,0.2,0.8,0.2,1.2c0,0.3,0,0.6-0.1,0.9c-0.1,0.3-0.2,0.5-0.3,0.7
	s-0.3,0.4-0.5,0.6c-0.2,0.2-0.4,0.3-0.6,0.4l1.9,4.1V57h-0.8L113.5,52.9L113.5,52.9z M111.4,52.2h1.9c0.3,0,0.5-0.1,0.8-0.2
	c0.2-0.1,0.4-0.3,0.5-0.5c0.1-0.2,0.3-0.4,0.3-0.7c0.1-0.2,0.1-0.5,0.1-0.8s0-0.6-0.1-0.9c-0.1-0.3-0.2-0.5-0.4-0.7
	s-0.4-0.3-0.6-0.4c-0.2-0.1-0.5-0.1-0.8-0.1h-1.8L111.4,52.2L111.4,52.2z M124.6,56.9h-0.7l-4.3-8.1v8.1h-0.7v-9.5h0.7l4.3,8.1v-8.1
	h0.7V56.9z M132.2,52.3h-3.5v3.9h4v0.7H128v-9.5h4.7v0.7h-4v3.5h3.5V52.3z M140.8,48.1h-2.6v8.8h-0.7v-8.8H135v-0.7h5.8V48.1z
	 M148.5,51.7c-0.1-0.2-0.3-0.4-0.4-0.6l-0.3-0.6c-0.1-0.2-0.1-0.4-0.2-0.6c0-0.2-0.1-0.4-0.1-0.6c0-0.3,0-0.6,0.1-0.9
	c0.1-0.3,0.2-0.5,0.4-0.7c0.2-0.2,0.3-0.3,0.6-0.4c0.2-0.1,0.5-0.2,0.7-0.2c0.3,0,0.5,0.1,0.7,0.2c0.2,0.1,0.4,0.2,0.5,0.4
	c0.1,0.2,0.3,0.4,0.3,0.6c0.1,0.2,0.1,0.5,0.1,0.7s0,0.4-0.1,0.6c-0.1,0.2-0.1,0.4-0.2,0.5c-0.1,0.2-0.2,0.3-0.3,0.5
	c-0.1,0.1-0.2,0.3-0.4,0.4l-0.7,0.6l2,3c0.1-0.3,0.2-0.6,0.3-1c0.1-0.4,0.1-0.7,0.1-1.2h0.6c0,1.1-0.2,2-0.7,2.7l1,1.5h-0.8
	l-0.6-0.9c-0.3,0.3-0.6,0.6-0.9,0.8c-0.4,0.2-0.7,0.3-1.1,0.3c-0.4,0-0.7-0.1-1-0.2c-0.3-0.1-0.5-0.3-0.7-0.5
	c-0.2-0.2-0.4-0.5-0.5-0.8c-0.1-0.3-0.2-0.7-0.2-1s0-0.6,0.1-0.8c0.1-0.2,0.2-0.5,0.3-0.7c0.1-0.2,0.3-0.4,0.5-0.6
	C148,52.1,148.2,51.9,148.5,51.7z M149.3,56.3c0.3,0,0.6-0.1,0.9-0.2c0.3-0.2,0.5-0.4,0.8-0.7l-2.1-3.1l-0.1-0.1l-0.2,0.2
	c-0.2,0.2-0.4,0.4-0.5,0.6c-0.1,0.2-0.2,0.4-0.3,0.5c-0.1,0.2-0.1,0.3-0.1,0.5v0.4c0,0.3,0,0.5,0.1,0.7l0.3,0.6
	c0.1,0.2,0.3,0.3,0.5,0.4C148.8,56.3,149,56.3,149.3,56.3 M148.3,49.4c0,0.3,0.1,0.6,0.2,0.9c0.1,0.3,0.3,0.6,0.5,1l0.6-0.6
	c0.2-0.2,0.4-0.4,0.5-0.7c0.1-0.2,0.2-0.5,0.2-0.8c0-0.2,0-0.3-0.1-0.4c0-0.1-0.1-0.3-0.2-0.4l-0.3-0.3c-0.1-0.1-0.3-0.1-0.4-0.1
	c-0.2,0-0.3,0-0.5,0.1l-0.3,0.3c-0.1,0.1-0.2,0.3-0.2,0.5V49.4 M83.2,60.8l2.7,8.3l2.7-8.3h0.9v9.5h-0.7v-4.2l0.1-4.1l-2.7,8.3h-0.6
	L82.9,62v8.3h-0.7v-9.5H83.2z M97.1,67.6h-3.4l-0.8,2.7h-0.7l2.9-9.5h0.7l2.9,9.5H98L97.1,67.6z M94,66.9h3l-1.5-5.1L94,66.9z
	 M104,66.3h-2.1v4h-0.7v-9.5h2.5c0.4,0,0.8,0.1,1.1,0.2c0.3,0.1,0.6,0.3,0.8,0.5c0.2,0.2,0.4,0.5,0.5,0.9c0.1,0.3,0.2,0.7,0.2,1.2
	c0,0.3,0,0.6-0.1,0.9c-0.1,0.3-0.2,0.5-0.3,0.7s-0.3,0.4-0.5,0.6c-0.2,0.2-0.4,0.3-0.6,0.4l1.9,4.1v0.1h-0.8L104,66.3L104,66.3z
	 M101.9,65.6h1.9c0.3,0,0.5-0.1,0.8-0.2c0.2-0.1,0.4-0.3,0.5-0.5c0.1-0.2,0.3-0.4,0.3-0.7c0.1-0.2,0.1-0.5,0.1-0.8s0-0.6-0.1-0.9
	s-0.2-0.5-0.4-0.7c-0.2-0.2-0.4-0.3-0.6-0.4c-0.2-0.1-0.5-0.1-0.8-0.1h-1.8L101.9,65.6L101.9,65.6z M111.2,65.6l-1.1,1.3v3.4h-0.7
	v-9.5h0.7v5l1-1.3l2.8-3.7h0.9l-3.1,4.2l3.3,5.3h-0.8L111.2,65.6z M121.8,65.7h-3.5v3.9h4v0.7h-4.7v-9.5h4.7v0.7h-4V65h3.5V65.7z
	 M130.4,61.5h-2.5v8.8h-0.7v-8.8h-2.6v-0.7h5.8V61.5z M133.3,60.8h0.7v9.5h-0.7V60.8z M143.1,70.3h-0.7l-4.2-8.1v8.1h-0.7v-9.5h0.7
	l4.2,8.1v-8.1h0.7V70.3z M152,69.2c-0.1,0.1-0.2,0.2-0.3,0.4c-0.1,0.1-0.3,0.3-0.5,0.4c-0.2,0.1-0.5,0.2-0.8,0.3s-0.7,0.1-1.1,0.1
	c-0.4,0-0.9-0.1-1.2-0.2c-0.4-0.2-0.7-0.4-0.9-0.7c-0.3-0.3-0.5-0.7-0.6-1.2c-0.1-0.5-0.2-1-0.2-1.7v-2.2c0-0.6,0.1-1.2,0.2-1.6
	c0.1-0.5,0.3-0.9,0.6-1.2c0.2-0.3,0.6-0.6,0.9-0.7c0.4-0.2,0.8-0.2,1.2-0.2c0.4,0,0.8,0.1,1.1,0.2s0.6,0.3,0.8,0.6
	c0.2,0.2,0.4,0.5,0.5,0.9c0.1,0.4,0.2,0.8,0.2,1.2h-0.7c0-0.3-0.1-0.6-0.2-0.9c-0.1-0.3-0.2-0.5-0.4-0.7s-0.4-0.3-0.6-0.4
	c-0.2-0.1-0.5-0.1-0.9-0.1c-0.7,0-1.3,0.3-1.6,0.8c-0.4,0.5-0.5,1.3-0.5,2.3v2.2c0,0.5,0.1,1,0.2,1.4c0.1,0.4,0.3,0.7,0.5,1
	c0.2,0.3,0.4,0.5,0.7,0.6s0.6,0.2,1,0.2c0.3,0,0.5,0,0.8-0.1c0.2-0.1,0.4-0.1,0.6-0.2c0.2-0.1,0.3-0.2,0.4-0.3l0.2-0.2v-2.5h-2V66
	h2.7L152,69.2L152,69.2z M89.9,38.3c0-0.4,0-0.7-0.1-1s-0.2-0.5-0.4-0.8c-0.2-0.3-0.5-0.5-0.9-0.7c-0.4-0.2-0.9-0.5-1.5-0.7
	c-0.7-0.3-1.4-0.6-2.1-1c-0.7-0.4-1.2-0.8-1.7-1.3S82.3,31.7,82,31c-0.3-0.7-0.4-1.5-0.4-2.4s0.2-1.6,0.5-2.4
	c0.3-0.7,0.7-1.3,1.3-1.8c0.5-0.5,1.2-0.9,2-1.2c0.8-0.3,1.6-0.4,2.5-0.4c0.9,0,1.8,0.2,2.5,0.5c0.8,0.3,1.4,0.8,1.9,1.3
	c0.5,0.6,0.9,1.2,1.2,2c0.3,0.8,0.4,1.6,0.4,2.6H90c0-0.4,0-0.8-0.1-1.2s-0.2-0.7-0.4-0.9c-0.2-0.3-0.4-0.5-0.7-0.6s-0.6-0.2-1-0.2
	s-0.7,0.1-1,0.2s-0.5,0.3-0.7,0.5c-0.2,0.2-0.3,0.5-0.4,0.8s-0.1,0.6-0.1,0.9s0.1,0.6,0.2,0.9s0.3,0.5,0.6,0.8
	c0.3,0.2,0.6,0.5,0.9,0.7l1.2,0.6c0.9,0.4,1.7,0.7,2.4,1.2c0.7,0.4,1.2,0.9,1.7,1.4s0.8,1.1,1,1.8c0.2,0.7,0.3,1.4,0.3,2.3
	s-0.1,1.7-0.4,2.4c-0.3,0.7-0.7,1.3-1.2,1.8s-1.1,0.9-1.9,1.1c-0.7,0.3-1.6,0.4-2.5,0.4c-0.8,0-1.7-0.1-2.5-0.4
	c-0.8-0.3-1.5-0.7-2.2-1.2c-0.6-0.6-1.1-1.3-1.5-2.1c-0.4-0.9-0.6-1.9-0.6-3h4c0,0.6,0.1,1.1,0.2,1.6c0.1,0.4,0.3,0.8,0.5,1.1
	c0.2,0.3,0.5,0.5,0.9,0.6c0.3,0.1,0.8,0.2,1.2,0.2s0.7-0.1,1-0.2s0.5-0.3,0.6-0.5c0.2-0.2,0.3-0.4,0.4-0.7S89.9,38.7,89.9,38.3
	 M109.1,26.6h-4.8v17.1h-4V26.6h-4.7v-3.5h13.5V26.6z M121.4,34.8h-6.1v5.5h7.2v3.4h-11.1V23.1h11.1v3.5h-7.2v4.8h6.1V34.8z
	 M130.7,36.2h-2v7.5h-3.9V23.1h6.3c1,0,1.8,0.1,2.6,0.4c0.8,0.3,1.4,0.7,1.9,1.2s0.9,1.2,1.2,2s0.4,1.7,0.4,2.7c0,0.7-0.1,1.4-0.2,2
	c-0.1,0.6-0.3,1.1-0.6,1.6c-0.2,0.5-0.5,0.9-0.9,1.2c-0.3,0.4-0.7,0.7-1.2,0.9l3.4,8.5v0.2h-4.2C133.5,43.8,130.7,36.2,130.7,36.2z
	 M128.7,32.7h2.2c0.8,0,1.4-0.3,1.8-0.8c0.4-0.6,0.6-1.3,0.6-2.2c0-0.5,0-0.9-0.1-1.3c-0.1-0.4-0.2-0.7-0.4-1s-0.4-0.5-0.7-0.6
	c-0.3-0.1-0.6-0.2-1-0.2h-2.3L128.7,32.7z M153.1,36.9c-0.1,2.4-0.7,4.1-1.9,5.3c-1.1,1.2-2.8,1.8-4.9,1.8c-1.1,0-2-0.2-2.9-0.6
	c-0.8-0.4-1.6-0.9-2.1-1.7c-0.6-0.7-1-1.7-1.3-2.8c-0.3-1.1-0.5-2.4-0.5-3.8v-3.5c0-1.4,0.2-2.7,0.5-3.8c0.3-1.1,0.8-2,1.4-2.8
	c0.6-0.7,1.3-1.3,2.2-1.7c0.8-0.4,1.8-0.6,2.9-0.6c2.1,0,3.7,0.6,4.8,1.9c1.1,1.3,1.7,3.1,1.9,5.4h-3.9c0-0.7-0.1-1.4-0.2-1.9
	s-0.3-0.9-0.5-1.2c-0.2-0.3-0.5-0.5-0.8-0.6s-0.8-0.2-1.3-0.2s-1,0.1-1.3,0.3c-0.4,0.2-0.7,0.5-0.9,0.9s-0.4,1-0.5,1.7
	c-0.1,0.7-0.2,1.5-0.2,2.5v3.7c0,1,0,1.8,0.1,2.5c0.1,0.7,0.2,1.2,0.5,1.7c0.2,0.4,0.5,0.7,0.9,0.9c0.4,0.2,0.8,0.3,1.4,0.3
	c0.5,0,0.9-0.1,1.2-0.2c0.3-0.1,0.6-0.3,0.9-0.6c0.2-0.3,0.4-0.7,0.5-1.1c0.1-0.5,0.2-1.1,0.2-1.8C149.3,36.9,153.1,36.9,153.1,36.9
	z"/>
</svg>
