<?xml version="1.0" encoding="UTF-8"?>
<!-- Generator: Adobe Illustrator 15.0.0, SVG Export Plug-In . SVG Version: 6.00 Build 0)  -->
<!DOCTYPE svg PUBLIC "-//W3C//DTD SVG 1.0//EN" "http://www.w3.org/TR/2001/REC-SVG-20010904/DTD/svg10.dtd">
<svg version="1.0" id="Layer_1" xmlns="http://www.w3.org/2000/svg" xmlns:xlink="http://www.w3.org/1999/xlink" x="0px" y="0px" width="48px" height="48px" viewBox="0 0 48 48" enable-background="new 0 0 48 48" xml:space="preserve">
<g>
	<g>
		<path fill="#FFFFFF" d="M33.064,30.078l-3.587-3.588c-0.287-0.288-0.755-0.288-1.043,0l-1.224,1.224l4.631,4.631l1.224-1.224    C33.353,30.833,33.354,30.366,33.064,30.078z M21.442,19.497c0.288-0.288,0.288-0.755,0-1.043l-3.587-3.587    c-0.288-0.289-0.755-0.289-1.044,0l-1.223,1.223l4.631,4.63L21.442,19.497z M26.378,28.514c-0.406,0.406-1.284,0.186-1.69-0.22    l-5.049-5.051c-0.406-0.406-0.656-1.313-0.25-1.719l0.011-0.012l-4.526-4.526c-0.679,3.692,0.874,8.012,4.535,11.673    c3.662,3.662,7.98,5.216,11.673,4.536l-4.693-4.694L26.378,28.514z"/>
	</g>
</g>
</svg>