<?xml version="1.0" encoding="UTF-8"?>
<!-- Generator: Adobe Illustrator 15.0.0, SVG Export Plug-In . SVG Version: 6.00 Build 0)  -->
<!DOCTYPE svg PUBLIC "-//W3C//DTD SVG 1.0//EN" "http://www.w3.org/TR/2001/REC-SVG-20010904/DTD/svg10.dtd">
<svg version="1.0" id="Layer_1" xmlns="http://www.w3.org/2000/svg" xmlns:xlink="http://www.w3.org/1999/xlink" x="0px" y="0px" width="40px" height="40px" viewBox="0 0 40 40" enable-background="new 0 0 40 40" xml:space="preserve">
<path fill="#FFFFFF" d="M27.611,25.725l-3.828-3.829c-0.044-0.044-0.094-0.077-0.141-0.114c0.646-0.994,1.023-2.176,1.023-3.448  c0-3.498-2.835-6.333-6.333-6.333C14.837,12,12,14.835,12,18.333s2.837,6.333,6.333,6.333c1.273,0,2.457-0.379,3.45-1.025  c0.036,0.048,0.069,0.096,0.113,0.14l3.828,3.829C25.986,27.87,26.326,28,26.667,28c0.342,0,0.682-0.13,0.942-0.39  C28.13,27.09,28.13,26.245,27.611,25.725 M18.333,22.666c-2.389,0-4.333-1.943-4.333-4.333C14,15.944,15.944,14,18.333,14  s4.333,1.944,4.333,4.333C22.666,20.723,20.722,22.666,18.333,22.666"/>
</svg>