<?xml version="1.0" encoding="utf-8"?>
<!-- Generator: Adobe Illustrator 15.0.2, SVG Export Plug-In . SVG Version: 6.00 Build 0)  -->
<!DOCTYPE svg PUBLIC "-//W3C//DTD SVG 1.1//EN" "http://www.w3.org/Graphics/SVG/1.1/DTD/svg11.dtd">
<svg version="1.1" id="Layer_1" xmlns="http://www.w3.org/2000/svg" xmlns:xlink="http://www.w3.org/1999/xlink" x="0px" y="0px"
	 width="160px" height="32px" viewBox="0 0 160 32" enable-background="new 0 0 160 32" xml:space="preserve">
<path fill="#FFFFFF" d="M26,9.797c-0.736,0.327-1.527,0.547-2.356,0.646c0.847-0.508,1.497-1.312,1.804-2.271
	c-0.793,0.471-1.671,0.812-2.605,0.996c-0.749-0.798-1.814-1.296-2.995-1.296c-2.267,0-4.103,1.837-4.103,4.103
	c0,0.322,0.036,0.636,0.106,0.936c-3.41-0.171-6.434-1.805-8.458-4.287c-0.354,0.605-0.555,1.311-0.555,2.062
	c0,1.424,0.571,2.68,1.673,3.416C7.838,14.081,7.5,13.896,6.5,13.588c0,0.018,0,0.034,0,0.052c0,1.988,1.566,3.646,3.443,4.023
	c-0.344,0.094-0.63,0.146-1.004,0.146c-0.265,0-0.483-0.026-0.734-0.074c0.522,1.63,2.056,2.815,3.852,2.851
	c-1.404,1.103-3.164,1.756-5.087,1.756c-0.332,0-0.653-0.021-0.974-0.057c1.816,1.164,3.976,1.844,6.292,1.844
	c7.547,0,11.676-6.254,11.676-11.675c0-0.178-0.003-0.355-0.012-0.531C24.753,11.343,25.45,10.62,26,9.797z"/>
<g>
	<path fill="#FFFFFF" d="M42.632,23.646V13.328h-3.429v10.318H42.632L42.632,23.646z M40.917,11.919
		c1.196,0,1.941-0.793,1.941-1.783c-0.023-1.013-0.745-1.782-1.918-1.782c-1.174,0-1.94,0.77-1.94,1.782
		c0,0.99,0.745,1.783,1.896,1.783H40.917L40.917,11.919z"/>
	<path fill="#FFFFFF" d="M44.53,23.646h3.431v-5.764c0-0.309,0.021-0.615,0.112-0.838c0.248-0.615,0.812-1.254,1.76-1.254
		c1.241,0,1.738,0.943,1.738,2.334v5.521H55V17.73c0-3.171-1.692-4.646-3.949-4.646c-1.85,0-2.662,1.034-3.113,1.738h0.023v-1.496
		H44.53C44.575,14.295,44.53,23.646,44.53,23.646L44.53,23.646z"/>
</g>
<path fill="#FFFFFF" d="M81.094,10.291h2.838V6.775h-2.838c-2.347,0-4.256,2.069-4.256,4.612v1.774H74v3.525h2.838v8.537h3.547
	v-8.537h3.547v-3.525h-3.547v-1.808C80.385,10.747,80.76,10.291,81.094,10.291z"/>
<g>
	<polygon fill="#FFFFFF" points="121.949,15.354 119.369,15.354 119.369,12.776 118.08,12.776 118.08,15.354 115.502,15.354 
		115.502,16.644 118.08,16.644 118.08,19.224 119.369,19.224 119.369,16.644 121.949,16.644 	"/>
</g>
<g>
	<path fill="#FFFFFF" d="M112.795,17.37c-0.518-0.389-1.646-1.186-1.646-1.72c0-0.627,0.178-0.937,1.12-1.673
		c0.97-0.756,1.652-1.751,1.652-2.987c0-1.346-0.549-2.567-1.586-3.161h1.469l1.248-1.311c0,0-4.127,0-5.588,0
		c-2.838,0-5.201,2.092-5.201,4.392c0,2.352,1.554,4.226,4.222,4.226c0.185,0,0.364-0.011,0.541-0.022
		c-0.173,0.332-0.298,0.702-0.298,1.089c0,0.652,0.359,1.025,0.806,1.457c-0.336,0-0.66,0.01-1.015,0.01
		c-3.248,0-5.52,2.234-5.52,4.381c0,2.111,2.74,3.432,5.984,3.432c3.703,0,5.98-2.1,5.98-4.213
		C114.965,19.575,114.6,18.724,112.795,17.37z M109.564,14.281c-1.508-0.046-2.939-1.427-3.197-3.406
		c-0.262-1.979,0.748-3.493,2.254-3.447c1.506,0.045,2.797,1.668,3.057,3.646C111.938,13.054,111.07,14.325,109.564,14.281z
		 M108.973,24.548c-2.242,0-3.863-1.42-3.863-3.127c0-1.672,1.9-3.117,4.145-3.092c0.525,0.006,1.012,0.09,1.457,0.234
		c1.217,0.846,2.201,1.375,2.447,2.34c0.047,0.197,0.072,0.398,0.072,0.604C113.23,23.214,112.129,24.548,108.973,24.548z"/>
</g>
<path fill="#FFFFFF" d="M142.797,20.194c1.604,1.217,4.539,0.479,5.809-0.605c1.826-1.568,2.67-4.749,2.4-7.265
	c-0.301-2.816-2.916-5.302-6.006-5.65c-4.756-0.536-9.08,2.397-9.111,7.063c-0.016,2.195,0.688,3.577,2.604,4.338
	c1.307-1.309-0.246-2.159-0.4-3.633c-0.413-3.914,4.207-7.686,8.312-5.247c2.857,1.699,2.371,8.985-1.102,9.686
	c-0.693,0.141-1.562-0.078-1.902-0.402c-1.65-1.561,1.367-4.296,0.399-6.559c-0.84-1.959-3.243-0.391-3.506,1.312
	c-0.142,0.924,0.299,1.814,0.302,2.622c0.006,1.927-1.195,4.545-1.503,6.459c-0.118,0.744-0.225,2.271-0.049,3.052
	c-0.012,0.008-0.021,0.018-0.028,0.024h1.254c0.879-1.5,1.481-3.762,1.928-5.701C142.473,19.483,142.574,20.024,142.797,20.194z"/>
</svg>
