<?xml version="1.0" encoding="utf-8"?>
<!-- Generator: Adobe Illustrator 21.1.0, SVG Export Plug-In . SVG Version: 6.00 Build 0)  -->
<svg version="1.1" id="Laag_1" xmlns="http://www.w3.org/2000/svg" xmlns:xlink="http://www.w3.org/1999/xlink" x="0px" y="0px"
	 width="45px" height="45px" viewBox="0 0 45 45" style="enable-background:new 0 0 45 45;" xml:space="preserve">
<style type="text/css">
	.st0{fill:#FFC900;}
</style>
<g id="ZuhK5u_1_">
	<g>
		<path class="st0" d="M4.2,16.6c0.2-0.4,0.4-0.5,0.5-0.7c0.8-1.3,0.5-2.8-0.6-3.6c-1.2-0.8-2.8-0.6-3.6,0.6
			c-0.9,1.3-0.6,2.6,0.6,3.7C1.6,17,1.9,17.5,2,18c0.9,3.2,1.7,6.5,2.5,9.8c0.3,1.1,0.8,1.6,2,1.6c10.7-0.1,21.4-0.1,32.1-0.1
			c1.1,0,1.7-0.5,2-1.6c0.7-3.1,1.5-6.1,2.4-9.2c0.2-0.8,0.7-1.5,1.3-2.2c0.8-1,1.1-2,0.4-3.1c-0.7-1.1-1.7-1.5-2.9-1.2
			c-1.3,0.4-1.9,1.2-1.8,2.6c0.1,0.7,0.4,1.4,0.7,2.2c-1,1-2.2,2.1-3.3,3.1c-2.2,2.1-5.3,2-7.2-0.4c-1.8-2.2-3.5-4.5-5.1-6.8
			c-0.2-0.3-0.3-1-0.2-1.4c0.5-1.3,0.3-2.5-0.9-3.3c-1-0.7-2.1-0.7-3.1,0.1c-1.1,0.9-1.2,2-0.7,3.2c0.1,0.3,0.2,0.9,0,1.1
			c-1.8,2.5-3.6,5-5.7,7.3c-1.8,2.1-4.7,2.1-6.7,0.3C6.7,19,5.5,17.8,4.2,16.6z M22.5,37.5c4.9,0,9.7,0,14.6,0c3.1,0,3.1,0,3-3
			c0-2.2-0.2-2.4-2.4-2.4c-9.7,0-19.4,0-29.1,0c-4,0-3.5,0.1-3.5,3.5c0,1.8,0.1,2,2,2C12.2,37.5,17.3,37.5,22.5,37.5z"/>
		<path class="st0" d="M4.2,16.6c1.3,1.2,2.4,2.4,3.6,3.5c2,1.8,4.9,1.8,6.7-0.3c2-2.3,3.8-4.9,5.7-7.3c0.2-0.3,0.1-0.8,0-1.1
			c-0.5-1.2-0.4-2.3,0.7-3.2c1-0.8,2.1-0.8,3.1-0.1c1.2,0.8,1.4,2,0.9,3.3c-0.1,0.4-0.1,1.1,0.2,1.4c1.7,2.3,3.3,4.6,5.1,6.8
			c1.9,2.4,5,2.5,7.2,0.4c1.1-1.1,2.2-2.1,3.3-3.1c-0.3-0.9-0.6-1.5-0.7-2.2c-0.1-1.3,0.5-2.2,1.8-2.6c1.3-0.4,2.3,0.1,2.9,1.2
			c0.7,1.1,0.4,2.1-0.4,3.1c-0.5,0.7-1,1.4-1.3,2.2c-0.9,3-1.6,6.1-2.4,9.2c-0.3,1.1-0.8,1.6-2,1.6c-10.7,0-21.4,0.1-32.1,0.1
			c-1.2,0-1.7-0.5-2-1.6C3.7,24.5,2.9,21.3,2,18c-0.1-0.5-0.5-1.1-0.9-1.4c-1.3-1.1-1.5-2.4-0.6-3.7c0.8-1.1,2.4-1.4,3.6-0.6
			c1.1,0.8,1.3,2.3,0.6,3.6C4.6,16.1,4.5,16.3,4.2,16.6z"/>
		<path class="st0" d="M22.5,37.5c-5.2,0-10.3,0-15.5,0c-1.8,0-2-0.1-2-2c0-3.4-0.5-3.5,3.5-3.5c9.7,0,19.4,0,29.1,0
			c2.2,0,2.4,0.2,2.4,2.4c0,3,0,3-3,3C32.2,37.5,27.4,37.5,22.5,37.5z"/>
	</g>
</g>
</svg>
