<?xml version="1.0" encoding="utf-8"?>
<!-- Generator: Adobe Illustrator 21.1.0, SVG Export Plug-In . SVG Version: 6.00 Build 0)  -->
<svg version="1.1" id="Laag_1" xmlns="http://www.w3.org/2000/svg" xmlns:xlink="http://www.w3.org/1999/xlink" x="0px" y="0px"
	 width="45px" height="45px" viewBox="0 0 45 45" style="enable-background:new 0 0 45 45;" xml:space="preserve">
<style type="text/css">
	.st0{fill:#7F0000;}
</style>
<g>
	<path class="st0" d="M18.1,45c-0.3,0-0.5,0-0.8,0c-0.1,0-0.1,0-0.2-0.1c-1.7-0.3-3.1-1.1-3.8-2.6c-1.1-2.1-1.1-4.4-0.3-6.6
		c0.4-1.2,1.1-2.3,1.6-3.5c0.5-1.1,1-2.2,1.3-3.3c0.2-0.5,0.1-1.1,0-1.6c0-0.2-0.1-0.3-0.4-0.3c-0.4,0-0.8,0-1.1,0
		c-3.3,0.1-6.6,0.1-9.9-0.2c-1.1-0.1-2-0.5-2.7-1.3C1,24.7,0.4,23.7,0,22.5c0-0.2,0-0.4,0-0.5c0.3-0.5,0.6-1,1-1.5
		c0.7-0.7,0.7-1.4,0.1-2.2C1.1,18.2,1,18.1,0.9,18c-0.3-0.5-0.6-1.1-0.9-1.6c0-0.1,0-0.3,0-0.4c0.2-0.4,0.5-0.7,0.7-1.1
		c0.2-0.3,0.5-0.6,0.8-0.9c0.5-0.5,0.6-1.1,0.4-1.8c-0.2-0.5-0.4-1-0.6-1.5C0.9,9.9,1,9.3,1.5,8.7C2.1,8.1,2.6,7.5,3.2,7
		c0.4-0.4,0.6-0.8,0.5-1.3c0-0.4,0-0.8,0-1.2c0-0.5,0.1-1,0.5-1.4c1.4-1.8,3.2-3,5.7-3C10.4,0.1,11,0,11.5,0c1.4,0,2.8,0,4.2,0
		c0.1,0,0.2,0,0.3,0.1c0.9,0,1.8,0,2.6,0.1c1.8,0.1,3.6,0.1,5.3,0.4c3.1,0.5,6.1,1.1,9.1,1.6c0.4,0.1,0.5,0.2,0.5,0.6
		c0,5.8,0,11.6,0,17.4c0,0.2,0,0.3,0,0.5c-0.2,0-0.4,0-0.6,0c-0.8-0.1-1.5,0.2-2.1,0.7c-0.3,0.3-0.6,0.6-0.9,0.9
		c-1.5,1.7-2.5,3.7-3.5,5.8c-0.3,0.6-0.6,1.2-0.8,1.9c-0.5,1.4-1.4,2.6-2.7,3.4c-1.8,1.2-2.9,3-3.4,5c-0.5,1.8-0.7,3.7-0.8,5.5
		C18.9,44.5,18.7,44.9,18.1,45z"/>
	<path class="st0" d="M45,20.1c-0.2,0.3-0.3,0.6-0.5,0.9c-0.4,0.5-0.9,0.6-1.5,0.6c-1.8,0-3.6,0-5.4,0c-1.3,0-2-0.7-2-2
		c0-5.6,0-11.2,0-16.8c0-1.2,0.8-1.9,2.1-1.9c1.6,0,3.3,0,4.9,0c1.2,0,2,0.3,2.4,1.4C45,8.3,45,14.2,45,20.1z"/>
</g>
</svg>
