<?xml version="1.0" encoding="utf-8"?>
<!-- Generator: Adobe Illustrator 21.1.0, SVG Export Plug-In . SVG Version: 6.00 Build 0)  -->
<svg version="1.1" id="Laag_1" xmlns="http://www.w3.org/2000/svg" xmlns:xlink="http://www.w3.org/1999/xlink" x="0px" y="0px"
	 width="55px" height="55px" viewBox="0 0 55 55" style="enable-background:new 0 0 55 55;" xml:space="preserve">
<style type="text/css">
	.st0{fill:#9ABC29;}
	.st1{fill:#5D761D;}
</style>
<g id="QvFDSP.tif">
</g>
<g>
	<g>
		<g>
			<path class="st0" d="M48.3,29.2c0-2.3-3.4-2.3-3.4,0C44.8,31.5,48.3,31.5,48.3,29.2z"/>
			<path class="st0" d="M41.4,24.1h9.4c0.5,0,0.9,0.4,0.9,0.9v25.8c0,0.5-0.4,0.9-0.9,0.9l0,0h-8.6c-0.5,0-0.9-0.4-0.9-0.9V24.1z
				 M3.6,25.9c0.2-1.1,1.3-1.8,2.6-1.8h16.2c0.6,0,1.1-0.2,1.3-0.7c0.4-0.5,0.4-1,0.2-1.6l-2.7-8.1c-0.4-1.2-0.6-2.7-0.4-3.9
				c0.4-2.4,1.7-4.6,3.7-6.1c0.5-0.4,1.3,0,1.3,0.7v1.7c0,3.2,1.1,6.4,3.1,8.8L38,26.5v22.4l-2.7,1.2c-2,1-4,1.5-6.1,1.5H8.8
				c-1,0-1.7-0.6-2-1.5c-0.1-0.7,0.2-1.2,0.4-1.3c0.4-0.4,0.9-0.6,1.3-0.6c1,0,1.7-0.7,1.7-1.7c0-1-0.7-1.7-1.7-1.7H7.1
				c-1,0-1.7-0.6-2-1.5C5,42.5,5.4,42,5.5,41.9c0.4-0.4,0.9-0.6,1.3-0.6c1,0,1.7-0.7,1.7-1.7s-0.7-1.7-1.7-1.7H6.1
				c-1.2,0-2.3-0.7-2.7-1.8c-0.2-1.1,0.1-2,0.5-2.3c0.5-0.6,1.2-1,2.1-1c1,0,1.7-0.7,1.7-1.7c0-1-0.7-1.7-1.7-1.7
				c-0.9,0-1.6-0.4-2.1-1C3.7,27.9,3.3,27,3.6,25.9z"/>
		</g>
	</g>
	<g>
		<g>
			<path class="st1" d="M48.3,29.2c0-2.3-3.4-2.3-3.4,0C44.8,31.5,48.3,31.5,48.3,29.2z"/>
			<path class="st1" d="M1.9,30.9c-0.2,0.2-0.4,0.4-0.6,0.6c-1.1,1.5-1.5,3.4-1,5.3c0.4,1.3,1.2,2.6,2.3,3.3c-0.7,1.1-1,2.4-0.7,3.7
				c0.2,1.5,1.1,2.7,2.3,3.5c-0.6,1-0.9,2.2-0.6,3.4C3.9,53.2,6.3,55,8.8,55H29c2.7,0,5.3-0.6,7.7-1.8l1.5-0.7
				c0.6,1.5,2.2,2.6,3.9,2.6h8.6c2.3,0,4.3-2,4.3-4.3V24.9c0-2.3-2-4.3-4.3-4.3H39.6l0,0c-0.5,0-1,0.2-1.3,0.6l-6.7-8.6
				c-1.5-2-2.3-4.3-2.3-6.7V4.3c0-2.3-2-4.3-4.3-4.3l0,0c-1,0-1.8,0.4-2.6,0.9c-2.7,2.1-4.5,5.1-4.9,8.6c-0.2,1.8,0,3.7,0.6,5.4
				l2,5.7H6.1c-2.8,0-5.3,1.8-6,4.4c-0.4,2,0,3.9,1.1,5.4C1.5,30.6,1.6,30.7,1.9,30.9z M41.4,24.1h9.4c0.5,0,0.9,0.4,0.9,0.9v25.8
				c0,0.5-0.4,0.9-0.9,0.9l0,0h-8.6c-0.5,0-0.9-0.4-0.9-0.9V24.1z M3.6,25.9c0.2-1.1,1.3-1.8,2.6-1.8h16.2c0.6,0,1.1-0.2,1.3-0.7
				c0.4-0.5,0.4-1,0.2-1.6l-2.7-8.1c-0.4-1.2-0.6-2.7-0.4-3.9c0.4-2.4,1.7-4.6,3.7-6.1c0.5-0.4,1.3,0,1.3,0.7v1.7
				c0,3.2,1.1,6.4,3.1,8.8L38,26.5v22.4l-2.7,1.2c-2,1-4,1.5-6.1,1.5H8.8c-1,0-1.7-0.6-2-1.5c-0.1-0.7,0.2-1.2,0.4-1.3
				c0.4-0.4,0.9-0.6,1.3-0.6c1,0,1.7-0.7,1.7-1.7c0-1-0.7-1.7-1.7-1.7H7.1c-1,0-1.7-0.6-2-1.5C5,42.5,5.4,42,5.5,41.9
				c0.4-0.4,0.9-0.6,1.3-0.6c1,0,1.7-0.7,1.7-1.7s-0.7-1.7-1.7-1.7H6.1c-1.2,0-2.3-0.7-2.7-1.8c-0.2-1.1,0.1-2,0.5-2.3
				c0.5-0.6,1.2-1,2.1-1c1,0,1.7-0.7,1.7-1.7c0-1-0.7-1.7-1.7-1.7c-0.9,0-1.6-0.4-2.1-1C3.7,27.9,3.3,27,3.6,25.9z"/>
		</g>
	</g>
</g>
</svg>
