<?xml version="1.0" encoding="utf-8"?>
<!-- Generator: Adobe Illustrator 21.1.0, SVG Export Plug-In . SVG Version: 6.00 Build 0)  -->
<svg version="1.1" id="Laag_1" xmlns="http://www.w3.org/2000/svg" xmlns:xlink="http://www.w3.org/1999/xlink" x="0px" y="0px"
	 width="45px" height="44px" viewBox="0 0 45 44" style="enable-background:new 0 0 45 44;" xml:space="preserve">
<style type="text/css">
	.st0{fill:#007F00;}
</style>
<g id="QvFDSP.tif">
</g>
<g>
	<path class="st0" d="M26.9,0c0.3,0,0.5,0,0.8,0c0.1,0,0.1,0,0.2,0.1c1.7,0.3,3.1,1.1,3.8,2.6c1.1,2.1,1.1,4.4,0.3,6.6
		c-0.4,1.2-1.1,2.3-1.6,3.5c-0.5,1.1-1,2.2-1.3,3.3c-0.2,0.5-0.1,1.1,0,1.6c0,0.2,0.1,0.3,0.4,0.3c0.4,0,0.8,0,1.1,0
		c3.3-0.1,6.6-0.1,9.9,0.2c1.1,0.1,2,0.5,2.7,1.3c0.8,0.9,1.5,1.9,1.8,3.1c0,0.2,0,0.4,0,0.5c-0.3,0.5-0.6,1-1,1.5
		c-0.7,0.7-0.7,1.4-0.1,2.2c0.1,0.1,0.2,0.2,0.2,0.4c0.3,0.5,0.6,1.1,0.9,1.6c0,0.1,0,0.3,0,0.4c-0.2,0.4-0.5,0.7-0.7,1.1
		c-0.2,0.3-0.5,0.6-0.8,0.9c-0.5,0.5-0.6,1.1-0.4,1.8c0.2,0.5,0.4,1,0.6,1.5c0.3,0.7,0.2,1.4-0.3,2c-0.5,0.6-1.1,1.1-1.7,1.7
		c-0.4,0.4-0.6,0.8-0.5,1.3c0,0.4,0,0.8,0,1.2c0,0.5-0.1,1-0.5,1.4c-1.4,1.8-3.2,3-5.7,3c-0.6,0-1.1,0.1-1.7,0.1c-1.4,0-2.8,0-4.2,0
		c-0.1,0-0.2,0-0.3-0.1c-0.9,0-1.8,0-2.6-0.1c-1.8-0.1-3.6-0.1-5.3-0.4c-3.1-0.5-6.1-1.1-9.1-1.6c-0.4-0.1-0.5-0.2-0.5-0.6
		c0-5.8,0-11.6,0-17.4c0-0.2,0-0.3,0-0.5c0.2,0,0.4,0,0.6,0c0.8,0.1,1.5-0.2,2.1-0.7c0.3-0.3,0.6-0.6,0.9-0.9
		c1.5-1.7,2.5-3.7,3.5-5.8c0.3-0.6,0.6-1.2,0.8-1.9c0.5-1.4,1.4-2.6,2.7-3.4c1.8-1.2,2.9-3,3.4-5c0.5-1.8,0.7-3.7,0.8-5.5
		C26.1,0.5,26.3,0.1,26.9,0z"/>
	<path class="st0" d="M0,24.9c0.2-0.3,0.3-0.6,0.5-0.9c0.4-0.5,0.9-0.6,1.5-0.6c1.8,0,3.6,0,5.4,0c1.3,0,2,0.7,2,2
		c0,5.6,0,11.2,0,16.8c0,1.2-0.8,1.9-2.1,1.9c-1.6,0-3.3,0-4.9,0c-1.2,0-2-0.3-2.4-1.4C0,36.7,0,30.8,0,24.9z"/>
</g>
</svg>
