<?xml version="1.0" encoding="utf-8"?>
<!-- Generator: Adobe Illustrator 18.0.0, SVG Export Plug-In . SVG Version: 6.00 Build 0)  -->
<!DOCTYPE svg PUBLIC "-//W3C//DTD SVG 1.1//EN" "http://www.w3.org/Graphics/SVG/1.1/DTD/svg11.dtd">
<svg version="1.1" id="Laag_1" xmlns="http://www.w3.org/2000/svg" xmlns:xlink="http://www.w3.org/1999/xlink" x="0px" y="0px"
	 width="218px" height="271px" viewBox="0 0 218 271" enable-background="new 0 0 218 271" xml:space="preserve">
<g>
	<path fill="#B6008D" d="M203.9,100c1.6-1.2,2-8.1,2-8.1c-2.4-51-51.2-52.5-60.6-51.8c1.4,3.2,0.7,6.9-1.2,9.1
		c0,0-8.2,10.6-20.7,1.7l-0.6-0.4c-2-1.6-2.8-3.7-3.9-5.2c-5.8,2-10,2.7-14,5.5c0.4,0.2,2,1.2,2.4,1.5c3.6,2.9,3.1,3.6,2.8,5.1
		c0,0,5.8-0.1,9.6,2.5c5,3.4,4.1,11.3,1.5,14.3c0,0-5.6,15.4-18,6.6L98.5,79c-3.7-2.9-8.2-5.3-9.1-8c-0.8,1.5,1-1.1,0.4,0.5
		c-0.1,0.9-2.1,4.1-2.7,12.5c0.1,0,1.7,0,1.8,0c8,5.5,6.3,18.8,2.2,23.8c0.5,1.6-0.6,2.4,0.1,4c4.8,15.8,12.5,29.2,15.1,33.9
		c7.7,13.7-6.9,32.7-11.3,41.6c-4.4,8.9-17.4,17.8-17.4,17.8c1.3,4.7-2.4,7.7,44.5,7.7c46.9,0,76.8,58.2,76.8,58.2
		s-19.4-40-31.5-54.2c-12.1-14.1-0.8-33.6,1.2-36c2-2.4,2-2.4,9.1-2.9c7.1-0.5,24.4,0.5,27.2-3.2c2.8-3.6,1.6-11.3,0.8-13.3
		c-0.8-2,0.4-2.4,1.2-5.3c0.5-1.7,1.8-2.8,2.6-3.7c0-0.1,0.1-0.1,0.1-0.2c0.3-0.4,0.7-0.9,0.7-0.9c-0.6-2.7-1.8-2.9-1.8-2.9
		c1.3-0.5,1.9-1.8,2-2l0,0c0,0-0.1-0.1-0.2-0.3c-0.1-0.2-0.3-0.5-0.5-0.9c-0.2-0.5-0.5-1.1-0.9-2c0,0,0,0,0,0l0,0
		c-0.1-0.4-0.3-0.8-0.5-1.3c-1.6-5.3,2.8-7.7,5.3-8.5c2.4-0.8,4-4.4,4-4.4s-12.1-23-13.7-25.1C202.6,102,203.9,100,203.9,100
		L203.9,100z M122.5,107.4c0,0-4.6,7.3-11.1,2.7l-3.5-1c-6.3-4.9-3.8-13.8-3.8-13.8c1.1-1.7,5.5-5,8-3c1.9,1.5,4.3,3,4.2,3.8
		c0,0,3.3,1.7,5.2,3C124.2,100.8,123.9,105.8,122.5,107.4L122.5,107.4z M159.6,103.6c0,0-17.1-1-28.5-9.1l-4.8-3
		c-11-8.6-0.6-21.3-0.6-21.3c2-3,10.3-3.4,14.5,0c3.3,2.6,3.4,4.7,3.2,6.1c0,0,4.2-1.2,7.6,1.1C155.5,80.5,161.9,100.8,159.6,103.6
		L159.6,103.6z"/>
	<path fill="#E5007E" d="M94.7,20.1c0.2-1.4,0.3-4.7-3.1-7.3C87.2,9.2,82,11.8,80,14.9c0,0-6.5,9.6,4.8,18.5l0,0
		c11.7,8.3,19.1-0.7,19.1-0.7c2.4-2.8,3.4-8.5-1.3-11.8C99.2,18.5,94.7,20.1,94.7,20.1L94.7,20.1z"/>
	<path fill="#F7323F" d="M57.9,5.9c0.1-0.9,0.2-3-2-4.8c-2.9-2.3-6.2-0.6-7.6,1.4c0,0-4.2,6.3,3.1,12l0,0c7.6,5.4,12.4-0.4,12.4-0.4
		c1.6-1.8,2.2-5.5-0.8-7.7C60.8,4.9,57.9,5.9,57.9,5.9L57.9,5.9z"/>
	<path fill="#B6008D" d="M53.2,39c0.3-2,0.4-6.6-4.4-10.4c-6.3-5-13.6-1.3-16.5,3.1c0,0-9.2,13.7,6.9,26.2l0.1,0
		C55.8,69.8,66.3,57,66.3,57c3.4-4,4.8-12.1-1.8-16.7C59.5,36.8,53.2,39,53.2,39L53.2,39z"/>
	<path fill="#F19DC3" d="M14.2,76.7c0.2-1.2,0.2-4-2.7-6.3c-3.8-3-8.2-0.8-9.9,1.9c0,0-5.5,8.2,4.1,15.7l0,0
		c10,7.1,16.3-0.6,16.3-0.6c2-2.4,2.9-7.3-1.1-10C17.9,75.4,14.2,76.7,14.2,76.7L14.2,76.7z"/>
	<path fill="#F7323F" d="M49,81.9c0.1-1,0.2-3.2-2.1-5c-3-2.4-6.6-0.6-7.9,1.5c0,0-4.4,6.6,3.3,12.6l0,0c8,5.7,13-0.4,13-0.4
		c1.6-1.9,2.3-5.8-0.9-8C52,80.8,49,81.9,49,81.9L49,81.9z"/>
	<path fill="#F7323F" d="M43.3,117.3c0.2-1.3,0.2-4.4-3-7c-4.2-3.4-9.2-0.9-11.1,2.1c0,0-6.2,9.2,4.6,17.6l0,0
		c11.2,8,18.2-0.6,18.2-0.6c2.3-2.7,3.3-8.2-1.2-11.2C47.5,115.8,43.3,117.3,43.3,117.3L43.3,117.3z"/>
	<path fill="#F7323F" d="M177.2,126.5l-0.1-0.2l-0.2-0.3l-6.7-7.9c-4.4-4.8-0.6-13.9-0.6-13.9c13.1-36.9-15.4-54-23.9-58.3
		c-0.4,1.3-1,2.5-1.7,3.4c0,0-7.8,9.6-20.3,0.7l0,0c-4.5-3.5-6.3-7.1-6.9-10.2c-17.3,0.6-30.6,7.7-30.6,7.7
		c-1.8,1.3-3.5,2.5-5.1,3.8c3.5,3.5,2.4,8.7,0.1,11.5c0,0-5.3,6.4-14,3.8c-0.7,1.2-1.4,2.3-2,3.5c1,0.5,2,1.1,3,1.9
		c5.9,4.7,5.9,10.5,5.5,12.9c0,0,7.8-2.7,14,1.6c8.2,5.7,6.4,15.7,2.2,20.7c0,0-9.8,12-26,5.4c0.5,4.8,1.7,7.7,2,8.3
		c5.7,13.6,13.7,24.4,16,28.8c6,11.4-2.6,22.4-2.6,22.4c14.7,4.3,40,24.3,40,24.3c6-24.6,16.8-24.3,16.8-24.3
		c12-0.2,23.5-3.6,29.5-6.3c6-2.6,1-11,1.5-12.3c0.5-1.3,3.9-3.2,4.2-4.4c0.3-1.2-2-3.2-0.6-3.7c1.4-0.5,3.6-2.3,2.2-5.3
		c-1.4-3-0.5-6.7-0.5-6.7c2.6-1.3,4.2-4.6,4.8-6.1c0-0.1,0.1-0.2,0.1-0.3C177.2,126.7,177.2,126.5,177.2,126.5L177.2,126.5z
		 M119,74.7c0,0-7.8,9.6-20.3,0.7l0,0c-12.1-9.4-5.2-19.7-5.2-19.7c2.2-3.3,7.7-6.1,12.4-2.3c3.6,2.9,3.5,6.3,3.3,7.8
		c0,0,4.7-1.6,8.5,0.9C122.6,65.6,121.5,71.7,119,74.7L119,74.7z M120.1,106.5c0,0-4.1,5-10.6,0.4l0,0c-6.3-4.9-2.7-10.2-2.7-10.2
		c1.1-1.7,4-3.2,6.5-1.2c1.9,1.5,1.8,3.3,1.7,4.1c0,0,2.5-0.9,4.4,0.5C122,101.8,121.4,104.9,120.1,106.5L120.1,106.5z M149.9,90.5
		c0,0-7.1,8.7-18.5,0.6l0,0c-11-8.6-4.7-17.9-4.7-17.9c2-3,7-5.5,11.3-2.1c3.3,2.6,3.2,5.7,3,7.1c0,0,4.3-1.5,7.7,0.9
		C153.2,82.3,152.2,87.8,149.9,90.5L149.9,90.5z"/>
</g>
</svg>
