<?xml version="1.0" encoding="utf-8"?>
<!-- Generator: Adobe Illustrator 21.0.2, SVG Export Plug-In . SVG Version: 6.00 Build 0)  -->
<svg version="1.1" id="Laag_1" xmlns="http://www.w3.org/2000/svg" xmlns:xlink="http://www.w3.org/1999/xlink" x="0px" y="0px"
	 viewBox="0 0 1005 211.1" style="enable-background:new 0 0 1005 211.1;" xml:space="preserve">
<style type="text/css">
	.st0{fill:none;}
	.st1{enable-background:new    ;}
	.st2{fill:#E63329;}
	.st3{fill:none;stroke:#E63329;stroke-width:0.5;stroke-miterlimit:10;}
	.st4{fill:#B11280;}
	.st5{fill:#E6007E;}
	.st6{fill:#F29FC5;}
</style>
<g>
	<g>
		<rect x="203.3" y="55.4" class="st0" width="35.3" height="58.1"/>
	</g>
	<g class="st1">
		<path class="st2" d="M231.6,69.6c-0.7-1.1-1.6-2-2.6-2.7s-2.1-1.3-3.3-1.7c-1.1-0.4-2.4-0.6-3.7-0.6c-2.4,0-4.4,0.4-6.1,1.4
			c-1.7,0.9-3.1,2.1-4.1,3.6c-1.1,1.4-1.8,3.1-2.4,5s-0.7,3.8-0.7,5.7c0,2,0.3,3.8,0.7,5.7c0.6,1.8,1.3,3.6,2.4,5.1
			c1.1,1.4,2.4,2.7,4.1,3.6c1.7,0.9,3.7,1.4,6.1,1.4c1.7,0,3.1-0.3,4.5-0.9c1.3-0.6,2.4-1.4,3.4-2.4c1-1,1.7-2.3,2.4-3.7
			c0.6-1.4,1-2.8,1.1-4.4h3.4c-0.3,2.1-0.7,4.1-1.6,6c-0.9,1.7-1.8,3.3-3.1,4.5c-1.3,1.3-2.7,2.1-4.5,2.8c-1.7,0.7-3.7,1-5.7,1
			c-2.8,0-5.3-0.6-7.4-1.6s-3.8-2.4-5.3-4.1c-1.4-1.7-2.4-3.7-3.1-6c-0.7-2.3-1-4.5-1-7.1c0-2.6,0.3-4.8,1-7.1
			c0.7-2.3,1.7-4.3,3.1-6c1.4-1.7,3.1-3.1,5.3-4.1c2.1-1,4.5-1.6,7.4-1.6c1.7,0,3.4,0.3,5,0.7c1.6,0.6,3.1,1.3,4.4,2.3
			c1.3,1,2.4,2.1,3.3,3.7c0.9,1.4,1.4,3.1,1.7,5H233C232.7,72,232.3,70.7,231.6,69.6z"/>
	</g>
	<g>
		<rect x="203" y="55" class="st0" width="36" height="58.9"/>
	</g>
	<g class="st1">
		<path class="st3" d="M231.2,69.3c-0.7-1.1-1.6-2-2.6-2.7c-1-0.7-2.1-1.3-3.3-1.7c-1.1-0.4-2.4-0.6-3.7-0.6c-2.4,0-4.4,0.4-6.1,1.4
			c-1.7,0.9-3.1,2.1-4.1,3.6c-1.1,1.4-1.8,3.1-2.4,5c-0.6,1.8-0.7,3.8-0.7,5.7c0,2,0.3,3.8,0.7,5.7c0.6,1.8,1.3,3.6,2.4,5.1
			c1.1,1.4,2.4,2.7,4.1,3.6c1.7,0.9,3.7,1.4,6.1,1.4c1.7,0,3.1-0.3,4.5-0.9c1.3-0.6,2.4-1.4,3.4-2.4s1.7-2.3,2.4-3.7
			c0.6-1.4,1-2.8,1.1-4.4h3.4c-0.3,2.1-0.7,4.1-1.6,6c-0.9,1.7-1.8,3.3-3.1,4.5c-1.3,1.3-2.7,2.1-4.5,2.8c-1.7,0.7-3.7,1-5.7,1
			c-2.8,0-5.3-0.6-7.4-1.6s-3.8-2.4-5.3-4.1c-1.4-1.7-2.4-3.7-3.1-6c-0.7-2.3-1-4.5-1-7.1c0-2.6,0.3-4.8,1-7.1
			c0.7-2.3,1.7-4.3,3.1-6c1.4-1.7,3.1-3.1,5.3-4.1c2.1-1,4.5-1.6,7.4-1.6c1.7,0,3.4,0.3,5,0.7c1.6,0.6,3.1,1.3,4.4,2.3
			c1.3,1,2.4,2.1,3.3,3.7c0.9,1.4,1.4,3.1,1.7,5h-3.4C232.5,71.6,231.9,70.3,231.2,69.3z"/>
	</g>
	<g>
		<rect x="238.6" y="55.4" class="st0" width="274.4" height="58.1"/>
	</g>
	<g class="st1">
		<path class="st4" d="M243.8,89.6c0.3,1.3,0.9,2.3,1.6,3.3c0.7,1,1.6,1.7,2.7,2.4c1.1,0.6,2.4,1,3.8,1c2.3,0,4.1-0.6,5.4-1.8
			s2.1-2.8,2.7-4.8h3.1c-0.7,3-1.8,5.3-3.7,6.8c-1.8,1.6-4.3,2.4-7.5,2.4c-2,0-3.8-0.4-5.3-1.1s-2.7-1.7-3.7-3
			c-1-1.3-1.6-2.7-2.1-4.4c-0.4-1.7-0.7-3.4-0.7-5.3c0-1.7,0.3-3.4,0.7-5c0.4-1.6,1.1-3.1,2.1-4.4c1-1.3,2.1-2.3,3.7-3.1
			c1.4-0.9,3.3-1.1,5.3-1.1c2.1,0,3.8,0.4,5.3,1.3c1.4,0.9,2.7,2,3.6,3.3c0.9,1.4,1.6,2.8,2,4.7s0.6,3.6,0.6,5.3h-19.9
			C243.4,87.4,243.5,88.5,243.8,89.6z M259.5,80.1c-0.4-1.1-1-2.1-1.6-3c-0.7-0.9-1.6-1.6-2.6-2c-1-0.6-2.1-0.7-3.4-0.7
			c-1.3,0-2.4,0.3-3.4,0.7c-1,0.6-1.8,1.1-2.6,2c-0.7,0.9-1.3,1.8-1.7,3c-0.4,1.1-0.7,2.3-0.9,3.4h16.8
			C260,82.4,259.9,81.1,259.5,80.1z"/>
		<path class="st4" d="M270.7,72.4v4.4h0.1c0.6-1.6,1.7-2.8,3.3-3.8c1.6-1,3.3-1.4,5.1-1.4s3.3,0.3,4.5,0.7c1.3,0.4,2.1,1.1,3,2
			c0.7,0.9,1.3,1.8,1.6,3.1s0.4,2.6,0.4,4.1v16.6h-3.1V82.1c0-1.1-0.1-2.1-0.3-3.1c-0.1-1-0.6-1.7-1-2.4c-0.6-0.7-1.1-1.3-2-1.7
			c-0.9-0.4-1.8-0.6-3.1-0.6c-1.3,0-2.4,0.3-3.4,0.7c-1,0.4-1.8,1.1-2.6,1.8c-0.7,0.9-1.3,1.7-1.6,2.8c-0.4,1.1-0.6,2.3-0.6,3.6
			v15.1H268V72.4H270.7z"/>
		<path class="st4" d="M304.7,72.4v2.7h-5.3v17.3c0,1,0.1,1.8,0.4,2.4c0.3,0.6,1,0.9,2.1,1c0.9,0,1.8,0,2.7-0.1v2.7
			c-0.4,0-1,0-1.4,0c-0.4,0-1,0-1.4,0c-2.1,0-3.6-0.4-4.4-1.3c-0.9-0.9-1.3-2.3-1.1-4.5V75h-4.5v-2.7h4.5v-7.7h3.1v7.8H304.7z"/>
		<path class="st4" d="M312.1,72.4v6.1h0.1c0.9-2.1,2-3.7,3.7-4.8c1.7-1.1,3.7-1.7,6-1.6v3.1c-1.4,0-2.7,0.1-3.8,0.6
			c-1.1,0.4-2.1,1.1-3,2c-0.9,0.9-1.6,1.8-2,3c-0.4,1.1-0.7,2.4-0.7,3.8v13.8h-3.1v-26H312.1z"/>
		<path class="st4" d="M342.9,98.2v-4.7h-0.1c-0.9,1.7-2,3.1-3.7,4c-1.6,0.9-3.4,1.4-5.3,1.4c-1.6,0-3-0.3-4.1-0.7
			c-1.1-0.4-2.1-1.1-2.8-2c-0.7-0.9-1.3-1.8-1.6-3c-0.3-1.1-0.6-2.6-0.6-4.1V72.4h3.1v16.8c0,2.3,0.6,4.1,1.6,5.3
			c1,1.1,2.8,1.8,5.3,1.8c1.4,0,2.6-0.3,3.6-0.9c1-0.6,1.7-1.4,2.4-2.3c0.6-1,1.1-2.1,1.4-3.3s0.4-2.6,0.4-3.8V72.6h3.1v25.9h-2.7
			V98.2z"/>
		<path class="st4" d="M354.7,72.4v4.4h0.1c0.9-1.6,2-2.8,3.3-3.7c1.4-0.9,3.1-1.4,5.1-1.4c1.7,0,3.3,0.4,4.7,1.3
			c1.4,0.9,2.3,2.1,2.8,3.8c0.7-1.7,1.8-3,3.4-3.8c1.6-0.9,3.1-1.3,4.8-1.3c5.7,0,8.5,3,8.5,9.1v17.5h-3.1V80.8
			c0-2.1-0.4-3.7-1.4-4.8c-0.9-1.1-2.4-1.7-4.7-1.7c-1.4,0-2.6,0.3-3.4,0.7c-0.9,0.6-1.6,1.3-2.1,2.1c-0.6,0.9-0.9,1.8-1.1,3
			c-0.3,1.1-0.3,2.3-0.3,3.4v14.6h-3.1V80.7c0-0.9-0.1-1.7-0.3-2.4c-0.1-0.9-0.4-1.4-0.9-2c-0.4-0.6-1-1-1.7-1.4
			c-0.7-0.3-1.6-0.6-2.6-0.6c-1.3,0-2.6,0.3-3.4,0.7c-1,0.4-1.8,1.1-2.4,2c-0.6,0.9-1.1,1.8-1.4,3c-0.3,1.1-0.4,2.4-0.4,3.8v14.4
			H352V72.4H354.7z"/>
		<path class="st4" d="M408,72.4l8.1,22.6h0.1l8-22.6h3.3l-9.7,25.9h-3.4l-10-25.9H408z"/>
		<path class="st4" d="M446.7,72.7c1.6,0.7,2.8,1.7,3.8,3c1,1.3,1.8,2.7,2.4,4.3c0.6,1.7,0.9,3.4,0.9,5.3c0,1.8-0.3,3.7-0.9,5.3
			c-0.6,1.7-1.3,3.1-2.4,4.3c-1.1,1.1-2.3,2.3-3.8,3c-1.6,0.7-3.3,1.1-5.3,1.1c-2,0-3.7-0.4-5.3-1.1c-1.6-0.7-2.8-1.7-3.8-3
			c-1-1.3-1.8-2.7-2.4-4.3c-0.6-1.7-0.9-3.4-0.9-5.3c0-1.8,0.3-3.7,0.9-5.3c0.6-1.7,1.3-3.1,2.4-4.3c1-1.3,2.3-2.3,3.8-3
			c1.6-0.7,3.3-1.1,5.3-1.1C443.4,71.7,445.1,72,446.7,72.7z M437.6,75.3c-1.1,0.6-2.1,1.4-2.8,2.6c-0.7,1-1.3,2.3-1.7,3.6
			c-0.4,1.3-0.6,2.7-0.6,4c0,1.4,0.1,2.7,0.6,4c0.4,1.3,1,2.6,1.7,3.6c0.7,1,1.7,1.8,2.8,2.6c1.1,0.6,2.4,1,4,1c1.6,0,2.8-0.3,4-1
			c1.1-0.6,2.1-1.4,2.8-2.6c0.7-1,1.3-2.3,1.7-3.6c0.4-1.3,0.6-2.7,0.6-4c0-1.4-0.1-2.7-0.6-4c-0.4-1.3-1-2.6-1.7-3.6
			c-0.7-1-1.7-1.8-2.8-2.6c-1.1-0.6-2.4-1-4-1C440,74.3,438.6,74.6,437.6,75.3z"/>
		<path class="st4" d="M474.6,72.7c1.6,0.7,2.8,1.7,3.8,3c1,1.3,1.8,2.7,2.4,4.3c0.6,1.7,0.9,3.4,0.9,5.3c0,1.8-0.3,3.7-0.9,5.3
			c-0.6,1.7-1.3,3.1-2.4,4.3c-1,1.3-2.3,2.3-3.8,3c-1.6,0.7-3.3,1.1-5.3,1.1c-2,0-3.7-0.4-5.3-1.1c-1.6-0.7-2.8-1.7-3.8-3
			c-1-1.3-1.8-2.7-2.4-4.3c-0.6-1.7-0.9-3.4-0.9-5.3c0-1.8,0.3-3.7,0.9-5.3c0.6-1.7,1.3-3.1,2.4-4.3c1-1.3,2.3-2.3,3.8-3
			c1.6-0.7,3.3-1.1,5.3-1.1C471.3,71.6,473,72,474.6,72.7z M465.3,75.3c-1.1,0.6-2.1,1.4-2.8,2.6c-0.7,1-1.3,2.3-1.7,3.6
			c-0.4,1.3-0.6,2.7-0.6,4c0,1.4,0.1,2.7,0.6,4s1,2.6,1.7,3.6c0.7,1,1.7,1.8,2.8,2.6c1.1,0.6,2.4,1,4,1c1.6,0,2.8-0.3,4-1
			c1.1-0.6,2.1-1.4,2.8-2.6c0.7-1,1.3-2.3,1.7-3.6c0.4-1.3,0.6-2.7,0.6-4c0-1.4-0.1-2.7-0.6-4c-0.4-1.3-1-2.6-1.7-3.6
			s-1.7-1.8-2.8-2.6c-1.1-0.6-2.4-1-4-1S466.5,74.6,465.3,75.3z"/>
		<path class="st4" d="M489.1,72.4v6.1h0.1c0.9-2.1,2-3.7,3.7-4.8c1.7-1.1,3.7-1.7,6-1.6v3.1c-1.4,0-2.7,0.1-3.8,0.6
			c-1.1,0.4-2.1,1.1-3,2c-0.9,0.9-1.6,1.8-2,3c-0.4,1.1-0.7,2.4-0.7,3.8v13.8h-3.1v-26H489.1z"/>
	</g>
	<g>
		<rect x="512.7" y="55.4" class="st0" width="32.1" height="58.1"/>
	</g>
	<g class="st1">
		<path class="st2" d="M530.5,62.5l14.1,35.7h-3.7l-4.4-11.1h-16.2L516,98.2h-3.6l14.4-35.7H530.5z M535.3,84.2l-7-18.3l-7.1,18.3
			H535.3z"/>
	</g>
	<g>
		<rect x="512" y="55" class="st0" width="33.6" height="58.9"/>
	</g>
	<g class="st1">
		<path class="st3" d="M529.7,62.2l14.1,35.7h-3.7l-4.4-11.1h-16.2l-4.3,11.1h-3.7l14.4-35.7H529.7z M534.6,83.8l-7-18.3l-7.1,18.3
			H534.6z"/>
	</g>
	<g>
		<rect x="544.4" y="55.4" class="st0" width="200.2" height="58.1"/>
	</g>
	<g class="st1">
		<path class="st4" d="M550.4,72.4v4.4h0.1c0.9-1.6,2-2.8,3.3-3.7c1.4-0.9,3.1-1.4,5.1-1.4c1.7,0,3.3,0.4,4.7,1.3
			c1.4,0.9,2.3,2.1,2.8,3.8c0.7-1.7,1.8-3,3.4-3.8c1.6-0.9,3.1-1.3,4.8-1.3c5.7,0,8.5,3,8.5,9.1v17.5h-3.1V80.8
			c0-2.1-0.4-3.7-1.4-4.8c-0.9-1.1-2.4-1.7-4.7-1.7c-1.4,0-2.6,0.3-3.4,0.7c-0.9,0.6-1.6,1.3-2.1,2.1c-0.6,0.9-0.9,1.8-1.1,3
			c-0.3,1.1-0.3,2.3-0.3,3.4v14.6h-3.1V80.7c0-0.9-0.1-1.7-0.3-2.4c-0.1-0.9-0.4-1.4-0.9-2c-0.4-0.6-1-1-1.7-1.4
			c-0.7-0.3-1.6-0.6-2.6-0.6c-1.3,0-2.6,0.3-3.4,0.7c-1,0.4-1.8,1.1-2.4,2c-0.6,0.9-1.1,1.8-1.4,3c-0.3,1.1-0.4,2.4-0.4,3.8v14.4
			h-3.1V72.4H550.4z"/>
		<path class="st4" d="M592.3,62.5v14.8h0.1c0.3-1,0.9-1.7,1.4-2.4c0.6-0.7,1.3-1.3,2.1-1.7c0.9-0.4,1.7-0.9,2.6-1.1
			c1-0.3,1.8-0.3,2.8-0.3c2,0,3.7,0.4,5.1,1.1s2.7,1.7,3.7,3c1,1.3,1.7,2.7,2.1,4.4s0.7,3.4,0.7,5.3s-0.3,3.6-0.7,5.3
			s-1.1,3.1-2.1,4.4c-1,1.3-2.1,2.3-3.7,3c-1.4,0.7-3.1,1.1-5.1,1.1c-2.1,0-4-0.4-5.7-1.4c-1.7-1-2.8-2.4-3.6-4.1H592v4.8h-2.8V62.5
			H592.3z M609.2,81.4c-0.3-1.3-0.9-2.6-1.6-3.6s-1.6-1.8-2.6-2.6c-1.1-0.7-2.4-1-3.8-1c-1.7,0-3.1,0.3-4.3,1
			c-1.1,0.7-2.1,1.4-2.8,2.6c-0.7,1-1.3,2.3-1.6,3.6s-0.4,2.7-0.4,4s0.1,2.7,0.4,4c0.3,1.3,0.9,2.6,1.6,3.6s1.7,1.8,2.8,2.6
			c1.1,0.7,2.6,1,4.3,1c1.6,0,2.8-0.3,3.8-1c1.1-0.7,2-1.4,2.6-2.6c0.7-1,1.1-2.3,1.6-3.6c0.3-1.3,0.4-2.7,0.4-4
			C609.8,84,609.6,82.7,609.2,81.4z"/>
		<path class="st4" d="M635.8,98.2v-4.7h-0.1c-0.9,1.7-2,3.1-3.7,4c-1.6,0.9-3.4,1.4-5.3,1.4c-1.6,0-3-0.3-4.1-0.7
			c-1.1-0.4-2.1-1.1-2.8-2c-0.7-0.9-1.3-1.8-1.6-3c-0.3-1.1-0.6-2.6-0.6-4.1V72.4h3.1v16.8c0,2.3,0.6,4.1,1.6,5.3
			c1,1.1,2.8,1.8,5.3,1.8c1.4,0,2.6-0.3,3.6-0.9s1.7-1.4,2.4-2.3c0.6-1,1.1-2.1,1.4-3.3s0.4-2.6,0.4-3.8V72.6h3.1v25.9h-2.7V98.2z"
			/>
		<path class="st4" d="M647.9,62.5v35.7h-3.1V62.5H647.9z"/>
		<path class="st4" d="M654.6,76.4c0.6-1.1,1.3-2,2.1-2.7c0.9-0.7,2-1.3,3.3-1.6c1.3-0.3,2.6-0.6,4.1-0.6c1.1,0,2.3,0.1,3.4,0.3
			c1.1,0.3,2.1,0.6,3,1.3c0.9,0.6,1.6,1.4,2.1,2.6s0.9,2.6,0.9,4.3v13.6c0,1.3,0.6,1.8,1.8,1.8c0.4,0,0.7,0,1-0.1V98
			c-0.4,0-0.7,0.1-1,0.1s-0.7,0-1.1,0c-0.9,0-1.4-0.1-2-0.3s-0.9-0.6-1.1-1s-0.4-0.9-0.6-1.4c-0.1-0.6-0.1-1.1-0.1-1.8h-0.1
			c-0.6,0.9-1.1,1.6-1.7,2.3c-0.6,0.7-1.3,1.1-2,1.6c-0.7,0.4-1.6,0.7-2.4,1c-0.9,0.3-2,0.3-3.3,0.3c-1.1,0-2.3-0.1-3.4-0.4
			c-1.1-0.3-2-0.7-2.7-1.4c-0.9-0.6-1.4-1.4-1.8-2.4c-0.4-1-0.7-2.1-0.7-3.4c0-1.8,0.4-3.3,1.1-4.3s1.8-1.8,3.1-2.3
			c1.3-0.6,2.8-0.9,4.4-1.1c1.7-0.3,3.3-0.4,5-0.6c0.7,0,1.3-0.1,1.7-0.3c0.6-0.1,0.9-0.3,1.3-0.6c0.3-0.3,0.6-0.6,0.7-1
			c0.1-0.4,0.3-1,0.3-1.7c0-1.1-0.1-2-0.6-2.6c-0.3-0.7-0.9-1.3-1.4-1.6c-0.6-0.4-1.3-0.7-2.1-0.9c-0.9-0.1-1.7-0.3-2.6-0.3
			c-2,0-3.7,0.4-4.8,1.4c-1.3,1-2,2.4-2,4.5h-3.1C653.7,78.8,654,77.6,654.6,76.4z M670.4,84.1c-0.1,0.4-0.6,0.6-1.1,0.9
			c-0.6,0.1-1.1,0.3-1.6,0.3c-1.3,0.3-2.7,0.4-4.1,0.6c-1.4,0.1-2.7,0.4-3.8,0.9c-1.1,0.4-2.1,0.9-2.8,1.6s-1.1,1.7-1.1,3
			c0,0.9,0.1,1.6,0.4,2.1s0.7,1.1,1.3,1.6c0.6,0.4,1.1,0.9,1.8,1c0.7,0.3,1.4,0.3,2.1,0.3c1.1,0,2.4-0.1,3.4-0.6
			c1.1-0.4,2-0.9,2.8-1.6c0.9-0.7,1.4-1.6,2-2.6c0.4-1,0.7-2.1,0.7-3.4L670.4,84.1L670.4,84.1z"/>
		<path class="st4" d="M683,72.4v4.4h0.1c0.6-1.6,1.7-2.8,3.3-3.8c1.6-1,3.3-1.4,5.1-1.4c1.8,0,3.3,0.3,4.5,0.7c1.3,0.4,2.1,1.1,3,2
			c0.7,0.9,1.3,1.8,1.6,3.1c0.3,1.3,0.4,2.6,0.4,4.1v16.6h-3.1V82.1c0-1.1-0.1-2.1-0.3-3.1c-0.1-1-0.6-1.7-1-2.4
			c-0.6-0.7-1.1-1.3-2-1.7c-0.9-0.4-1.8-0.6-3.1-0.6s-2.4,0.3-3.4,0.7c-1,0.4-1.8,1.1-2.6,1.8c-0.7,0.9-1.3,1.7-1.6,2.8
			c-0.4,1.1-0.6,2.3-0.6,3.6v15.1h-3.1V72.4H683z"/>
		<path class="st4" d="M717,72.4v2.7h-5.3v17.3c0,1,0.1,1.8,0.4,2.4c0.3,0.6,1,0.9,2.1,1c0.9,0,1.8,0,2.7-0.1v2.7c-0.4,0-1,0-1.4,0
			s-1,0-1.4,0c-2.1,0-3.6-0.4-4.4-1.3c-0.9-0.9-1.3-2.3-1.1-4.5V75H704v-2.7h4.5v-7.7h3.1v7.8H717z"/>
		<path class="st4" d="M724,89.6c0.3,1.3,0.9,2.3,1.6,3.3c0.7,1,1.6,1.7,2.7,2.4c1.1,0.6,2.4,1,3.8,1c2.3,0,4.1-0.6,5.4-1.8
			c1.3-1.3,2.1-2.8,2.7-4.8h3.1c-0.7,3-1.8,5.3-3.7,6.8c-1.8,1.6-4.3,2.4-7.5,2.4c-2,0-3.8-0.4-5.3-1.1s-2.7-1.7-3.7-3
			c-1-1.3-1.6-2.7-2.1-4.4c-0.4-1.7-0.7-3.4-0.7-5.3c0-1.7,0.3-3.4,0.7-5c0.4-1.6,1.1-3.1,2.1-4.4c1-1.3,2.1-2.3,3.7-3.1
			c1.4-0.9,3.3-1.1,5.3-1.1c2.1,0,3.8,0.4,5.3,1.3c1.4,0.9,2.7,2,3.6,3.3c0.9,1.4,1.6,2.8,2,4.7s0.6,3.6,0.6,5.3h-19.9
			C723.4,87.4,723.5,88.5,724,89.6z M739.4,80.1c-0.4-1.1-1-2.1-1.6-3c-0.7-0.9-1.6-1.6-2.6-2c-1-0.6-2.1-0.7-3.4-0.7
			s-2.4,0.3-3.4,0.7c-1,0.6-1.8,1.1-2.6,2c-0.7,0.9-1.3,1.8-1.7,3c-0.4,1.1-0.7,2.3-0.9,3.4h16.8C740.2,82.4,739.9,81.1,739.4,80.1z
			"/>
	</g>
	<g>
		<rect x="758.5" y="55.4" class="st0" width="37.1" height="58.1"/>
	</g>
	<g class="st1">
		<path class="st2" d="M790.1,98.2l-0.4-6.5h-0.1c-0.6,1.3-1.3,2.4-2.3,3.3c-0.9,0.9-1.8,1.7-3,2.3c-1.1,0.6-2.3,1-3.4,1.3
			c-1.3,0.3-2.4,0.4-3.8,0.4c-2.8,0-5.3-0.6-7.4-1.6c-2.1-1-3.8-2.4-5.3-4.1c-1.4-1.7-2.4-3.7-3.1-6s-1-4.5-1-7.1
			c0-2.6,0.3-4.8,1-7.1s1.7-4.3,3.1-6c1.4-1.7,3.1-3.1,5.3-4.1c2.1-1,4.5-1.6,7.4-1.6c1.8,0,3.7,0.3,5.3,0.7
			c1.7,0.6,3.1,1.3,4.4,2.3c1.3,1,2.4,2.3,3.3,3.7c0.9,1.4,1.6,3.1,1.8,5.1h-3c-0.1-1-0.4-2.1-1-3.1s-1.4-2-2.4-2.8
			c-1-0.9-2.1-1.6-3.6-2.1s-2.8-0.9-4.5-0.9c-2.4,0-4.4,0.4-6.1,1.4c-1.7,1-3.1,2.1-4.1,3.6c-1.1,1.4-1.8,3.1-2.4,5
			s-0.7,3.8-0.7,5.7c0,2,0.3,3.8,0.7,5.7c0.6,1.8,1.3,3.6,2.4,5.1c1.1,1.4,2.4,2.7,4.1,3.6c1.7,0.9,3.7,1.4,6.1,1.4
			c2,0,3.7-0.3,5.3-1c1.6-0.7,2.8-1.6,4-2.7s1.8-2.6,2.4-4.1s0.9-3.4,0.7-5.3h-12.2v-2.8h15.2v18.2h-2.6V98.2z"/>
	</g>
	<g>
		<rect x="758.1" y="55" class="st0" width="37.8" height="58.9"/>
	</g>
	<g class="st1">
		<path class="st3" d="M789.8,97.9l-0.4-6.5h-0.1c-0.6,1.3-1.3,2.4-2.3,3.3c-0.9,0.9-1.8,1.7-3,2.3c-1.1,0.6-2.3,1-3.4,1.3
			c-1.3,0.3-2.4,0.4-3.8,0.4c-2.8,0-5.3-0.6-7.4-1.6c-2.1-1-3.8-2.4-5.3-4.1c-1.4-1.7-2.4-3.7-3.1-6c-0.7-2.3-1-4.5-1-7.1
			s0.3-4.8,1-7.1c0.7-2.3,1.7-4.3,3.1-6c1.4-1.7,3.1-3.1,5.3-4.1c2.1-1,4.5-1.6,7.4-1.6c1.8,0,3.7,0.3,5.3,0.7
			c1.7,0.6,3.1,1.3,4.4,2.3c1.3,1,2.4,2.3,3.3,3.7c0.9,1.4,1.6,3.1,1.8,5.1h-3.4c-0.1-1-0.4-2.1-1-3.1s-1.4-2-2.4-2.8
			c-1-0.9-2.1-1.6-3.6-2.1c-1.4-0.6-2.8-0.9-4.5-0.9c-2.4,0-4.4,0.4-6.1,1.4c-1.7,1-3.1,2.1-4.1,3.6c-1.1,1.4-1.8,3.1-2.4,5
			s-0.7,3.8-0.7,5.7c0,2,0.3,3.8,0.7,5.7c0.6,1.8,1.3,3.6,2.4,5.1c1.1,1.4,2.4,2.7,4.1,3.6c1.7,0.9,3.7,1.4,6.1,1.4
			c2,0,3.7-0.3,5.3-1c1.6-0.7,2.8-1.6,4-2.7c1.1-1.1,1.8-2.6,2.4-4.1c0.6-1.6,0.9-3.4,0.7-5.3h-12.2v-2.8h15.2v18.2h-2.1V97.9z"/>
	</g>
	<g>
		<rect x="795.6" y="55.4" class="st0" width="209.4" height="58.1"/>
	</g>
	<g class="st1">
		<path class="st4" d="M800.9,89.6c0.3,1.3,0.9,2.3,1.6,3.3c0.7,1,1.6,1.7,2.7,2.4c1.1,0.6,2.4,1,3.8,1c2.3,0,4.1-0.6,5.4-1.8
			c1.3-1.1,2.1-2.8,2.7-4.8h3.1c-0.7,3-1.8,5.3-3.7,6.8c-1.8,1.6-4.3,2.4-7.5,2.4c-2,0-3.8-0.4-5.3-1.1s-2.7-1.7-3.7-3
			c-1-1.3-1.6-2.7-2.1-4.4c-0.4-1.7-0.7-3.4-0.7-5.3c0-1.7,0.3-3.4,0.7-5c0.4-1.6,1.1-3.1,2.1-4.4c1-1.3,2.1-2.3,3.7-3.1
			c1.4-0.9,3.3-1.1,5.3-1.1c2.1,0,3.8,0.4,5.3,1.3c1.4,0.9,2.7,2,3.6,3.3c0.9,1.4,1.6,2.8,2,4.7c0.4,1.8,0.6,3.6,0.6,5.3h-19.9
			C800.4,87.4,800.6,88.5,800.9,89.6z M816.5,80.1c-0.4-1.1-1-2.1-1.6-3c-0.7-0.9-1.6-1.6-2.6-2c-1-0.6-2.1-0.7-3.4-0.7
			c-1.3,0-2.4,0.3-3.4,0.7c-1,0.6-1.8,1.1-2.6,2c-0.7,0.9-1.3,1.8-1.7,3c-0.4,1.1-0.7,2.3-0.9,3.4h16.8
			C817.1,82.4,816.9,81.1,816.5,80.1z"/>
		<path class="st4" d="M826.9,89.6c0.3,1.3,0.9,2.3,1.6,3.3c0.7,1,1.6,1.7,2.7,2.4c1.1,0.6,2.4,1,3.8,1c2.3,0,4.1-0.6,5.4-1.8
			c1.3-1.1,2.1-2.8,2.7-4.8h3.1c-0.7,3-1.8,5.3-3.7,6.8c-1.8,1.6-4.3,2.4-7.5,2.4c-2,0-3.8-0.4-5.3-1.1s-2.7-1.7-3.7-3
			c-1-1.3-1.6-2.7-2.1-4.4c-0.4-1.7-0.7-3.4-0.7-5.3c0-1.7,0.3-3.4,0.7-5c0.4-1.6,1.1-3.1,2.1-4.4c1-1.3,2.1-2.3,3.7-3.1
			c1.4-0.9,3.3-1.1,5.3-1.1c2.1,0,3.8,0.4,5.3,1.3c1.4,0.9,2.7,2,3.6,3.3c0.9,1.4,1.6,2.8,2,4.7s0.6,3.6,0.6,5.3h-19.9
			C826.3,87.4,826.5,88.5,826.9,89.6z M842.5,80.1c-0.4-1.1-1-2.1-1.6-3c-0.7-0.9-1.6-1.6-2.6-2c-1-0.6-2.1-0.7-3.4-0.7
			c-1.3,0-2.4,0.3-3.4,0.7c-1,0.6-1.8,1.1-2.6,2c-0.7,0.9-1.3,1.8-1.7,3c-0.4,1.1-0.7,2.3-0.9,3.4h16.8
			C843.1,82.4,842.8,81.1,842.5,80.1z"/>
		<path class="st4" d="M865.4,77.4c-0.4-0.7-0.9-1.3-1.4-1.7c-0.6-0.4-1.3-0.9-2.1-1c-0.9-0.3-1.7-0.3-2.6-0.3
			c-0.7,0-1.4,0.1-2.1,0.3c-0.7,0.1-1.4,0.4-2,0.7c-0.6,0.3-1.1,0.9-1.4,1.4c-0.4,0.6-0.6,1.3-0.6,2.1c0,0.7,0.1,1.3,0.6,1.7
			c0.3,0.4,0.9,0.9,1.3,1.3c0.4,0.4,1.1,0.6,1.7,0.9c0.6,0.3,1.3,0.4,1.7,0.6l4.3,1c0.9,0.1,1.8,0.4,2.7,0.7
			c0.9,0.3,1.7,0.9,2.4,1.4s1.3,1.3,1.7,2.1c0.4,0.9,0.7,1.8,0.7,3c0,1.4-0.3,2.6-1,3.6c-0.6,1-1.4,1.8-2.4,2.4
			c-1,0.6-2.1,1-3.3,1.3c-1.1,0.3-2.4,0.4-3.7,0.4c-3,0-5.5-0.7-7.4-2.1c-1.8-1.4-3-3.7-3.3-7h3.1c0.1,2.1,0.9,3.7,2.3,4.8
			c1.4,1.1,3.1,1.6,5.3,1.6c0.7,0,1.6-0.1,2.4-0.3c0.9-0.1,1.6-0.4,2.3-0.9c0.7-0.4,1.3-0.9,1.7-1.6c0.4-0.6,0.7-1.4,0.7-2.3
			c0-0.7-0.1-1.4-0.4-2s-0.7-1-1.3-1.3s-1.1-0.7-1.8-0.9s-1.4-0.4-2.1-0.6l-4-0.9c-1-0.3-2-0.6-2.8-1c-0.9-0.3-1.6-0.9-2.3-1.3
			c-0.7-0.6-1.1-1.1-1.6-1.8c-0.4-0.7-0.6-1.7-0.6-2.8c0-1.3,0.3-2.4,0.9-3.4c0.6-1,1.3-1.7,2.3-2.3c1-0.6,2-1,3.1-1.3
			c1.1-0.3,2.3-0.4,3.4-0.4c1.3,0,2.6,0.1,3.7,0.6c1.1,0.3,2.1,0.9,3,1.6c0.9,0.7,1.6,1.6,2,2.6c0.6,1,0.9,2.3,0.9,3.7h-3.1
			C866,79,865.7,78.1,865.4,77.4z"/>
		<path class="st4" d="M884.7,72.4v2.7h-5.3v17.3c0,1,0.1,1.8,0.4,2.4c0.3,0.6,1,0.9,2.1,1c0.9,0,1.8,0,2.7-0.1v2.7
			c-0.4,0-1,0-1.4,0s-1,0-1.4,0c-2.1,0-3.6-0.4-4.4-1.3c-0.9-0.9-1.3-2.3-1.1-4.5V75h-4.5v-2.7h4.5v-7.7h3.1v7.8H884.7z"/>
		<path class="st4" d="M891.7,89.6c0.3,1.3,0.9,2.3,1.6,3.3c0.7,1,1.6,1.7,2.7,2.4c1.1,0.6,2.4,1,3.8,1c2.3,0,4.1-0.6,5.4-1.8
			c1.3-1.1,2.1-2.8,2.7-4.8h3.1c-0.7,3-1.8,5.3-3.7,6.8c-1.8,1.6-4.3,2.4-7.5,2.4c-2,0-3.8-0.4-5.3-1.1s-2.7-1.7-3.7-3
			c-1-1.3-1.6-2.7-2.1-4.4c-0.4-1.7-0.7-3.4-0.7-5.3c0-1.7,0.3-3.4,0.7-5c0.4-1.6,1.1-3.1,2.1-4.4c1-1.3,2.1-2.3,3.7-3.1
			c1.4-0.9,3.3-1.1,5.3-1.1c2.1,0,3.8,0.4,5.3,1.3c1.4,0.9,2.7,2,3.6,3.3c0.9,1.4,1.6,2.8,2,4.7s0.6,3.6,0.6,5.3h-19.9
			C891.1,87.4,891.4,88.5,891.7,89.6z M907.4,80.1c-0.4-1.1-1-2.1-1.6-3c-0.7-0.9-1.6-1.6-2.6-2c-1-0.6-2.1-0.7-3.4-0.7
			c-1.3,0-2.4,0.3-3.4,0.7c-1,0.6-1.8,1.1-2.6,2c-0.7,0.9-1.3,1.8-1.7,3c-0.4,1.1-0.7,2.3-0.9,3.4h16.8
			C907.9,82.4,907.6,81.1,907.4,80.1z"/>
		<path class="st4" d="M918.6,62.5v35.7h-3.3V62.5H918.6z"/>
		<path class="st4" d="M927.8,62.5v5.1h-3.1v-5.1H927.8z M927.8,72.4v25.9h-3.1V72.4H927.8z"/>
		<path class="st4" d="M937.1,72.4v28.2c0,1-0.1,1.8-0.3,2.7c-0.1,0.9-0.4,1.6-0.9,2.3c-0.4,0.7-1,1.1-1.7,1.6
			c-0.7,0.4-1.6,0.6-2.7,0.6c-0.4,0-0.7,0-1.1,0c-0.3,0-0.7,0-1.1,0v-2.6c0.3,0,0.6,0,0.9,0.1c0.3,0,0.6,0,0.9,0
			c1.3,0,2-0.4,2.4-1.1c0.3-0.7,0.6-1.6,0.6-2.7v-29H937.1z M937.1,62.5v5.1h-3.1v-5.1H937.1z"/>
		<path class="st4" d="M946.3,62.5V85l14.4-12.5h4.3L954,82l11.8,16.2h-4l-10.2-14.1l-5.1,4.3v9.8h-3.1V62.5H946.3z"/>
		<path class="st4" d="M970.5,89.6c0.3,1.3,0.9,2.3,1.6,3.3c0.7,1,1.6,1.7,2.7,2.4c1.1,0.6,2.4,1,3.8,1c2.3,0,4.1-0.6,5.4-1.8
			c1.3-1.1,2.1-2.8,2.7-4.8h3.1c-0.7,3-1.8,5.3-3.7,6.8c-1.8,1.6-4.3,2.4-7.5,2.4c-2,0-3.8-0.4-5.3-1.1c-1.4-0.7-2.7-1.7-3.7-3
			c-1-1.3-1.6-2.7-2.1-4.4c-0.4-1.7-0.7-3.4-0.7-5.3c0-1.7,0.3-3.4,0.7-5c0.4-1.6,1.1-3.1,2.1-4.4c1-1.3,2.1-2.3,3.7-3.1
			c1.4-0.9,3.3-1.1,5.3-1.1c2.1,0,3.8,0.4,5.3,1.3c1.4,0.9,2.7,2,3.6,3.3c0.9,1.4,1.6,2.8,2,4.7s0.6,3.6,0.6,5.3h-19.9
			C969.9,87.4,970.2,88.5,970.5,89.6z M986.1,80.1c-0.4-1.1-1-2.1-1.6-3c-0.7-0.9-1.6-1.6-2.6-2c-1-0.6-2.1-0.7-3.4-0.7
			s-2.4,0.3-3.4,0.7c-1,0.6-1.8,1.1-2.6,2c-0.7,0.9-1.3,1.8-1.7,3c-0.4,1.1-0.7,2.3-0.9,3.4h16.8C986.7,82.4,986.4,81.1,986.1,80.1z
			"/>
	</g>
	<g>
		<rect x="284.5" y="115.4" class="st0" width="37.1" height="58.1"/>
	</g>
	<g class="st1">
		<path class="st2" d="M316.2,158.3l-0.4-6.5h-0.1c-0.6,1.3-1.3,2.4-2.3,3.3c-0.9,0.9-1.8,1.7-3,2.3c-1.1,0.6-2.3,1-3.4,1.3
			c-1.3,0.3-2.4,0.4-3.8,0.4c-2.8,0-5.3-0.6-7.4-1.6c-2.1-1-3.8-2.4-5.3-4.1c-1.4-1.7-2.4-3.7-3.1-6c-0.7-2.3-1-4.5-1-7.1
			s0.3-4.8,1-7.1s1.7-4.3,3.1-6s3.1-3.1,5.3-4.1c2.1-1,4.5-1.6,7.4-1.6c1.8,0,3.7,0.3,5.3,0.7c1.7,0.6,3.1,1.3,4.4,2.3
			c1.3,1,2.4,2.3,3.3,3.7c0.9,1.4,1.6,3.1,1.8,5.1h-3.4c-0.1-1-0.4-2.1-1-3.1c-0.6-1-1.4-2-2.4-2.8c-1-0.9-2.1-1.6-3.6-2.1
			c-1.4-0.6-2.8-0.9-4.5-0.9c-2.4,0-4.4,0.4-6.1,1.4c-1.7,0.9-3.1,2.1-4.1,3.6c-1.1,1.4-1.8,3.1-2.4,5c-0.6,1.8-0.7,3.8-0.7,5.7
			c0,2,0.3,3.8,0.7,5.7c0.6,1.8,1.3,3.6,2.4,5.1c1.1,1.4,2.4,2.7,4.1,3.6c1.7,0.9,3.7,1.4,6.1,1.4c2,0,3.7-0.3,5.3-1
			c1.6-0.7,2.8-1.6,4-2.7c1.1-1.1,1.8-2.6,2.4-4.1c0.6-1.6,0.9-3.4,0.7-5.3h-12.2v-2.8h15.2V158h-2.1V158.3z"/>
	</g>
	<g>
		<rect x="284.1" y="115.1" class="st0" width="37.8" height="58.9"/>
	</g>
	<g class="st1">
		<path class="st3" d="M315.8,157.9l-0.4-6.5h-0.1c-0.6,1.3-1.3,2.4-2.3,3.3c-0.9,0.9-1.8,1.7-3,2.3c-1.1,0.6-2.3,1-3.4,1.3
			c-1.3,0.3-2.4,0.4-3.8,0.4c-2.8,0-5.3-0.6-7.4-1.6c-2.1-1-3.8-2.4-5.3-4.1c-1.4-1.7-2.4-3.7-3.1-6s-1-4.5-1-7.1
			c0-2.6,0.3-4.8,1-7.1s1.7-4.3,3.1-6c1.4-1.7,3.1-3.1,5.3-4.1c2.1-1,4.5-1.6,7.4-1.6c1.8,0,3.7,0.3,5.3,0.7
			c1.7,0.6,3.1,1.3,4.4,2.3c1.3,1,2.4,2.3,3.3,3.7c0.9,1.4,1.6,3.1,1.8,5.1h-3.4c-0.1-1-0.4-2.1-1-3.1c-0.6-1-1.4-2-2.4-2.8
			c-1-0.9-2.1-1.6-3.6-2.1c-1.4-0.6-2.8-0.9-4.5-0.9c-2.4,0-4.4,0.4-6.1,1.4c-1.7,0.9-3.1,2.1-4.1,3.6c-1.1,1.4-1.8,3.1-2.4,5
			c-0.6,1.8-0.7,3.8-0.7,5.7c0,2,0.3,3.8,0.7,5.7c0.6,1.8,1.3,3.6,2.4,5.1c1.1,1.4,2.4,2.7,4.1,3.6c1.7,0.9,3.7,1.4,6.1,1.4
			c2,0,3.7-0.3,5.3-1c1.6-0.7,2.8-1.6,4-2.7c1.1-1.1,1.8-2.6,2.4-4.1c0.6-1.6,0.9-3.4,0.7-5.3h-12.2v-2.8h15.5v18.2h-2.4V157.9z"/>
	</g>
	<g>
		<rect x="321.5" y="115.4" class="st0" width="355.9" height="58.1"/>
	</g>
	<g class="st1">
		<path class="st4" d="M326.9,149.8c0.3,1.3,0.9,2.3,1.6,3.3c0.7,1,1.6,1.7,2.7,2.4c1.1,0.6,2.4,1,3.8,1c2.3,0,4.1-0.6,5.4-1.8
			c1.3-1.1,2.1-2.8,2.7-4.8h3.1c-0.7,3-1.8,5.3-3.7,6.8c-1.8,1.6-4.3,2.4-7.5,2.4c-2,0-3.8-0.4-5.3-1.1s-2.7-1.7-3.7-3
			c-1-1.3-1.6-2.7-2.1-4.4c-0.4-1.7-0.7-3.4-0.7-5.3c0-1.7,0.3-3.4,0.7-5c0.4-1.6,1.1-3.1,2.1-4.4c1-1.3,2.1-2.3,3.7-3.1
			c1.4-0.9,3.3-1.1,5.3-1.1c2.1,0,3.8,0.4,5.3,1.3c1.4,0.9,2.7,2,3.6,3.3c0.9,1.3,1.6,2.8,2,4.7c0.4,1.7,0.6,3.6,0.6,5.3h-19.9
			C326.4,147.4,326.6,148.5,326.9,149.8z M342.5,140.1c-0.4-1.1-1-2.1-1.6-3c-0.6-0.9-1.6-1.6-2.6-2c-1-0.4-2.1-0.7-3.4-0.7
			s-2.4,0.3-3.4,0.7c-1,0.6-1.8,1.1-2.6,2s-1.3,1.8-1.7,3c-0.4,1.1-0.7,2.3-0.9,3.4h16.8C343.1,142.4,342.8,141.3,342.5,140.1z"/>
		<path class="st4" d="M369.8,155.6v2.7h-21.6v-2.6l16.9-20.6h-15.8v-2.7h19.8v2.3L352,155.6H369.8z"/>
		<path class="st4" d="M389.8,132.9c1.6,0.7,2.8,1.7,3.8,3c1,1.3,1.8,2.7,2.4,4.3c0.6,1.7,0.9,3.4,0.9,5.3c0,1.8-0.3,3.7-0.9,5.3
			c-0.6,1.7-1.3,3.1-2.4,4.3c-1,1.3-2.3,2.3-3.8,3c-1.6,0.7-3.3,1.1-5.3,1.1c-2,0-3.7-0.4-5.3-1.1c-1.6-0.7-2.8-1.7-3.8-3
			c-1-1.3-1.8-2.7-2.4-4.3c-0.6-1.7-0.9-3.4-0.9-5.3c0-1.8,0.3-3.7,0.9-5.3c0.6-1.7,1.3-3.1,2.4-4.3c1-1.3,2.3-2.3,3.8-3
			c1.6-0.7,3.3-1.1,5.3-1.1C386.6,131.7,388.3,132,389.8,132.9z M380.6,135.3c-1.1,0.6-2.1,1.4-2.8,2.6c-0.7,1-1.3,2.3-1.7,3.6
			c-0.4,1.3-0.6,2.7-0.6,4c0,1.4,0.1,2.7,0.6,4c0.4,1.3,1,2.6,1.7,3.6c0.7,1,1.7,1.8,2.8,2.6c1.1,0.7,2.4,1,4,1s2.8-0.3,4-1
			c1.1-0.7,2.1-1.4,2.8-2.6c0.7-1,1.3-2.3,1.7-3.6c0.4-1.3,0.6-2.7,0.6-4c0-1.4-0.1-2.7-0.6-4c-0.4-1.3-1-2.6-1.7-3.6
			c-0.7-1-1.7-1.8-2.8-2.6c-1.1-0.6-2.4-1-4-1S381.7,134.7,380.6,135.3z"/>
		<path class="st4" d="M404.6,132.4v4.4h0.1c0.6-1.6,1.7-2.8,3.3-3.8c1.6-1,3.3-1.4,5.1-1.4c1.8,0,3.3,0.3,4.5,0.7
			c1.3,0.4,2.1,1.1,3,2c0.7,0.9,1.3,1.8,1.6,3.1c0.3,1.3,0.4,2.6,0.4,4.1v16.6h-3.1v-16.1c0-1.1-0.1-2.1-0.3-3.1s-0.6-1.7-1-2.4
			c-0.6-0.7-1.1-1.3-2-1.7c-0.9-0.4-1.8-0.6-3.1-0.6s-2.4,0.3-3.4,0.7c-1,0.4-1.8,1.1-2.6,1.8c-0.7,0.7-1.3,1.7-1.6,2.8
			c-0.3,1.1-0.6,2.3-0.6,3.6v15.1h-3.1v-25.9L404.6,132.4L404.6,132.4z"/>
		<path class="st4" d="M448.1,158.3v-4.8H448c-0.3,0.9-0.9,1.6-1.4,2.3c-0.7,0.7-1.4,1.3-2.3,1.7c-0.9,0.4-1.7,0.9-2.7,1.1
			c-1,0.3-1.8,0.4-2.8,0.4c-2,0-3.7-0.4-5.1-1.1c-1.4-0.7-2.7-1.7-3.7-3c-1-1.3-1.7-2.7-2.1-4.4c-0.4-1.7-0.7-3.4-0.7-5.3
			c0-1.8,0.3-3.6,0.7-5.3c0.4-1.7,1.1-3.1,2.1-4.4c1-1.3,2.1-2.3,3.7-3c1.4-0.7,3.1-1.1,5.1-1.1c1,0,1.8,0.1,2.8,0.3
			c1,0.1,1.7,0.6,2.6,1.1c0.9,0.4,1.6,1.1,2.1,1.7c0.6,0.7,1.1,1.6,1.4,2.4h0.1v-14.8h3.1v35.7h-2.8V158.3z M430.9,149.4
			c0.3,1.3,0.9,2.6,1.6,3.6c0.7,1,1.6,1.8,2.6,2.6c1.1,0.7,2.4,1,3.8,1c1.7,0,3.1-0.3,4.3-1c1.1-0.7,2.1-1.6,2.8-2.6
			c0.7-1,1.3-2.3,1.6-3.6s0.4-2.7,0.4-4c0-1.3-0.1-2.7-0.4-4c-0.3-1.3-0.9-2.6-1.6-3.6c-0.7-1-1.7-1.8-2.8-2.6c-1.1-0.7-2.6-1-4.3-1
			c-1.6,0-2.8,0.3-3.8,1c-1,0.7-2,1.6-2.6,2.6c-0.7,1-1.1,2.3-1.6,3.6c-0.3,1.3-0.4,2.7-0.4,4C430.4,146.7,430.5,148.1,430.9,149.4z
			"/>
		<path class="st4" d="M460.2,122.5v14.4h0.1c0.6-1.6,1.7-2.8,3.3-3.8c1.6-1,3.3-1.4,5.1-1.4c1.8,0,3.3,0.3,4.5,0.7
			c1.3,0.4,2.1,1.1,3,2c0.7,0.9,1.3,1.8,1.6,3.1c0.3,1.3,0.4,2.6,0.4,4.1v16.6h-3.1v-16.1c0-1.1-0.1-2.1-0.3-3.1s-0.6-1.7-1-2.4
			c-0.6-0.7-1.1-1.3-2-1.7c-0.9-0.4-1.8-0.6-3.1-0.6c-1.3,0-2.4,0.3-3.4,0.7c-1,0.4-1.8,1.1-2.6,1.8s-1.3,1.7-1.6,2.8
			c-0.3,1.1-0.6,2.3-0.6,3.6v15.1h-3.1v-35.7h2.7V122.5z"/>
		<path class="st4" d="M486.2,149.8c0.3,1.3,0.9,2.3,1.6,3.3c0.7,1,1.6,1.7,2.7,2.4c1.1,0.6,2.4,1,3.8,1c2.3,0,4.1-0.6,5.4-1.8
			c1.3-1.1,2.1-2.8,2.7-4.8h3.1c-0.7,3-1.8,5.3-3.7,6.8c-1.8,1.6-4.3,2.4-7.5,2.4c-2,0-3.8-0.4-5.3-1.1s-2.7-1.7-3.7-3
			c-1-1.3-1.6-2.7-2.1-4.4c-0.6-1.7-0.7-3.4-0.7-5.3c0-1.7,0.3-3.4,0.7-5c0.4-1.6,1.1-3.1,2.1-4.4c1-1.3,2.1-2.3,3.7-3.1
			c1.4-0.9,3.3-1.1,5.3-1.1c2.1,0,3.8,0.4,5.3,1.3c1.4,0.9,2.7,2,3.6,3.3c0.9,1.3,1.6,2.8,2,4.7c0.4,1.7,0.6,3.6,0.6,5.3h-19.9
			C485.8,147.4,486,148.5,486.2,149.8z M501.9,140.1c-0.4-1.1-1-2.1-1.6-3c-0.7-0.9-1.6-1.6-2.6-2c-1-0.6-2.1-0.7-3.4-0.7
			c-1.3,0-2.4,0.3-3.4,0.7c-1,0.4-1.8,1.1-2.6,2c-0.7,0.9-1.3,1.8-1.7,3c-0.4,1.1-0.7,2.3-0.9,3.4h16.8
			C502.4,142.4,502.3,141.3,501.9,140.1z"/>
		<path class="st4" d="M513.1,122.5v5.1H510v-5.1C510,122.5,513.1,122.5,513.1,122.5z M513.1,132.4v25.9H510v-25.9H513.1z"/>
		<path class="st4" d="M539,158.3v-4.8h-0.1c-0.3,0.9-0.9,1.6-1.4,2.3c-0.6,0.7-1.4,1.3-2.3,1.7c-0.9,0.4-1.7,0.9-2.7,1.1
			c-1,0.3-1.8,0.4-2.8,0.4c-2,0-3.7-0.4-5.1-1.1c-1.4-0.7-2.7-1.7-3.7-3c-1-1.3-1.7-2.7-2.1-4.4c-0.4-1.7-0.7-3.4-0.7-5.3
			c0-1.8,0.3-3.6,0.7-5.3c0.4-1.7,1.1-3.1,2.1-4.4c1-1.3,2.1-2.3,3.7-3c1.4-0.7,3.1-1.1,5.1-1.1c1,0,1.8,0.1,2.8,0.3
			c0.9,0.3,1.7,0.6,2.6,1.1c0.9,0.4,1.6,1.1,2.1,1.7c0.6,0.6,1.1,1.6,1.4,2.4h0.1v-14.8h3.1v35.7H539V158.3z M521.6,149.4
			c0.3,1.3,0.9,2.6,1.6,3.6c0.7,1,1.6,1.8,2.6,2.6c1.1,0.7,2.4,1,3.8,1c1.7,0,3.1-0.3,4.3-1c1.1-0.7,2.1-1.6,2.8-2.6
			c0.7-1,1.3-2.3,1.6-3.6s0.4-2.7,0.4-4c0-1.3-0.1-2.7-0.4-4c-0.3-1.3-0.9-2.6-1.6-3.6c-0.7-1-1.7-1.8-2.8-2.6c-1.1-0.7-2.6-1-4.3-1
			c-1.6,0-2.8,0.3-3.8,1c-1.1,0.7-2,1.6-2.6,2.6c-0.7,1-1.1,2.3-1.6,3.6c-0.3,1.3-0.4,2.7-0.4,4
			C521.2,146.7,521.4,148.1,521.6,149.4z"/>
		<path class="st4" d="M562.7,137.4c-0.4-0.7-0.9-1.3-1.4-1.7s-1.3-0.9-2.1-1c-0.9-0.3-1.7-0.3-2.6-0.3c-0.7,0-1.4,0.1-2.1,0.3
			c-0.7,0.1-1.4,0.4-2,0.7c-0.6,0.3-1.1,0.9-1.4,1.4c-0.4,0.6-0.6,1.3-0.6,2.1c0,0.7,0.1,1.3,0.6,1.7c0.3,0.4,0.9,0.9,1.3,1.3
			s1.1,0.6,1.7,0.9c0.6,0.3,1.3,0.4,1.7,0.6l4.3,1c0.9,0.1,1.8,0.4,2.7,0.7c0.9,0.3,1.7,0.9,2.4,1.4s1.3,1.3,1.7,2.1
			c0.4,0.9,0.7,1.8,0.7,3c0,1.4-0.3,2.6-1,3.6c-0.6,1-1.4,1.8-2.4,2.4c-1,0.6-2.1,1-3.3,1.3c-1.1,0.3-2.4,0.4-3.7,0.4
			c-3,0-5.5-0.7-7.4-2.1c-1.8-1.4-3-3.7-3.3-7h3.1c0.1,2.1,0.9,3.7,2.3,4.8c1.4,1.1,3.1,1.6,5.3,1.6c0.7,0,1.6-0.1,2.4-0.3
			c0.9-0.1,1.6-0.4,2.3-0.9c0.7-0.4,1.3-0.9,1.7-1.6c0.4-0.7,0.7-1.4,0.7-2.3c0-0.7-0.1-1.4-0.4-2c-0.3-0.6-0.7-1-1.3-1.3
			c-0.6-0.3-1.1-0.7-1.8-0.9c-0.7-0.1-1.4-0.4-2.1-0.6l-4-0.9c-1-0.3-2-0.6-2.8-1c-0.9-0.3-1.6-0.9-2.3-1.3
			c-0.7-0.6-1.1-1.1-1.6-1.8c-0.4-0.7-0.6-1.7-0.6-2.8c0-1.3,0.3-2.4,0.9-3.4c0.6-1,1.3-1.7,2.3-2.3s2-1,3.1-1.3
			c1.1-0.3,2.3-0.4,3.4-0.4c1.3,0,2.6,0.1,3.7,0.6c1.1,0.4,2.1,0.9,3,1.6c0.9,0.7,1.6,1.6,2,2.6c0.6,1,0.9,2.3,0.9,3.7h-3.1
			C563.3,139,563.2,138.3,562.7,137.4z"/>
		<path class="st4" d="M591.3,155.6v2.7h-21.6v-2.6l16.9-20.6h-15.8v-2.7h19.8v2.3l-17.1,20.9H591.3z"/>
		<path class="st4" d="M611.2,132.9c1.6,0.7,2.8,1.7,3.8,3c1,1.3,1.8,2.7,2.4,4.3c0.6,1.7,0.9,3.4,0.9,5.3c0,1.8-0.3,3.7-0.9,5.3
			c-0.6,1.7-1.3,3.1-2.4,4.3c-1,1.3-2.3,2.3-3.8,3c-1.6,0.7-3.3,1.1-5.3,1.1s-3.7-0.4-5.3-1.1c-1.6-0.7-2.8-1.7-3.8-3
			c-1-1.3-1.8-2.7-2.4-4.3s-0.9-3.4-0.9-5.3c0-1.8,0.3-3.7,0.9-5.3c0.6-1.6,1.3-3.1,2.4-4.3c1-1.3,2.3-2.3,3.8-3
			c1.6-0.7,3.3-1.1,5.3-1.1C607.9,131.7,609.8,132,611.2,132.9z M602.1,135.3c-1.1,0.6-2.1,1.4-2.8,2.6c-0.7,1-1.3,2.3-1.7,3.6
			s-0.6,2.7-0.6,4c0,1.4,0.1,2.7,0.6,4c0.4,1.3,1,2.6,1.7,3.6s1.7,1.8,2.8,2.6c1.1,0.6,2.4,1,4,1c1.6,0,2.8-0.3,4-1
			c1.1-0.6,2.1-1.4,2.8-2.6c0.7-1.1,1.3-2.3,1.7-3.6s0.6-2.7,0.6-4c0-1.4-0.1-2.7-0.6-4c-0.4-1.3-1-2.6-1.7-3.6
			c-0.7-1-1.7-1.8-2.8-2.6c-1.1-0.6-2.4-1-4-1S603.2,134.7,602.1,135.3z"/>
		<path class="st4" d="M625.9,132.4v6.1h0.1c0.9-2.1,2-3.7,3.7-4.8c1.7-1.1,3.7-1.7,6-1.6v3.1c-1.4,0-2.7,0.1-3.8,0.6s-2.1,1.1-3,2
			c-0.9,0.9-1.6,1.8-2,3s-0.7,2.4-0.7,3.8v13.8H623v-25.9h2.8V132.4z"/>
		<path class="st4" d="M659.8,161.3c-0.4,1.6-1.1,2.8-2,3.8c-0.9,1.1-2.1,1.8-3.6,2.4c-1.4,0.6-3.3,0.9-5.3,0.9
			c-1.3,0-2.6-0.1-3.8-0.4c-1.3-0.3-2.3-0.7-3.3-1.4c-1-0.6-1.8-1.4-2.4-2.4c-0.7-1-1-2.1-1.1-3.6h3.1c0.1,1,0.4,1.7,1,2.4
			c0.4,0.7,1.1,1.1,1.7,1.6c0.6,0.4,1.4,0.7,2.3,0.9s1.7,0.3,2.6,0.3c3,0,5.1-0.9,6.4-2.6c1.3-1.7,2-4.1,2-7.3v-3.6h-0.1
			c-0.7,1.6-1.8,2.8-3.3,3.8c-1.4,1-3.1,1.4-5,1.4c-2.1,0-3.8-0.3-5.3-1c-1.4-0.7-2.7-1.6-3.7-2.8c-1-1.1-1.7-2.6-2.1-4.3
			c-0.4-1.6-0.7-3.4-0.7-5.1c0-1.7,0.3-3.4,0.7-5c0.4-1.6,1.3-3,2.3-4.1c1-1.1,2.1-2.1,3.7-2.8c1.4-0.7,3.1-1,5-1
			c1,0,1.8,0.1,2.7,0.4c0.9,0.3,1.6,0.7,2.3,1.1c0.7,0.4,1.3,1,1.8,1.7c0.6,0.7,1,1.3,1.3,2h0.1v-4.4h3.1V156
			C660.5,158,660.3,159.7,659.8,161.3z M652.6,154.5c1-0.6,1.8-1.3,2.6-2.3c0.7-1,1.3-2,1.6-3.3c0.3-1.3,0.6-2.6,0.6-3.8
			c0-1.3-0.1-2.6-0.4-3.8s-0.9-2.4-1.4-3.4c-0.7-1-1.6-1.8-2.6-2.6c-1-0.6-2.3-1-3.8-1c-1.6,0-2.8,0.3-3.8,1c-1.1,0.6-2,1.4-2.7,2.4
			s-1.3,2.1-1.6,3.4c-0.3,1.3-0.4,2.6-0.4,4c0,1.3,0.1,2.6,0.6,3.8c0.3,1.3,0.9,2.3,1.6,3.3c0.7,1,1.6,1.7,2.7,2.3
			c1.1,0.6,2.3,0.9,3.8,0.9C650.4,155.3,651.6,155,652.6,154.5z"/>
	</g>
	<g>
		<rect x="677.5" y="115.4" class="st0" width="33.4" height="58.1"/>
	</g>
	<g class="st1">
		<path class="st2" d="M696.1,122.5c1.6,0,3,0.1,4.3,0.4c1.4,0.3,2.6,0.7,3.7,1.4c1,0.7,1.8,1.6,2.6,2.7c0.6,1.1,1,2.6,1,4.1
			c0,1-0.1,1.8-0.4,2.7c-0.3,0.9-0.7,1.7-1.3,2.4c-0.6,0.7-1.1,1.3-2,1.8s-1.6,0.9-2.6,1v0.1c2.3,0.3,4.1,1.3,5.5,2.8
			c1.4,1.6,2,3.6,2,5.8c0,0.6,0,1.3-0.1,2c-0.1,0.7-0.3,1.4-0.6,2.1s-0.7,1.4-1.3,2.3c-0.6,0.7-1.3,1.4-2.3,2c-1,0.6-2.1,1-3.6,1.4
			c-1.4,0.3-3,0.6-5,0.6H681v-35.7h15.1V122.5z M696.1,138.3c1.4,0,2.6-0.1,3.6-0.4s1.8-0.7,2.6-1.3c0.7-0.6,1.1-1.1,1.6-2
			s0.6-1.6,0.6-2.4c0-4.4-2.7-6.7-8.1-6.7h-11.7v12.8L696.1,138.3L696.1,138.3z M696.1,155.3c1.3,0,2.4-0.1,3.6-0.3
			c1.1-0.1,2.1-0.6,3-1.1c0.9-0.6,1.6-1.3,2-2.3c0.6-1,0.7-2.1,0.7-3.6c0-2.3-0.9-4-2.4-5.1s-4-1.7-7-1.7h-11.7v14.2h11.8V155.3z"/>
	</g>
	<g>
		<rect x="677" y="115.1" class="st0" width="34.1" height="58.9"/>
	</g>
	<g class="st1">
		<path class="st3" d="M695.8,122.2c1.6,0,3,0.1,4.3,0.4c1.4,0.3,2.6,0.7,3.7,1.4c1,0.7,1.8,1.6,2.6,2.7c0.6,1.1,1,2.6,1,4.1
			c0,1-0.1,1.8-0.4,2.7c-0.3,0.9-0.7,1.7-1.3,2.4s-1.1,1.3-2,1.8c-0.9,0.6-1.6,0.9-2.6,1v0.1c2.3,0.3,4.1,1.3,5.5,2.8
			c1.4,1.6,2,3.6,2,5.8c0,0.6,0,1.3-0.1,2c-0.1,0.7-0.3,1.4-0.6,2.1c-0.3,0.7-0.7,1.4-1.3,2.3c-0.6,0.7-1.3,1.4-2.3,2
			c-1,0.6-2.1,1-3.6,1.4c-1.4,0.3-3,0.6-5,0.6h-15.1v-35.7h15.1V122.2z M695.8,137.8c1.4,0,2.6-0.1,3.6-0.4c1-0.3,1.8-0.7,2.6-1.3
			c0.7-0.6,1.1-1.1,1.6-2s0.6-1.6,0.6-2.4c0-4.4-2.7-6.7-8.1-6.7h-11.7v12.8L695.8,137.8L695.8,137.8z M695.8,155
			c1.3,0,2.4-0.1,3.6-0.3c1.1-0.1,2.1-0.6,3-1.1c0.9-0.6,1.6-1.3,2-2.3c0.6-1,0.7-2.1,0.7-3.6c0-2.3-0.9-4-2.4-5.1
			c-1.6-1.1-4-1.7-7-1.7H684v14.2h11.8V155z"/>
	</g>
	<g>
		<rect x="710.7" y="115.4" class="st0" width="199.2" height="58.1"/>
	</g>
	<g class="st1">
		<path class="st4" d="M731.8,158.3v-4.7h-0.1c-0.9,1.7-2,3.1-3.7,4c-1.6,0.9-3.4,1.4-5.3,1.4c-1.7,0-3-0.3-4.1-0.7
			c-1.1-0.4-2.1-1.1-2.8-2c-0.7-0.9-1.3-1.8-1.6-3c-0.3-1.1-0.6-2.6-0.6-4.1v-16.8h3.1v16.8c0,2.3,0.6,4.1,1.6,5.3s2.8,1.8,5.3,1.8
			c1.4,0,2.6-0.3,3.6-0.9c1-0.6,1.7-1.4,2.4-2.3c0.6-1,1.1-2.1,1.4-3.3c0.3-1.3,0.4-2.6,0.4-3.8v-13.5h3.1v25.9h-2.7V158.3z"/>
		<path class="st4" d="M743.9,122.5v5.1h-3.1v-5.1C740.7,122.5,743.9,122.5,743.9,122.5z M743.9,132.4v25.9h-3.1v-25.9H743.9z"/>
		<path class="st4" d="M760.2,132.4v2.7h-5.3v17.3c0,1,0.1,1.8,0.4,2.4c0.3,0.6,1,0.9,2.1,1c0.9,0,1.8,0,2.7-0.1v2.7
			c-0.4,0-1,0-1.4,0c-0.4,0-1,0-1.4,0c-2.1,0-3.6-0.4-4.4-1.3c-0.9-0.9-1.3-2.3-1.1-4.5V135h-4.5v-2.7h4.5v-7.8h3.1v7.8h5.3V132.4z"
			/>
		<path class="st4" d="M767,149.8c0.3,1.3,0.9,2.3,1.6,3.3c0.7,1,1.6,1.7,2.7,2.4c1.1,0.7,2.4,1,3.8,1c2.3,0,4.1-0.6,5.4-1.8
			c1.3-1.1,2.1-2.8,2.7-4.8h3.1c-0.7,3-1.8,5.3-3.7,6.8c-1.8,1.6-4.3,2.4-7.5,2.4c-2,0-3.8-0.4-5.3-1.1c-1.4-0.7-2.7-1.7-3.7-3
			c-1-1.3-1.6-2.7-2.1-4.4c-0.4-1.7-0.7-3.4-0.7-5.3c0-1.7,0.3-3.4,0.7-5c0.4-1.6,1.1-3.1,2.1-4.4c1-1.3,2.1-2.3,3.7-3.1
			c1.4-0.9,3.3-1.1,5.3-1.1c2.1,0,3.8,0.4,5.3,1.3c1.4,0.9,2.7,2,3.6,3.3c0.9,1.3,1.6,2.8,2,4.7c0.4,1.7,0.6,3.6,0.6,5.3h-19.9
			C766.6,147.4,766.7,148.5,767,149.8z M782.7,140.1c-0.4-1.1-1-2.1-1.6-3c-0.7-0.9-1.6-1.6-2.6-2c-1-0.6-2.1-0.7-3.4-0.7
			s-2.4,0.3-3.4,0.7c-1,0.6-1.8,1.1-2.6,2c-0.7,0.9-1.3,1.8-1.7,3c-0.4,1.1-0.7,2.3-0.9,3.4h16.8
			C783.2,142.4,783.1,141.3,782.7,140.1z"/>
		<path class="st4" d="M793.8,132.4v4.4h0.1c0.6-1.6,1.7-2.8,3.3-3.8c1.6-1,3.3-1.4,5.1-1.4c1.8,0,3.3,0.3,4.5,0.7
			c1.3,0.4,2.1,1.1,3,2c0.7,0.9,1.3,1.8,1.6,3.1c0.3,1.3,0.4,2.6,0.4,4.1v16.6h-3.1v-16.1c0-1.1-0.1-2.1-0.3-3.1
			c-0.1-1-0.6-1.7-1-2.4c-0.6-0.7-1.1-1.3-2-1.7c-0.9-0.4-1.8-0.6-3.1-0.6c-1.3,0-2.4,0.3-3.4,0.7c-1,0.4-1.8,1.1-2.6,1.8
			s-1.3,1.7-1.6,2.8c-0.3,1.1-0.6,2.3-0.6,3.6v15.1h-3.1v-25.9L793.8,132.4L793.8,132.4z"/>
		<path class="st4" d="M820.5,132.4v4.8h0.1c0.7-1.8,2-3.1,3.6-4.1c1.6-1,3.6-1.4,5.7-1.4c2,0,3.7,0.4,5.1,1.1
			c1.4,0.7,2.7,1.7,3.7,3c1,1.3,1.7,2.7,2.1,4.4c0.4,1.7,0.7,3.4,0.7,5.3c0,1.8-0.3,3.6-0.7,5.3c-0.4,1.7-1.1,3.1-2.1,4.4
			c-1,1.3-2.1,2.3-3.7,3c-1.4,0.7-3.1,1.1-5.1,1.1c-1,0-1.8-0.1-2.8-0.3s-1.8-0.6-2.6-1c-0.9-0.4-1.6-1-2.1-1.7
			c-0.6-0.7-1.1-1.6-1.4-2.4h-0.1v14.4h-3.1V133h2.8V132.4z M837.7,141.4c-0.3-1.3-0.9-2.6-1.6-3.6s-1.6-1.8-2.6-2.6
			c-1-0.7-2.4-1-3.8-1c-1.7,0-3.1,0.3-4.4,0.9c-1.3,0.6-2.1,1.4-2.8,2.4s-1.1,2.1-1.4,3.6c-0.3,1.3-0.4,2.7-0.4,4.3
			c0,1.3,0.1,2.7,0.4,4c0.3,1.3,0.9,2.6,1.6,3.6s1.7,1.8,2.8,2.6c1.1,0.7,2.6,1,4.3,1c1.6,0,2.8-0.3,3.8-1c1.1-0.7,2-1.6,2.6-2.6
			c0.7-1,1.1-2.3,1.6-3.6c0.3-1.3,0.4-2.7,0.4-4C838.3,144.1,838.1,142.7,837.7,141.4z"/>
		<path class="st4" d="M862.4,132.9c1.6,0.7,2.8,1.7,3.8,3c1,1.3,1.8,2.7,2.4,4.3c0.6,1.7,0.9,3.4,0.9,5.3c0,1.8-0.3,3.7-0.9,5.3
			c-0.6,1.7-1.3,3.1-2.4,4.3c-1,1.3-2.3,2.3-3.8,3c-1.6,0.7-3.3,1.1-5.3,1.1c-2,0-3.7-0.4-5.3-1.1c-1.6-0.7-2.8-1.7-3.8-3
			c-1-1.3-1.8-2.7-2.4-4.3c-0.6-1.7-0.9-3.4-0.9-5.3c0-1.8,0.3-3.7,0.9-5.3c0.6-1.7,1.3-3.1,2.4-4.3c1-1.3,2.3-2.3,3.8-3
			c1.6-0.7,3.3-1.1,5.3-1.1C859.2,131.7,860.9,132,862.4,132.9z M853.2,135.3c-1.1,0.6-2.1,1.4-2.8,2.6c-0.7,1-1.3,2.3-1.7,3.6
			c-0.4,1.3-0.6,2.7-0.6,4c0,1.4,0.1,2.7,0.6,4c0.4,1.3,1,2.6,1.7,3.6s1.7,1.8,2.8,2.6c1.1,0.7,2.4,1,4,1c1.6,0,2.8-0.3,4-1
			c1.1-0.7,2.1-1.4,2.8-2.6c0.7-1,1.3-2.3,1.7-3.6c0.4-1.3,0.6-2.7,0.6-4c0-1.4-0.1-2.7-0.6-4c-0.4-1.3-1-2.6-1.7-3.6
			s-1.7-1.8-2.8-2.6c-1.1-0.6-2.4-1-4-1C855.6,134.3,854.3,134.7,853.2,135.3z"/>
		<path class="st4" d="M889,137.4c-0.4-0.7-0.9-1.3-1.4-1.7s-1.3-0.9-2.1-1c-0.9-0.3-1.7-0.3-2.6-0.3c-0.7,0-1.4,0.1-2.1,0.3
			c-0.7,0.1-1.4,0.4-2,0.7c-0.6,0.3-1.1,0.9-1.4,1.4c-0.4,0.6-0.6,1.3-0.6,2.1c0,0.7,0.1,1.3,0.6,1.7c0.3,0.4,0.9,0.9,1.3,1.3
			c0.6,0.3,1.1,0.6,1.7,0.9c0.6,0.3,1.3,0.4,1.7,0.6l4.3,1c0.9,0.1,1.8,0.4,2.7,0.7c0.9,0.3,1.7,0.9,2.4,1.4s1.3,1.3,1.7,2.1
			c0.4,0.9,0.7,1.8,0.7,3c0,1.4-0.3,2.6-1,3.6c-0.6,1-1.4,1.8-2.4,2.4c-1,0.6-2.1,1-3.3,1.3c-1.3,0.3-2.4,0.4-3.7,0.4
			c-3,0-5.5-0.7-7.4-2.1c-1.8-1.4-3-3.7-3.3-7h3.1c0.1,2.1,0.9,3.7,2.3,4.8c1.4,1.1,3.1,1.6,5.3,1.6c0.7,0,1.6-0.1,2.4-0.3
			c0.9-0.1,1.6-0.4,2.3-0.9c0.7-0.4,1.3-0.9,1.7-1.6c0.4-0.7,0.7-1.4,0.7-2.3c0-0.7-0.1-1.4-0.4-2c-0.3-0.6-0.7-1-1.3-1.3
			c-0.6-0.3-1.1-0.7-1.8-0.9c-0.7-0.3-1.4-0.4-2.1-0.6l-4.1-0.9c-1-0.3-2-0.6-2.8-1c-0.9-0.4-1.6-0.9-2.3-1.3
			c-0.7-0.6-1.1-1.1-1.6-1.8c-0.4-0.7-0.6-1.7-0.6-2.8c0-1.3,0.3-2.4,0.9-3.4c0.6-1,1.3-1.7,2.3-2.3c1-0.6,2-1,3.1-1.3
			s2.3-0.4,3.4-0.4c1.3,0,2.6,0.1,3.7,0.6c1.1,0.3,2.1,0.9,3,1.6c0.9,0.7,1.6,1.6,2,2.6c0.6,1,0.9,2.3,0.9,3.7h-3.1
			C889.6,139,889.3,138.3,889,137.4z"/>
		<path class="st4" d="M908.3,132.4v2.7h-5.3v17.3c0,1,0.1,1.8,0.4,2.4c0.3,0.6,1,0.9,2.1,1c0.9,0,1.8,0,2.7-0.1v2.7
			c-0.4,0-1,0-1.4,0c-0.4,0-1,0-1.4,0c-2.1,0-3.6-0.4-4.4-1.3c-0.9-0.9-1.3-2.3-1.1-4.5V135h-4.5v-2.7h4.5v-7.8h3.1v7.8h5.3V132.4z"
			/>
	</g>
	<path class="st4" d="M158.8,77.9c1.3-0.9,1.6-6.3,1.6-6.3c-1.9-39.7-39.9-40.9-47.2-40.3c1.1,2.5,0.5,5.4-0.9,7.1
		c0,0-6.4,8.2-16.1,1.3l-0.4-0.3c-1.6-1.2-2.2-2.9-3-4.1c-4.5,1.6-7.8,2.1-10.9,4.3c0.3,0.2,1.5,0.9,1.9,1.2c2.8,2.2,2.4,2.8,2.2,4
		c0,0,4.5-0.1,7.4,1.9c3.9,2.7,3.2,8.8,1.2,11.1c0,0-4.3,12-14,5.1l-3.7-1.4c-2.9-2.3-6.4-4.1-7.1-6.3c-0.6,1.2,0.8-0.9,0.3,0.4
		c-0.1,0.7-1.7,3.2-2.1,9.8h1.4c6.2,4.3,4.9,14.7,1.8,18.6c0.4,1.2-0.5,1.8,0.1,3.1c3.8,12.3,9.8,22.7,11.8,26.4
		c6,10.7-5.4,25.5-8.8,32.4c-3.5,6.9-13.5,13.9-13.5,13.9c1,3.7-1.9,6,34.6,6s59.8,45.3,59.8,45.3s-15.1-31.2-24.6-42.2
		c-9.4-11-0.6-26.1,0.9-28c1.6-1.9,1.6-1.9,7.1-2.3c5.5-0.4,19,0.4,21.2-2.5c2.2-2.8,1.3-8.8,0.6-10.4c-0.6-1.6,0.3-1.9,0.9-4.1
		c0.4-1.3,1.4-2.2,2-2.9l0.1-0.1c0.3-0.3,0.5-0.7,0.5-0.7c-0.4-2.1-1.4-2.2-1.4-2.2c1-0.4,1.5-1.4,1.6-1.6l0,0c0,0-0.1-0.1-0.2-0.2
		c-0.1-0.1-0.2-0.4-0.4-0.7c-0.2-0.4-0.4-0.9-0.7-1.6l0,0l0,0c-0.1-0.3-0.2-0.6-0.4-1c-1.3-4.1,2.2-6,4.1-6.6
		c1.9-0.6,3.1-3.5,3.1-3.5s-9.4-17.9-10.7-19.5C157.8,79.4,158.8,77.9,158.8,77.9L158.8,77.9z M95.4,83.6c0,0-3.6,5.7-8.6,2.1
		l-2.7-0.8c-4.9-3.8-3-10.7-3-10.7c0.9-1.3,4.3-3.9,6.2-2.4c1.5,1.2,3.3,2.3,3.3,3c0,0,2.6,1.3,4.1,2.4
		C96.7,78.5,96.5,82.4,95.4,83.6L95.4,83.6z M124.3,80.6c0,0-13.3-0.8-22.2-7.1l-3.7-2.4c-8.5-6.7-0.5-16.6-0.5-16.6
		c1.5-2.3,8-2.7,11.3,0c2.5,2,2.6,3.7,2.5,4.7c0,0,3.3-1,5.9,0.9C121.1,62.7,126.1,78.5,124.3,80.6L124.3,80.6z"/>
	<path class="st5" d="M73.8,15.6C74,14.5,74,12,71.4,9.9c-3.5-2.8-7.5-0.7-9.1,1.7c0,0-5.1,7.5,3.8,14.4l0,0
		c9.1,6.5,14.8-0.5,14.8-0.5c1.9-2.2,2.7-6.6-1-9.2C77.2,14.4,73.8,15.6,73.8,15.6L73.8,15.6z"/>
	<path class="st2" d="M45.1,4.6c0.1-0.7,0.1-2.4-1.6-3.7c-2.2-1.8-4.9-0.5-5.9,1.1c0,0-3.3,4.9,2.4,9.3l0,0c5.9,4.2,9.7-0.3,9.7-0.3
		c1.2-1.4,1.7-4.3-0.6-6C47.4,3.8,45.1,4.6,45.1,4.6L45.1,4.6z"/>
	<path class="st4" d="M41.5,30.4c0.2-1.6,0.3-5.2-3.4-8.1c-4.9-3.9-10.6-1-12.9,2.4c0,0-7.2,10.6,5.4,20.4l0,0
		c13,9.2,21.1-0.7,21.1-0.7c2.6-3.1,3.8-9.5-1.4-13C46.4,28.7,41.5,30.4,41.5,30.4L41.5,30.4z"/>
	<path class="st6" d="M11,59.7c0.1-0.9,0.2-3.1-2.1-4.9c-2.9-2.4-6.4-0.6-7.7,1.4c0,0-4.3,6.4,3.2,12.3l0,0
		c7.8,5.5,12.7-0.4,12.7-0.4c1.6-1.9,2.3-5.7-0.8-7.8C14,58.7,11,59.7,11,59.7L11,59.7z"/>
	<path class="st2" d="M38.1,63.8c0.1-0.7,0.1-2.5-1.7-3.9c-2.4-1.9-5.1-0.5-6.2,1.2c0,0-3.5,5.1,2.6,9.8l0,0
		c6.2,4.4,10.1-0.3,10.1-0.3c1.3-1.5,1.8-4.5-0.7-6.3C40.5,63,38.1,63.8,38.1,63.8L38.1,63.8z"/>
	<path class="st2" d="M33.7,91.3c0.2-1,0.2-3.5-2.3-5.5c-3.3-2.6-7.1-0.7-8.7,1.6c0,0-4.8,7.2,3.6,13.7l0,0
		c8.7,6.2,14.2-0.5,14.2-0.5c1.8-2.1,2.5-6.4-0.9-8.8C37,90.2,33.7,91.3,33.7,91.3L33.7,91.3z"/>
	<path class="st2" d="M138,98.5v-0.2l-0.2-0.2l-5.2-6.2c-3.4-3.7-0.4-10.8-0.4-10.8c10.2-28.7-12-42.1-18.6-45.4
		c-0.3,1-0.8,2-1.4,2.7c0,0-6.1,7.4-15.8,0.5l0,0c-3.5-2.7-4.9-5.5-5.4-8c-13.5,0.5-23.8,6-23.8,6c-1.4,1-2.7,2-3.9,3
		c2.7,2.7,1.9,6.8,0.1,8.9c0,0-4.1,5-10.9,3c-0.6,0.9-1.1,1.8-1.6,2.7c0.8,0.4,1.6,0.8,2.3,1.5c4.6,3.7,4.6,8.1,4.3,10.1
		c0,0,6.1-2.1,10.9,1.2c6.4,4.4,5,12.3,1.7,16.2c0,0-7.7,9.4-20.3,4.2c0.4,3.7,1.4,6,1.6,6.5c4.5,10.6,10.7,19,12.5,22.4
		c4.7,8.9-2.1,17.4-2.1,17.4c11.5,3.4,31.1,18.9,31.1,18.9C97.6,133.8,106,134,106,134c9.4-0.2,18.3-2.8,23-4.9
		c4.7-2.1,0.8-8.6,1.2-9.5c0.4-1,3-2.5,3.3-3.5c0.2-0.9-1.6-2.5-0.5-2.9s2.8-1.8,1.7-4.1c-1.1-2.3-0.4-5.2-0.4-5.2
		c2-1,3.3-3.6,3.7-4.7c0-0.1,0.1-0.1,0.1-0.2C138,98.7,138,98.5,138,98.5L138,98.5z M92.7,58.2c0,0-6.1,7.4-15.8,0.5l0,0
		c-9.4-7.3-4-15.3-4-15.3c1.7-2.6,6-4.7,9.7-1.8c2.8,2.2,2.8,4.9,2.6,6.1c0,0,3.7-1.3,6.6,0.7C95.5,51.1,94.6,55.8,92.7,58.2
		L92.7,58.2z M93.5,82.9c0,0-3.2,3.9-8.2,0.3l0,0c-4.9-3.8-2.1-8-2.1-8c0.9-1.3,3.1-2.5,5-0.9c1.5,1.2,1.4,2.6,1.3,3.2
		c0,0,1.9-0.7,3.4,0.4C95,79.3,94.6,81.7,93.5,82.9L93.5,82.9z M116.7,70.5c0,0-5.5,6.8-14.4,0.5l0,0c-8.5-6.7-3.7-13.9-3.7-13.9
		c1.5-2.3,5.4-4.3,8.8-1.6c2.5,2,2.5,4.5,2.3,5.5c0,0,3.3-1.2,6,0.7C119.3,64.1,118.5,68.4,116.7,70.5L116.7,70.5z"/>
</g>
</svg>
