<?xml version="1.0" encoding="utf-8"?>
<!-- Generator: Adobe Illustrator 18.0.0, SVG Export Plug-In . SVG Version: 6.00 Build 0)  -->
<!DOCTYPE svg PUBLIC "-//W3C//DTD SVG 1.1//EN" "http://www.w3.org/Graphics/SVG/1.1/DTD/svg11.dtd">
<svg version="1.1" id="Layer_1" xmlns="http://www.w3.org/2000/svg" xmlns:xlink="http://www.w3.org/1999/xlink" x="0px" y="0px"
	 width="656px" height="239px" viewBox="-2.4 -2.2 656 239" enable-background="new -2.4 -2.2 656 239" xml:space="preserve">
<g>
	<g>
		<g id="Layer_1_1_">
			
				<linearGradient id="SVGID_1_" gradientUnits="userSpaceOnUse" x1="493.9964" y1="229.3983" x2="222.804" y2="52.7529" gradientTransform="matrix(0.2688 0 0 0.2688 44.375 -7.7938)">
				<stop  offset="0" style="stop-color:#80C3E6"/>
				<stop  offset="1" style="stop-color:#3380C2"/>
			</linearGradient>
			<polygon fill="url(#SVGID_1_)" points="153,82.7 193.8,17.4 95.5,17.4 81.9,39.2 			"/>
			<polygon opacity="0.15" enable-background="new    " points="81.9,39.2 88.9,28 153,82.7 			"/>
			
				<linearGradient id="SVGID_2_" gradientUnits="userSpaceOnUse" x1="541.6025" y1="636.944" x2="339.0045" y2="503.1256" gradientTransform="matrix(0.2688 0 0 0.2688 44.375 -7.7938)">
				<stop  offset="0" style="stop-color:#F38649"/>
				<stop  offset="0.18" style="stop-color:#F28147"/>
				<stop  offset="0.41" style="stop-color:#EF7242"/>
				<stop  offset="0.65" style="stop-color:#EA5A3A"/>
				<stop  offset="0.91" style="stop-color:#E4382E"/>
				<stop  offset="1" style="stop-color:#E12A29"/>
			</linearGradient>
			<polygon fill="url(#SVGID_2_)" points="174.6,201.1 174.6,102.9 153.3,89.7 108.8,160.1 			"/>
			<polygon opacity="0.15" enable-background="new    " points="108.8,160.1 119.8,166.9 153.3,89.7 			"/>
			
				<linearGradient id="SVGID_3_" gradientUnits="userSpaceOnUse" x1="-126.6283" y1="351.311" x2="261.4621" y2="108.8119" gradientTransform="matrix(0.2688 0 0 0.2688 44.375 -7.7938)">
				<stop  offset="0" style="stop-color:#42AB4A"/>
				<stop  offset="1" style="stop-color:#ADD155"/>
			</linearGradient>
			<polygon fill="url(#SVGID_3_)" points="16.2,-2.2 16.2,96 39,109.2 152.9,82.7 			"/>
			
				<linearGradient id="SVGID_4_" gradientUnits="userSpaceOnUse" x1="-41.8261" y1="784.7681" x2="273.4406" y2="280.2496" gradientTransform="matrix(0.2688 0 0 0.2688 44.375 -7.7938)">
				<stop  offset="0" style="stop-color:#42AB4A"/>
				<stop  offset="1" style="stop-color:#ADD155"/>
			</linearGradient>
			<polygon fill="url(#SVGID_4_)" points="38.5,116.7 -2.4,180.9 95.9,180.9 153.4,89.7 			"/>
			<path d="M212.6,145.7h12.7l6.5-80.2H219V54.4h28.9l26.2,62.5c0.9,2.4,1.7,4.9,2.3,7.4h0.3c0.6-2.5,1.4-5,2.3-7.4l26.2-62.5h28.9
				v11.2h-13l6.5,80.2h12.8V157h-39.4v-11.3h12.3l-4.6-61.4c0-2.8,0.1-5.7,0.4-8.4h-0.4c-0.6,2.7-1.4,5.3-2.3,7.8l-23.5,54h-12.7
				l-23.4-54c-0.9-2.6-1.7-5.2-2.3-7.8H244c0.3,2.8,0.5,5.6,0.4,8.4l-4.6,61.4h12.3v11.3h-39.4L212.6,145.7L212.6,145.7z"/>
			<path d="M400.8,52.6c28.6-0.4,52.1,22.5,52.5,51c0,0.5,0,0.9,0,1.4c0,30.3-23,53.8-52.5,53.8s-52.4-23.6-52.4-53.8
				c-0.4-28.5,22.4-52,50.9-52.4C399.7,52.6,400.3,52.6,400.8,52.6z M400.8,145.9c20.7,0,37.5-17.7,37.5-40.9
				c0-22.4-16.8-39.6-37.5-39.6c-20.7,0-37.6,17.2-37.6,39.6C363.1,128.2,379.9,145.9,400.8,145.9z"/>
			<path d="M462.9,145.7h12.7V65.6h-12.7V54.4h43.6c7.3-0.3,14.6,0.5,21.7,2.5c19.5,6.1,32.3,23.9,32.3,48.9s-12.3,42.2-32.3,48.6
				c-7,2.1-14.3,3-21.5,2.8h-43.7V145.7L462.9,145.7z M505.8,145.1c5.9,0.2,11.8-0.6,17.4-2.7c13.8-4.8,22.3-18,22.3-36.8
				s-8.6-32.1-22.1-37c-5.7-1.8-11.6-2.7-17.5-2.4h-15.6v78.9H505.8L505.8,145.1z"/>
			<path d="M565.6,145.7h9.6l26.3-40.6l-25.9-39.6h-9.4V54.3h32.3v11.2h-7.6l16.9,26.9c0.9,1.3,1.8,2.7,2.6,4.1h0.3
				c0.7-1.4,1.5-2.8,2.5-4.1l16.4-26.9h-7.3V54.3h31.3v11.2H644l-26.6,40.9l26,39.3h9.7V157h-32.3v-11.3h7.4l-17.2-26.8
				c-1.6-2.3-2.6-4.2-2.6-4.2h-0.3c-0.1,0-0.9,1.9-2.3,4.2l-16.4,26.8h7.4V157h-31.5L565.6,145.7L565.6,145.7z"/>
		</g>
	</g>
	<g>
		<path d="M212.6,193.1h4.9v5.8c2.2-3.6,5.7-6.5,11.4-6.5c8,0,12.7,5.4,12.7,13.3v20.6h-4.9V207c0-6.2-3.3-10-9.2-10
			c-5.7,0-10,4.2-10,10.4v19h-4.9V193.1z"/>
		<path d="M249.7,216.7v-0.1c0-7.1,5.8-10.9,14.2-10.9c4.2,0,7.2,0.6,10.2,1.4v-1c0-5.9-3.6-9-9.8-9c-3.9,0-7,1-10.1,2.4l-1.5-4
			c3.7-1.7,7.2-2.8,12.1-2.8c4.7,0,8.4,1.3,10.7,3.7c2.3,2.3,3.5,5.5,3.5,9.8v20.3h-4.9v-4.9c-2.3,3-6.1,5.7-12,5.7
			C255.9,227.1,249.7,223.5,249.7,216.7z M274.2,214.2v-3.1c-2.4-0.7-5.7-1.4-9.7-1.4c-6.2,0-9.7,2.7-9.7,6.7v0.1
			c0,4.2,3.9,6.6,8.4,6.6C269.2,223.1,274.2,219.4,274.2,214.2z"/>
		<path d="M289.5,193.1h4.9v8.7c2.4-5.5,7.3-9.5,13.6-9.3v5.3h-0.4c-7.3,0-13.2,5.2-13.2,15.2v13.2h-4.9V193.1z"/>
		<path d="M315.5,193.1h4.9v8.7c2.4-5.5,7.3-9.5,13.6-9.3v5.3h-0.4c-7.3,0-13.2,5.2-13.2,15.2v13.2h-4.9V193.1z"/>
		<path d="M338,209.9v-0.1c0-9.4,7.3-17.4,17.4-17.4c10,0,17.3,7.8,17.3,17.2v0.1c0,9.4-7.4,17.4-17.4,17.4
			C345.3,227.1,338,219.3,338,209.9z M367.6,209.9v-0.1c0-7.1-5.3-13-12.3-13c-7.2,0-12.1,5.8-12.1,12.9v0.1
			c0,7.1,5.3,12.9,12.3,12.9C362.6,222.7,367.6,216.9,367.6,209.9z"/>
		<path d="M377.2,193.1h5.3l8.7,26.7l8.9-26.8h4.1l9,26.8l8.7-26.7h5.1l-11.7,33.5h-4.3l-8.9-26.2l-9,26.2h-4.4L377.2,193.1z"/>
		<path d="M431.7,209.9v-0.1c0-9.4,7.3-17.4,17-17.4c6.3,0,10.2,2.6,13.3,5.9l-3.3,3.5c-2.6-2.8-5.6-5-10.1-5
			c-6.7,0-11.9,5.7-11.9,12.9v0.1c0,7.2,5.3,12.9,12.2,12.9c4.2,0,7.5-2.1,10.2-4.9l3.1,3c-3.3,3.7-7.3,6.4-13.6,6.4
			C439,227.1,431.7,219.2,431.7,209.9z"/>
		<path d="M467.9,216.7v-0.1c0-7.1,5.8-10.9,14.2-10.9c4.2,0,7.2,0.6,10.2,1.4v-1c0-5.9-3.6-9-9.8-9c-3.9,0-7,1-10.1,2.4l-1.5-4
			c3.7-1.7,7.2-2.8,12.1-2.8c4.7,0,8.4,1.3,10.7,3.7c2.3,2.3,3.5,5.5,3.5,9.8v20.3h-4.9v-4.9c-2.3,3-6.1,5.7-12,5.7
			C474.1,227.1,467.9,223.5,467.9,216.7z M492.4,214.2v-3.1c-2.4-0.7-5.7-1.4-9.7-1.4c-6.2,0-9.7,2.7-9.7,6.7v0.1
			c0,4.2,3.9,6.6,8.4,6.6C487.4,223.1,492.4,219.4,492.4,214.2z"/>
		<path d="M504.9,222.1l2.5-3.5c3.6,2.7,7.6,4.2,11.5,4.2c4,0,6.9-2.1,6.9-5.3v-0.1c0-3.3-3.9-4.6-8.3-5.8c-5.2-1.5-11-3.3-11-9.4
			v-0.1c0-5.7,4.8-9.5,11.3-9.5c4,0,8.5,1.4,12,3.7l-2.2,3.7c-3.1-2-6.6-3.2-9.8-3.2c-3.9,0-6.4,2.1-6.4,4.8v0.1
			c0,3.1,4.1,4.4,8.5,5.7c5.1,1.5,10.7,3.5,10.7,9.5v0.1c0,6.3-5.2,10-11.8,10C513.9,227,508.6,225.2,504.9,222.1z"/>
		<path d="M540.8,217.6v-20h-4.6v-4.4h4.6v-10h4.9v10h10.5v4.4h-10.5v19.4c0,4,2.2,5.5,5.6,5.5c1.7,0,3.1-0.3,4.8-1.2v4.2
			c-1.7,0.9-3.6,1.4-6,1.4C544.8,227,540.8,224.3,540.8,217.6z"/>
		<path d="M565.1,180.4h5.7v5.5h-5.7V180.4z M565.4,193.1h4.9v33.2h-4.9V193.1z"/>
		<path d="M581.9,193.1h4.9v5.8c2.2-3.6,5.7-6.5,11.4-6.5c8,0,12.7,5.4,12.7,13.3v20.6H606V207c0-6.2-3.3-10-9.2-10
			c-5.7,0-10,4.2-10,10.4v19h-4.9V193.1z"/>
		<path d="M621.1,232.2l2.2-3.9c3.8,2.8,8,4.2,12.8,4.2c7.3,0,12.1-4,12.1-11.8v-3.9c-2.9,3.9-6.9,7-13,7c-8,0-15.6-6-15.6-15.6
			v-0.1c0-9.7,7.7-15.7,15.6-15.7c6.2,0,10.3,3.1,13,6.7v-6h4.9v27.4c0,5.1-1.5,9.1-4.2,11.8c-3,3-7.4,4.4-12.7,4.4
			C630.7,236.8,625.5,235.2,621.1,232.2z M648.3,208.2v-0.1c0-6.8-5.9-11.2-12.2-11.2c-6.3,0-11.5,4.4-11.5,11.2v0.1
			c0,6.7,5.3,11.3,11.5,11.3C642.4,219.4,648.3,214.9,648.3,208.2z"/>
	</g>
</g>
</svg>
