<?xml version="1.0" encoding="utf-8"?>
<!-- Generator: Adobe Illustrator 18.0.0, SVG Export Plug-In . SVG Version: 6.00 Build 0)  -->
<!DOCTYPE svg PUBLIC "-//W3C//DTD SVG 1.1//EN" "http://www.w3.org/Graphics/SVG/1.1/DTD/svg11.dtd">
<svg version="1.1" id="Laag_1" xmlns="http://www.w3.org/2000/svg" xmlns:xlink="http://www.w3.org/1999/xlink" x="0px" y="0px"
	 width="140px" height="1540px" viewBox="0 0 140 1540" enable-background="new 0 0 140 1540" xml:space="preserve">
<g>
	<g>
		<path fill="#FFBD00" d="M34.9,49.8C26.7,49.8,20,43.2,20,35s6.7-14.8,14.8-14.8c8.2,0,14.8,6.7,14.8,14.8S43.1,49.8,34.9,49.8z
			 M34.9,24.2c-6,0-10.8,4.9-10.8,10.8s4.9,10.8,10.8,10.8c6,0,10.8-4.9,10.8-10.8S40.8,24.2,34.9,24.2z"/>
	</g>
	<g>
		<g>
			<path fill="#FFBD00" d="M63.5,36.3H55c-0.7,0-1.3-0.6-1.3-1.3s0.6-1.3,1.3-1.3h8.6c0.7,0,1.3,0.6,1.3,1.3S64.3,36.3,63.5,36.3z"
				/>
		</g>
		<g>
			<path fill="#FFBD00" d="M14.7,36.3H6.2c-0.7,0-1.3-0.6-1.3-1.3s0.6-1.3,1.3-1.3h8.5c0.7,0,1.3,0.6,1.3,1.3S15.4,36.3,14.7,36.3z"
				/>
		</g>
		<g>
			<path fill="#FFBD00" d="M34.9,65c-0.7,0-1.3-0.6-1.3-1.3v-8.6c0-0.7,0.6-1.3,1.3-1.3c0.7,0,1.3,0.6,1.3,1.3v8.6
				C36.2,64.4,35.6,65,34.9,65z"/>
		</g>
		<g>
			<path fill="#FFBD00" d="M34.9,16.3c-0.7,0-1.3-0.6-1.3-1.3V6.3c0-0.7,0.6-1.3,1.3-1.3c0.7,0,1.3,0.6,1.3,1.3v8.6
				C36.2,15.7,35.6,16.3,34.9,16.3z"/>
		</g>
		<g>
			<path fill="#FFBD00" d="M49.1,22.2c-0.3,0-0.7-0.1-0.9-0.4c-0.5-0.5-0.5-1.4,0-1.9l6.1-6.1c0.5-0.5,1.4-0.5,1.9,0
				c0.5,0.5,0.5,1.4,0,1.9L50,21.8C49.8,22,49.4,22.2,49.1,22.2z"/>
		</g>
		<g>
			<path fill="#FFBD00" d="M14.6,56.6c-0.3,0-0.7-0.1-0.9-0.4c-0.5-0.5-0.5-1.4,0-1.9l6.1-6c0.5-0.5,1.4-0.5,1.9,0
				c0.5,0.5,0.5,1.4,0,1.9l-6,6C15.3,56.5,15,56.6,14.6,56.6z"/>
		</g>
		<g>
			<path fill="#FFBD00" d="M55.1,56.6c-0.3,0-0.7-0.1-0.9-0.4l-6-6c-0.5-0.5-0.5-1.4,0-1.9c0.5-0.5,1.4-0.5,1.9,0l6,6
				c0.5,0.5,0.5,1.4,0,1.9C55.8,56.5,55.5,56.6,55.1,56.6z"/>
		</g>
		<g>
			<path fill="#FFBD00" d="M20.7,22.2c-0.3,0-0.7-0.1-0.9-0.4l-6.1-6.1c-0.5-0.5-0.5-1.4,0-1.9c0.5-0.5,1.4-0.5,1.9,0l6.1,6.1
				c0.5,0.5,0.5,1.4,0,1.9C21.4,22.1,21.1,22.2,20.7,22.2z"/>
		</g>
	</g>
</g>
<g>
	<path fill="#FFBD00" d="M41.4,98.2c1.3-1.4,3.1-2.2,5-2.1c3.4,0.2,6.1,3.1,5.9,6.6c-0.1,2.4-1.6,4.4-3.7,5.4c1,0.6,2,1.4,2.7,2.3
		c2.5-1.6,4.1-4.4,4.3-7.5c0.3-5.3-3.8-9.8-9.1-10c-3-0.1-5.8,1.1-7.7,3.3C39.8,96.7,40.7,97.4,41.4,98.2z"/>
	<path fill="#FFBD00" d="M63.8,102l-5.3-0.3c-0.7,0-1.3,0.5-1.3,1.2c0,0.7,0.5,1.3,1.2,1.3l5.3,0.3c0,0,0,0,0.1,0
		c0.7,0,1.2-0.5,1.2-1.2C65,102.6,64.5,102,63.8,102z"/>
	<path fill="#FFBD00" d="M46.7,91.2C46.7,91.2,46.7,91.2,46.7,91.2c0.7,0,1.3-0.5,1.3-1.2l0.3-5.3c0-0.7-0.5-1.3-1.2-1.3
		c-0.7,0-1.3,0.5-1.3,1.2l-0.3,5.3C45.5,90.6,46,91.2,46.7,91.2z"/>
	<path fill="#FFBD00" d="M55.3,95.3c0.3,0,0.6-0.1,0.8-0.3l3.9-3.5c0.5-0.5,0.5-1.2,0.1-1.8c-0.5-0.5-1.2-0.5-1.8-0.1l-3.9,3.5
		c-0.5,0.5-0.5,1.2-0.1,1.8C54.6,95.1,55,95.3,55.3,95.3z"/>
	<path fill="#FFBD00" d="M55.3,110.7c-0.5-0.5-1.2-0.5-1.8-0.1c-0.5,0.5-0.5,1.2-0.1,1.8l3.5,3.9c0.2,0.3,0.6,0.4,0.9,0.4
		c0.3,0,0.6-0.1,0.8-0.3c0.5-0.5,0.5-1.2,0.1-1.8L55.3,110.7z"/>
	<path fill="#FFBD00" d="M36.9,94c0.2,0.3,0.6,0.4,0.9,0.4c0.3,0,0.6-0.1,0.8-0.3c0.5-0.5,0.5-1.2,0.1-1.8l-3.6-4
		c-0.5-0.5-1.2-0.5-1.8-0.1c-0.5,0.5-0.5,1.2-0.1,1.8L36.9,94z"/>
	<path fill="#333333" d="M51.4,110.3c-0.8-0.9-1.7-1.7-2.7-2.3c-1.2-0.7-2.6-1.1-4.1-1.3c0-0.1,0-0.2,0-0.4c0-3.2-1.2-6-3.2-8.2
		c-0.7-0.8-1.6-1.5-2.5-2.1c-1.9-1.2-4.1-1.9-6.5-1.9c-5.8,0-10.7,4-11.9,9.5c-1.2-0.4-2.4-0.6-3.7-0.6c-6.5,0-11.7,5.3-11.7,11.7
		c0,6.5,5.3,11.7,11.7,11.7h27.1c5.5,0,9.9-4.4,9.9-9.9C53.7,114.2,52.8,112,51.4,110.3z M43.8,123.3H16.7c-4.7,0-8.4-3.8-8.4-8.4
		c0-4.7,3.8-8.4,8.4-8.4c1.5,0,2.9,0.4,4.2,1.1c0.5,0.3,1.1,0.3,1.6,0c0.5-0.3,0.8-0.8,0.9-1.4c0.1-4.8,4.1-8.6,8.9-8.6
		c4.9,0,8.9,4,8.9,8.9c0,0.6-0.1,1.1-0.2,1.7c-0.1,0.5,0,1,0.4,1.4c0.3,0.4,0.8,0.6,1.3,0.6c0,0,0,0,0,0l1.1,0c3.6,0,6.6,3,6.6,6.6
		S47.5,123.3,43.8,123.3z"/>
</g>
<g>
	<g>
		<path fill="#7C7C7C" d="M106.5,59.2c-13.4,0-24.2-10.9-24.2-24.2s10.9-24.2,24.2-24.2c0.6,0,1.3,0,2,0.1c0.9,0.1,1.6,0.7,1.7,1.5
			c0.2,0.8-0.2,1.7-1,2.1c-5.5,3-8.9,8.7-8.9,14.9c0,9.3,7.6,16.9,16.9,16.9c2.6,0,5.2-0.6,7.6-1.8c0.8-0.4,1.7-0.2,2.3,0.4
			c0.6,0.6,0.7,1.6,0.3,2.3C123.1,54.7,115.1,59.2,106.5,59.2z M102.2,15.1c-9.1,2-16,10.2-16,19.9c0,11.2,9.1,20.4,20.4,20.4
			c5.1,0,10-2,13.7-5.4c-1,0.1-1.9,0.2-2.9,0.2c-11.5,0-20.8-9.3-20.8-20.8C96.5,24,98.6,18.9,102.2,15.1z"/>
	</g>
</g>
<g>
	<path fill="#7C7C7C" d="M134.7,99.9c-0.4-0.4-1-0.5-1.5-0.3c-1.1,0.5-2.2,0.8-3.5,0.8c-4.3,0-7.8-3.5-7.8-7.8
		c0-2.9,1.6-5.5,4.1-6.8c0.5-0.3,0.7-0.8,0.6-1.3c-0.1-0.5-0.6-0.9-1.1-1c-0.3,0-0.6,0-1,0c-5.6,0-10.2,3.9-11.5,9
		c0.8,0.5,1.5,1.1,2.2,1.8c0.4-3.7,3-6.7,6.4-7.8c-1.4,1.8-2.1,3.9-2.1,6.3c0,5.6,4.6,10.2,10.2,10.2c0.1,0,0.3,0,0.4,0
		c-1.6,1.2-3.6,1.8-5.6,1.8c-1.9,0-3.8-0.6-5.3-1.7c0,0.3,0,0.6,0,0.9c0,0.1,0,0.3,0,0.4c2.5,0.2,4.8,1.2,6.5,2.8
		c3.7-0.4,7.1-2.5,9-5.8C135.1,100.9,135,100.3,134.7,99.9z"/>
	<path fill="#333333" d="M125.8,107.2c-1.8-1.6-4-2.6-6.5-2.8c0-0.1,0-0.3,0-0.4c0-0.3,0-0.6,0-0.9c-0.2-3.4-1.7-6.5-4-8.8
		c-0.7-0.7-1.4-1.3-2.2-1.8c-2.2-1.4-4.7-2.2-7.5-2.2c-6.5,0-12,4.5-13.3,10.6c-1.3-0.4-2.7-0.7-4.1-0.7c-7.2,0-13.1,5.9-13.1,13.1
		c0,7.2,5.9,13.1,13.1,13.1h30.3c6.1,0,11.1-5,11.1-11.1C129.5,112.1,128.1,109.2,125.8,107.2z M118.4,122.8H88.1
		c-5.2,0-9.4-4.2-9.4-9.4c0-5.2,4.2-9.4,9.4-9.4c1.7,0,3.3,0.4,4.7,1.3c0.6,0.3,1.3,0.3,1.8,0c0.6-0.3,0.9-0.9,0.9-1.6
		c0.2-5.4,4.5-9.7,10-9.7c5.5,0,10,4.5,10,10c0,0.6-0.1,1.3-0.2,1.9c-0.1,0.5,0,1.1,0.4,1.5c0.4,0.4,0.9,0.7,1.4,0.7l1.2,0
		c4.1,0,7.4,3.3,7.4,7.4C125.8,119.5,122.5,122.8,118.4,122.8z"/>
</g>
<g>
	<path fill="#333333" d="M52.8,195.1H19.5c-8,0-14.5-6.5-14.5-14.5c0-8,6.5-14.5,14.5-14.5c1.6,0,3.1,0.2,4.6,0.7
		c1.5-6.7,7.5-11.7,14.7-11.7c8.3,0,15.1,6.8,15.1,15.1c0,0.1,0,0.3,0,0.4c6.3,0.5,11.3,5.8,11.3,12.2
		C65,189.6,59.5,195.1,52.8,195.1z M19.5,170.2c-5.7,0-10.4,4.7-10.4,10.4c0,5.7,4.7,10.4,10.4,10.4h33.3c4.5,0,8.1-3.6,8.1-8.1
		c0-4.5-3.6-8.1-8.1-8.1l-1.3,0c-0.6,0-1.2-0.3-1.6-0.7c-0.4-0.5-0.6-1.1-0.4-1.7c0.1-0.7,0.2-1.4,0.2-2.1c0-6.1-4.9-11-11-11
		c-6,0-10.8,4.7-11,10.6c0,0.7-0.4,1.4-1,1.7c-0.6,0.3-1.4,0.3-2,0C23.1,170.7,21.3,170.2,19.5,170.2z"/>
</g>
<g>
	<path fill="#333333" d="M122.8,194.9H89.5c-8,0-14.5-6.5-14.5-14.5c0-8,6.5-14.5,14.5-14.5c1.6,0,3.1,0.2,4.6,0.7
		c1.5-6.7,7.5-11.7,14.7-11.7c8.3,0,15.1,6.8,15.1,15.1c0,0.1,0,0.3,0,0.4c6.3,0.5,11.3,5.8,11.3,12.2
		C135,189.5,129.5,194.9,122.8,194.9z M89.5,170.1c-5.7,0-10.4,4.7-10.4,10.4c0,5.7,4.7,10.4,10.4,10.4h33.3c4.5,0,8.1-3.6,8.1-8.1
		c0-4.5-3.6-8.1-8.1-8.1l-1.3,0c-0.6,0-1.2-0.3-1.6-0.7c-0.4-0.5-0.6-1.1-0.4-1.7c0.1-0.7,0.2-1.4,0.2-2.1c0-6.1-4.9-11-11-11
		c-6,0-10.8,4.7-11,10.6c0,0.7-0.4,1.4-1,1.7c-0.6,0.3-1.4,0.3-2,0C93.1,170.6,91.3,170.1,89.5,170.1z"/>
</g>
<g>
	<path fill="#FFBD00" d="M41,235.8c1.3-1.4,3.1-2.2,5-2.1c1.7,0.1,3.2,0.8,4.3,2.1c1.1,1.2,1.7,2.8,1.6,4.5
		c-0.1,2.4-1.6,4.4-3.7,5.4c1,0.6,2,1.4,2.7,2.3c2.5-1.6,4.1-4.4,4.3-7.5c0.1-2.6-0.7-5-2.5-6.9c-1.7-1.9-4.1-3-6.6-3.1
		c-3-0.2-5.8,1.1-7.7,3.3C39.4,234.3,40.3,235,41,235.8z"/>
	<path fill="#FFBD00" d="M63.4,239.6l-5.3-0.3c-0.7,0-1.3,0.5-1.3,1.2c0,0.7,0.5,1.3,1.2,1.3l5.3,0.3c0,0,0,0,0.1,0
		c0.7,0,1.2-0.5,1.2-1.2C64.6,240.2,64.1,239.6,63.4,239.6z"/>
	<path fill="#FFBD00" d="M46.3,228.8C46.3,228.8,46.3,228.8,46.3,228.8c0.7,0,1.3-0.5,1.3-1.2l0.3-5.3c0-0.7-0.5-1.3-1.2-1.3
		c-0.7,0-1.3,0.5-1.3,1.2l-0.3,5.3C45.1,228.2,45.6,228.8,46.3,228.8z"/>
	<path fill="#FFBD00" d="M54.9,232.9c0.3,0,0.6-0.1,0.8-0.3l3.9-3.5c0.5-0.5,0.5-1.2,0.1-1.8c-0.5-0.5-1.2-0.5-1.7-0.1l-3.9,3.5
		c-0.5,0.5-0.5,1.2-0.1,1.8C54.2,232.8,54.6,232.9,54.9,232.9z"/>
	<path fill="#FFBD00" d="M55,248.3c-0.5-0.5-1.2-0.5-1.8-0.1c-0.5,0.5-0.5,1.2-0.1,1.8l3.5,3.9c0.2,0.3,0.6,0.4,0.9,0.4
		c0.3,0,0.6-0.1,0.8-0.3c0.5-0.5,0.5-1.2,0.1-1.8L55,248.3z"/>
	<path fill="#FFBD00" d="M36.5,231.6c0.2,0.3,0.6,0.4,0.9,0.4c0.3,0,0.6-0.1,0.8-0.3c0.5-0.5,0.5-1.2,0.1-1.8l-3.6-4
		c-0.5-0.5-1.2-0.5-1.8-0.1c-0.5,0.5-0.5,1.2-0.1,1.8L36.5,231.6z"/>
	<path fill="#333333" d="M51,247.9c-0.8-0.9-1.7-1.7-2.7-2.3c-1.2-0.7-2.6-1.1-4.1-1.3c0-0.1,0-0.2,0-0.4c0-3.2-1.2-6-3.2-8.2
		c-0.7-0.8-1.6-1.5-2.5-2.1c-1.9-1.2-4.1-1.9-6.5-1.9c-5.8,0-10.7,4-11.9,9.5c-1.2-0.4-2.4-0.6-3.7-0.6c-6.5,0-11.7,5.3-11.7,11.7
		c0,2.5,0.8,5,2.3,7c0.5,0.7,1.6,0.9,2.3,0.3c0.7-0.5,0.9-1.6,0.3-2.3c-1.1-1.5-1.7-3.2-1.7-5c0-4.7,3.8-8.4,8.4-8.4
		c1.5,0,2.9,0.4,4.2,1.1c0.5,0.3,1.1,0.3,1.6,0c0.5-0.3,0.8-0.8,0.8-1.4c0.1-4.8,4.1-8.6,8.9-8.6c4.9,0,8.9,4,8.9,8.9
		c0,0.6-0.1,1.1-0.2,1.7c-0.1,0.5,0,1,0.4,1.4c0.3,0.4,0.8,0.6,1.3,0.6c0,0,0,0,0,0l1.1,0c3.6,0,6.6,3,6.6,6.6c0,1.9-0.8,3.8-2.3,5
		c-0.7,0.6-0.8,1.6-0.2,2.3c0.3,0.4,0.8,0.6,1.3,0.6c0.4,0,0.8-0.1,1.1-0.4c2.2-1.9,3.5-4.6,3.5-7.5C53.3,251.9,52.5,249.6,51,247.9
		z"/>
	<path fill="#BABABA" d="M43.5,255.9c0.9,0,1.7-0.7,1.7-1.7c0-0.9-0.7-1.7-1.7-1.7H19.4c-0.9,0-1.7,0.7-1.7,1.7
		c0,0.9,0.7,1.7,1.7,1.7H43.5z"/>
	<path fill="#BABABA" d="M43.6,265H19.5c-0.9,0-1.7,0.7-1.7,1.7c0,0.9,0.7,1.7,1.7,1.7h24.1c0.9,0,1.7-0.7,1.7-1.7
		C45.3,265.8,44.5,265,43.6,265z"/>
	<path fill="#BABABA" d="M41.8,260.8c0-0.9-0.7-1.7-1.7-1.7H13.9c-0.9,0-1.7,0.7-1.7,1.7c0,0.9,0.7,1.7,1.7,1.7h26.3
		C41.1,262.4,41.8,261.7,41.8,260.8z"/>
</g>
<g>
	<g>
		<path fill="#7C7C7C" d="M134.7,237.4c-0.4-0.4-1-0.5-1.5-0.3c-1.1,0.5-2.3,0.8-3.5,0.8c-4.3,0-7.8-3.5-7.8-7.8
			c0-2.9,1.6-5.5,4.1-6.9c0.5-0.3,0.7-0.8,0.6-1.3c-0.1-0.5-0.6-0.9-1.1-1c-0.3,0-0.6,0-1,0c-5.6,0-10.3,3.9-11.6,9.1
			c0.8,0.5,1.5,1,2.2,1.6c0.5-3.6,3-6.6,6.4-7.7c-1.4,1.8-2.1,4-2.1,6.3c0,5.7,4.6,10.3,10.3,10.3c0.1,0,0.3,0,0.4,0
			c-1.6,1.2-3.6,1.9-5.6,1.9c-1.8,0-3.5-0.5-4.9-1.4c0,0.3,0,0.5,0,0.8c0,0.1,0,0.3,0,0.4c2.4,0.2,4.5,1.1,6.3,2.6
			c3.7-0.4,7.1-2.6,9-5.8C135.1,238.4,135,237.8,134.7,237.4z"/>
		<path fill="#333333" d="M125.9,244.7c-1.7-1.4-3.9-2.4-6.3-2.6c0-0.1,0-0.3,0-0.4c0-0.3,0-0.5,0-0.8c-0.2-3.7-1.9-7-4.5-9.3
			c-0.7-0.6-1.4-1.2-2.2-1.6c-2.1-1.2-4.5-2-7.1-2c-6.6,0-12,4.5-13.4,10.7c-1.3-0.4-2.7-0.7-4.2-0.7c-7.3,0-13.2,5.9-13.2,13.2
			c0,2.9,0.9,5.6,2.6,7.9c0.6,0.8,1.8,1,2.6,0.4c0.8-0.6,1-1.8,0.4-2.6c-1.2-1.6-1.9-3.6-1.9-5.7c0-5.2,4.3-9.5,9.5-9.5
			c1.7,0,3.3,0.4,4.8,1.3c0.6,0.3,1.3,0.3,1.8,0c0.6-0.3,0.9-0.9,1-1.6c0.2-5.5,4.6-9.7,10-9.7c5.5,0,10.1,4.5,10.1,10.1
			c0,0.6-0.1,1.3-0.2,1.9c-0.1,0.5,0,1.1,0.4,1.5c0.4,0.4,0.9,0.7,1.4,0.7c0,0,0,0,0,0l1.2,0c4.1,0,7.4,3.3,7.4,7.4
			c0,2.2-0.9,4.2-2.6,5.6c-0.8,0.7-0.9,1.8-0.2,2.6c0.4,0.4,0.9,0.6,1.4,0.6c0.4,0,0.9-0.1,1.2-0.5c2.5-2.1,3.9-5.2,3.9-8.5
			C129.9,249.8,128.3,246.8,125.9,244.7z"/>
	</g>
	<g>
		<path fill="#BABABA" d="M118.8,255.1H91.6c-1,0-1.9-0.8-1.9-1.9c0-1,0.8-1.9,1.9-1.9h27.2c1,0,1.9,0.8,1.9,1.9
			C120.7,254.3,119.8,255.1,118.8,255.1z"/>
	</g>
	<g>
		<path fill="#BABABA" d="M119,269.1H91.8c-1,0-1.9-0.8-1.9-1.9c0-1,0.8-1.9,1.9-1.9H119c1,0,1.9,0.8,1.9,1.9
			C120.8,268.3,120,269.1,119,269.1z"/>
	</g>
	<g>
		<path fill="#BABABA" d="M115.1,262.4H85.4c-1,0-1.9-0.8-1.9-1.9c0-1,0.8-1.9,1.9-1.9h29.7c1,0,1.9,0.8,1.9,1.9
			C117,261.6,116.1,262.4,115.1,262.4z"/>
	</g>
</g>
<g>
	<g>
		<path fill="#FFBD00" d="M41.4,304.1c1.3-1.4,3.1-2.2,5-2.1c3.4,0.2,6.1,3.1,5.9,6.6c-0.1,2.4-1.6,4.4-3.7,5.4c1,0.6,2,1.4,2.7,2.3
			c2.5-1.7,4.1-4.4,4.3-7.5c0.3-5.3-3.8-9.8-9.1-10c-3-0.1-5.8,1.1-7.7,3.3C39.8,302.6,40.7,303.3,41.4,304.1z"/>
		<path fill="#FFBD00" d="M63.8,307.9l-5.3-0.3c-0.7,0-1.3,0.5-1.3,1.2c0,0.7,0.5,1.3,1.2,1.3l5.3,0.3c0,0,0,0,0.1,0
			c0.7,0,1.2-0.5,1.2-1.2C65,308.5,64.5,308,63.8,307.9z"/>
		<path fill="#FFBD00" d="M46.7,297.1C46.7,297.1,46.7,297.1,46.7,297.1c0.7,0,1.3-0.5,1.3-1.2l0.3-5.3c0-0.7-0.5-1.3-1.2-1.3
			c-0.7,0-1.3,0.5-1.3,1.2l-0.3,5.3C45.5,296.5,46,297.1,46.7,297.1z"/>
		<path fill="#FFBD00" d="M55.3,301.2c0.3,0,0.6-0.1,0.8-0.3l3.9-3.5c0.5-0.5,0.5-1.2,0.1-1.8c-0.5-0.5-1.2-0.5-1.8-0.1l-3.9,3.5
			c-0.5,0.5-0.5,1.2-0.1,1.8C54.6,301.1,55,301.2,55.3,301.2z"/>
		<path fill="#FFBD00" d="M55.3,316.6c-0.5-0.5-1.2-0.5-1.8-0.1c-0.5,0.5-0.5,1.2-0.1,1.8l3.5,3.9c0.2,0.3,0.6,0.4,0.9,0.4
			c0.3,0,0.6-0.1,0.8-0.3c0.5-0.5,0.5-1.2,0.1-1.8L55.3,316.6z"/>
		<path fill="#FFBD00" d="M36.9,299.9c0.2,0.3,0.6,0.4,0.9,0.4c0.3,0,0.6-0.1,0.8-0.3c0.5-0.5,0.5-1.2,0.1-1.8l-3.6-4
			c-0.5-0.5-1.2-0.5-1.8-0.1c-0.5,0.5-0.5,1.2-0.1,1.8L36.9,299.9z"/>
		<path fill="#333333" d="M51.4,316.2c-0.8-0.9-1.7-1.7-2.7-2.3c-1.2-0.7-2.6-1.1-4.1-1.3c0-0.1,0-0.2,0-0.4c0-3.2-1.2-6-3.2-8.2
			c-0.7-0.8-1.6-1.5-2.5-2.1c-1.9-1.2-4.1-1.9-6.5-1.9c-5.8,0-10.7,4-11.9,9.5c-1.2-0.4-2.4-0.6-3.7-0.6C10.3,309,5,314.3,5,320.8
			c0,6.5,5.3,11.7,11.7,11.7h5.4c0.9,0,1.7-0.7,1.7-1.7c0-0.9-0.7-1.7-1.7-1.7h-5.4c-4.7,0-8.4-3.8-8.4-8.4c0-4.7,3.8-8.4,8.4-8.4
			c1.5,0,2.9,0.4,4.2,1.1c0.5,0.3,1.1,0.3,1.6,0c0.5-0.3,0.8-0.8,0.9-1.4c0.1-4.8,4.1-8.6,8.9-8.6c4.9,0,8.9,4,8.9,8.9
			c0,0.6-0.1,1.1-0.2,1.7c-0.1,0.5,0,1,0.4,1.4c0.3,0.4,0.8,0.6,1.3,0.6c0,0,0,0,0,0l1.1,0c3.6,0,6.6,3,6.6,6.6c0,3.6-3,6.6-6.6,6.6
			h-5.4c-0.9,0-1.7,0.7-1.7,1.7c0,0.9,0.7,1.7,1.7,1.7h5.4c5.5,0,9.9-4.4,9.9-9.9C53.7,320.2,52.8,318,51.4,316.2z"/>
	</g>
	<g>
		<g>
			<path fill="#333333" d="M27.1,340.6c-0.3,0-0.6-0.1-0.9-0.2c-1.1-0.5-1.6-1.8-1-2.9l4.3-9c0.5-1.1,1.8-1.6,2.9-1
				c1.1,0.5,1.6,1.8,1,2.9l-4.3,9C28.7,340.2,27.9,340.6,27.1,340.6z"/>
		</g>
		<g>
			<path fill="#239BB7" d="M27.1,340.6c-0.3,0-0.6-0.1-0.9-0.2c-1.1-0.5-1.6-1.8-1-2.9l4.3-9c0.5-1.1,1.8-1.6,2.9-1
				c1.1,0.5,1.6,1.8,1,2.9l-4.3,9C28.7,340.2,27.9,340.6,27.1,340.6z"/>
		</g>
	</g>
</g>
<g>
	<g>
		<path fill="#7C7C7C" d="M134.7,305.6c-0.4-0.4-1-0.5-1.4-0.3c-1.1,0.5-2.2,0.8-3.4,0.8c-4.3,0-7.7-3.5-7.7-7.7
			c0-2.8,1.6-5.4,4-6.8c0.5-0.3,0.7-0.8,0.6-1.3c-0.1-0.5-0.6-0.9-1.1-1c-0.3,0-0.6,0-1,0c-5.5,0-10.2,3.8-11.4,9
			c0.8,0.6,1.5,1.2,2.1,1.9c0.4-3.7,2.9-6.8,6.4-7.9c-1.3,1.7-2.1,3.9-2.1,6.2c0,5.6,4.6,10.2,10.2,10.2c0.1,0,0.3,0,0.4,0
			c-1.6,1.2-3.5,1.8-5.5,1.8c-2.1,0-4.1-0.7-5.7-1.9c0,0.3,0,0.6,0,0.9c0,0.1,0,0.3,0,0.4c2.6,0.2,5,1.3,6.8,3.1
			c3.7-0.4,7.2-2.5,9.1-5.8C135.1,306.5,135,306,134.7,305.6z"/>
		<path fill="#333333" d="M125.8,312.8c-1.8-1.7-4.1-2.9-6.8-3.1c0-0.1,0-0.3,0-0.4c0-0.3,0-0.6,0-0.9c-0.2-3.2-1.5-6.1-3.6-8.3
			c-0.6-0.7-1.4-1.3-2.1-1.9c-2.2-1.6-4.9-2.5-7.8-2.5c-6.5,0-11.9,4.5-13.2,10.5c-1.3-0.4-2.7-0.7-4.1-0.7
			c-7.2,0-13.1,5.9-13.1,13.1c0,7.2,5.9,13.1,13.1,13.1h6c1,0,1.8-0.8,1.8-1.8c0-1-0.8-1.8-1.8-1.8h-6c-5.2,0-9.4-4.2-9.4-9.4
			c0-5.2,4.2-9.4,9.4-9.4c1.6,0,3.3,0.4,4.7,1.3c0.6,0.3,1.2,0.3,1.8,0c0.6-0.3,0.9-0.9,0.9-1.5c0.2-5.4,4.5-9.6,9.9-9.6
			c5.5,0,9.9,4.4,9.9,9.9c0,0.6-0.1,1.2-0.2,1.9c-0.1,0.5,0,1.1,0.4,1.5c0.3,0.4,0.9,0.7,1.4,0.7c0,0,0,0,0,0l1.2,0
			c4,0,7.3,3.3,7.3,7.3c0,4-3.3,7.3-7.3,7.3h-6c-1,0-1.8,0.8-1.8,1.8c0,1,0.8,1.8,1.8,1.8h6c6.1,0,11-4.9,11-11
			C129.1,317.6,127.8,314.8,125.8,312.8z"/>
	</g>
	<g>
		<path fill="#239BB7" d="M99.5,340.7c-0.4,0-0.7-0.1-1.1-0.2c-1.2-0.6-1.7-2-1.2-3.3l4.7-10c0.6-1.2,2-1.7,3.3-1.2
			c1.2,0.6,1.7,2,1.2,3.3l-4.7,10C101.3,340.2,100.4,340.7,99.5,340.7z"/>
	</g>
</g>
<g>
	<g>
		<path fill="#239BB7" d="M13.2,404.1c-0.2,0-0.5-0.1-0.7-0.2c-0.8-0.4-1.2-1.4-0.8-2.2l4.3-9c0.4-0.8,1.4-1.2,2.2-0.8
			c0.8,0.4,1.2,1.4,0.8,2.2l-4.3,9C14.4,403.8,13.8,404.1,13.2,404.1z"/>
	</g>
	<g>
		<path fill="#239BB7" d="M18.6,410.6c-0.2,0-0.5-0.1-0.7-0.2c-0.8-0.4-1.2-1.4-0.8-2.2l4.3-9c0.4-0.8,1.4-1.2,2.2-0.8
			c0.8,0.4,1.2,1.4,0.8,2.2l-4.3,9C19.8,410.2,19.2,410.6,18.6,410.6z"/>
	</g>
	<g>
		<path fill="#239BB7" d="M27.5,408c-0.2,0-0.5-0.1-0.7-0.2c-0.8-0.4-1.2-1.4-0.8-2.2l4.3-9c0.4-0.8,1.4-1.2,2.2-0.8
			c0.8,0.4,1.2,1.4,0.8,2.2l-4.3,9C28.7,407.7,28.1,408,27.5,408z"/>
	</g>
	<g>
		<path fill="#FFBD00" d="M41.4,371.3c1.3-1.4,3.1-2.2,5-2.1c1.7,0.1,3.2,0.8,4.3,2.1c1.1,1.2,1.7,2.9,1.6,4.5
			c-0.1,2.4-1.6,4.4-3.7,5.4c1.1,0.6,2,1.3,2.8,2.2c2.5-1.7,4.1-4.4,4.2-7.5c0.1-2.6-0.7-5-2.5-6.9c-1.7-1.9-4.1-3-6.6-3.2
			c-3-0.2-5.8,1-7.7,3.3C39.8,369.7,40.6,370.5,41.4,371.3z"/>
		<path fill="#FFBD00" d="M63.8,375.1l-5.3-0.3c-0.7,0-1.3,0.5-1.3,1.2c0,0.7,0.5,1.3,1.2,1.3l5.3,0.3c0,0,0,0,0.1,0
			c0.7,0,1.2-0.5,1.2-1.2C65,375.7,64.5,375.1,63.8,375.1z"/>
		<path fill="#FFBD00" d="M46.6,364.3C46.6,364.3,46.7,364.3,46.6,364.3c0.7,0,1.3-0.5,1.3-1.2l0.3-5.3c0-0.7-0.5-1.3-1.2-1.3
			c-0.7,0-1.3,0.5-1.3,1.2l-0.3,5.3C45.4,363.7,45.9,364.3,46.6,364.3z"/>
		<path fill="#FFBD00" d="M55.3,368.4c0.3,0,0.6-0.1,0.8-0.3l3.9-3.6c0.5-0.5,0.6-1.2,0.1-1.8c-0.5-0.5-1.2-0.6-1.8-0.1l-3.9,3.6
			c-0.5,0.5-0.6,1.2-0.1,1.8C54.6,368.2,54.9,368.4,55.3,368.4z"/>
		<path fill="#FFBD00" d="M55.3,383.9c-0.5-0.5-1.2-0.6-1.8-0.1c-0.5,0.5-0.6,1.2-0.1,1.8l3.5,3.9c0.2,0.3,0.6,0.4,0.9,0.4
			c0.3,0,0.6-0.1,0.8-0.3c0.5-0.5,0.5-1.2,0.1-1.8L55.3,383.9z"/>
		<path fill="#FFBD00" d="M36.8,367.1c0.2,0.3,0.6,0.4,0.9,0.4c0.3,0,0.6-0.1,0.8-0.3c0.5-0.5,0.6-1.2,0.1-1.8l-3.6-4
			c-0.5-0.5-1.2-0.6-1.8-0.1c-0.5,0.5-0.6,1.2-0.1,1.8L36.8,367.1z"/>
		<path fill="#333333" d="M51.4,383.4c-0.8-0.9-1.7-1.7-2.8-2.2c-1.2-0.6-2.5-1.1-3.9-1.2c0-0.1,0-0.2,0-0.4c0-3.2-1.3-6.2-3.3-8.4
			c-0.8-0.8-1.6-1.5-2.6-2.1c-1.9-1.1-4-1.8-6.4-1.8c-5.9,0-10.7,4-12,9.5c-1.2-0.4-2.4-0.6-3.7-0.6c-6.5,0-11.8,5.3-11.8,11.8
			c0,3.1,1.2,6,3.3,8.2c0.6,0.7,1.7,0.7,2.3,0c0.7-0.6,0.7-1.7,0-2.3c-1.6-1.6-2.4-3.7-2.4-5.9c0-4.7,3.8-8.5,8.5-8.5
			c1.5,0,3,0.4,4.2,1.1c0.5,0.3,1.1,0.3,1.6,0c0.5-0.3,0.8-0.8,0.9-1.4c0.1-4.9,4.1-8.7,8.9-8.7c4.9,0,8.9,4,8.9,8.9
			c0,0.6-0.1,1.1-0.2,1.7c-0.1,0.5,0,1,0.4,1.4c0.3,0.4,0.8,0.6,1.3,0.6c0,0,0,0,0,0l1.1,0c3.6,0,6.6,3,6.6,6.6c0,1.8-0.7,3.5-2,4.7
			c-0.7,0.6-0.7,1.7,0,2.3c0.3,0.3,0.8,0.5,1.2,0.5c0.4,0,0.8-0.2,1.2-0.5c1.9-1.9,2.9-4.4,2.9-7.1
			C53.9,387.4,52.9,385.1,51.4,383.4z"/>
	</g>
	<g>
		<path fill="#F9C900" d="M38.4,396c0.5-0.9,1.7-1.7,2.7-1.7h3.1c1,0,1.5,0.8,1.1,1.7l-1.8,3.8c-0.4,0.9,0.1,1.7,1.1,1.7h1.9
			c1,0,1.3,0.6,0.6,1.4l-8.8,10c-0.7,0.8-1,0.6-0.6-0.4l2-5.6c0.3-1-0.2-1.8-1.3-1.8h-2.7c-1,0-1.5-0.8-1.1-1.7L38.4,396z"/>
	</g>
</g>
<g>
	<g>
		<path fill="#7C7C7C" d="M134.7,372.5c-0.4-0.4-1-0.5-1.4-0.3c-1.1,0.5-2.2,0.8-3.4,0.8c-4.3,0-7.7-3.5-7.7-7.7
			c0-2.8,1.6-5.4,4-6.8c0.5-0.3,0.7-0.8,0.6-1.3c-0.1-0.5-0.6-0.9-1.1-1c-0.3,0-0.6,0-1,0c-5.5,0-10.2,3.8-11.4,9
			c0.8,0.6,1.5,1.2,2.1,1.9c0.4-3.7,2.9-6.8,6.4-7.9c-1.3,1.7-2.1,3.9-2.1,6.2c0,5.6,4.6,10.2,10.2,10.2c0.1,0,0.3,0,0.4,0
			c-1.6,1.2-3.5,1.8-5.5,1.8c-2.1,0-4.1-0.7-5.7-1.9c0,0.3,0,0.6,0,0.9c0,0.1,0,0.3,0,0.4c2.6,0.2,5,1.3,6.8,3.1
			c3.7-0.4,7.2-2.5,9.1-5.8C135.1,373.5,135,372.9,134.7,372.5z"/>
		<path fill="#333333" d="M125.8,379.7c-1.8-1.7-4.1-2.9-6.8-3.1c0-0.1,0-0.3,0-0.4c0-0.3,0-0.6,0-0.9c-0.2-3.2-1.5-6.1-3.6-8.3
			c-0.6-0.7-1.4-1.3-2.1-1.9c-2.2-1.6-4.9-2.5-7.8-2.5c-6.5,0-11.9,4.5-13.2,10.5c-1.3-0.4-2.7-0.7-4.1-0.7
			c-7.2,0-13.1,5.9-13.1,13.1c0,3.4,1.3,6.7,3.7,9.1c0.7,0.7,1.9,0.7,2.6,0c0.7-0.7,0.7-1.9,0-2.6c-1.7-1.8-2.7-4.1-2.7-6.5
			c0-5.2,4.2-9.4,9.4-9.4c1.6,0,3.3,0.4,4.7,1.3c0.6,0.3,1.2,0.3,1.8,0c0.6-0.3,0.9-0.9,0.9-1.5c0.2-5.4,4.5-9.6,9.9-9.6
			c5.5,0,9.9,4.4,9.9,9.9c0,0.6-0.1,1.2-0.2,1.9c-0.1,0.5,0,1.1,0.4,1.5c0.4,0.4,0.9,0.7,1.4,0.7c0,0,0,0,0,0l1.2,0
			c4,0,7.3,3.3,7.3,7.3c0,2-0.8,3.8-2.2,5.2c-0.7,0.7-0.7,1.9,0,2.6c0.4,0.4,0.8,0.5,1.3,0.5c0.5,0,0.9-0.2,1.3-0.5
			c2.1-2.1,3.3-4.9,3.3-7.8C129.1,384.6,127.8,381.7,125.8,379.7z"/>
	</g>
	<g>
		<path fill="#239BB7" d="M84,403.4c-0.3,0-0.5-0.1-0.8-0.2c-0.9-0.4-1.3-1.5-0.9-2.4l4.7-10c0.4-0.9,1.5-1.3,2.4-0.9
			c0.9,0.4,1.3,1.5,0.9,2.4l-4.7,10C85.4,403,84.7,403.4,84,403.4z"/>
	</g>
	<g>
		<path fill="#239BB7" d="M90,410.6c-0.3,0-0.5-0.1-0.8-0.2c-0.9-0.4-1.3-1.5-0.9-2.5l4.7-10c0.4-0.9,1.5-1.3,2.4-0.9
			c0.9,0.4,1.3,1.5,0.9,2.4l-4.7,10C91.3,410.2,90.7,410.6,90,410.6z"/>
	</g>
	<g>
		<path fill="#239BB7" d="M99.8,407.8c-0.3,0-0.5-0.1-0.8-0.2c-0.9-0.4-1.3-1.5-0.9-2.5l4.7-10c0.4-0.9,1.5-1.3,2.4-0.9
			c0.9,0.4,1.3,1.5,0.9,2.4l-4.7,10C101.1,407.4,100.5,407.8,99.8,407.8z"/>
	</g>
	<g>
		<path fill="#F9C900" d="M111.4,394.4c0.5-1,1.9-1.9,3-1.9h3.5c1.2,0,1.7,0.9,1.2,1.9l-2,4.2c-0.5,1,0.1,1.9,1.2,1.9h2.1
			c1.2,0,1.5,0.7,0.7,1.6l-9.7,11.1c-0.8,0.9-1.1,0.7-0.7-0.4l2.2-6.2c0.4-1.1-0.2-2-1.4-2h-2.9c-1.2,0-1.7-0.8-1.2-1.9L111.4,394.4
			z"/>
	</g>
</g>
<g>
	<g>
		<path fill="#FFBD00" d="M41,442.6c1.3-1.4,3.1-2.2,5-2.1c1.7,0.1,3.2,0.8,4.3,2.1c1.1,1.2,1.7,2.9,1.6,4.5
			c-0.1,2.4-1.5,4.4-3.7,5.4c1.1,0.6,2,1.3,2.8,2.2c2.5-1.7,4.1-4.4,4.2-7.5c0.1-2.6-0.7-5-2.5-6.9c-1.7-1.9-4.1-3-6.6-3.2
			c-3-0.2-5.8,1-7.7,3.3C39.4,441.1,40.2,441.8,41,442.6z"/>
		<path fill="#FFBD00" d="M63.4,446.5l-5.3-0.3c-0.7,0-1.3,0.5-1.3,1.2c0,0.7,0.5,1.3,1.2,1.3l5.3,0.3c0,0,0,0,0.1,0
			c0.7,0,1.2-0.5,1.2-1.2C64.6,447.1,64.1,446.5,63.4,446.5z"/>
		<path fill="#FFBD00" d="M46.2,435.7C46.2,435.7,46.3,435.7,46.2,435.7c0.7,0,1.3-0.5,1.3-1.2l0.3-5.3c0-0.7-0.5-1.3-1.2-1.3
			c-0.7,0-1.3,0.5-1.3,1.2l-0.3,5.3C45,435,45.5,435.6,46.2,435.7z"/>
		<path fill="#FFBD00" d="M54.9,439.7c0.3,0,0.6-0.1,0.8-0.3l3.9-3.6c0.5-0.5,0.6-1.2,0.1-1.8c-0.5-0.5-1.2-0.6-1.8-0.1l-3.9,3.6
			c-0.5,0.5-0.5,1.2-0.1,1.8C54.2,439.6,54.5,439.7,54.9,439.7z"/>
		<path fill="#FFBD00" d="M54.9,455.2c-0.5-0.5-1.2-0.6-1.8-0.1c-0.5,0.5-0.6,1.2-0.1,1.8l3.5,3.9c0.2,0.3,0.6,0.4,0.9,0.4
			c0.3,0,0.6-0.1,0.8-0.3c0.5-0.5,0.5-1.2,0.1-1.8L54.9,455.2z"/>
		<path fill="#FFBD00" d="M36.4,438.5c0.2,0.3,0.6,0.4,0.9,0.4c0.3,0,0.6-0.1,0.8-0.3c0.5-0.5,0.6-1.2,0.1-1.8l-3.6-4
			c-0.5-0.5-1.2-0.6-1.8-0.1c-0.5,0.5-0.6,1.2-0.1,1.8L36.4,438.5z"/>
		<path fill="#333333" d="M51,454.8c-0.8-0.9-1.7-1.7-2.8-2.2c-1.2-0.6-2.5-1.1-3.9-1.2c0-0.1,0-0.2,0-0.4c0-3.2-1.3-6.2-3.3-8.4
			c-0.8-0.8-1.6-1.5-2.6-2.1c-1.9-1.1-4-1.8-6.4-1.8c-5.9,0-10.7,4-12,9.5c-1.2-0.4-2.4-0.6-3.7-0.6c-6.5,0-11.8,5.3-11.8,11.8
			c0,3.1,1.2,6,3.3,8.2c0.6,0.7,1.7,0.7,2.3,0c0.7-0.6,0.7-1.7,0-2.3c-1.6-1.6-2.4-3.7-2.4-5.9c0-4.7,3.8-8.5,8.5-8.5
			c1.5,0,3,0.4,4.2,1.1c0.5,0.3,1.1,0.3,1.6,0c0.5-0.3,0.8-0.8,0.9-1.4c0.1-4.9,4.1-8.7,8.9-8.7c4.9,0,8.9,4,8.9,8.9
			c0,0.6-0.1,1.1-0.2,1.7c-0.1,0.5,0,1,0.4,1.4c0.3,0.4,0.8,0.6,1.3,0.6c0,0,0,0,0,0l1.1,0c3.7,0,6.6,3,6.6,6.6c0,1.8-0.7,3.5-2,4.7
			c-0.7,0.6-0.7,1.7,0,2.3c0.3,0.3,0.8,0.5,1.2,0.5c0.4,0,0.8-0.2,1.2-0.5c1.9-1.9,2.9-4.4,2.9-7.1C53.5,458.8,52.5,456.5,51,454.8z
			"/>
	</g>
	<g>
		<path fill="#239BB7" d="M12.9,478.8c-0.2,0-0.5-0.1-0.7-0.2c-0.8-0.4-1.2-1.4-0.8-2.2l4.3-9c0.4-0.8,1.4-1.2,2.2-0.8
			c0.8,0.4,1.2,1.4,0.8,2.2l-4.3,9C14.1,478.5,13.5,478.8,12.9,478.8z"/>
	</g>
	<g>
		<path fill="#239BB7" d="M22.2,476.5c-0.2,0-0.5-0.1-0.7-0.2c-0.8-0.4-1.2-1.4-0.8-2.2l4.3-9c0.4-0.8,1.4-1.2,2.2-0.8
			c0.8,0.4,1.2,1.4,0.8,2.2l-4.3,9C23.4,476.1,22.8,476.5,22.2,476.5z"/>
	</g>
	<g>
		<path fill="#239BB7" d="M27.6,482.1c-0.2,0-0.5-0.1-0.7-0.2c-0.8-0.4-1.2-1.4-0.8-2.2l4.3-9c0.4-0.8,1.4-1.2,2.2-0.8
			c0.8,0.4,1.2,1.4,0.8,2.2l-4.3,9C28.8,481.8,28.2,482.1,27.6,482.1z"/>
	</g>
	<g>
		<path fill="#239BB7" d="M37.7,478.1c-0.2,0-0.5-0.1-0.7-0.2c-0.8-0.4-1.2-1.4-0.8-2.2l4.3-9c0.4-0.8,1.4-1.2,2.2-0.8
			c0.8,0.4,1.2,1.4,0.8,2.2l-4.3,9C38.9,477.8,38.3,478.1,37.7,478.1z"/>
	</g>
</g>
<g>
	<g>
		<path fill="#239BB7" d="M84.2,478.9c-0.3,0-0.5-0.1-0.8-0.2c-0.9-0.4-1.3-1.5-0.9-2.4l4.7-10c0.4-0.9,1.5-1.3,2.4-0.9
			c0.9,0.4,1.3,1.5,0.9,2.4l-4.7,10C85.5,478.5,84.9,478.9,84.2,478.9z"/>
	</g>
	<g>
		<path fill="#239BB7" d="M94.4,476.3c-0.3,0-0.5-0.1-0.8-0.2c-0.9-0.4-1.3-1.5-0.9-2.4l4.7-10c0.4-0.9,1.5-1.3,2.4-0.9
			c0.9,0.4,1.3,1.5,0.9,2.4l-4.7,10C95.8,475.9,95.1,476.3,94.4,476.3z"/>
	</g>
	<g>
		<path fill="#239BB7" d="M100.4,482.6c-0.3,0-0.5-0.1-0.8-0.2c-0.9-0.4-1.3-1.5-0.9-2.4l4.7-10c0.4-0.9,1.5-1.3,2.4-0.9
			c0.9,0.4,1.3,1.5,0.9,2.4l-4.7,10C101.8,482.2,101.1,482.6,100.4,482.6z"/>
	</g>
	<g>
		<path fill="#239BB7" d="M111.6,478.1c-0.3,0-0.5-0.1-0.8-0.2c-0.9-0.4-1.3-1.5-0.9-2.4l4.7-10c0.4-0.9,1.5-1.3,2.4-0.9
			c0.9,0.4,1.3,1.5,0.9,2.4l-4.7,10C112.9,477.7,112.3,478.1,111.6,478.1z"/>
	</g>
	<g>
		<path fill="#7C7C7C" d="M134.7,444.3c-0.4-0.4-1-0.5-1.4-0.3c-1.1,0.5-2.2,0.8-3.4,0.8c-4.3,0-7.7-3.5-7.7-7.7
			c0-2.8,1.6-5.4,4-6.8c0.5-0.3,0.7-0.8,0.6-1.3c-0.1-0.5-0.6-0.9-1.1-1c-0.3,0-0.6,0-1,0c-5.5,0-10.2,3.8-11.4,9
			c0.8,0.6,1.5,1.2,2.1,1.9c0.4-3.7,2.9-6.8,6.4-7.9c-1.3,1.8-2.1,3.9-2.1,6.2c0,5.6,4.6,10.2,10.2,10.2c0.1,0,0.3,0,0.4,0
			c-1.6,1.2-3.5,1.8-5.5,1.8c-2.1,0-4.1-0.7-5.7-1.9c0,0.3,0,0.6,0,0.9c0,0.1,0,0.3,0,0.4c2.6,0.2,5,1.3,6.8,3.1
			c3.7-0.4,7.2-2.5,9.1-5.8C135.1,445.3,135,444.7,134.7,444.3z"/>
		<path fill="#333333" d="M125.8,451.5c-1.8-1.7-4.1-2.9-6.8-3.1c0-0.1,0-0.3,0-0.4c0-0.3,0-0.6,0-0.9c-0.2-3.2-1.5-6.1-3.6-8.3
			c-0.6-0.7-1.4-1.3-2.1-1.9c-2.2-1.6-4.9-2.5-7.8-2.5c-6.5,0-11.9,4.5-13.2,10.5c-1.3-0.4-2.7-0.7-4.1-0.7
			c-7.2,0-13.1,5.9-13.1,13.1c0,3.4,1.3,6.7,3.7,9.1c0.7,0.7,1.9,0.7,2.6,0c0.7-0.7,0.7-1.9,0-2.6c-1.7-1.8-2.7-4.1-2.7-6.5
			c0-5.2,4.2-9.4,9.4-9.4c1.6,0,3.3,0.4,4.7,1.3c0.6,0.3,1.2,0.3,1.8,0c0.6-0.3,0.9-0.9,0.9-1.5c0.2-5.4,4.5-9.6,9.9-9.6
			c5.5,0,9.9,4.4,9.9,9.9c0,0.6-0.1,1.2-0.2,1.9c-0.1,0.5,0,1.1,0.4,1.5c0.3,0.4,0.9,0.7,1.4,0.7c0,0,0,0,0,0l1.2,0
			c4,0,7.3,3.3,7.3,7.3c0,2-0.8,3.8-2.2,5.2c-0.7,0.7-0.7,1.9,0,2.6c0.4,0.4,0.8,0.5,1.3,0.5c0.5,0,0.9-0.2,1.3-0.5
			c2.1-2.1,3.3-4.9,3.3-7.8C129.1,456.3,127.8,453.5,125.8,451.5z"/>
	</g>
</g>
<g>
	<g>
		<path fill="#7C7C7C" d="M134.7,514.4c-0.4-0.4-1-0.5-1.4-0.3c-1.1,0.5-2.2,0.8-3.4,0.8c-4.3,0-7.7-3.5-7.7-7.7
			c0-2.8,1.6-5.4,4-6.8c0.5-0.3,0.7-0.8,0.6-1.3c-0.1-0.5-0.6-0.9-1.1-1c-0.3,0-0.6,0-1,0c-5.5,0-10.2,3.8-11.4,9
			c0.8,0.6,1.5,1.2,2.1,1.9c0.4-3.7,2.9-6.8,6.4-7.9c-1.3,1.8-2.1,3.9-2.1,6.2c0,5.6,4.6,10.2,10.2,10.2c0.1,0,0.3,0,0.4,0
			c-1.6,1.2-3.5,1.8-5.5,1.8c-2.1,0-4.1-0.7-5.7-1.9c0,0.3,0,0.6,0,0.9c0,0.1,0,0.3,0,0.4c2.6,0.2,5,1.3,6.8,3.1
			c3.7-0.4,7.2-2.5,9.1-5.8C135.1,515.4,135,514.8,134.7,514.4z"/>
		<path fill="#333333" d="M125.8,521.6c-1.8-1.7-4.1-2.9-6.8-3.1c0-0.1,0-0.3,0-0.4c0-0.3,0-0.6,0-0.9c-0.2-3.2-1.5-6.1-3.6-8.3
			c-0.6-0.7-1.4-1.3-2.1-1.9c-2.2-1.6-4.9-2.5-7.8-2.5c-6.5,0-11.9,4.5-13.2,10.5c-1.3-0.4-2.7-0.7-4.1-0.7
			c-7.2,0-13.1,5.9-13.1,13.1c0,7.2,5.9,13.1,13.1,13.1h1.7c1,0,1.8-0.8,1.8-1.8c0-1-0.8-1.8-1.8-1.8h-1.7c-5.2,0-9.4-4.2-9.4-9.4
			c0-5.2,4.2-9.4,9.4-9.4c1.6,0,3.3,0.4,4.7,1.3c0.6,0.3,1.2,0.3,1.8,0c0.6-0.3,0.9-0.9,0.9-1.5c0.2-5.4,4.5-9.6,9.9-9.6
			c5.5,0,9.9,4.4,9.9,9.9c0,0.6-0.1,1.2-0.2,1.9c-0.1,0.5,0,1.1,0.4,1.5c0.3,0.4,0.9,0.7,1.4,0.7c0,0,0,0,0,0l1.2,0
			c4,0,7.3,3.3,7.3,7.3c0,4-3.3,7.3-7.3,7.3h-1.8c-1,0-1.8,0.8-1.8,1.8c0,1,0.8,1.8,1.8,1.8h1.8c6.1,0,11-4.9,11-11
			C129.1,526.4,127.8,523.6,125.8,521.6z"/>
	</g>
	<g>
		<polygon fill="#BABABA" points="99.5,529.9 101.7,528.7 102.4,531.1 104.8,531.8 103.6,534 104.8,536.2 102.4,536.9 101.7,539.3 
			99.5,538.1 97.3,539.3 96.6,536.9 94.2,536.2 95.4,534 94.2,531.8 96.6,531.1 97.3,528.7 		"/>
	</g>
	<g>
		<polygon fill="#BABABA" points="95.4,542.6 97.6,541.4 98.3,543.8 100.7,544.5 99.5,546.7 100.7,548.9 98.3,549.5 97.6,551.9 
			95.4,550.7 93.2,551.9 92.5,549.5 90.1,548.9 91.3,546.7 90.1,544.5 92.5,543.8 93.2,541.4 		"/>
	</g>
	<g>
		<polygon fill="#BABABA" points="107.8,539.7 109.9,538.5 110.6,540.9 113,541.6 111.8,543.8 113,546 110.6,546.7 109.9,549.1 
			107.8,547.9 105.6,549.1 104.9,546.7 102.5,546 103.7,543.8 102.5,541.6 104.9,540.9 105.6,538.5 		"/>
	</g>
</g>
<g>
	<g>
		<path fill="#FFBD00" d="M41.3,512.9c1.3-1.5,3.1-2.3,5.1-2.2c1.7,0.1,3.2,0.8,4.3,2.1c1.1,1.2,1.7,2.9,1.6,4.5
			c-0.1,2.5-1.7,4.6-3.9,5.5c1.1,0.6,2.1,1.3,2.9,2.2c2.5-1.6,4.2-4.4,4.3-7.5c0.1-2.6-0.7-5-2.5-6.9c-1.7-1.9-4.1-3-6.6-3.2
			c-3-0.2-5.9,1.1-7.8,3.4l0.4,0.3C39.9,511.6,40.6,512.3,41.3,512.9z"/>
		<path fill="#FFBD00" d="M63.8,516.7l-5.3-0.3c-0.7,0-1.3,0.5-1.3,1.2c0,0.7,0.5,1.3,1.2,1.3l5.3,0.3c0,0,0,0,0.1,0
			c0.7,0,1.2-0.5,1.2-1.2C65,517.3,64.5,516.7,63.8,516.7z"/>
		<path fill="#FFBD00" d="M46.6,505.8C46.6,505.8,46.7,505.8,46.6,505.8c0.7,0,1.3-0.5,1.3-1.2l0.3-5.3c0-0.7-0.5-1.3-1.2-1.3
			c-0.7,0-1.3,0.5-1.3,1.2l-0.3,5.3C45.4,505.2,45.9,505.8,46.6,505.8z"/>
		<path fill="#FFBD00" d="M55.3,509.9c0.3,0,0.6-0.1,0.8-0.3L60,506c0.5-0.5,0.6-1.2,0.1-1.8c-0.5-0.5-1.2-0.6-1.8-0.1l-3.9,3.6
			c-0.5,0.5-0.6,1.2-0.1,1.8C54.6,509.8,54.9,509.9,55.3,509.9z"/>
		<path fill="#FFBD00" d="M55.3,525.4c-0.5-0.5-1.2-0.6-1.8-0.1c-0.5,0.5-0.6,1.2-0.1,1.8L57,531c0.2,0.3,0.6,0.4,0.9,0.4
			c0.3,0,0.6-0.1,0.8-0.3c0.5-0.5,0.5-1.2,0.1-1.8L55.3,525.4z"/>
		<path fill="#FFBD00" d="M36.8,508.6c0.2,0.3,0.6,0.4,0.9,0.4c0.3,0,0.6-0.1,0.8-0.3c0.5-0.5,0.6-1.2,0.1-1.8l-3.6-4
			c-0.5-0.5-1.2-0.5-1.8-0.1c-0.5,0.5-0.6,1.2-0.1,1.8L36.8,508.6z"/>
		<path fill="#333333" d="M51.3,525c-0.8-0.9-1.8-1.7-2.9-2.2c-1.1-0.6-2.4-0.9-3.7-1c0-0.1,0-0.2,0-0.4c0-3.3-1.3-6.3-3.4-8.5
			c-0.7-0.7-1.4-1.3-2.2-1.8c-1.9-1.2-4.2-2-6.7-2c-5.9,0-10.7,4-12,9.5c-1.2-0.4-2.4-0.6-3.7-0.6c-6.5,0-11.8,5.3-11.8,11.8
			c0,6.5,5.3,11.8,11.8,11.8h1.5c0.9,0,1.7-0.7,1.7-1.7c0-0.9-0.7-1.7-1.7-1.7h-1.5c-4.7,0-8.5-3.8-8.5-8.5s3.8-8.5,8.5-8.5
			c1.5,0,3,0.4,4.2,1.1c0.5,0.3,1.1,0.3,1.6,0c0.5-0.3,0.8-0.8,0.8-1.4c0.1-4.9,4.1-8.7,8.9-8.7c4.9,0,8.9,4,8.9,8.9
			c0,0.6-0.1,1.1-0.2,1.7c-0.1,0.5,0,1,0.4,1.4c0.3,0.4,0.8,0.6,1.3,0.6c0,0,0,0,0,0l1.1,0c3.7,0,6.6,3,6.6,6.6c0,3.7-3,6.6-6.6,6.6
			h-1.6c-0.9,0-1.7,0.7-1.7,1.7c0,0.9,0.7,1.7,1.7,1.7h1.6c5.5,0,9.9-4.5,9.9-9.9C53.9,529.1,52.9,526.8,51.3,525z"/>
	</g>
	<polygon fill="#BABABA" points="31.9,533.8 29.7,533.2 29.1,531 27.1,532.1 25.1,531 24.5,533.2 22.3,533.8 23.4,535.8 22.3,537.7 
		24.5,538.4 25.1,540.5 27.1,539.4 29.1,540.5 29.7,538.4 31.9,537.7 30.8,535.8 	"/>
	<g>
		<polygon fill="#BABABA" points="23.4,543.5 25.4,542.4 26,544.6 28.2,545.2 27.1,547.2 28.2,549.2 26,549.8 25.4,551.9 
			23.4,550.9 21.5,551.9 20.8,549.8 18.7,549.2 19.7,547.2 18.7,545.2 20.8,544.6 21.5,542.4 		"/>
	</g>
	<g>
		<polygon fill="#BABABA" points="34.6,540.9 36.5,539.9 37.2,542 39.3,542.6 38.2,544.6 39.3,546.6 37.2,547.2 36.5,549.4 
			34.6,548.3 32.6,549.4 32,547.2 29.8,546.6 30.9,544.6 29.8,542.6 32,542 32.6,539.9 		"/>
	</g>
</g>
<g>
	<path fill="#FFBD00" d="M41.4,588.2c1.3-1.4,3.1-2.2,5-2.1c3.4,0.2,6.1,3.1,5.9,6.6c-0.1,2.4-1.6,4.4-3.7,5.4c1,0.6,2,1.4,2.7,2.3
		c2.5-1.6,4.1-4.4,4.3-7.5c0.3-5.3-3.8-9.8-9.1-10c-3-0.1-5.8,1.1-7.7,3.3C39.8,586.7,40.7,587.4,41.4,588.2z"/>
	<path fill="#FFBD00" d="M63.8,592l-5.3-0.3c-0.7,0-1.3,0.5-1.3,1.2c0,0.7,0.5,1.3,1.2,1.3l5.3,0.3c0,0,0,0,0.1,0
		c0.7,0,1.2-0.5,1.2-1.2C65,592.6,64.5,592,63.8,592z"/>
	<path fill="#FFBD00" d="M46.7,581.2C46.7,581.2,46.7,581.2,46.7,581.2c0.7,0,1.3-0.5,1.3-1.2l0.3-5.3c0-0.7-0.5-1.3-1.2-1.3
		c-0.7,0-1.3,0.5-1.3,1.2l-0.3,5.3C45.5,580.6,46,581.2,46.7,581.2z"/>
	<path fill="#FFBD00" d="M55.3,585.3c0.3,0,0.6-0.1,0.8-0.3l3.9-3.5c0.5-0.5,0.5-1.2,0.1-1.8c-0.5-0.5-1.2-0.5-1.8-0.1l-3.9,3.5
		c-0.5,0.5-0.5,1.2-0.1,1.8C54.6,585.1,55,585.3,55.3,585.3z"/>
	<path fill="#FFBD00" d="M55.3,600.7c-0.5-0.5-1.2-0.5-1.8-0.1c-0.5,0.5-0.5,1.2-0.1,1.8l3.5,3.9c0.2,0.3,0.6,0.4,0.9,0.4
		c0.3,0,0.6-0.1,0.8-0.3c0.5-0.5,0.5-1.2,0.1-1.8L55.3,600.7z"/>
	<path fill="#FFBD00" d="M36.9,584c0.2,0.3,0.6,0.4,0.9,0.4c0.3,0,0.6-0.1,0.8-0.3c0.5-0.5,0.5-1.2,0.1-1.8l-3.6-4
		c-0.5-0.5-1.2-0.5-1.8-0.1c-0.5,0.5-0.5,1.2-0.1,1.8L36.9,584z"/>
	<path fill="#333333" d="M51.4,600.3c-0.8-0.9-1.7-1.7-2.7-2.3c-1.2-0.7-2.6-1.1-4.1-1.3c0-0.1,0-0.2,0-0.4c0-3.2-1.2-6-3.2-8.2
		c-0.7-0.8-1.6-1.5-2.5-2.1c-1.9-1.2-4.1-1.9-6.5-1.9c-5.8,0-10.7,4-11.9,9.5c-1.2-0.4-2.4-0.6-3.7-0.6c-6.5,0-11.7,5.3-11.7,11.7
		c0,6.5,5.3,11.7,11.7,11.7h27.1c5.5,0,9.9-4.4,9.9-9.9C53.7,604.2,52.8,602,51.4,600.3z M43.8,613.3H16.7c-4.7,0-8.4-3.8-8.4-8.4
		s3.8-8.4,8.4-8.4c1.5,0,2.9,0.4,4.2,1.1c0.5,0.3,1.1,0.3,1.6,0c0.5-0.3,0.8-0.8,0.9-1.4c0.1-4.8,4.1-8.6,8.9-8.6
		c4.9,0,8.9,4,8.9,8.9c0,0.6-0.1,1.1-0.2,1.7c-0.1,0.5,0,1,0.4,1.4c0.3,0.4,0.8,0.6,1.3,0.6c0,0,0,0,0,0l1.1,0c3.6,0,6.6,3,6.6,6.6
		S47.5,613.3,43.8,613.3z"/>
</g>
<g>
	<path fill="#7C7C7C" d="M134.7,589.9c-0.4-0.4-1-0.5-1.5-0.3c-1.1,0.5-2.2,0.8-3.5,0.8c-4.3,0-7.8-3.5-7.8-7.8
		c0-2.9,1.6-5.5,4.1-6.8c0.5-0.3,0.7-0.8,0.6-1.3c-0.1-0.5-0.6-0.9-1.1-1c-0.3,0-0.6,0-1,0c-5.6,0-10.2,3.9-11.5,9
		c0.8,0.5,1.5,1.1,2.2,1.8c0.4-3.7,3-6.7,6.4-7.8c-1.4,1.8-2.1,3.9-2.1,6.3c0,5.6,4.6,10.2,10.2,10.2c0.1,0,0.3,0,0.4,0
		c-1.6,1.2-3.6,1.8-5.6,1.8c-1.9,0-3.8-0.6-5.3-1.7c0,0.3,0,0.6,0,0.9c0,0.1,0,0.3,0,0.4c2.5,0.2,4.8,1.2,6.5,2.8
		c3.7-0.4,7.1-2.5,9-5.8C135.1,590.9,135,590.3,134.7,589.9z"/>
	<path fill="#333333" d="M125.8,597.2c-1.8-1.6-4-2.6-6.5-2.8c0-0.1,0-0.3,0-0.4c0-0.3,0-0.6,0-0.9c-0.2-3.4-1.7-6.5-4-8.8
		c-0.7-0.7-1.4-1.3-2.2-1.8c-2.2-1.4-4.7-2.2-7.5-2.2c-6.5,0-12,4.5-13.3,10.6c-1.3-0.4-2.7-0.7-4.1-0.7c-7.2,0-13.1,5.9-13.1,13.1
		c0,7.2,5.9,13.1,13.1,13.1h30.3c6.1,0,11.1-5,11.1-11.1C129.5,602.1,128.1,599.2,125.8,597.2z M118.4,612.8H88.1
		c-5.2,0-9.4-4.2-9.4-9.4c0-5.2,4.2-9.4,9.4-9.4c1.7,0,3.3,0.4,4.7,1.3c0.6,0.3,1.3,0.3,1.8,0c0.6-0.3,0.9-0.9,0.9-1.6
		c0.2-5.4,4.5-9.7,10-9.7c5.5,0,10,4.5,10,10c0,0.6-0.1,1.3-0.2,1.9c-0.1,0.5,0,1.1,0.4,1.5c0.4,0.4,0.9,0.7,1.4,0.7l1.2,0
		c4.1,0,7.4,3.3,7.4,7.4S122.5,612.8,118.4,612.8z"/>
</g>
<g>
	<g>
		<path fill="#FFBD00" d="M41.4,654.1c1.3-1.4,3.1-2.2,5-2.1c3.4,0.2,6.1,3.1,5.9,6.6c-0.1,2.4-1.6,4.4-3.7,5.4c1,0.6,2,1.4,2.7,2.3
			c2.5-1.7,4.1-4.4,4.3-7.5c0.3-5.3-3.8-9.8-9.1-10c-3-0.1-5.8,1.1-7.7,3.3C39.8,652.6,40.7,653.3,41.4,654.1z"/>
		<path fill="#FFBD00" d="M63.8,657.9l-5.3-0.3c-0.7,0-1.3,0.5-1.3,1.2c0,0.7,0.5,1.3,1.2,1.3l5.3,0.3c0,0,0,0,0.1,0
			c0.7,0,1.2-0.5,1.2-1.2C65,658.5,64.5,658,63.8,657.9z"/>
		<path fill="#FFBD00" d="M46.7,647.1C46.7,647.1,46.7,647.1,46.7,647.1c0.7,0,1.3-0.5,1.3-1.2l0.3-5.3c0-0.7-0.5-1.3-1.2-1.3
			c-0.7,0-1.3,0.5-1.3,1.2l-0.3,5.3C45.5,646.5,46,647.1,46.7,647.1z"/>
		<path fill="#FFBD00" d="M55.3,651.2c0.3,0,0.6-0.1,0.8-0.3l3.9-3.5c0.5-0.5,0.5-1.2,0.1-1.8c-0.5-0.5-1.2-0.5-1.8-0.1l-3.9,3.5
			c-0.5,0.5-0.5,1.2-0.1,1.8C54.6,651.1,55,651.2,55.3,651.2z"/>
		<path fill="#FFBD00" d="M55.3,666.6c-0.5-0.5-1.2-0.5-1.8-0.1c-0.5,0.5-0.5,1.2-0.1,1.8l3.5,3.9c0.2,0.3,0.6,0.4,0.9,0.4
			c0.3,0,0.6-0.1,0.8-0.3c0.5-0.5,0.5-1.2,0.1-1.8L55.3,666.6z"/>
		<path fill="#FFBD00" d="M36.9,649.9c0.2,0.3,0.6,0.4,0.9,0.4c0.3,0,0.6-0.1,0.8-0.3c0.5-0.5,0.5-1.2,0.1-1.8l-3.6-4
			c-0.5-0.5-1.2-0.5-1.8-0.1c-0.5,0.5-0.5,1.2-0.1,1.8L36.9,649.9z"/>
		<path fill="#333333" d="M51.4,666.2c-0.8-0.9-1.7-1.7-2.7-2.3c-1.2-0.7-2.6-1.1-4.1-1.3c0-0.1,0-0.2,0-0.4c0-3.2-1.2-6-3.2-8.2
			c-0.7-0.8-1.6-1.5-2.5-2.1c-1.9-1.2-4.1-1.9-6.5-1.9c-5.8,0-10.7,4-11.9,9.5c-1.2-0.4-2.4-0.6-3.7-0.6C10.3,659,5,664.3,5,670.8
			c0,6.5,5.3,11.7,11.7,11.7h5.4c0.9,0,1.7-0.7,1.7-1.7c0-0.9-0.7-1.7-1.7-1.7h-5.4c-4.7,0-8.4-3.8-8.4-8.4s3.8-8.4,8.4-8.4
			c1.5,0,2.9,0.4,4.2,1.1c0.5,0.3,1.1,0.3,1.6,0c0.5-0.3,0.8-0.8,0.9-1.4c0.1-4.8,4.1-8.6,8.9-8.6c4.9,0,8.9,4,8.9,8.9
			c0,0.6-0.1,1.1-0.2,1.7c-0.1,0.5,0,1,0.4,1.4c0.3,0.4,0.8,0.6,1.3,0.6c0,0,0,0,0,0l1.1,0c3.6,0,6.6,3,6.6,6.6c0,3.6-3,6.6-6.6,6.6
			h-5.4c-0.9,0-1.7,0.7-1.7,1.7c0,0.9,0.7,1.7,1.7,1.7h5.4c5.5,0,9.9-4.4,9.9-9.9C53.7,670.2,52.8,668,51.4,666.2z"/>
	</g>
	<g>
		<g>
			<path fill="#333333" d="M27.1,690.6c-0.3,0-0.6-0.1-0.9-0.2c-1.1-0.5-1.6-1.8-1-2.9l4.3-9c0.5-1.1,1.8-1.6,2.9-1
				c1.1,0.5,1.6,1.8,1,2.9l-4.3,9C28.7,690.2,27.9,690.6,27.1,690.6z"/>
		</g>
		<g>
			<path fill="#239BB7" d="M27.1,690.6c-0.3,0-0.6-0.1-0.9-0.2c-1.1-0.5-1.6-1.8-1-2.9l4.3-9c0.5-1.1,1.8-1.6,2.9-1
				c1.1,0.5,1.6,1.8,1,2.9l-4.3,9C28.7,690.2,27.9,690.6,27.1,690.6z"/>
		</g>
	</g>
</g>
<g>
	<g>
		<path fill="#7C7C7C" d="M134.7,655.6c-0.4-0.4-1-0.5-1.4-0.3c-1.1,0.5-2.2,0.8-3.4,0.8c-4.3,0-7.7-3.5-7.7-7.7
			c0-2.8,1.6-5.4,4-6.8c0.5-0.3,0.7-0.8,0.6-1.3c-0.1-0.5-0.6-0.9-1.1-1c-0.3,0-0.6,0-1,0c-5.5,0-10.2,3.8-11.4,9
			c0.8,0.6,1.5,1.2,2.1,1.9c0.4-3.7,2.9-6.8,6.4-7.9c-1.3,1.7-2.1,3.9-2.1,6.2c0,5.6,4.6,10.2,10.2,10.2c0.1,0,0.3,0,0.4,0
			c-1.6,1.2-3.5,1.8-5.5,1.8c-2.1,0-4.1-0.7-5.7-1.9c0,0.3,0,0.6,0,0.9c0,0.1,0,0.3,0,0.4c2.6,0.2,5,1.3,6.8,3.1
			c3.7-0.4,7.2-2.5,9.1-5.8C135.1,656.5,135,656,134.7,655.6z"/>
		<path fill="#333333" d="M125.8,662.8c-1.8-1.7-4.1-2.9-6.8-3.1c0-0.1,0-0.3,0-0.4c0-0.3,0-0.6,0-0.9c-0.2-3.2-1.5-6.1-3.6-8.3
			c-0.6-0.7-1.4-1.3-2.1-1.9c-2.2-1.6-4.9-2.5-7.8-2.5c-6.5,0-11.9,4.5-13.2,10.5c-1.3-0.4-2.7-0.7-4.1-0.7
			c-7.2,0-13.1,5.9-13.1,13.1c0,7.2,5.9,13.1,13.1,13.1h6c1,0,1.8-0.8,1.8-1.8c0-1-0.8-1.8-1.8-1.8h-6c-5.2,0-9.4-4.2-9.4-9.4
			c0-5.2,4.2-9.4,9.4-9.4c1.6,0,3.3,0.4,4.7,1.3c0.6,0.3,1.2,0.3,1.8,0c0.6-0.3,0.9-0.9,0.9-1.5c0.2-5.4,4.5-9.6,9.9-9.6
			c5.5,0,9.9,4.4,9.9,9.9c0,0.6-0.1,1.2-0.2,1.9c-0.1,0.5,0,1.1,0.4,1.5c0.3,0.4,0.9,0.7,1.4,0.7c0,0,0,0,0,0l1.2,0
			c4,0,7.3,3.3,7.3,7.3c0,4-3.3,7.3-7.3,7.3h-6c-1,0-1.8,0.8-1.8,1.8c0,1,0.8,1.8,1.8,1.8h6c6.1,0,11-4.9,11-11
			C129.1,667.6,127.8,664.8,125.8,662.8z"/>
	</g>
	<g>
		<path fill="#239BB7" d="M99.5,690.7c-0.4,0-0.7-0.1-1.1-0.2c-1.2-0.6-1.7-2-1.2-3.3l4.7-10c0.6-1.2,2-1.7,3.3-1.2
			c1.2,0.6,1.7,2,1.2,3.3l-4.7,10C101.3,690.2,100.4,690.7,99.5,690.7z"/>
	</g>
</g>
<g>
	<g>
		<path fill="#239BB7" d="M15.2,757.6c-0.3,0-0.6-0.1-0.9-0.2c-1-0.5-1.4-1.7-1-2.7l5.3-11c0.5-1,1.7-1.4,2.7-1c1,0.5,1.4,1.7,1,2.7
			l-5.3,11C16.7,757.1,16,757.6,15.2,757.6z"/>
	</g>
	<g>
		<path fill="#239BB7" d="M26.6,754.7c-0.3,0-0.6-0.1-0.9-0.2c-1-0.5-1.4-1.7-1-2.7l5.3-11c0.5-1,1.7-1.4,2.7-1c1,0.5,1.4,1.7,1,2.7
			l-5.3,11C28.1,754.3,27.3,754.7,26.6,754.7z"/>
	</g>
	<g>
		<path fill="#239BB7" d="M33.2,761.6c-0.3,0-0.6-0.1-0.9-0.2c-1-0.5-1.4-1.7-1-2.7l5.3-11c0.5-1,1.7-1.4,2.7-1c1,0.5,1.4,1.7,1,2.7
			l-5.3,11C34.7,761.2,34,761.6,33.2,761.6z"/>
	</g>
	<g>
		<path fill="#239BB7" d="M45.6,756.7c-0.3,0-0.6-0.1-0.9-0.2c-1-0.5-1.4-1.7-1-2.7l5.3-11c0.5-1,1.7-1.4,2.7-1c1,0.5,1.4,1.7,1,2.7
			l-5.3,11C47.1,756.3,46.3,756.7,45.6,756.7z"/>
	</g>
	<g>
		<path fill="#333333" d="M60,745.3c-0.5,0-1-0.2-1.4-0.6c-0.8-0.8-0.8-2.1,0-2.9c1.6-1.5,2.4-3.6,2.4-5.8c0-4.5-3.6-8.1-8.1-8.1
			l-1.3,0c0,0,0,0,0,0c-0.6,0-1.2-0.3-1.6-0.7c-0.4-0.5-0.5-1.1-0.4-1.7c0.1-0.7,0.2-1.4,0.2-2.1c0-6.1-4.9-11-11-11
			c-6,0-10.8,4.7-11,10.6c0,0.7-0.4,1.4-1,1.7c-0.6,0.3-1.4,0.3-2,0c-1.6-0.9-3.4-1.4-5.2-1.4c-5.7,0-10.4,4.7-10.4,10.4
			c0,2.7,1,5.3,2.9,7.3c0.8,0.8,0.8,2.1,0,2.9c-0.8,0.8-2.1,0.8-2.9,0c-2.6-2.7-4.1-6.3-4.1-10.1c0-8,6.5-14.5,14.5-14.5
			c1.6,0,3.1,0.3,4.6,0.7c1.5-6.7,7.5-11.7,14.7-11.7c8.3,0,15.1,6.8,15.1,15.1c0,0.2,0,0.3,0,0.5C60,724.4,65,729.6,65,736
			c0,3.3-1.3,6.4-3.6,8.7C61,745.1,60.5,745.3,60,745.3z"/>
	</g>
</g>
<g>
	<g>
		<path fill="#239BB7" d="M85.2,757.6c-0.3,0-0.6-0.1-0.9-0.2c-1-0.5-1.4-1.7-1-2.7l5.3-11c0.5-1,1.7-1.4,2.7-1c1,0.5,1.4,1.7,1,2.7
			l-5.3,11C86.7,757.1,86,757.6,85.2,757.6z"/>
	</g>
	<g>
		<path fill="#239BB7" d="M96.6,754.7c-0.3,0-0.6-0.1-0.9-0.2c-1-0.5-1.4-1.7-1-2.7l5.3-11c0.5-1,1.7-1.4,2.7-1c1,0.5,1.4,1.7,1,2.7
			l-5.3,11C98.1,754.3,97.3,754.7,96.6,754.7z"/>
	</g>
	<g>
		<path fill="#239BB7" d="M103.2,761.6c-0.3,0-0.6-0.1-0.9-0.2c-1-0.5-1.4-1.7-1-2.7l5.3-11c0.5-1,1.7-1.4,2.7-1
			c1,0.5,1.4,1.7,1,2.7l-5.3,11C104.7,761.2,104,761.6,103.2,761.6z"/>
	</g>
	<g>
		<path fill="#239BB7" d="M115.6,756.7c-0.3,0-0.6-0.1-0.9-0.2c-1-0.5-1.4-1.7-1-2.7l5.3-11c0.5-1,1.7-1.4,2.7-1
			c1,0.5,1.4,1.7,1,2.7l-5.3,11C117.1,756.3,116.3,756.7,115.6,756.7z"/>
	</g>
	<g>
		<path fill="#333333" d="M130,745.3c-0.5,0-1-0.2-1.4-0.6c-0.8-0.8-0.8-2.1,0-2.9c1.6-1.5,2.4-3.6,2.4-5.8c0-4.5-3.6-8.1-8.1-8.1
			l-1.3,0c0,0,0,0,0,0c-0.6,0-1.2-0.3-1.6-0.7c-0.4-0.5-0.5-1.1-0.4-1.7c0.1-0.7,0.2-1.4,0.2-2.1c0-6.1-4.9-11-11-11
			c-6,0-10.8,4.7-11,10.6c0,0.7-0.4,1.4-1,1.7c-0.6,0.3-1.4,0.3-2,0c-1.6-0.9-3.4-1.4-5.2-1.4c-5.7,0-10.4,4.7-10.4,10.4
			c0,2.7,1,5.3,2.9,7.3c0.8,0.8,0.8,2.1,0,2.9c-0.8,0.8-2.1,0.8-2.9,0c-2.6-2.7-4.1-6.3-4.1-10.1c0-8,6.5-14.5,14.5-14.5
			c1.6,0,3.1,0.3,4.6,0.7c1.5-6.7,7.5-11.7,14.7-11.7c8.3,0,15.1,6.8,15.1,15.1c0,0.2,0,0.3,0,0.5c6.3,0.5,11.3,5.8,11.3,12.2
			c0,3.3-1.3,6.4-3.6,8.7C131,745.1,130.5,745.3,130,745.3z"/>
	</g>
</g>
<g>
	<g>
		<path fill="#333333" d="M62.1,799.9c-0.9-1.1-2.1-2.1-3.4-2.8c-1.5-0.9-3.2-1.4-5-1.5c0-0.1,0-0.3,0-0.4c0-3.9-1.5-7.4-3.9-10.1
			c-0.9-1-2-1.9-3.1-2.6c-2.3-1.5-5.1-2.3-8-2.3c-7.2,0-13.2,4.9-14.7,11.7c-1.5-0.5-3-0.7-4.6-0.7c-8,0-14.5,6.5-14.5,14.5
			c0,8,6.5,14.5,14.5,14.5h6.6c1.1,0,2-0.9,2-2c0-1.1-0.9-2-2-2h-6.6c-5.7,0-10.4-4.7-10.4-10.4s4.7-10.4,10.4-10.4
			c1.8,0,3.6,0.5,5.2,1.4c0.6,0.4,1.4,0.4,2,0c0.6-0.3,1-1,1-1.7c0.2-6,5-10.6,11-10.6c6.1,0,11,4.9,11,11c0,0.7-0.1,1.4-0.2,2.1
			c-0.1,0.6,0,1.2,0.4,1.7c0.4,0.5,1,0.7,1.6,0.7c0,0,0,0,0,0l1.3,0c4.5,0,8.1,3.6,8.1,8.1c0,4.5-3.6,8.1-8.1,8.1h-6.7
			c-1.1,0-2,0.9-2,2c0,1.1,0.9,2,2,2h6.7c6.7,0,12.2-5.5,12.2-12.2C65,804.7,63.9,802,62.1,799.9z"/>
	</g>
	<g>
		<g>
			<path fill="#333333" d="M32.2,829.9c-0.4,0-0.8-0.1-1.2-0.3c-1.4-0.6-1.9-2.3-1.3-3.6l5.3-11c0.6-1.4,2.3-1.9,3.6-1.3
				c1.4,0.6,1.9,2.3,1.3,3.6l-5.3,11C34.2,829.4,33.2,829.9,32.2,829.9z"/>
		</g>
		<g>
			<path fill="#239BB7" d="M32.2,829.9c-0.4,0-0.8-0.1-1.2-0.3c-1.4-0.6-1.9-2.3-1.3-3.6l5.3-11c0.6-1.4,2.3-1.9,3.6-1.3
				c1.4,0.6,1.9,2.3,1.3,3.6l-5.3,11C34.2,829.4,33.2,829.9,32.2,829.9z"/>
		</g>
	</g>
</g>
<g>
	<g>
		<path fill="#333333" d="M132.1,799.9c-0.9-1.1-2.1-2.1-3.4-2.8c-1.5-0.9-3.2-1.4-5-1.5c0-0.1,0-0.3,0-0.4c0-3.9-1.5-7.4-3.9-10.1
			c-0.9-1-2-1.9-3.1-2.6c-2.3-1.5-5.1-2.3-8-2.3c-7.2,0-13.2,4.9-14.7,11.7c-1.5-0.5-3-0.7-4.6-0.7c-8,0-14.5,6.5-14.5,14.5
			c0,8,6.5,14.5,14.5,14.5h6.6c1.1,0,2-0.9,2-2c0-1.1-0.9-2-2-2h-6.6c-5.7,0-10.4-4.7-10.4-10.4s4.7-10.4,10.4-10.4
			c1.8,0,3.6,0.5,5.2,1.4c0.6,0.4,1.4,0.4,2,0c0.6-0.3,1-1,1-1.7c0.2-6,5-10.6,11-10.6c6.1,0,11,4.9,11,11c0,0.7-0.1,1.4-0.2,2.1
			c-0.1,0.6,0,1.2,0.4,1.7c0.4,0.5,1,0.7,1.6,0.7c0,0,0,0,0,0l1.3,0c4.5,0,8.1,3.6,8.1,8.1c0,4.5-3.6,8.1-8.1,8.1h-6.7
			c-1.1,0-2,0.9-2,2c0,1.1,0.9,2,2,2h6.7c6.7,0,12.2-5.5,12.2-12.2C135,804.7,133.9,802,132.1,799.9z"/>
	</g>
	<g>
		<g>
			<path fill="#333333" d="M102.2,829.9c-0.4,0-0.8-0.1-1.2-0.3c-1.4-0.6-1.9-2.3-1.3-3.6l5.3-11c0.6-1.4,2.3-1.9,3.6-1.3
				c1.4,0.6,1.9,2.3,1.3,3.6l-5.3,11C104.2,829.4,103.2,829.9,102.2,829.9z"/>
		</g>
		<g>
			<path fill="#239BB7" d="M102.2,829.9c-0.4,0-0.8-0.1-1.2-0.3c-1.4-0.6-1.9-2.3-1.3-3.6l5.3-11c0.6-1.4,2.3-1.9,3.6-1.3
				c1.4,0.6,1.9,2.3,1.3,3.6l-5.3,11C104.2,829.4,103.2,829.9,102.2,829.9z"/>
		</g>
	</g>
</g>
<g>
	<g>
		<path fill="#FFBD00" d="M35.6,868.1c-6.8,0-12.3,5.5-12.3,12.3h3.3c0-4.9,4-9,9-9c4.9,0,9,4,9,9h3.3
			C47.9,873.6,42.3,868.1,35.6,868.1z"/>
		<path fill="#FFBD00" d="M59.3,878.2h-7.1c-0.6,0-1.1,0.5-1.1,1.1c0,0.6,0.5,1.1,1.1,1.1h7.1c0.6,0,1.1-0.5,1.1-1.1
			C60.4,878.7,59.9,878.2,59.3,878.2z"/>
		<path fill="#FFBD00" d="M18.8,878.2h-7c-0.6,0-1.1,0.5-1.1,1.1c0,0.6,0.5,1.1,1.1,1.1h7c0.6,0,1.1-0.5,1.1-1.1
			C19.9,878.7,19.4,878.2,18.8,878.2z"/>
		<path fill="#FFBD00" d="M35.6,864.9c0.6,0,1.1-0.5,1.1-1.1v-7.1c0-0.6-0.5-1.1-1.1-1.1c-0.6,0-1.1,0.5-1.1,1.1v7.1
			C34.4,864.4,34.9,864.9,35.6,864.9z"/>
		<path fill="#FFBD00" d="M53.1,862.8c-0.4-0.4-1.1-0.4-1.6,0l-5,5c-0.4,0.4-0.4,1.1,0,1.6c0.2,0.2,0.5,0.3,0.8,0.3
			c0.3,0,0.6-0.1,0.8-0.3l5-5C53.6,864,53.6,863.3,53.1,862.8z"/>
		<path fill="#FFBD00" d="M24.6,869.5c0.4-0.4,0.4-1.1,0-1.6l-5.1-5.1c-0.4-0.4-1.1-0.4-1.6,0c-0.4,0.4-0.4,1.1,0,1.6l5.1,5.1
			c0.2,0.2,0.5,0.3,0.8,0.3C24.1,869.8,24.4,869.7,24.6,869.5z"/>
	</g>
	<g>
		<path fill="#BABABA" d="M63.1,894.5H21.6c-0.9,0-1.7-0.7-1.7-1.7c0-0.9,0.7-1.7,1.7-1.7h41.5c0.9,0,1.7,0.7,1.7,1.7
			C64.8,893.7,64.1,894.5,63.1,894.5z"/>
	</g>
	<g>
		<path fill="#BABABA" d="M51.3,887.4H6.5c-0.9,0-1.7-0.7-1.7-1.7c0-0.9,0.7-1.7,1.7-1.7h44.9c0.9,0,1.7,0.7,1.7,1.7
			C53,886.6,52.3,887.4,51.3,887.4z"/>
	</g>
</g>
<g>
	<g>
		<path fill="#BABABA" d="M133.3,891.8H91.8c-0.9,0-1.7-0.7-1.7-1.7c0-0.9,0.7-1.7,1.7-1.7h41.5c0.9,0,1.7,0.7,1.7,1.7
			C135,891,134.3,891.8,133.3,891.8z"/>
	</g>
	<g>
		<path fill="#7C7C7C" d="M100.5,881.3c-4-1.8-6.5-5.7-6.5-10c0-5.2,3.7-9.6,8.6-10.7c-1.9,2-3,4.8-3,7.7c0,6.2,5,11.2,11.2,11.2
			c0.5,0,1.1,0,1.6-0.1c-1,0.9-2.1,1.6-3.3,2.1h4.1c1.2-1,2.2-2.2,3-3.5c0.2-0.4,0.2-0.9-0.1-1.2c-0.3-0.3-0.8-0.4-1.2-0.2
			c-1.3,0.6-2.6,1-4.1,1c-5,0-9.1-4.1-9.1-9.1c0-3.3,1.8-6.4,4.8-8c0.4-0.2,0.6-0.7,0.5-1.1c-0.1-0.5-0.5-0.8-0.9-0.8
			c-0.4,0-0.7,0-1.1,0c-7.2,0-13,5.8-13,13c0,4,1.8,7.7,4.8,10.1h4C100.6,881.3,100.5,881.3,100.5,881.3z"/>
		<path fill="#BABABA" d="M121.5,881.4h-8.5H109h-8.3h-4h-20c-0.9,0-1.7,0.7-1.7,1.7c0,0.9,0.7,1.7,1.7,1.7h44.9
			c0.9,0,1.7-0.7,1.7-1.7C123.2,882.1,122.4,881.4,121.5,881.4z"/>
	</g>
</g>
<g>
	<path fill="#FFBD00" d="M41.4,938.2c1.3-1.4,3.1-2.2,5-2.1c3.4,0.2,6.1,3.1,5.9,6.6c-0.1,2.4-1.6,4.4-3.7,5.4c1,0.6,2,1.4,2.7,2.3
		c2.5-1.6,4.1-4.4,4.3-7.5c0.3-5.3-3.8-9.8-9.1-10c-3-0.1-5.8,1.1-7.7,3.3C39.8,936.7,40.7,937.4,41.4,938.2z"/>
	<path fill="#FFBD00" d="M63.8,942l-5.3-0.3c-0.7,0-1.3,0.5-1.3,1.2c0,0.7,0.5,1.3,1.2,1.3l5.3,0.3c0,0,0,0,0.1,0
		c0.7,0,1.2-0.5,1.2-1.2C65,942.6,64.5,942,63.8,942z"/>
	<path fill="#FFBD00" d="M46.7,931.2C46.7,931.2,46.7,931.2,46.7,931.2c0.7,0,1.3-0.5,1.3-1.2l0.3-5.3c0-0.7-0.5-1.3-1.2-1.3
		c-0.7,0-1.3,0.5-1.3,1.2l-0.3,5.3C45.5,930.6,46,931.2,46.7,931.2z"/>
	<path fill="#FFBD00" d="M55.3,935.3c0.3,0,0.6-0.1,0.8-0.3l3.9-3.5c0.5-0.5,0.5-1.2,0.1-1.8c-0.5-0.5-1.2-0.5-1.8-0.1l-3.9,3.5
		c-0.5,0.5-0.5,1.2-0.1,1.8C54.6,935.1,55,935.3,55.3,935.3z"/>
	<path fill="#FFBD00" d="M55.3,950.7c-0.5-0.5-1.2-0.5-1.8-0.1c-0.5,0.5-0.5,1.2-0.1,1.8l3.5,3.9c0.2,0.3,0.6,0.4,0.9,0.4
		c0.3,0,0.6-0.1,0.8-0.3c0.5-0.5,0.5-1.2,0.1-1.8L55.3,950.7z"/>
	<path fill="#FFBD00" d="M36.9,934c0.2,0.3,0.6,0.4,0.9,0.4c0.3,0,0.6-0.1,0.8-0.3c0.5-0.5,0.5-1.2,0.1-1.8l-3.6-4
		c-0.5-0.5-1.2-0.5-1.8-0.1c-0.5,0.5-0.5,1.2-0.1,1.8L36.9,934z"/>
	<path fill="#333333" d="M51.4,950.3c-0.8-0.9-1.7-1.7-2.7-2.3c-1.2-0.7-2.6-1.1-4.1-1.3c0-0.1,0-0.2,0-0.4c0-3.2-1.2-6-3.2-8.2
		c-0.7-0.8-1.6-1.5-2.5-2.1c-1.9-1.2-4.1-1.9-6.5-1.9c-5.8,0-10.7,4-11.9,9.5c-1.2-0.4-2.4-0.6-3.7-0.6c-6.5,0-11.7,5.3-11.7,11.7
		c0,6.5,5.3,11.7,11.7,11.7h27.1c5.5,0,9.9-4.4,9.9-9.9C53.7,954.2,52.8,952,51.4,950.3z M43.8,963.3H16.7c-4.7,0-8.4-3.8-8.4-8.4
		s3.8-8.4,8.4-8.4c1.5,0,2.9,0.4,4.2,1.1c0.5,0.3,1.1,0.3,1.6,0c0.5-0.3,0.8-0.8,0.9-1.4c0.1-4.8,4.1-8.6,8.9-8.6
		c4.9,0,8.9,4,8.9,8.9c0,0.6-0.1,1.1-0.2,1.7c-0.1,0.5,0,1,0.4,1.4c0.3,0.4,0.8,0.6,1.3,0.6c0,0,0,0,0,0l1.1,0c3.6,0,6.6,3,6.6,6.6
		S47.5,963.3,43.8,963.3z"/>
</g>
<g>
	<path fill="#7C7C7C" d="M134.5,939.8c-0.4-0.4-1-0.5-1.5-0.3c-1.1,0.5-2.2,0.8-3.5,0.8c-4.3,0-7.8-3.5-7.8-7.8
		c0-2.9,1.6-5.5,4.1-6.8c0.5-0.3,0.7-0.8,0.6-1.3c-0.1-0.5-0.6-0.9-1.1-1c-0.3,0-0.6,0-1,0c-5.6,0-10.2,3.9-11.5,9
		c0.8,0.5,1.5,1.1,2.2,1.8c0.4-3.7,3-6.7,6.4-7.8c-1.4,1.8-2.1,3.9-2.1,6.3c0,5.6,4.6,10.2,10.2,10.2c0.1,0,0.3,0,0.4,0
		c-1.6,1.2-3.6,1.8-5.6,1.8c-1.9,0-3.8-0.6-5.3-1.7c0,0.3,0,0.6,0,0.9c0,0.1,0,0.3,0,0.4c2.5,0.2,4.8,1.2,6.5,2.8
		c3.7-0.4,7.1-2.5,9-5.8C135,940.8,134.9,940.2,134.5,939.8z"/>
	<path fill="#333333" d="M125.7,947.1c-1.8-1.6-4-2.6-6.5-2.8c0-0.1,0-0.3,0-0.4c0-0.3,0-0.6,0-0.9c-0.2-3.4-1.7-6.5-4-8.8
		c-0.7-0.7-1.4-1.3-2.2-1.8c-2.2-1.4-4.7-2.2-7.5-2.2c-6.5,0-12,4.5-13.3,10.6c-1.3-0.4-2.7-0.7-4.1-0.7c-7.2,0-13.1,5.9-13.1,13.1
		c0,7.2,5.9,13.1,13.1,13.1h30.3c6.1,0,11.1-5,11.1-11.1C129.4,952.1,127.9,949.1,125.7,947.1z M118.3,962.7H88
		c-5.2,0-9.4-4.2-9.4-9.4c0-5.2,4.2-9.4,9.4-9.4c1.7,0,3.3,0.4,4.7,1.3c0.6,0.3,1.3,0.3,1.8,0c0.6-0.3,0.9-0.9,0.9-1.6
		c0.2-5.4,4.5-9.7,10-9.7c5.5,0,10,4.5,10,10c0,0.6-0.1,1.3-0.2,1.9c-0.1,0.5,0,1.1,0.4,1.5c0.4,0.4,0.9,0.7,1.4,0.7l1.2,0
		c4.1,0,7.4,3.3,7.4,7.4C125.7,959.4,122.4,962.7,118.3,962.7z"/>
</g>
<g>
	<path fill="#333333" d="M52.8,1034.9H19.5c-8,0-14.5-6.5-14.5-14.5c0-8,6.5-14.5,14.5-14.5c1.6,0,3.1,0.2,4.6,0.7
		c1.5-6.7,7.5-11.7,14.7-11.7c8.3,0,15.1,6.8,15.1,15.1c0,0.1,0,0.3,0,0.4c6.3,0.5,11.3,5.8,11.3,12.2
		C65,1029.5,59.5,1034.9,52.8,1034.9z M19.5,1010.1c-5.7,0-10.4,4.7-10.4,10.4c0,5.7,4.7,10.4,10.4,10.4h33.3c4.5,0,8.1-3.6,8.1-8.1
		c0-4.5-3.6-8.1-8.1-8.1l-1.3,0c-0.6,0-1.2-0.3-1.6-0.7c-0.4-0.5-0.6-1.1-0.4-1.7c0.1-0.7,0.2-1.4,0.2-2.1c0-6.1-4.9-11-11-11
		c-6,0-10.8,4.7-11,10.6c0,0.7-0.4,1.4-1,1.7c-0.6,0.3-1.4,0.3-2,0C23.1,1010.6,21.3,1010.1,19.5,1010.1z"/>
</g>
<g>
	<g>
		<path fill="#239BB7" d="M15.2,1107.6c-0.3,0-0.6-0.1-0.9-0.2c-1-0.5-1.4-1.7-1-2.7l5.3-11c0.5-1,1.7-1.4,2.7-1
			c1,0.5,1.4,1.7,1,2.7l-5.3,11C16.7,1107.1,16,1107.6,15.2,1107.6z"/>
	</g>
	<g>
		<path fill="#239BB7" d="M26.6,1104.7c-0.3,0-0.6-0.1-0.9-0.2c-1-0.5-1.4-1.7-1-2.7l5.3-11c0.5-1,1.7-1.4,2.7-1
			c1,0.5,1.4,1.7,1,2.7l-5.3,11C28.1,1104.3,27.3,1104.7,26.6,1104.7z"/>
	</g>
	<g>
		<path fill="#239BB7" d="M33.2,1111.6c-0.3,0-0.6-0.1-0.9-0.2c-1-0.5-1.4-1.7-1-2.7l5.3-11c0.5-1,1.7-1.4,2.7-1
			c1,0.5,1.4,1.7,1,2.7l-5.3,11C34.7,1111.2,34,1111.6,33.2,1111.6z"/>
	</g>
	<g>
		<path fill="#239BB7" d="M45.6,1106.7c-0.3,0-0.6-0.1-0.9-0.2c-1-0.5-1.4-1.7-1-2.7l5.3-11c0.5-1,1.7-1.4,2.7-1
			c1,0.5,1.4,1.7,1,2.7l-5.3,11C47.1,1106.3,46.3,1106.7,45.6,1106.7z"/>
	</g>
	<g>
		<path fill="#333333" d="M60,1095.3c-0.5,0-1-0.2-1.4-0.6c-0.8-0.8-0.8-2.1,0-2.9c1.6-1.5,2.4-3.6,2.4-5.8c0-4.5-3.6-8.1-8.1-8.1
			l-1.3,0c0,0,0,0,0,0c-0.6,0-1.2-0.3-1.6-0.7c-0.4-0.5-0.5-1.1-0.4-1.7c0.1-0.7,0.2-1.4,0.2-2.1c0-6.1-4.9-11-11-11
			c-6,0-10.8,4.7-11,10.6c0,0.7-0.4,1.4-1,1.7c-0.6,0.3-1.4,0.3-2,0c-1.6-0.9-3.4-1.4-5.2-1.4c-5.7,0-10.4,4.7-10.4,10.4
			c0,2.7,1,5.3,2.9,7.3c0.8,0.8,0.8,2.1,0,2.9c-0.8,0.8-2.1,0.8-2.9,0c-2.6-2.7-4.1-6.3-4.1-10.1c0-8,6.5-14.5,14.5-14.5
			c1.6,0,3.1,0.3,4.6,0.7c1.5-6.7,7.5-11.7,14.7-11.7c8.3,0,15.1,6.8,15.1,15.1c0,0.2,0,0.3,0,0.5c6.3,0.5,11.3,5.8,11.3,12.2
			c0,3.3-1.3,6.4-3.6,8.7C61,1095.1,60.5,1095.3,60,1095.3z"/>
	</g>
</g>
<g>
	<path fill="#333333" d="M122.8,1034.9H89.5c-8,0-14.5-6.5-14.5-14.5c0-8,6.5-14.5,14.5-14.5c1.6,0,3.1,0.2,4.6,0.7
		c1.5-6.7,7.5-11.7,14.7-11.7c8.3,0,15.1,6.8,15.1,15.1c0,0.1,0,0.3,0,0.4c6.3,0.5,11.3,5.8,11.3,12.2
		C135,1029.5,129.5,1034.9,122.8,1034.9z M89.5,1010.1c-5.7,0-10.4,4.7-10.4,10.4c0,5.7,4.7,10.4,10.4,10.4h33.3
		c4.5,0,8.1-3.6,8.1-8.1c0-4.5-3.6-8.1-8.1-8.1l-1.3,0c-0.6,0-1.2-0.3-1.6-0.7c-0.4-0.5-0.6-1.1-0.4-1.7c0.1-0.7,0.2-1.4,0.2-2.1
		c0-6.1-4.9-11-11-11c-6,0-10.8,4.7-11,10.6c0,0.7-0.4,1.4-1,1.7c-0.6,0.3-1.4,0.3-2,0C93.1,1010.6,91.3,1010.1,89.5,1010.1z"/>
</g>
<g>
	<g>
		<path fill="#239BB7" d="M85.2,1107.6c-0.3,0-0.6-0.1-0.9-0.2c-1-0.5-1.4-1.7-1-2.7l5.3-11c0.5-1,1.7-1.4,2.7-1
			c1,0.5,1.4,1.7,1,2.7l-5.3,11C86.7,1107.2,86,1107.6,85.2,1107.6z"/>
	</g>
	<g>
		<path fill="#239BB7" d="M96.6,1104.8c-0.3,0-0.6-0.1-0.9-0.2c-1-0.5-1.4-1.7-1-2.7l5.3-11c0.5-1,1.7-1.4,2.7-1
			c1,0.5,1.4,1.7,1,2.7l-5.3,11C98.1,1104.3,97.3,1104.8,96.6,1104.8z"/>
	</g>
	<g>
		<path fill="#239BB7" d="M103.2,1111.7c-0.3,0-0.6-0.1-0.9-0.2c-1-0.5-1.4-1.7-1-2.7l5.3-11c0.5-1,1.7-1.4,2.7-1
			c1,0.5,1.4,1.7,1,2.7l-5.3,11C104.7,1111.3,104,1111.7,103.2,1111.7z"/>
	</g>
	<g>
		<path fill="#239BB7" d="M115.6,1106.8c-0.3,0-0.6-0.1-0.9-0.2c-1-0.5-1.4-1.7-1-2.7l5.3-11c0.5-1,1.7-1.4,2.7-1
			c1,0.5,1.4,1.7,1,2.7l-5.3,11C117.1,1106.4,116.3,1106.8,115.6,1106.8z"/>
	</g>
	<g>
		<path fill="#333333" d="M130,1095.4c-0.5,0-1-0.2-1.4-0.6c-0.8-0.8-0.8-2.1,0-2.9c1.6-1.5,2.4-3.6,2.4-5.8c0-4.5-3.6-8.1-8.1-8.1
			l-1.3,0c0,0,0,0,0,0c-0.6,0-1.2-0.3-1.6-0.7c-0.4-0.5-0.5-1.1-0.4-1.7c0.1-0.7,0.2-1.4,0.2-2.1c0-6.1-4.9-11-11-11
			c-6,0-10.8,4.7-11,10.6c0,0.7-0.4,1.4-1,1.7c-0.6,0.3-1.4,0.3-2,0c-1.6-0.9-3.4-1.4-5.2-1.4c-5.7,0-10.4,4.7-10.4,10.4
			c0,2.7,1,5.3,2.9,7.3c0.8,0.8,0.8,2.1,0,2.9c-0.8,0.8-2.1,0.8-2.9,0c-2.6-2.7-4.1-6.3-4.1-10.1c0-8,6.5-14.5,14.5-14.5
			c1.6,0,3.1,0.3,4.6,0.7c1.5-6.7,7.5-11.7,14.7-11.7c8.3,0,15.1,6.8,15.1,15.1c0,0.2,0,0.3,0,0.5c6.3,0.5,11.3,5.8,11.3,12.2
			c0,3.3-1.3,6.4-3.6,8.7C131,1095.2,130.5,1095.4,130,1095.4z"/>
	</g>
</g>
<g>
	<path fill="#FFBD00" d="M41.4,1148.2c1.3-1.4,3.1-2.2,5-2.1c3.4,0.2,6.1,3.1,5.9,6.6c-0.1,2.4-1.6,4.4-3.7,5.4c1,0.6,2,1.4,2.7,2.3
		c2.5-1.6,4.1-4.4,4.3-7.5c0.3-5.3-3.8-9.8-9.1-10c-3-0.1-5.8,1.1-7.7,3.3C39.8,1146.7,40.7,1147.4,41.4,1148.2z"/>
	<path fill="#FFBD00" d="M63.8,1152l-5.3-0.3c-0.7,0-1.3,0.5-1.3,1.2c0,0.7,0.5,1.3,1.2,1.3l5.3,0.3c0,0,0,0,0.1,0
		c0.7,0,1.2-0.5,1.2-1.2C65,1152.6,64.5,1152,63.8,1152z"/>
	<path fill="#FFBD00" d="M46.7,1141.2C46.7,1141.2,46.7,1141.2,46.7,1141.2c0.7,0,1.3-0.5,1.3-1.2l0.3-5.3c0-0.7-0.5-1.3-1.2-1.3
		c-0.7,0-1.3,0.5-1.3,1.2l-0.3,5.3C45.5,1140.6,46,1141.2,46.7,1141.2z"/>
	<path fill="#FFBD00" d="M55.3,1145.3c0.3,0,0.6-0.1,0.8-0.3l3.9-3.5c0.5-0.5,0.5-1.2,0.1-1.8c-0.5-0.5-1.2-0.5-1.8-0.1l-3.9,3.5
		c-0.5,0.5-0.5,1.2-0.1,1.8C54.6,1145.1,55,1145.3,55.3,1145.3z"/>
	<path fill="#FFBD00" d="M55.3,1160.7c-0.5-0.5-1.2-0.5-1.8-0.1c-0.5,0.5-0.5,1.2-0.1,1.8l3.5,3.9c0.2,0.3,0.6,0.4,0.9,0.4
		c0.3,0,0.6-0.1,0.8-0.3c0.5-0.5,0.5-1.2,0.1-1.8L55.3,1160.7z"/>
	<path fill="#FFBD00" d="M36.9,1144c0.2,0.3,0.6,0.4,0.9,0.4c0.3,0,0.6-0.1,0.8-0.3c0.5-0.5,0.5-1.2,0.1-1.8l-3.6-4
		c-0.5-0.5-1.2-0.5-1.8-0.1c-0.5,0.5-0.5,1.2-0.1,1.8L36.9,1144z"/>
	<path fill="#333333" d="M51.4,1160.3c-0.8-0.9-1.7-1.7-2.7-2.3c-1.2-0.7-2.6-1.1-4.1-1.3c0-0.1,0-0.2,0-0.4c0-3.2-1.2-6-3.2-8.2
		c-0.7-0.8-1.6-1.5-2.5-2.1c-1.9-1.2-4.1-1.9-6.5-1.9c-5.8,0-10.7,4-11.9,9.5c-1.2-0.4-2.4-0.6-3.7-0.6c-6.5,0-11.7,5.3-11.7,11.7
		c0,6.5,5.3,11.7,11.7,11.7h27.1c5.5,0,9.9-4.4,9.9-9.9C53.7,1164.2,52.8,1162,51.4,1160.3z M43.8,1173.3H16.7
		c-4.7,0-8.4-3.8-8.4-8.4s3.8-8.4,8.4-8.4c1.5,0,2.9,0.4,4.2,1.1c0.5,0.3,1.1,0.3,1.6,0c0.5-0.3,0.8-0.8,0.9-1.4
		c0.1-4.8,4.1-8.6,8.9-8.6c4.9,0,8.9,4,8.9,8.9c0,0.6-0.1,1.1-0.2,1.7c-0.1,0.5,0,1,0.4,1.4c0.3,0.4,0.8,0.6,1.3,0.6c0,0,0,0,0,0
		l1.1,0c3.6,0,6.6,3,6.6,6.6S47.5,1173.3,43.8,1173.3z"/>
</g>
<g>
	<path fill="#7C7C7C" d="M134.7,1149.9c-0.4-0.4-1-0.5-1.5-0.3c-1.1,0.5-2.2,0.8-3.5,0.8c-4.3,0-7.8-3.5-7.8-7.8
		c0-2.9,1.6-5.5,4.1-6.8c0.5-0.3,0.7-0.8,0.6-1.3c-0.1-0.5-0.6-0.9-1.1-1c-0.3,0-0.6,0-1,0c-5.6,0-10.2,3.9-11.5,9
		c0.8,0.5,1.5,1.1,2.2,1.8c0.4-3.7,3-6.7,6.4-7.8c-1.4,1.8-2.1,3.9-2.1,6.3c0,5.6,4.6,10.2,10.2,10.2c0.1,0,0.3,0,0.4,0
		c-1.6,1.2-3.6,1.8-5.6,1.8c-1.9,0-3.8-0.6-5.3-1.7c0,0.3,0,0.6,0,0.9c0,0.1,0,0.3,0,0.4c2.5,0.2,4.8,1.2,6.5,2.8
		c3.7-0.4,7.1-2.5,9-5.8C135.1,1150.9,135,1150.3,134.7,1149.9z"/>
	<path fill="#333333" d="M125.8,1157.2c-1.8-1.6-4-2.6-6.5-2.8c0-0.1,0-0.3,0-0.4c0-0.3,0-0.6,0-0.9c-0.2-3.4-1.7-6.5-4-8.8
		c-0.7-0.7-1.4-1.3-2.2-1.8c-2.2-1.4-4.7-2.2-7.5-2.2c-6.5,0-12,4.5-13.3,10.6c-1.3-0.4-2.7-0.7-4.1-0.7c-7.2,0-13.1,5.9-13.1,13.1
		c0,7.2,5.9,13.1,13.1,13.1h30.3c6.1,0,11.1-5,11.1-11.1C129.5,1162.1,128.1,1159.2,125.8,1157.2z M118.4,1172.8H88.1
		c-5.2,0-9.4-4.2-9.4-9.4c0-5.2,4.2-9.4,9.4-9.4c1.7,0,3.3,0.4,4.7,1.3c0.6,0.3,1.3,0.3,1.8,0c0.6-0.3,0.9-0.9,0.9-1.6
		c0.2-5.4,4.5-9.7,10-9.7c5.5,0,10,4.5,10,10c0,0.6-0.1,1.3-0.2,1.9c-0.1,0.5,0,1.1,0.4,1.5c0.4,0.4,0.9,0.7,1.4,0.7l1.2,0
		c4.1,0,7.4,3.3,7.4,7.4S122.5,1172.8,118.4,1172.8z"/>
</g>
<g>
	<g>
		<path fill="#239BB7" d="M15.2,1241.8c-0.3,0-0.6-0.1-0.9-0.2c-1-0.5-1.4-1.7-1-2.7l5.3-11c0.5-1,1.7-1.4,2.7-1
			c1,0.5,1.4,1.7,1,2.7l-5.3,11C16.7,1241.4,16,1241.8,15.2,1241.8z"/>
	</g>
	<g>
		<path fill="#239BB7" d="M21.8,1249.8c-0.3,0-0.6-0.1-0.9-0.2c-1-0.5-1.4-1.7-1-2.7l5.3-11c0.5-1,1.7-1.4,2.7-1
			c1,0.5,1.4,1.7,1,2.7l-5.3,11C23.3,1249.3,22.6,1249.8,21.8,1249.8z"/>
	</g>
	<g>
		<path fill="#239BB7" d="M32.7,1246.6c-0.3,0-0.6-0.1-0.9-0.2c-1-0.5-1.4-1.7-1-2.7l5.3-11c0.5-1,1.7-1.4,2.7-1
			c1,0.5,1.4,1.7,1,2.7l-5.3,11C34.2,1246.2,33.4,1246.6,32.7,1246.6z"/>
	</g>
	<g>
		<path fill="#F9C900" d="M46.2,1231.8c0.6-1.1,2.1-2.1,3.3-2.1h3.9c1.3,0,1.9,0.9,1.3,2.1l-2.2,4.7c-0.5,1.2,0.1,2.1,1.3,2.1h2.3
			c1.3,0,1.6,0.8,0.8,1.7l-10.8,12.3c-0.8,1-1.2,0.8-0.8-0.4l2.4-6.9c0.4-1.2-0.3-2.2-1.6-2.2H43c-1.3,0-1.9-0.9-1.3-2.1
			L46.2,1231.8z"/>
	</g>
	<g>
		<path fill="#333333" d="M59.9,1233.6c-0.5,0-1-0.2-1.4-0.6c-0.8-0.8-0.8-2.1,0-2.9c1.6-1.5,2.4-3.6,2.4-5.8c0-4.5-3.6-8.1-8.1-8.1
			l-1.3,0c0,0,0,0,0,0c-0.6,0-1.2-0.3-1.6-0.7c-0.4-0.5-0.6-1.1-0.4-1.7c0.1-0.7,0.2-1.4,0.2-2.1c0-6.1-4.9-11-11-11
			c-6,0-10.8,4.7-11,10.6c0,0.7-0.4,1.4-1,1.7c-0.6,0.3-1.4,0.3-2,0c-1.6-0.9-3.4-1.4-5.2-1.4c-5.7,0-10.4,4.7-10.4,10.4
			c0,2.7,1,5.3,3,7.3c0.8,0.8,0.8,2.1,0,2.9c-0.8,0.8-2.1,0.8-2.9,0c-2.6-2.7-4.1-6.3-4.1-10.1c0-8,6.5-14.5,14.5-14.5
			c1.6,0,3.1,0.3,4.6,0.7c1.5-6.7,7.5-11.7,14.7-11.7c8.3,0,15.1,6.8,15.1,15.1c0,0.2,0,0.3,0,0.4c6.3,0.5,11.3,5.8,11.3,12.2
			c0,3.3-1.3,6.4-3.6,8.7C61,1233.4,60.5,1233.6,59.9,1233.6z"/>
	</g>
</g>
<g>
	<g>
		<path fill="#239BB7" d="M87,1241.8c-0.3,0-0.6-0.1-0.9-0.2c-1-0.5-1.4-1.7-1-2.7l5.3-11c0.5-1,1.7-1.4,2.7-1c1,0.5,1.4,1.7,1,2.7
			l-5.3,11C88.4,1241.4,87.7,1241.8,87,1241.8z"/>
	</g>
	<g>
		<path fill="#239BB7" d="M93.6,1249.8c-0.3,0-0.6-0.1-0.9-0.2c-1-0.5-1.4-1.7-1-2.7l5.3-11c0.5-1,1.7-1.4,2.7-1
			c1,0.5,1.4,1.7,1,2.7l-5.3,11C95.1,1249.3,94.3,1249.8,93.6,1249.8z"/>
	</g>
	<g>
		<path fill="#239BB7" d="M104.4,1246.6c-0.3,0-0.6-0.1-0.9-0.2c-1-0.5-1.4-1.7-1-2.7l5.3-11c0.5-1,1.7-1.4,2.7-1
			c1,0.5,1.4,1.7,1,2.7l-5.3,11C105.9,1246.2,105.2,1246.6,104.4,1246.6z"/>
	</g>
	<g>
		<path fill="#F9C900" d="M117.9,1231.8c0.6-1.1,2.1-2.1,3.3-2.1h3.9c1.3,0,1.9,0.9,1.3,2.1l-2.2,4.7c-0.5,1.2,0.1,2.1,1.3,2.1h2.3
			c1.3,0,1.6,0.8,0.8,1.7l-10.8,12.3c-0.8,1-1.2,0.8-0.8-0.4l2.4-6.9c0.4-1.2-0.3-2.2-1.6-2.2h-3.3c-1.3,0-1.9-0.9-1.3-2.1
			L117.9,1231.8z"/>
	</g>
	<g>
		<path fill="#333333" d="M131.7,1233.6c-0.5,0-1-0.2-1.4-0.6c-0.8-0.8-0.8-2.1,0-2.9c1.6-1.5,2.4-3.6,2.4-5.8
			c0-4.5-3.6-8.1-8.1-8.1l-1.3,0c0,0,0,0,0,0c-0.6,0-1.2-0.3-1.6-0.7c-0.4-0.5-0.6-1.1-0.4-1.7c0.1-0.7,0.2-1.4,0.2-2.1
			c0-6.1-4.9-11-11-11c-6,0-10.8,4.7-11,10.6c0,0.7-0.4,1.4-1,1.7c-0.6,0.3-1.4,0.3-2,0c-1.6-0.9-3.4-1.4-5.2-1.4
			c-5.7,0-10.4,4.7-10.4,10.4c0,2.7,1,5.3,3,7.3c0.8,0.8,0.8,2.1,0,2.9c-0.8,0.8-2.1,0.8-2.9,0c-2.6-2.7-4.1-6.3-4.1-10.1
			c0-8,6.5-14.5,14.5-14.5c1.6,0,3.1,0.3,4.6,0.7c1.5-6.7,7.5-11.7,14.7-11.7c8.3,0,15.1,6.8,15.1,15.1c0,0.2,0,0.3,0,0.4
			c6.3,0.5,11.3,5.8,11.3,12.2c0,3.3-1.3,6.4-3.6,8.7C132.7,1233.4,132.2,1233.6,131.7,1233.6z"/>
	</g>
</g>
<g>
	<g>
		<path fill="#333333" d="M53.1,1308.6h-1.9c-1.1,0-2-0.9-2-2c0-1.1,0.9-2,2-2h1.9c4.5,0,8.1-3.6,8.1-8.1c0-4.5-3.6-8.1-8.1-8.1
			l-1.3,0c0,0,0,0,0,0c-0.6,0-1.2-0.3-1.6-0.7c-0.4-0.5-0.6-1.1-0.4-1.7c0.1-0.7,0.2-1.4,0.2-2.1c0-6.1-4.9-11-11-11
			c-6,0-10.8,4.7-11,10.6c0,0.7-0.4,1.4-1,1.7c-0.6,0.3-1.4,0.3-2,0c-1.6-0.9-3.4-1.4-5.2-1.4c-5.7,0-10.4,4.7-10.4,10.4
			s4.7,10.4,10.4,10.4h1.9c1.1,0,2,0.9,2,2c0,1.1-0.9,2-2,2h-1.9c-8,0-14.5-6.5-14.5-14.5s6.5-14.5,14.5-14.5c1.6,0,3.1,0.2,4.6,0.7
			c1.5-6.7,7.5-11.7,14.7-11.7c8.3,0,15.1,6.8,15.1,15.1c0,0.2,0,0.3,0,0.5c6.3,0.5,11.2,5.8,11.2,12.2
			C65.3,1303.1,59.8,1308.6,53.1,1308.6z"/>
	</g>
	<g>
		<polygon fill="#BABABA" points="32.5,1296.9 34.9,1295.6 35.6,1298.2 38.3,1299 37,1301.4 38.3,1303.8 35.6,1304.6 34.9,1307.2 
			32.5,1305.9 30,1307.2 29.3,1304.6 26.6,1303.8 27.9,1301.4 26.6,1299 29.3,1298.2 30,1295.6 		"/>
	</g>
	<g>
		<polygon fill="#BABABA" points="27.9,1310.9 30.4,1309.6 31.1,1312.2 33.8,1313 32.4,1315.4 33.8,1317.8 31.1,1318.6 30.4,1321.3 
			27.9,1319.9 25.5,1321.3 24.7,1318.6 22.1,1317.8 23.4,1315.4 22.1,1313 24.7,1312.2 25.5,1309.6 		"/>
	</g>
	<g>
		<polygon fill="#BABABA" points="41.6,1307.7 44,1306.4 44.8,1309.1 47.5,1309.8 46.1,1312.3 47.5,1314.7 44.8,1315.5 44,1318.1 
			41.6,1316.8 39.2,1318.1 38.4,1315.5 35.8,1314.7 37.1,1312.3 35.8,1309.8 38.4,1309.1 39.2,1306.4 		"/>
	</g>
</g>
<g>
	<g>
		<path fill="#333333" d="M122.8,1308.6h-1.9c-1.1,0-2-0.9-2-2c0-1.1,0.9-2,2-2h1.9c4.5,0,8.1-3.6,8.1-8.1c0-4.5-3.6-8.1-8.1-8.1
			l-1.3,0c0,0,0,0,0,0c-0.6,0-1.2-0.3-1.6-0.7c-0.4-0.5-0.6-1.1-0.4-1.7c0.1-0.7,0.2-1.4,0.2-2.1c0-6.1-4.9-11-11-11
			c-6,0-10.8,4.7-11,10.6c0,0.7-0.4,1.4-1,1.7c-0.6,0.3-1.4,0.3-2,0c-1.6-0.9-3.4-1.4-5.2-1.4c-5.7,0-10.4,4.7-10.4,10.4
			s4.7,10.4,10.4,10.4h1.9c1.1,0,2,0.9,2,2c0,1.1-0.9,2-2,2h-1.9c-8,0-14.5-6.5-14.5-14.5s6.5-14.5,14.5-14.5c1.6,0,3.1,0.2,4.6,0.7
			c1.5-6.7,7.5-11.7,14.7-11.7c8.3,0,15.1,6.8,15.1,15.1c0,0.2,0,0.3,0,0.5c6.3,0.5,11.2,5.8,11.2,12.2
			C135,1303.1,129.5,1308.6,122.8,1308.6z"/>
	</g>
	<g>
		<polygon fill="#BABABA" points="102.1,1296.9 104.6,1295.6 105.3,1298.2 108,1299 106.7,1301.4 108,1303.8 105.3,1304.6 
			104.6,1307.2 102.1,1305.9 99.7,1307.2 99,1304.6 96.3,1303.8 97.6,1301.4 96.3,1299 99,1298.2 99.7,1295.6 		"/>
	</g>
	<g>
		<polygon fill="#BABABA" points="97.6,1310.9 100,1309.6 100.8,1312.2 103.5,1313 102.1,1315.4 103.5,1317.8 100.8,1318.6 
			100,1321.3 97.6,1319.9 95.2,1321.3 94.4,1318.6 91.8,1317.8 93.1,1315.4 91.8,1313 94.4,1312.2 95.2,1309.6 		"/>
	</g>
	<g>
		<polygon fill="#BABABA" points="111.3,1307.7 113.7,1306.4 114.5,1309.1 117.1,1309.8 115.8,1312.3 117.1,1314.7 114.5,1315.5 
			113.7,1318.1 111.3,1316.8 108.9,1318.1 108.1,1315.5 105.5,1314.7 106.8,1312.3 105.5,1309.8 108.1,1309.1 108.9,1306.4 		"/>
	</g>
</g>
<g>
	<g>
		<path fill="#FFBD00" d="M41.7,1354.7c1.3-1.4,3.1-2.2,5-2.1c1.7,0.1,3.2,0.8,4.4,2.1c1.1,1.2,1.7,2.9,1.6,4.5
			c-0.1,2.4-1.6,4.5-3.7,5.4c1.1,0.6,2,1.3,2.8,2.2c2.5-1.7,4-4.4,4.2-7.5c0.1-2.6-0.7-5-2.5-6.9c-1.7-1.9-4.1-3-6.6-3.2
			c-3-0.1-5.8,1.1-7.8,3.3C40,1353.2,40.9,1353.9,41.7,1354.7z"/>
		<path fill="#FFBD00" d="M64.1,1358.6l-5.3-0.3c-0.7,0-1.3,0.5-1.3,1.2c0,0.7,0.5,1.3,1.2,1.3l5.3,0.3c0,0,0,0,0.1,0
			c0.7,0,1.2-0.5,1.2-1.2C65.4,1359.2,64.8,1358.6,64.1,1358.6z"/>
		<path fill="#FFBD00" d="M46.9,1347.7C46.9,1347.7,46.9,1347.7,46.9,1347.7c0.7,0,1.3-0.5,1.3-1.2l0.3-5.3c0-0.7-0.5-1.3-1.2-1.3
			c-0.7,0-1.3,0.5-1.3,1.2l-0.3,5.3C45.7,1347.1,46.2,1347.7,46.9,1347.7z"/>
		<path fill="#FFBD00" d="M55.6,1351.8c0.3,0,0.6-0.1,0.8-0.3l3.9-3.6c0.5-0.5,0.6-1.2,0.1-1.8c-0.5-0.5-1.2-0.6-1.8-0.1l-3.9,3.6
			c-0.5,0.5-0.6,1.2-0.1,1.8C54.9,1351.7,55.2,1351.8,55.6,1351.8z"/>
		<path fill="#FFBD00" d="M55.6,1367.3c-0.5-0.5-1.2-0.6-1.8-0.1c-0.5,0.5-0.6,1.2-0.1,1.8l3.5,3.9c0.2,0.3,0.6,0.4,0.9,0.4
			c0.3,0,0.6-0.1,0.8-0.3c0.5-0.5,0.6-1.2,0.1-1.8L55.6,1367.3z"/>
		<path fill="#FFBD00" d="M37.1,1350.5c0.2,0.3,0.6,0.4,0.9,0.4c0.3,0,0.6-0.1,0.8-0.3c0.5-0.5,0.6-1.2,0.1-1.8l-3.6-4
			c-0.5-0.5-1.2-0.5-1.8-0.1c-0.5,0.5-0.6,1.2-0.1,1.8L37.1,1350.5z"/>
		<path fill="#333333" d="M51.7,1366.8c-0.8-0.9-1.8-1.6-2.8-2.2c-1.2-0.6-2.4-1-3.8-1.1c0-0.1,0-0.2,0-0.4c0-3.3-1.3-6.3-3.4-8.5
			c-0.8-0.8-1.6-1.5-2.6-2.1c-1.8-1.1-4-1.7-6.2-1.7c-5.9,0-10.7,4-12,9.5c-1.2-0.4-2.5-0.6-3.7-0.6c-6.5,0-11.8,5.3-11.8,11.8
			c0,6.5,5.3,11.8,11.8,11.8h4.3c0.9,0,1.7-0.7,1.7-1.7c0-0.9-0.7-1.7-1.7-1.7h-4.3c-4.7,0-8.5-3.8-8.5-8.5s3.8-8.5,8.5-8.5
			c1.5,0,3,0.4,4.2,1.1c0.5,0.3,1.1,0.3,1.6,0c0.5-0.3,0.8-0.8,0.9-1.4c0.1-4.9,4.1-8.7,9-8.7c4.9,0,9,4,9,9c0,0.6-0.1,1.1-0.2,1.7
			c-0.1,0.5,0,1,0.4,1.4c0.3,0.4,0.8,0.6,1.3,0.6c0,0,0,0,0,0l1.1,0c3.7,0,6.6,3,6.6,6.6s-3,6.6-6.6,6.6H40c-0.9,0-1.7,0.7-1.7,1.7
			c0,0.9,0.7,1.7,1.7,1.7h4.4c5.5,0,10-4.5,10-10C54.3,1370.9,53.3,1368.6,51.7,1366.8z"/>
	</g>
	<g>
		<polygon fill="#BABABA" points="30.8,1381.6 32.8,1380.6 33.4,1382.7 35.6,1383.3 34.5,1385.3 35.6,1387.3 33.4,1387.9 
			32.8,1390.1 30.8,1389 28.8,1390.1 28.2,1387.9 26,1387.3 27.1,1385.3 26,1383.3 28.2,1382.7 28.8,1380.6 		"/>
	</g>
</g>
<g>
	<g>
		<path fill="#7C7C7C" d="M133,1356.5c-0.4-0.4-1-0.5-1.4-0.3c-1.1,0.5-2.2,0.8-3.4,0.8c-4.3,0-7.7-3.5-7.7-7.7c0-2.8,1.6-5.4,4-6.8
			c0.5-0.3,0.7-0.8,0.6-1.3c-0.1-0.5-0.6-0.9-1.1-1c-0.3,0-0.6,0-1,0c-5.5,0-10.1,3.8-11.4,8.9c0.8,0.6,1.5,1.2,2.1,1.9
			c0.4-3.7,2.9-6.7,6.3-7.8c-1.3,1.8-2.1,3.9-2.1,6.2c0,5.6,4.6,10.2,10.2,10.2c0.1,0,0.3,0,0.4,0c-1.6,1.2-3.5,1.8-5.5,1.8
			c-2.1,0-4.1-0.7-5.7-1.9c0,0.3,0,0.5,0,0.8c0,0.1,0,0.3,0,0.4c2.7,0.2,5.1,1.4,6.9,3.2c3.7-0.4,7.1-2.5,9-5.8
			C133.4,1357.4,133.3,1356.9,133,1356.5z"/>
		<path fill="#333333" d="M124.2,1363.7c-1.8-1.8-4.2-2.9-6.9-3.2c0-0.1,0-0.3,0-0.4c0-0.3,0-0.5,0-0.8c-0.2-3.2-1.5-6.2-3.6-8.4
			c-0.6-0.7-1.4-1.3-2.1-1.9c-2.2-1.6-4.9-2.5-7.9-2.5c-6.5,0-11.9,4.5-13.2,10.5c-1.3-0.4-2.7-0.7-4.1-0.7
			c-7.2,0-13.1,5.9-13.1,13.1s5.9,13.1,13.1,13.1h4.7c1,0,1.8-0.8,1.8-1.8c0-1-0.8-1.8-1.8-1.8h-4.7c-5.2,0-9.4-4.2-9.4-9.4
			s4.2-9.4,9.4-9.4c1.6,0,3.3,0.4,4.7,1.3c0.6,0.3,1.2,0.3,1.8,0c0.6-0.3,0.9-0.9,0.9-1.6c0.2-5.4,4.5-9.6,9.9-9.6
			c5.5,0,9.9,4.4,9.9,9.9c0,0.6-0.1,1.2-0.2,1.9c-0.1,0.5,0,1.1,0.4,1.5c0.3,0.4,0.9,0.7,1.4,0.7c0,0,0,0,0,0l1.2,0
			c4,0,7.3,3.3,7.3,7.3c0,4-3.3,7.3-7.3,7.3h-4.8c-1,0-1.8,0.8-1.8,1.8c0,1,0.8,1.8,1.8,1.8h4.8c6.1,0,11-4.9,11-11
			C127.4,1368.4,126.2,1365.7,124.2,1363.7z"/>
	</g>
	<g>
		<polygon fill="#BABABA" points="101.5,1380.5 103.6,1379.3 104.3,1381.7 106.7,1382.4 105.5,1384.6 106.7,1386.8 104.3,1387.5 
			103.6,1389.8 101.5,1388.6 99.3,1389.8 98.6,1387.5 96.2,1386.8 97.4,1384.6 96.2,1382.4 98.6,1381.7 99.3,1379.3 		"/>
	</g>
</g>
<g>
	<g>
		<path fill="#333333" d="M52.8,1450.9h-5.3c-1.1,0-2-0.9-2-2c0-1.1,0.9-2,2-2h5.3c4.5,0,8.1-3.6,8.1-8.1c0-4.5-3.6-8.1-8.1-8.1
			l-1.3,0c0,0,0,0,0,0c-0.6,0-1.2-0.3-1.6-0.7c-0.4-0.5-0.5-1.1-0.4-1.7c0.1-0.7,0.2-1.4,0.2-2.1c0-6.1-4.9-11-11-11
			c-6,0-10.8,4.7-11,10.6c0,0.7-0.4,1.4-1,1.7c-0.6,0.3-1.4,0.3-2,0c-1.6-0.9-3.4-1.4-5.2-1.4c-5.7,0-10.4,4.7-10.4,10.4
			s4.7,10.4,10.4,10.4h5.3c1.1,0,2,0.9,2,2c0,1.1-0.9,2-2,2h-5.3c-8,0-14.5-6.5-14.5-14.5c0-8,6.5-14.5,14.5-14.5
			c1.6,0,3.1,0.2,4.6,0.7c1.5-6.7,7.5-11.7,14.7-11.7c8.3,0,15.1,6.8,15.1,15.1c0,0.2,0,0.3,0,0.5c6.3,0.5,11.3,5.8,11.3,12.2
			C65,1445.4,59.5,1450.9,52.8,1450.9z"/>
	</g>
	<g>
		<polygon fill="#BABABA" points="36.2,1448.7 38.6,1447.3 39.4,1450 42,1450.7 40.7,1453.2 42,1455.6 39.4,1456.4 38.6,1459 
			36.2,1457.7 33.8,1459 33,1456.4 30.4,1455.6 31.7,1453.2 30.4,1450.7 33,1450 33.8,1447.3 		"/>
	</g>
</g>
<g>
	<g>
		<path fill="#239BB7" d="M15.2,1523.6c-0.3,0-0.6-0.1-0.9-0.2c-1-0.5-1.4-1.7-1-2.7l5.3-11c0.5-1,1.7-1.4,2.7-1
			c1,0.5,1.4,1.7,1,2.7l-5.3,11C16.7,1523.1,16,1523.6,15.2,1523.6z"/>
	</g>
	<g>
		<path fill="#239BB7" d="M21.8,1531.5c-0.3,0-0.6-0.1-0.9-0.2c-1-0.5-1.4-1.7-1-2.7l5.3-11c0.5-1,1.7-1.4,2.7-1
			c1,0.5,1.4,1.7,1,2.7l-5.3,11C23.3,1531.1,22.6,1531.5,21.8,1531.5z"/>
	</g>
	<g>
		<path fill="#239BB7" d="M32.7,1528.4c-0.3,0-0.6-0.1-0.9-0.2c-1-0.5-1.4-1.7-1-2.7l5.3-11c0.5-1,1.7-1.4,2.7-1
			c1,0.5,1.4,1.7,1,2.7l-5.3,11C34.2,1527.9,33.4,1528.4,32.7,1528.4z"/>
	</g>
	<g>
		<path fill="#333333" d="M60,1515.4c-0.5,0-1-0.2-1.4-0.6c-0.8-0.8-0.8-2.1,0-2.9c1.6-1.5,2.4-3.6,2.4-5.8c0-4.5-3.6-8.1-8.1-8.1
			l-1.3,0c0,0,0,0,0,0c-0.6,0-1.2-0.3-1.6-0.7c-0.4-0.5-0.5-1.1-0.4-1.7c0.1-0.7,0.2-1.4,0.2-2.1c0-6.1-4.9-11-11-11
			c-6,0-10.8,4.7-11,10.6c0,0.7-0.4,1.4-1,1.7c-0.6,0.3-1.4,0.3-2,0c-1.6-0.9-3.4-1.4-5.2-1.4c-5.7,0-10.4,4.7-10.4,10.4
			c0,2.7,1,5.3,2.9,7.3c0.8,0.8,0.8,2.1,0,2.9c-0.8,0.8-2.1,0.8-2.9,0c-2.6-2.7-4.1-6.3-4.1-10.1c0-8,6.5-14.5,14.5-14.5
			c1.6,0,3.1,0.3,4.6,0.7c1.5-6.7,7.5-11.7,14.7-11.7c8.3,0,15.1,6.8,15.1,15.1c0,0.2,0,0.3,0,0.5c6.3,0.5,11.3,5.8,11.3,12.2
			c0,3.3-1.3,6.4-3.6,8.7C61,1515.2,60.5,1515.4,60,1515.4z"/>
	</g>
	<g>
		<polygon fill="#BABABA" points="48.8,1517.1 51.2,1515.8 52,1518.4 54.6,1519.2 53.3,1521.6 54.6,1524 52,1524.8 51.2,1527.4 
			48.8,1526.1 46.3,1527.4 45.6,1524.8 42.9,1524 44.2,1521.6 42.9,1519.2 45.6,1518.4 46.3,1515.8 		"/>
	</g>
</g>
<g>
	<g>
		<path fill="#239BB7" d="M85.2,1523.6c-0.3,0-0.6-0.1-0.9-0.2c-1-0.5-1.4-1.7-1-2.7l5.3-11c0.5-1,1.7-1.4,2.7-1
			c1,0.5,1.4,1.7,1,2.7l-5.3,11C86.7,1523.1,86,1523.6,85.2,1523.6z"/>
	</g>
	<g>
		<path fill="#239BB7" d="M91.8,1531.5c-0.3,0-0.6-0.1-0.9-0.2c-1-0.5-1.4-1.7-1-2.7l5.3-11c0.5-1,1.7-1.4,2.7-1
			c1,0.5,1.4,1.7,1,2.7l-5.3,11C93.3,1531.1,92.6,1531.5,91.8,1531.5z"/>
	</g>
	<g>
		<path fill="#239BB7" d="M102.7,1528.4c-0.3,0-0.6-0.1-0.9-0.2c-1-0.5-1.4-1.7-1-2.7l5.3-11c0.5-1,1.7-1.4,2.7-1
			c1,0.5,1.4,1.7,1,2.7l-5.3,11C104.2,1527.9,103.4,1528.4,102.7,1528.4z"/>
	</g>
	<g>
		<path fill="#333333" d="M130,1515.4c-0.5,0-1-0.2-1.4-0.6c-0.8-0.8-0.8-2.1,0-2.9c1.6-1.5,2.4-3.6,2.4-5.8c0-4.5-3.6-8.1-8.1-8.1
			l-1.3,0c0,0,0,0,0,0c-0.6,0-1.2-0.3-1.6-0.7c-0.4-0.5-0.5-1.1-0.4-1.7c0.1-0.7,0.2-1.4,0.2-2.1c0-6.1-4.9-11-11-11
			c-6,0-10.8,4.7-11,10.6c0,0.7-0.4,1.4-1,1.7c-0.6,0.3-1.4,0.3-2,0c-1.6-0.9-3.4-1.4-5.2-1.4c-5.7,0-10.4,4.7-10.4,10.4
			c0,2.7,1,5.3,2.9,7.3c0.8,0.8,0.8,2.1,0,2.9c-0.8,0.8-2.1,0.8-2.9,0c-2.6-2.7-4.1-6.3-4.1-10.1c0-8,6.5-14.5,14.5-14.5
			c1.6,0,3.1,0.3,4.6,0.7c1.5-6.7,7.5-11.7,14.7-11.7c8.3,0,15.1,6.8,15.1,15.1c0,0.2,0,0.3,0,0.5c6.3,0.5,11.3,5.8,11.3,12.2
			c0,3.3-1.3,6.4-3.6,8.7C131,1515.2,130.5,1515.4,130,1515.4z"/>
	</g>
	<g>
		<polygon fill="#BABABA" points="118.8,1517.1 121.2,1515.8 122,1518.4 124.6,1519.2 123.3,1521.6 124.6,1524 122,1524.8 
			121.2,1527.4 118.8,1526.1 116.3,1527.4 115.6,1524.8 112.9,1524 114.2,1521.6 112.9,1519.2 115.6,1518.4 116.3,1515.8 		"/>
	</g>
</g>
<g>
	<g>
		<path fill="#333333" d="M122.8,1450.9h-5.3c-1.1,0-2-0.9-2-2c0-1.1,0.9-2,2-2h5.3c4.5,0,8.1-3.6,8.1-8.1c0-4.5-3.6-8.1-8.1-8.1
			l-1.3,0c0,0,0,0,0,0c-0.6,0-1.2-0.3-1.6-0.7c-0.4-0.5-0.5-1.1-0.4-1.7c0.1-0.7,0.2-1.4,0.2-2.1c0-6.1-4.9-11-11-11
			c-6,0-10.8,4.7-11,10.6c0,0.7-0.4,1.4-1,1.7c-0.6,0.3-1.4,0.3-2,0c-1.6-0.9-3.4-1.4-5.2-1.4c-5.7,0-10.4,4.7-10.4,10.4
			s4.7,10.4,10.4,10.4h5.3c1.1,0,2,0.9,2,2c0,1.1-0.9,2-2,2h-5.3c-8,0-14.5-6.5-14.5-14.5c0-8,6.5-14.5,14.5-14.5
			c1.6,0,3.1,0.2,4.6,0.7c1.5-6.7,7.5-11.7,14.7-11.7c8.3,0,15.1,6.8,15.1,15.1c0,0.2,0,0.3,0,0.5c6.3,0.5,11.3,5.8,11.3,12.2
			C135,1445.4,129.5,1450.9,122.8,1450.9z"/>
	</g>
	<g>
		<polygon fill="#BABABA" points="106.2,1448.7 108.6,1447.3 109.4,1450 112,1450.7 110.7,1453.2 112,1455.6 109.4,1456.4 
			108.6,1459 106.2,1457.7 103.8,1459 103,1456.4 100.4,1455.6 101.7,1453.2 100.4,1450.7 103,1450 103.8,1447.3 		"/>
	</g>
</g>
</svg>
