<?xml version="1.0" encoding="utf-8"?>
<!-- Generator: Adobe Illustrator 18.0.0, SVG Export Plug-In . SVG Version: 6.00 Build 0)  -->
<!DOCTYPE svg PUBLIC "-//W3C//DTD SVG 1.1//EN" "http://www.w3.org/Graphics/SVG/1.1/DTD/svg11.dtd">
<svg version="1.1" id="Laag_1" xmlns="http://www.w3.org/2000/svg" xmlns:xlink="http://www.w3.org/1999/xlink" x="0px" y="0px"
	 width="90px" height="270px" viewBox="0 0 90 270" enable-background="new 0 0 90 270" xml:space="preserve">
<g>
	<path fill="#FFFFFF" d="M51.6,28.5h8.2V18.4h-8.2c-6.8,0-12.3,6-12.3,13.3v5.1h-8.2V47h8.2v24.6h10.2V47h10.2V36.8H49.6v-5.2
		C49.6,29.8,50.7,28.5,51.6,28.5z"/>
</g>
<path fill="#FFFFFF" d="M75.4,133.4c-2.1,0.4-5.2,0-6.8-0.7c3.4-0.3,5.6-1.8,6.5-3.9c-1.2,0.7-5,1.6-7.1,0.8c-0.1-0.5-0.2-1-0.3-1.4
	c-1.6-5.8-7-10.5-12.7-10c0.5-0.2,0.9-0.4,1.4-0.5c0.6-0.2,4.3-0.8,3.7-2.1c-0.5-1.1-5,0.9-5.8,1.1c1.1-0.4,3-1.1,3.2-2.4
	c-1.7,0.2-3.4,1-4.7,2.2c0.5-0.5,0.8-1.1,0.9-1.8c-4.6,2.9-7.2,8.8-9.4,14.5c-1.7-1.6-3.2-2.9-4.5-3.7c-3.8-2-8.3-4.1-15.4-6.8
	c-0.2,2.3,1.2,5.5,5.1,7.5c-0.9-0.1-2.4,0.1-3.7,0.4c0.5,2.7,2.2,4.9,6.7,6c-2.1,0.1-3.1,0.6-4.1,1.6c0.9,1.9,3.2,4.1,7.4,3.6
	c-4.6,2-1.9,5.7,1.9,5.1c-6.4,6.6-16.4,6.1-22.2,0.6c15.1,20.6,47.9,12.2,52.8-7.7C72,136.1,74.1,134.8,75.4,133.4z"/>
<path fill="#FFFFFF" d="M26.3,199.2h38.4c3.6,0,6.6,3,6.6,6.6v38.4c0,3.6-3,6.6-6.6,6.6H26.3c-3.6,0-6.6-3-6.6-6.6v-38.4
	C19.7,202.2,22.7,199.2,26.3,199.2z M57.3,204.9c-1.3,0-2.3,1-2.3,2.3v5.6c0,1.3,1,2.3,2.3,2.3h5.8c1.3,0,2.3-1,2.3-2.3v-5.6
	c0-1.3-1-2.3-2.3-2.3H57.3z M65.5,221h-4.5c0.4,1.4,0.7,2.9,0.7,4.4c0,8.6-7.2,15.5-16.1,15.5c-8.9,0-16.1-7-16.1-15.5
	c0-1.5,0.2-3,0.7-4.4h-4.7v21.8c0,1.1,0.9,2,2.1,2h36c1.1,0,2.1-0.9,2.1-2V221z M45.5,214.8c-5.7,0-10.4,4.5-10.4,10
	c0,5.5,4.6,10,10.4,10c5.7,0,10.4-4.5,10.4-10C55.9,219.3,51.3,214.8,45.5,214.8z"/>
</svg>
