<?xml version="1.0" encoding="utf-8"?>
<!-- Generator: Adobe Illustrator 18.0.0, SVG Export Plug-In . SVG Version: 6.00 Build 0)  -->
<!DOCTYPE svg PUBLIC "-//W3C//DTD SVG 1.1//EN" "http://www.w3.org/Graphics/SVG/1.1/DTD/svg11.dtd">
<svg version="1.1" id="Laag_1" xmlns="http://www.w3.org/2000/svg" xmlns:xlink="http://www.w3.org/1999/xlink" x="0px" y="0px"
	 width="100px" height="158px" viewBox="0 0 100 158" enable-background="new 0 0 100 158" xml:space="preserve">
<g>
	<path fill="#FFFFFF" d="M79.2,45c0-4.7,3.6-8.6,8.2-9C83.3,17.5,66.8,3.7,47.1,3.7C24.3,3.7,5.8,22.2,5.8,45s18.5,41.3,41.3,41.3
		c19.7,0,36.2-13.8,40.3-32.3C82.8,53.6,79.2,49.7,79.2,45z M45.4,62c0,0.2-0.2,0.4-0.4,0.4h-4.2h-2.5h-4.1c-0.2,0-0.4-0.2-0.4-0.4
		v-2.6v-8.8v-14c0-0.8-0.7-1.5-1.5-1.5c-0.7,0-1.2,0.4-1.4,1v0.1c-0.1,0.1-0.1,0.3-0.1,0.4v14v8.8V62c0,0.1,0,0.2,0,0.2v0.2h-0.4
		h-4.1h-2.5h-4.2h-0.2c-0.2,0-0.4-0.2-0.4-0.4V27.3c0-0.2,0.2-0.4,0.4-0.4h0.2h11.1h14c0.3,0,0.4,0.2,0.7,0.5V62z M74.1,62
		c0,0.2-0.2,0.4-0.4,0.4h-14H48.6h-0.2c-0.2,0-0.4-0.2-0.4-0.4V27.4c0-0.2,0.2-0.4,0.4-0.4h0.2h4.2h2.5h4.1h0.4v0.2c0,0,0,0.1,0,0.2
		V30v8.8v14c0,0.1,0,0.3,0.1,0.4v0.1c0.2,0.6,0.7,1,1.4,1c0.8,0,1.5-0.7,1.5-1.5v-14V30v-2.6c0-0.2,0.2-0.4,0.4-0.4h4.1h2.2h4.2
		c0.2,0,0.4,0.2,0.4,0.4V62z"/>
	<path fill="#FFFFFF" d="M88.1,37.9c-3.9,0-7.1,3.2-7.1,7.1s3.2,7.1,7.1,7.1c3.9,0,7.1-3.2,7.1-7.1S92,37.9,88.1,37.9z M88.6,48.2
		l-0.9,0v-2.7c0-0.5-0.1-0.8-0.2-1s-0.4-0.3-0.7-0.3c-0.2,0-0.4,0.1-0.6,0.2c-0.2,0.1-0.4,0.2-0.5,0.4v3.4h-0.8v-4.6h0.6l0.3,0.6
		c0.3-0.5,0.7-0.7,1.3-0.7c1,0,1.5,0.6,1.5,1.8V48.2z M91.1,48.3c-1.1,0-1.6-0.4-1.6-1.4v-5.2h0.8v5.1c0,0.2,0.1,0.4,0.2,0.6
		c0.1,0.1,0.3,0.2,0.6,0.2V48.3z"/>
</g>
<g>
	<path fill="#FFFFFF" d="M60.3,124c0-3.7,2.8-6.8,6.5-7.1c-3.2-14.6-16.2-25.4-31.7-25.4c-17.9,0-32.5,14.6-32.5,32.5
		c0,17.9,14.6,32.5,32.5,32.5c15.5,0,28.5-10.9,31.7-25.4C63.1,130.8,60.3,127.7,60.3,124z M33.7,137.3c0,0.1-0.1,0.3-0.3,0.3h-3.3
		h-2h-3.2c-0.1,0-0.3-0.1-0.3-0.3v-2v-6.9v-11c0-0.6-0.6-1.2-1.2-1.2c-0.5,0-0.9,0.3-1.1,0.8v0.1c-0.1,0.1-0.1,0.2-0.1,0.3v11v6.9v2
		c0,0.1,0,0.2,0,0.2v0.2h-0.3h-3.2h-2h-3.3h-0.2c-0.1,0-0.3-0.1-0.3-0.3v-27.3c0-0.1,0.1-0.3,0.3-0.3h0.2h8.7h11
		c0.3,0,0.4,0.1,0.6,0.3V137.3z M56.3,137.5c0,0-0.2,0.2-0.3,0.2H45h-8.7h-0.2c-0.2,0-0.3-0.2-0.3-0.3v-27.2c0-0.2,0.2-0.3,0.3-0.3
		h0.2h3.3h2h3.1H45v0.2c0,0,0,0.1,0,0.2v2v6.9v11c0,0.1,0,0.2,0.1,0.3v0.1c0.2,0.5,0.6,0.8,1.1,0.8c0.6,0,1.2-0.6,1.2-1.2v-11v-6.9
		v-2c0-0.2,0.2-0.3,0.3-0.3h3.2h1.8H56c0.2,0,0.3,0.2,0.3,0.3V137.5z"/>
	<path fill="#FFFFFF" d="M67.3,118.4c-3.1,0-5.6,2.5-5.6,5.6c0,3.1,2.5,5.6,5.6,5.6c3.1,0,5.6-2.5,5.6-5.6
		C72.9,120.9,70.4,118.4,67.3,118.4z M67.6,126.6H67v-0.1v-2.1c0-0.4-0.1-0.6-0.2-0.8c-0.1-0.2-0.3-0.2-0.6-0.2
		c-0.2,0-0.3,0.1-0.5,0.2c-0.2,0.1-0.3,0.2-0.4,0.3v2.7h-0.6V123h0.5l0.2,0.5c0.2-0.4,0.6-0.6,1-0.6c0.8,0,1.2,0.5,1.2,1.4V126.6z
		 M69.7,126.7c-0.9-0.1-1.3-0.4-1.3-1.2v-4.1H69v4c0,0.2,0.1,0.3,0.2,0.5c0.1,0.1,0.2,0.2,0.5,0.2V126.7z"/>
</g>
</svg>
