<svg xmlns="http://www.w3.org/2000/svg" width="108" height="230.5" viewBox="0 0 108 230.5">
  <defs>
    <style>
      .cls-1 {
        fill: #fff;
        fill-rule: evenodd;
      }
    </style>
  </defs>
  <path class="cls-1" d="M233.764,140.357c3.252,0.229,6.1,3.616,5.042,6.74a8.947,8.947,0,0,0-2.281-.3,7.748,7.748,0,0,0-5.651,2.235c-0.04-.018-0.081-0.034-0.081-0.034s-0.158.234-.4,0.638a4.755,4.755,0,0,0-.486.894c-0.952,1.952-2.059,5.422.07,8.339-4.984,6.97-9.131,15.493-4.592,22.553a5.882,5.882,0,0,0-1.074,1.953c-1.313,2.265-1.855,5.765,1.235,10.7,0,0,1.625,2.042.461,4.054,0,0,5.031.364,4.664-5.218,0.689,1.78,2.46,4.122,6.815,6.243,0,0,3.407,2.836.707,5.9,0,0,9.057-7.789,1.764-13.455-1.164-.9-2.147-1.693-3-2.405a3.636,3.636,0,0,0,.474.053c3.984,0.086,6.17-4.038,4.7-3.377a0.207,0.207,0,0,1-.069.027c-1.455.6-2.975-.6-5.518-3.167a9.248,9.248,0,0,0-3.214-2.276,6.232,6.232,0,0,0-6.425-.325c-1.56-3.431-2.281-9.544,4.731-17.95,0.182-.217.345-0.418,0.52-0.628,2.926,4.012,4.131,8.488-.016,9.925,0,0,5.721-.17,5.892-4.9,0.145-4.091-3.225-6.794-1.082-9.313,3.6-.165,6.47-2.438,6.47-5.225a4.531,4.531,0,0,0-1.613-3.356c1.157-2.538,1.26-4.851,1.037-8.738a12.911,12.911,0,0,0,1.386-.457c0.131,1.838.326,3.612,1.208,4.8a4.221,4.221,0,0,0,3.039,1.742c8.407,0.853,7.149,4.749,7.149,4.749-0.948,1.162,1.16,2.53,1.16,2.53,5.878-2.423,3.776,5.8,2.2,4.117s-3.361.737-3.361,0.737c-1.578,1.366,1.258,6.217,2.308,6.752s-0.1,3.694-.1,3.694c1.467,1.153,5.252-.322,5.252-0.322,0.735,1.69-.95,4.429-0.95,4.429,2,0.949,3.364-1.683,3.364-1.683,0.637,0.421,2.24,4.885,2.24,4.885a3.6,3.6,0,0,0,2.591,2.39c-0.142-1.406,1.54-1.547,1.54-1.547a1.889,1.889,0,0,0,.984-0.279c0.068-.21,2.453-1.826,3.154-0.282a5.482,5.482,0,0,0,2.8,2.6c0.629,0.281,2.313-.775,2.313-0.775a3.22,3.22,0,0,0,2.032.849,6.7,6.7,0,0,0,.766-4.44,4.09,4.09,0,0,1,1.54.288,10.41,10.41,0,0,0,.352-3.731h0.838a5.865,5.865,0,0,0-2.379-5.624c-0.7-2.814-6.163-.561-5.955.492a5.155,5.155,0,0,1-.561,2.6c-0.065,1.412-4.057-.627-4.338-2.176s-2.38-4.43-2.38-4.43c0.838-.14,1.543-3.3,1.543-3.3,1.953,0,4.694,3.721,4.694,3.721,0.834-.981.416-4.216,0.416-4.216s0.139,1.545,3.288,1.479a6.307,6.307,0,0,1,4.693,1.613c0.347-2.53-3.148-5.273-3.148-5.273,1.824-.772,1.193-2.181,1.193-2.181-0.209.636-3.366,0.215-3.366,0.215a2.473,2.473,0,0,0,1.125-2.255c-0.353.565-1.479-.486-1.479-0.486,1.405-.5,1.195-2.462,1.195-2.462-3.99,1.406-4.275-2.258-6.023-1.9a2.451,2.451,0,0,1-2.5-.663C267.2,136.25,257,131.916,253.528,130.262v-0.019a31.673,31.673,0,0,0,9.16-.279c-2.433-.238-5.152-4.592-7-8.2A22.731,22.731,0,0,1,257.217,119c1.677,5.486,10.5,7.176,10.5,7.176-1.816-1.22-3.193-3.312-3.822-8.171a5.051,5.051,0,0,1,1.628,1.379c-0.316-.8.711-1.938,0.711-1.938l2.064,1.3c-1.307-1.229.448-2.843,0.448-2.843l0.776,0.338c0.7-1.015,1.449-2.136,1.449-2.136,0.9,0.66,2.474-.246,2.474-0.246a0.017,0.017,0,0,1-.012-0.015,12.04,12.04,0,0,0,2.121.428,10.118,10.118,0,0,0,.107-2.483,2.031,2.031,0,0,0,.926-0.7,14.321,14.321,0,0,0,1.826,2.814,35.233,35.233,0,0,0,2.444-3.285,0.743,0.743,0,0,1-.015.133,0.6,0.6,0,0,0,.7.18,9.259,9.259,0,0,0,1.872,3.149,20.153,20.153,0,0,0,1.5-4.013c0.17,0.041.273,0.075,0.273,0.075,1.6-3.4-1.939-4.02-3.077-4.125a19.62,19.62,0,0,1-3.012-.648c0.322-7.125-5.861-5.6-5.861-5.6-1.947,2.977-9.772,6.164-9.772,6.164s-0.127.322-.33,0.858a15.018,15.018,0,0,0-2.481-6.019,7.971,7.971,0,0,1-.279-1.9,3.1,3.1,0,0,1,1.129-2.23,4.391,4.391,0,0,0,1.1,1.429,1.12,1.12,0,0,1-.194-0.888,4.7,4.7,0,0,0,.474-2.779l0.02-.8-1.283.475-0.629-1.011c-1.75,1.65-2.433.137-2.433,0.137-0.88-3.247-.158-5.365,1.025-6.743a43.756,43.756,0,0,1,5.542,7.77c1.229,2.433,5.955,5.158,8.51,3.56s0.47-6.526-2.607-7.092-1.065,2.845-1.065,2.845c-0.968,2.7-3.681-1.317-3.681-1.317a17.557,17.557,0,0,0-5.521-6.828,8.757,8.757,0,0,1,3.379-1.377,10.245,10.245,0,0,0,1.664,3.231l-0.5,1.513,1.51-.4,0.247,0.25L266.649,89.9l1.337-.986a4.078,4.078,0,0,0,3.714-4.355l1.5-.265a12.746,12.746,0,0,0-4.021-8.433,7.643,7.643,0,0,0-1.3-4.137c-1.309-1.72-4.547-3.25-5.25-4.019a15.659,15.659,0,0,0-6.617-5.075,1.579,1.579,0,0,1-.725-2.039s-1.836.805-2.212,1.673c0,0-3.551-1.321-3.952-2.762,0,0-2.481,1.219-1.9,4.923,0,0-3.44,1.835-5.2,7.738a1.182,1.182,0,0,1-1.8-.092l-1.347,4.09-1.348-4.09a1.181,1.181,0,0,1-1.794.092c-1.756-5.9-5.2-7.738-5.2-7.738,0.581-3.7-1.9-4.923-1.9-4.923-0.4,1.441-3.953,2.762-3.953,2.762-0.376-.868-2.212-1.673-2.212-1.673a1.579,1.579,0,0,1-.725,2.039,15.638,15.638,0,0,0-6.615,5.075c-0.706.768-3.942,2.3-5.25,4.019a7.64,7.64,0,0,0-1.3,4.137,12.748,12.748,0,0,0-4.02,8.433l1.5,0.265a4.078,4.078,0,0,0,3.714,4.355l1.336,0.986L210.7,88.606l0.247-.25,1.509,0.4-0.5-1.513a10.221,10.221,0,0,0,1.664-3.231,8.763,8.763,0,0,1,3.379,1.377,17.53,17.53,0,0,0-5.521,6.828s-2.713,4.012-3.679,1.317c0,0,2-3.412-1.068-2.845s-5.162,5.494-2.607,7.092,7.282-1.127,8.51-3.56a43.769,43.769,0,0,1,5.544-7.77c1.182,1.378,1.9,3.5,1.023,6.743,0,0-.681,1.513-2.432-0.137l-0.629,1.011-1.281-.475,0.018,0.8a4.679,4.679,0,0,0,.473,2.779,1.115,1.115,0,0,1-.194.888,4.391,4.391,0,0,0,1.1-1.429,3.109,3.109,0,0,1,1.13,2.23,8.125,8.125,0,0,1-.279,1.9,14.975,14.975,0,0,0-2.481,6.019c-0.205-.536-0.331-0.858-0.331-0.858s-7.825-3.187-9.772-6.164c0,0-6.184-1.52-5.86,5.6a19.674,19.674,0,0,1-3.013.648c-1.138.1-4.675,0.727-3.077,4.125,0,0,.1-0.034.272-0.075a20.164,20.164,0,0,0,1.5,4.013,9.246,9.246,0,0,0,1.871-3.149,0.6,0.6,0,0,0,.7-0.18,0.993,0.993,0,0,1-.014-0.133,35.224,35.224,0,0,0,2.445,3.285,14.371,14.371,0,0,0,1.826-2.814,2.035,2.035,0,0,0,.927.7,10.027,10.027,0,0,0,.105,2.483,11.984,11.984,0,0,0,2.119-.428,0.017,0.017,0,0,1-.01.015s1.569,0.906,2.475.246c0,0,.748,1.121,1.448,2.136l0.775-.338s1.756,1.614.45,2.843l2.063-1.3s1.027,1.14.711,1.938A5.046,5.046,0,0,1,213.864,118c-0.629,4.859-2.007,6.951-3.825,8.171,0,0,8.823-1.69,10.5-7.176a22.973,22.973,0,0,1,1.534,2.767c-1.853,3.607-4.571,7.961-7,8.2a31.664,31.664,0,0,0,9.159.279v0.019c-3.469,1.654-13.673,5.988-19.131,15.875a2.452,2.452,0,0,1-2.5.663c-1.75-.355-2.033,3.309-6.023,1.9,0,0-.212,1.967,1.193,2.462,0,0-1.125,1.051-1.478.486a2.473,2.473,0,0,0,1.125,2.255s-3.157.421-3.366-.215c0,0-.631,1.409,1.194,2.181,0,0-3.5,2.743-3.15,5.273a6.308,6.308,0,0,1,4.694-1.613c3.149,0.066,3.288-1.479,3.288-1.479s-0.42,3.235.417,4.216c0,0,2.74-3.721,4.693-3.721,0,0,.7,3.161,1.543,3.3,0,0-2.1,2.885-2.38,4.43s-4.273,3.588-4.338,2.176a5.144,5.144,0,0,1-.561-2.6c0.206-1.053-5.255-3.306-5.955-.492a5.87,5.87,0,0,0-2.379,5.624h0.839a10.4,10.4,0,0,0,.351,3.731,4.09,4.09,0,0,1,1.54-.288,6.7,6.7,0,0,0,.768,4.44,3.219,3.219,0,0,0,2.03-.849s1.683,1.056,2.313.775a5.5,5.5,0,0,0,2.8-2.6c0.7-1.544,3.084.072,3.152,0.282a1.883,1.883,0,0,0,.982.279s1.683,0.141,1.541,1.547a3.6,3.6,0,0,0,2.592-2.39s1.6-4.464,2.24-4.885c0,0,1.364,2.632,3.365,1.683,0,0-1.683-2.739-.949-4.429,0,0,3.783,1.475,5.248.322,0,0-1.154-3.164-.1-3.694s3.886-5.386,2.307-6.752c0,0-1.78-2.43-3.36-.737s-3.677-6.54,2.2-4.117c0,0,2.109-1.368,1.159-2.53,0,0-1.256-3.9,7.149-4.749a4.223,4.223,0,0,0,3.04-1.742,6.432,6.432,0,0,0,1.466-3.916ZM187.728,270.793h-1.054V257.27h1.054v13.523Zm13.743,0h-1.054l-6.355-11.517v11.517H193V257.269h1.063l6.364,11.536V257.269h1.045v13.524ZM214,258.273h-3.829v12.52h-1.064v-12.52h-3.82v-1H214v1Zm10.34,6.046h-5.226v5.489h6.012v0.985H218.06V257.269h7.021v1h-5.966v5.062h5.226v0.984Zm9.22,0.845h-3.145v5.629h-1.064V257.27h3.691a4.719,4.719,0,0,1,1.614.26,3.214,3.214,0,0,1,1.216.766,3.4,3.4,0,0,1,.768,1.249,5.015,5.015,0,0,1,.269,1.71,4.561,4.561,0,0,1-.167,1.253,3.9,3.9,0,0,1-.472,1.059,3.443,3.443,0,0,1-.736.822,3.2,3.2,0,0,1-.948.534l2.8,5.748v0.122h-1.128Zm-3.145-.984h2.812a2.572,2.572,0,0,0,1.142-.242,2.348,2.348,0,0,0,.819-0.645,2.862,2.862,0,0,0,.49-0.934,3.654,3.654,0,0,0,.167-1.1,3.957,3.957,0,0,0-.181-1.24,2.5,2.5,0,0,0-.536-0.938,2.365,2.365,0,0,0-.879-0.595,3.24,3.24,0,0,0-1.207-.209h-2.627v5.907Zm19.735,6.613H249.1l-6.355-11.517v11.517h-1.063V257.269h1.063l6.365,11.536V257.269h1.044v13.524Zm11.377-6.474H256.3v5.489h6.013v0.985h-7.067V257.269h7.021v1H256.3v5.062h5.226v0.984Zm12.919-6.046h-3.83v12.52h-1.063v-12.52h-3.82v-1h8.713v1Zm11.568,5.164c-0.2-.291-0.389-0.573-0.552-0.846a6.263,6.263,0,0,1-.41-0.807,5.053,5.053,0,0,1-.259-0.8,3.6,3.6,0,0,1-.093-0.817,4.133,4.133,0,0,1,.186-1.286,2.749,2.749,0,0,1,.529-0.972,2.34,2.34,0,0,1,.839-0.612,2.7,2.7,0,0,1,1.092-.214,2.418,2.418,0,0,1,1.039.214,2.358,2.358,0,0,1,.777.575,2.489,2.489,0,0,1,.487.846,3.11,3.11,0,0,1,.167,1.021,2.84,2.84,0,0,1-.13.869,3.694,3.694,0,0,1-.339.757,3.916,3.916,0,0,1-.484.655q-0.277.3-.564,0.561l-1.009.92,3.034,4.254a6.419,6.419,0,0,0,.482-1.384,7.329,7.329,0,0,0,.175-1.634h0.944a7.046,7.046,0,0,1-.99,3.863l1.563,2.192H291.26l-0.944-1.319a4.556,4.556,0,0,1-1.406,1.106,3.668,3.668,0,0,1-1.665.4,3.906,3.906,0,0,1-1.476-.265,3.151,3.151,0,0,1-1.11-.743,3.264,3.264,0,0,1-.7-1.147,4.305,4.305,0,0,1-.243-1.486,3.6,3.6,0,0,1,.169-1.129,4.363,4.363,0,0,1,.469-0.976,5.961,5.961,0,0,1,.706-0.886c0.274-.285.57-0.567,0.885-0.845Zm1.23,6.584a2.737,2.737,0,0,0,1.335-.352,3.952,3.952,0,0,0,1.163-.994l-3.117-4.384-0.093-.111-0.333.306a6.132,6.132,0,0,0-.777.906,5.01,5.01,0,0,0-.444.78,2.628,2.628,0,0,0-.2.65,3.34,3.34,0,0,0-.047.516,3.406,3.406,0,0,0,.152,1.026,2.383,2.383,0,0,0,.468.854,2.29,2.29,0,0,0,.786.586,2.633,2.633,0,0,0,1.11.217m-1.517-9.89a3.213,3.213,0,0,0,.272,1.254,7.914,7.914,0,0,0,.765,1.374l0.971-.892a4.065,4.065,0,0,0,.8-0.933,2.245,2.245,0,0,0,.311-1.194,2.1,2.1,0,0,0-.1-0.631,1.686,1.686,0,0,0-.287-0.544,1.361,1.361,0,0,0-.472-0.375,1.443,1.443,0,0,0-.65-0.14,1.421,1.421,0,0,0-.7.167,1.529,1.529,0,0,0-.5.451,2.037,2.037,0,0,0-.305.664,3.064,3.064,0,0,0-.1.8m-97.706,16.16,4.08,11.9,4.1-11.9h1.4v13.523h-1.055v-5.879l0.093-5.879-4.125,11.758h-0.815l-4.106-11.7,0.092,5.823v5.879h-1.055V276.291h1.4Zm20.949,9.743h-5.05l-1.147,3.779h-1.1l4.291-13.522h0.98l4.292,13.522h-1.1Zm-4.745-.994h4.44l-2.22-7.253Zm15.093-.855h-3.144v5.629h-1.064V276.291H218.8a4.719,4.719,0,0,1,1.614.26,3.214,3.214,0,0,1,1.216.766,3.4,3.4,0,0,1,.768,1.249,5.048,5.048,0,0,1,.268,1.71,4.6,4.6,0,0,1-.166,1.253,3.966,3.966,0,0,1-.472,1.06,3.458,3.458,0,0,1-.736.821,3.217,3.217,0,0,1-.948.534l2.8,5.749v0.121h-1.128Zm-3.144-.984h2.812a2.575,2.575,0,0,0,1.142-.242,2.337,2.337,0,0,0,.819-0.645,2.852,2.852,0,0,0,.49-0.934,3.654,3.654,0,0,0,.167-1.1,3.968,3.968,0,0,0-.181-1.241,2.507,2.507,0,0,0-.536-0.937,2.359,2.359,0,0,0-.879-0.594,3.219,3.219,0,0,0-1.207-.21h-2.627V283.2Zm13.882-.056-1.563,1.821v4.847H227.44V276.292h1.054V283.5l1.48-1.857,4.171-5.349h1.322l-4.7,6.017,5.06,7.5h-1.286Zm15.952,0.195h-5.226v5.49H246.8v0.983h-7.066V276.291h7.021v1h-5.967v5.062h5.226v0.984Zm12.92-6.046H255.1v12.52h-1.064v-12.52h-3.82v-1h8.713v1Zm5.308,12.52h-1.055V276.291h1.055v13.523Zm13.743,0h-1.054L270.571,278.3v11.516h-1.063V276.291h1.063l6.364,11.535V276.291h1.045v13.522Zm13.3-1.569a5.618,5.618,0,0,1-.453.5,3.724,3.724,0,0,1-.771.575,5.171,5.171,0,0,1-1.153.477,5.563,5.563,0,0,1-1.573.2,4.67,4.67,0,0,1-1.834-.351,3.739,3.739,0,0,1-1.415-1.033,4.863,4.863,0,0,1-.913-1.7,7.756,7.756,0,0,1-.324-2.354v-3.1a8.27,8.27,0,0,1,.294-2.312,4.625,4.625,0,0,1,.844-1.677,3.532,3.532,0,0,1,1.36-1.017,4.624,4.624,0,0,1,1.831-.344,4.907,4.907,0,0,1,1.689.269,3.408,3.408,0,0,1,1.25.781,3.574,3.574,0,0,1,.8,1.259,5.688,5.688,0,0,1,.354,1.694h-1.054a5.4,5.4,0,0,0-.271-1.254,2.688,2.688,0,0,0-.564-0.947,2.365,2.365,0,0,0-.907-0.594,3.643,3.643,0,0,0-1.291-.2,2.872,2.872,0,0,0-2.464,1.1,5.356,5.356,0,0,0-.821,3.227v3.121a6.965,6.965,0,0,0,.241,1.927,4.01,4.01,0,0,0,.685,1.392,2.87,2.87,0,0,0,1.078.851,3.417,3.417,0,0,0,1.428.288,4.455,4.455,0,0,0,1.129-.129,4.294,4.294,0,0,0,.841-0.313,3.019,3.019,0,0,0,.574-0.372c0.148-.127.262-0.229,0.342-0.309v-3.521h-2.951v-0.994h4.015v4.867Zm-93.092-43.78a6.16,6.16,0,0,0-.14-1.369,2.718,2.718,0,0,0-.592-1.136,5.2,5.2,0,0,0-1.283-1.037,15.931,15.931,0,0,0-2.213-1.066,26.246,26.246,0,0,1-3.138-1.429,11.917,11.917,0,0,1-2.625-1.9,8.562,8.562,0,0,1-1.8-2.536,7.848,7.848,0,0,1-.671-3.351,8.085,8.085,0,0,1,.681-3.351,7.364,7.364,0,0,1,1.913-2.586,8.929,8.929,0,0,1,2.926-1.658,11.212,11.212,0,0,1,3.738-.595,10.2,10.2,0,0,1,3.8.674,8.4,8.4,0,0,1,2.885,1.871,8.17,8.17,0,0,1,1.835,2.857,10.084,10.084,0,0,1,.641,3.653h-5.871a7.045,7.045,0,0,0-.192-1.7,3.64,3.64,0,0,0-.6-1.328,2.817,2.817,0,0,0-1.051-.867,3.518,3.518,0,0,0-1.543-.311,3.656,3.656,0,0,0-1.454.262,2.781,2.781,0,0,0-1.012.714,2.939,2.939,0,0,0-.6,1.077,4.3,4.3,0,0,0-.2,1.327,2.752,2.752,0,0,0,.309,1.309,3.954,3.954,0,0,0,.883,1.086,7.523,7.523,0,0,0,1.383.946q0.81,0.442,1.794.865a21.2,21.2,0,0,1,3.567,1.65,10.687,10.687,0,0,1,2.545,2.053,7.624,7.624,0,0,1,1.523,2.585,9.88,9.88,0,0,1,.5,3.251,8.852,8.852,0,0,1-.633,3.441,6.9,6.9,0,0,1-1.8,2.546A8.071,8.071,0,0,1,198.848,252a11.787,11.787,0,0,1-3.748.554,12.247,12.247,0,0,1-3.7-.572,9.479,9.479,0,0,1-3.235-1.762,8.831,8.831,0,0,1-2.3-3,9.843,9.843,0,0,1-.871-4.306h5.912a8.407,8.407,0,0,0,.261,2.253,3.612,3.612,0,0,0,.791,1.5,3.014,3.014,0,0,0,1.313.823,5.923,5.923,0,0,0,1.824.253,3.622,3.622,0,0,0,1.432-.253,2.54,2.54,0,0,0,.962-0.684,2.578,2.578,0,0,0,.532-1.036,5.071,5.071,0,0,0,.16-1.307m28.738-16.682h-7.215v24.369H213.8V227.782H206.7v-4.931h20.22v4.931Zm18.458,11.691H236.2v7.768h10.862v4.91H230.311v-29.3h16.714v4.931H236.2V234.7h9.179v4.769Zm13.908,1.973h-2.926v10.705h-5.892v-29.3h9.4a12.325,12.325,0,0,1,3.9.573,7.882,7.882,0,0,1,2.907,1.69,7.333,7.333,0,0,1,1.823,2.768,10.667,10.667,0,0,1,.63,3.824,12.95,12.95,0,0,1-.289,2.867,8.68,8.68,0,0,1-.842,2.275,7.187,7.187,0,0,1-1.332,1.739,8.481,8.481,0,0,1-1.764,1.288l5.109,11.994v0.282h-6.332Zm-2.926-4.931h3.345a3.09,3.09,0,0,0,2.646-1.178,5.119,5.119,0,0,0,.881-3.148,7.953,7.953,0,0,0-.189-1.821,3.918,3.918,0,0,0-.6-1.39,2.785,2.785,0,0,0-1.053-.885,3.445,3.445,0,0,0-1.524-.312h-3.505v8.734Zm36.594,5.876q-0.222,5.012-2.806,7.586t-7.294,2.576a11.035,11.035,0,0,1-4.329-.8,8.213,8.213,0,0,1-3.207-2.395,11.071,11.071,0,0,1-1.994-3.934,19.146,19.146,0,0,1-.691-5.4v-4.991a18.787,18.787,0,0,1,.711-5.413,10.9,10.9,0,0,1,2.055-3.945,8.662,8.662,0,0,1,3.246-2.405,10.836,10.836,0,0,1,4.289-.814q4.769,0,7.243,2.677T293,232.812h-5.913a14.494,14.494,0,0,0-.27-2.626,4.184,4.184,0,0,0-.711-1.68,2.6,2.6,0,0,0-1.253-.885,5.993,5.993,0,0,0-1.913-.262,4.608,4.608,0,0,0-2.015.4,3.161,3.161,0,0,0-1.352,1.3,7.108,7.108,0,0,0-.772,2.355,21.422,21.422,0,0,0-.252,3.571v5.032a26.149,26.149,0,0,0,.2,3.5,6.885,6.885,0,0,0,.7,2.363,3.138,3.138,0,0,0,1.322,1.34,4.553,4.553,0,0,0,2.085.422,6.514,6.514,0,0,0,1.853-.232,2.628,2.628,0,0,0,1.273-.814,3.947,3.947,0,0,0,.762-1.611,12.834,12.834,0,0,0,.32-2.595h5.892Z" transform="translate(-185 -59.5)"/>
</svg>
