<?xml version="1.0" encoding="utf-8"?>
<!-- Generator: Adobe Illustrator 21.1.0, SVG Export Plug-In . SVG Version: 6.00 Build 0)  -->
<svg version="1.1" id="Laag_1" xmlns="http://www.w3.org/2000/svg" xmlns:xlink="http://www.w3.org/1999/xlink" x="0px" y="0px"
	 width="82px" height="82px" viewBox="0 0 82 82" style="enable-background:new 0 0 82 82;" xml:space="preserve">
<style type="text/css">
	.st0{fill:#1B3F94;}
</style>
<path class="st0" d="M77.5,41.9c-1.7-1.3-4.4-2.1-7.4-2.1c-4.6,0-8.4,2-9.3,4.6h-0.4c-0.9-2.6-4.7-4.6-9.4-4.6c-3,0-5.6,0.8-7.4,2.1
	V64c0,5.5-4.4,10-9.8,10s-9.8-4.5-9.8-10c0-1.2,1-2.2,2.2-2.2c1.2,0,2.2,1,2.2,2.2c0,3.1,2.4,5.6,5.5,5.6s5.5-2.5,5.5-5.6V42
	c-1.7-1.3-4.4-2.1-7.4-2.1c-4.6,0-8.4,2-9.3,4.6h-0.4c-0.9-2.6-4.7-4.6-9.4-4.6c-3,0-5.6,0.8-7.4,2.1c1.4-15.7,15.9-28.1,33.8-29.1
	v-1.6c0-1.2,1-2.2,2.2-2.2c1.2,0,2.2,1,2.2,2.2v1.6C61.6,13.8,76.1,26.3,77.5,41.9z"/>
</svg>
