<?xml version="1.0" encoding="utf-8"?>
<!-- Generator: Adobe Illustrator 21.1.0, SVG Export Plug-In . SVG Version: 6.00 Build 0)  -->
<svg version="1.1" id="Laag_1" xmlns="http://www.w3.org/2000/svg" xmlns:xlink="http://www.w3.org/1999/xlink" x="0px" y="0px"
	 width="250px" height="250px" viewBox="0 0 250 250" style="enable-background:new 0 0 250 250;" xml:space="preserve">
<style type="text/css">
	.st0{fill:#FFBD00;}
	.st1{fill:#333333;}
	.st2{fill:#BABABA;}
</style>
<g>
	<g>
		<path class="st0" d="M151.3,73.2c5.4-6.3,12.9-9.6,21.2-9.2c7.1,0.4,13.3,3.3,17.9,8.8c4.6,5,7.1,12.1,6.7,18.8
			c-0.4,10.4-7.1,19.2-16.2,23c4.6,2.5,8.7,5.4,12.1,9.2c10.4-6.7,17.5-18.4,17.9-31.3c0.4-10.9-2.9-20.9-10.4-28.8
			c-7.1-7.9-17.1-12.5-27.5-13.4c-12.5-0.8-24.5,4.6-32.4,14.2l1.7,1.3C145.5,67.8,148.4,70.7,151.3,73.2z"/>
		<path class="st0" d="M244.9,89.1l-22-1.3c-2.9,0-5.4,2.1-5.4,5s2.1,5.4,5,5.4l22,1.3c0,0,0,0,0.4,0c2.9,0,5-2.1,5-5
			C249.9,91.6,247.8,89.1,244.9,89.1z"/>
		<path class="st0" d="M173.4,43.6C173.4,43.6,173.8,43.6,173.4,43.6c2.9,0,5.4-2.1,5.4-5l1.2-22.1c0-2.9-2.1-5.4-5-5.4
			s-5.4,2.1-5.4,5l-1.2,22.1C168.4,41.1,170.4,43.6,173.4,43.6z"/>
		<path class="st0" d="M209.6,60.7c1.2,0,2.5-0.4,3.3-1.3l16.2-15c2.1-2.1,2.5-5,0.4-7.5c-2.1-2.1-5-2.5-7.5-0.4l-16.2,15
			c-2.1,2.1-2.5,5-0.4,7.5C206.6,60.3,207.9,60.7,209.6,60.7z"/>
		<path class="st0" d="M209.6,125.4c-2.1-2.1-5-2.5-7.5-0.4c-2.1,2.1-2.5,5-0.4,7.5l15,16.3c0.8,1.3,2.5,1.7,3.7,1.7
			s2.5-0.4,3.3-1.3c2.1-2.1,2.1-5,0.4-7.5L209.6,125.4z"/>
		<path class="st0" d="M132.6,55.2c0.8,1.3,2.5,1.7,3.7,1.7c1.2,0,2.5-0.4,3.3-1.3c2.1-2.1,2.5-5,0.4-7.5l-15-16.7
			c-2.1-2.1-5-2.1-7.5-0.4c-2.1,2.1-2.5,5-0.4,7.5L132.6,55.2z"/>
		<path class="st1" d="M192.9,123.7c-3.3-3.8-7.5-7.1-12.1-9.2c-4.6-2.5-10-3.8-15.4-4.2c0-0.4,0-0.8,0-1.7
			c0-13.8-5.4-26.3-14.1-35.5c-2.9-2.9-5.8-5.4-9.2-7.5c-7.9-5-17.5-8.3-27.9-8.3C89.8,57.3,69.8,74,64.4,97c-5-1.7-10-2.5-15.4-2.5
			c-27,0-49.1,22.1-49.1,49.3S21.9,193,49,193h6.2c3.7,0,7.1-2.9,7.1-7.1c0-3.8-2.9-7.1-7.1-7.1H49c-19.6,0-35.4-15.9-35.4-35.5
			s15.8-35.5,35.4-35.5c6.2,0,12.5,1.7,17.5,4.6c2.1,1.3,4.6,1.3,6.7,0c2.1-1.3,3.3-3.3,3.3-5.8c0.4-20.5,17.1-36.3,37-36.3
			c20.4,0,37,16.7,37,37.2c0,2.5-0.4,4.6-0.8,7.1c-0.4,2.1,0,4.2,1.7,5.8c1.2,1.7,3.3,2.5,5.4,2.5l0,0h4.6
			c15.4,0,27.5,12.5,27.5,27.6c0,15.4-12.5,27.6-27.5,27.6h-6.7c-3.7,0-7.1,2.9-7.1,7.1c0,3.8,2.9,7.1,7.1,7.1h6.7
			c22.9,0,41.2-18.8,41.2-41.3C203.7,140.8,199.6,131.2,192.9,123.7z"/>
	</g>
	<polygon class="st2" points="112.2,160.4 103.1,157.9 100.6,148.8 92.2,153.3 83.9,148.8 81.4,157.9 72.3,160.4 76.9,168.8 
		72.3,176.7 81.4,179.6 83.9,188.4 92.2,183.8 100.6,188.4 103.1,179.6 112.2,176.7 107.6,168.8 	"/>
	<g>
		<polygon class="st2" points="76.9,200.9 85.2,196.3 87.7,205.5 96.8,208 92.2,216.4 96.8,224.7 87.7,227.2 85.2,236 76.9,231.8 
			69,236 66,227.2 57.3,224.7 61.5,216.4 57.3,208 66,205.5 69,196.3 		"/>
	</g>
	<g>
		<polygon class="st2" points="123.4,190.1 131.3,185.9 134.3,194.7 143,197.2 138.4,205.5 143,213.9 134.3,216.4 131.3,225.6 
			123.4,221 115.1,225.6 112.6,216.4 103.5,213.9 108.1,205.5 103.5,197.2 112.6,194.7 115.1,185.9 		"/>
	</g>
</g>
</svg>
