<?xml version="1.0" encoding="utf-8"?>
<!-- Generator: Adobe Illustrator 21.1.0, SVG Export Plug-In . SVG Version: 6.00 Build 0)  -->
<svg version="1.1" id="Laag_1" xmlns="http://www.w3.org/2000/svg" xmlns:xlink="http://www.w3.org/1999/xlink" x="0px" y="0px"
	 width="250px" height="250px" viewBox="0 0 250 250" style="enable-background:new 0 0 250 250;" xml:space="preserve">
<style type="text/css">
	.st0{fill:#FFBD00;}
	.st1{fill:#333333;}
</style>
<g>
	<path class="st0" d="M151.6,97.2c5.4-5.8,12.9-9.2,20.9-8.8c14.2,0.8,25.5,12.9,24.6,27.5c-0.4,10-6.7,18.4-15.4,22.5
		c4.2,2.5,8.3,5.8,11.3,9.6c10.4-6.7,17.1-18.4,17.9-31.3c1.3-22.1-15.9-40.9-38-41.7c-12.5-0.4-24.2,4.6-32.1,13.8
		C144.9,90.9,148.7,93.8,151.6,97.2z"/>
	<path class="st0" d="M245.1,113l-22.1-1.3c-2.9,0-5.4,2.1-5.4,5s2.1,5.4,5,5.4l22.1,1.3c0,0,0,0,0.4,0c2.9,0,5-2.1,5-5
		S248,113,245.1,113z"/>
	<path class="st0" d="M173.7,68L173.7,68c2.9,0,5.4-2.1,5.4-5l1.3-22.1c0-2.9-2.1-5.4-5-5.4s-5.4,2.1-5.4,5l-1.3,22.1
		C168.7,65.4,170.8,68,173.7,68z"/>
	<path class="st0" d="M209.6,85.1c1.3,0,2.5-0.4,3.3-1.3l16.3-14.6c2.1-2.1,2.1-5,0.4-7.5c-2.1-2.1-5-2.1-7.5-0.4l-16.3,14.6
		c-2.1,2.1-2.1,5-0.4,7.5C206.7,84.2,208.4,85.1,209.6,85.1z"/>
	<path class="st0" d="M209.6,149.3c-2.1-2.1-5-2.1-7.5-0.4c-2.1,2.1-2.1,5-0.4,7.5l14.6,16.3c0.8,1.3,2.5,1.7,3.8,1.7
		s2.5-0.4,3.3-1.3c2.1-2.1,2.1-5,0.4-7.5L209.6,149.3z"/>
	<path class="st0" d="M132.8,79.6c0.8,1.3,2.5,1.7,3.8,1.7s2.5-0.4,3.3-1.3c2.1-2.1,2.1-5,0.4-7.5l-15-16.7c-2.1-2.1-5-2.1-7.5-0.4
		c-2.1,2.1-2.1,5-0.4,7.5L132.8,79.6z"/>
	<path class="st1" d="M193.3,147.7c-3.3-3.8-7.1-7.1-11.3-9.6c-5-2.9-10.9-4.6-17.1-5.4c0-0.4,0-0.8,0-1.7c0-13.4-5-25-13.4-34.2
		c-2.9-3.3-6.7-6.3-10.4-8.8c-7.9-5-17.1-7.9-27.1-7.9c-24.2,0-44.7,16.7-49.7,39.6c-5-1.7-10-2.5-15.4-2.5
		c-27.1,0-48.8,22.1-48.8,48.8c0,27.1,22.1,48.8,48.8,48.8H162c23,0,41.3-18.4,41.3-41.3C202.9,163.9,199.2,154.8,193.3,147.7z
		 M161.6,201.9H48.5c-19.6,0-35.1-15.9-35.1-35.1s15.9-35.1,35.1-35.1c6.3,0,12.1,1.7,17.5,4.6c2.1,1.3,4.6,1.3,6.7,0
		c2.1-1.3,3.3-3.3,3.8-5.8c0.4-20,17.1-35.9,37.1-35.9c20.5,0,37.1,16.7,37.1,37.1c0,2.5-0.4,4.6-0.8,7.1c-0.4,2.1,0,4.2,1.7,5.8
		c1.3,1.7,3.3,2.5,5.4,2.5l0,0h4.6c15,0,27.5,12.5,27.5,27.5C189.2,189.8,177.1,201.9,161.6,201.9z"/>
</g>
</svg>
