<?xml version="1.0" encoding="utf-8"?>
<!-- Generator: Adobe Illustrator 21.1.0, SVG Export Plug-In . SVG Version: 6.00 Build 0)  -->
<svg version="1.1" id="Laag_1" xmlns="http://www.w3.org/2000/svg" xmlns:xlink="http://www.w3.org/1999/xlink" x="0px" y="0px"
	 width="82px" height="82px" viewBox="0 0 82 82" style="enable-background:new 0 0 82 82;" xml:space="preserve">
<style type="text/css">
	.st0{fill:#CCCCCC;}
</style>
<path class="st0" d="M82,40.4c-1.9-1.5-5-2.4-8.4-2.4c-5.2,0-9.6,2.3-10.6,5.2h-0.5c-1-3-5.4-5.2-10.7-5.2c-3.4,0-6.4,0.9-8.4,2.4
	v25.2c0,6.3-5,11.4-11.2,11.4s-11.2-5.1-11.2-11.4c0-1.4,1.1-2.5,2.5-2.5c1.4,0,2.5,1.1,2.5,2.5c0,3.5,2.7,6.4,6.3,6.4
	s6.3-2.9,6.3-6.4V40.5c-1.9-1.5-5-2.4-8.4-2.4c-5.2,0-9.6,2.3-10.6,5.2h-0.5c-1-3-5.4-5.2-10.7-5.2C5,38.1,2.1,39,0,40.5
	c1.6-17.9,18.1-32,38.5-33.2V5.5C38.5,4.1,39.6,3,41,3c1.4,0,2.5,1.1,2.5,2.5v1.8C63.9,8.4,80.4,22.6,82,40.4z"/>
</svg>
