<?xml version="1.0" encoding="utf-8"?>
<!-- Generator: Adobe Illustrator 21.1.0, SVG Export Plug-In . SVG Version: 6.00 Build 0)  -->
<svg version="1.1" id="Laag_1" xmlns="http://www.w3.org/2000/svg" xmlns:xlink="http://www.w3.org/1999/xlink" x="0px" y="0px"
	 width="93px" height="49px" viewBox="0 0 93 49" style="enable-background:new 0 0 93 49;" xml:space="preserve">
<style type="text/css">
	.st0{fill:#F2BE71;}
</style>
<g>
	<g>
		<line class="st0" x1="46.5" y1="2.9" x2="46.5" y2="11.5"/>
		<path class="st0" d="M43.5,2.9c0,2.9,0,5.7,0,8.6c0,3.8,6,3.8,6,0c0-2.9,0-5.7,0-8.6C49.5-1,43.5-1,43.5,2.9L43.5,2.9z"/>
	</g>
	<g>
		<line class="st0" x1="90.1" y1="46" x2="81.5" y2="46"/>
		<path class="st0" d="M90.1,43c-2.9,0-5.7,0-8.6,0c-3.8,0-3.9,6,0,6c2.9,0,5.7,0,8.6,0C94,49,94,43,90.1,43L90.1,43z"/>
	</g>
	<g>
		<path class="st0" d="M11.5,46H2.9"/>
		<path class="st0" d="M11.5,43c-2.9,0-5.7,0-8.6,0c-3.8,0-3.9,6,0,6c2.9,0,5.7,0,8.6,0C15.3,49,15.3,43,11.5,43L11.5,43z"/>
	</g>
	<g>
		<line class="st0" x1="22.1" y1="21.7" x2="16" y2="15.6"/>
		<path class="st0" d="M24.2,19.6c-2-2-4.1-4.1-6.1-6.1c-2.7-2.7-6.9,1.5-4.2,4.2c2,2,4.1,4.1,6.1,6.1
			C22.7,26.5,26.9,22.3,24.2,19.6L24.2,19.6z"/>
	</g>
	<g>
		<path class="st0" d="M71.5,21.7l6.1-6.1"/>
		<path class="st0" d="M73.6,23.8c2-2,4.1-4.1,6.1-6.1c2.7-2.7-1.5-6.9-4.2-4.2c-2,2-4.1,4.1-6.1,6.1C66.7,22.3,70.9,26.5,73.6,23.8
			L73.6,23.8z"/>
	</g>
	<path class="st0" d="M72.4,46.2c-0.3-14.8-11.3-26.5-26.3-26.3C31.2,20,20.7,31.7,19.7,46.1c-0.3,3.8,5.7,3.9,6,0.1
		c0.8-10.7,8.7-20.2,20.3-20.3c11.7-0.1,20.2,8.7,20.4,20.3C66.5,49.9,72.5,50,72.4,46.2L72.4,46.2z"/>
	<path class="st0" d="M46,29.1c-2.6,0.3-8.3,8.5-7.4,10.9c1.4,0,2.8,0,4.3,0c0,2,0,4.1,0,6.1c0,3.8,6,3.8,6,0c0-2,0-4.1,0-6.1
		c1.4,0,2.9,0,4.5,0C54.4,37.6,48.6,28.8,46,29.1z"/>
</g>
</svg>
