<?xml version="1.0" encoding="utf-8"?>
<!-- Generator: Adobe Illustrator 21.1.0, SVG Export Plug-In . SVG Version: 6.00 Build 0)  -->
<svg version="1.1" id="Laag_1" xmlns="http://www.w3.org/2000/svg" xmlns:xlink="http://www.w3.org/1999/xlink" x="0px" y="0px"
	 width="250px" height="250px" viewBox="0 0 250 250" style="enable-background:new 0 0 250 250;" xml:space="preserve">
<style type="text/css">
	.st0{fill:#333333;}
</style>
<g>
	<path class="st0" d="M198.5,208.1H60.2C27,208.1,0,181,0,147.6S27,87,60.2,87c6.6,0,12.9,0.8,19.1,2.9c6.2-28,31.1-48.8,61-48.8
		c34.5,0,62.7,28.4,62.7,63c0,0.4,0,1.3,0,1.7c26.2,2.1,46.9,24.2,46.9,50.9C249.2,185.1,226.3,208.1,198.5,208.1z M60.2,104.1
		c-23.7,0-43.2,19.6-43.2,43.4S36.5,191,60.2,191h138.3c18.7,0,33.6-15,33.6-33.8s-15-33.8-33.6-33.8h-5.4c-2.5,0-5-1.3-6.6-2.9
		c-1.7-2.1-2.5-4.6-1.7-7.1c0.4-2.9,0.8-5.8,0.8-8.8c0-25.5-20.3-45.9-45.7-45.9c-24.9,0-44.9,19.6-45.7,44.3c0,2.9-1.7,5.8-4.2,7.1
		c-2.5,1.3-5.8,1.3-8.3,0C75.2,106.2,67.7,104.1,60.2,104.1z"/>
</g>
</svg>
