<?xml version="1.0" encoding="utf-8"?>
<!-- Generator: Adobe Illustrator 21.1.0, SVG Export Plug-In . SVG Version: 6.00 Build 0)  -->
<svg version="1.1" id="Laag_1" xmlns="http://www.w3.org/2000/svg" xmlns:xlink="http://www.w3.org/1999/xlink" x="0px" y="0px"
	 width="250px" height="250px" viewBox="0 0 250 250" style="enable-background:new 0 0 250 250;" xml:space="preserve">
<style type="text/css">
	.st0{fill:#FFBD00;}
	.st1{fill:#333333;}
	.st2{fill:#BABABA;}
</style>
<g>
	<path class="st0" d="M151.5,83.8c5.4-5.8,12.9-9.2,20.9-8.8c7.1,0.4,13.4,3.3,17.9,8.8c4.6,5,7.1,11.7,6.7,18.8
		c-0.4,10-6.7,18.4-15.4,22.6c4.2,2.5,8.3,5.8,11.3,9.6c10.4-6.7,17.1-18.4,17.9-31.3c0.4-10.9-2.9-20.9-10.4-28.8
		c-7.1-7.9-17.1-12.5-27.5-12.9c-12.5-0.8-24.2,4.6-32.1,13.8C144.8,77.6,148.6,80.5,151.5,83.8z"/>
	<path class="st0" d="M245,99.7l-22.1-1.3c-2.9,0-5.4,2.1-5.4,5c0,2.9,2.1,5.4,5,5.4l22.1,1.3c0,0,0,0,0.4,0c2.9,0,5-2.1,5-5
		C250,102.2,247.9,99.7,245,99.7z"/>
	<path class="st0" d="M173.6,54.6L173.6,54.6c2.9,0,5.4-2.1,5.4-5l1.3-22.1c0-2.9-2.1-5.4-5-5.4s-5.4,2.1-5.4,5l-1.3,22.1
		C168.6,52.1,170.7,54.6,173.6,54.6z"/>
	<path class="st0" d="M209.5,71.7c1.3,0,2.5-0.4,3.3-1.3l16.3-14.6c2.1-2.1,2.1-5,0.4-7.5c-2.1-2.1-5-2.1-7.1-0.4l-16.3,14.6
		c-2.1,2.1-2.1,5-0.4,7.5C206.6,71.3,208.3,71.7,209.5,71.7z"/>
	<path class="st0" d="M209.9,136c-2.1-2.1-5-2.1-7.5-0.4c-2.1,2.1-2.1,5-0.4,7.5l14.6,16.3c0.8,1.3,2.5,1.7,3.8,1.7s2.5-0.4,3.3-1.3
		c2.1-2.1,2.1-5,0.4-7.5L209.9,136z"/>
	<path class="st0" d="M132.7,66.3c0.8,1.3,2.5,1.7,3.8,1.7c1.3,0,2.5-0.4,3.3-1.3c2.1-2.1,2.1-5,0.4-7.5l-15-16.7
		c-2.1-2.1-5-2.1-7.5-0.4c-2.1,2.1-2.1,5-0.4,7.5L132.7,66.3z"/>
	<path class="st1" d="M193.2,134.4c-3.3-3.8-7.1-7.1-11.3-9.6c-5-2.9-10.9-4.6-17.1-5.4c0-0.4,0-0.8,0-1.7c0-13.4-5-25.1-13.4-34.3
		c-2.9-3.3-6.7-6.3-10.4-8.8c-7.9-5-17.1-7.9-27.1-7.9c-24.2,0-44.7,16.7-49.7,39.7c-5-1.7-10-2.5-15.4-2.5
		C21.7,103.9,0,126,0,152.7c0,10.4,3.3,20.9,9.6,29.2c2.1,2.9,6.7,3.8,9.6,1.3c2.9-2.1,3.8-6.7,1.3-9.6c-4.6-6.3-7.1-13.4-7.1-20.9
		c0-19.6,15.9-35.1,35.1-35.1c6.3,0,12.1,1.7,17.5,4.6c2.1,1.3,4.6,1.3,6.7,0c2.1-1.3,3.3-3.3,3.3-5.8c0.4-20.1,17.1-35.9,37.1-35.9
		c20.5,0,37.1,16.7,37.1,37.2c0,2.5-0.4,4.6-0.8,7.1c-0.4,2.1,0,4.2,1.7,5.8c1.3,1.7,3.3,2.5,5.4,2.5l0,0h4.6
		c15,0,27.5,12.5,27.5,27.6c0,7.9-3.3,15.9-9.6,20.9c-2.9,2.5-3.3,6.7-0.8,9.6c1.3,1.7,3.3,2.5,5.4,2.5c1.7,0,3.3-0.4,4.6-1.7
		c9.2-7.9,14.6-19.2,14.6-31.3C202.8,151.1,199.5,141.5,193.2,134.4z"/>
	<path class="st2" d="M161.9,167.8c3.8,0,7.1-2.9,7.1-7.1c0-3.8-2.9-7.1-7.1-7.1H61.4c-3.8,0-7.1,2.9-7.1,7.1c0,3.8,2.9,7.1,7.1,7.1
		H161.9z"/>
	<path class="st2" d="M162.4,205.8H61.8c-3.8,0-7.1,2.9-7.1,7.1c0,3.8,2.9,7.1,7.1,7.1h100.6c3.8,0,7.1-2.9,7.1-7.1
		C169.4,209.1,166.1,205.8,162.4,205.8z"/>
	<path class="st2" d="M154.8,188.3c0-3.8-2.9-7.1-7.1-7.1H38.4c-3.8,0-7.1,2.9-7.1,7.1c0,3.8,2.9,7.1,7.1,7.1h109.8
		C151.9,194.9,154.8,192,154.8,188.3z"/>
</g>
</svg>
