<?xml version="1.0" encoding="utf-8"?>
<!-- Generator: Adobe Illustrator 21.1.0, SVG Export Plug-In . SVG Version: 6.00 Build 0)  -->
<svg version="1.1" id="Laag_1" xmlns="http://www.w3.org/2000/svg" xmlns:xlink="http://www.w3.org/1999/xlink" x="0px" y="0px"
	 width="250px" height="250px" viewBox="0 0 250 250" style="enable-background:new 0 0 250 250;" xml:space="preserve">
<style type="text/css">
	.st0{fill:#FFBD00;}
	.st1{fill:#333333;}
</style>
<g>
	<path class="st0" d="M151.5,95.7c5.4-5.8,12.9-9.1,20.9-8.7c14.2,0.8,25.5,12.8,24.6,27.3c-0.4,9.9-6.7,18.2-15.4,22.4
		c4.2,2.5,8.3,5.8,11.3,9.5c10.4-6.6,17.1-18.2,17.9-31c1.3-21.9-15.9-40.6-38-41.4c-12.5-0.4-24.2,4.6-32.1,13.7
		C144.8,89.5,148.6,92.4,151.5,95.7z"/>
	<path class="st0" d="M245,111.4l-22.1-1.2c-2.9,0-5.4,2.1-5.4,5c0,2.9,2.1,5.4,5,5.4l22.1,1.2c0,0,0,0,0.4,0c2.9,0,5-2.1,5-5
		C250,113.9,247.9,111.4,245,111.4z"/>
	<path class="st0" d="M173.6,66.7L173.6,66.7c2.9,0,5.4-2.1,5.4-5l1.3-21.9c0-2.9-2.1-5.4-5-5.4s-5.4,2.1-5.4,5l-1.3,21.9
		C168.6,64.2,170.7,66.7,173.6,66.7z"/>
	<path class="st0" d="M209.5,83.7c1.3,0,2.5-0.4,3.3-1.2l16.3-14.5c2.1-2.1,2.1-5,0.4-7.5c-2.1-2.1-5-2.1-7.5-0.4l-16.3,14.5
		c-2.1,2.1-2.1,5-0.4,7.5C206.6,82.8,208.3,83.7,209.5,83.7z"/>
	<path class="st0" d="M209.5,147.4c-2.1-2.1-5-2.1-7.5-0.4c-2.1,2.1-2.1,5-0.4,7.5l14.6,16.1c0.8,1.2,2.5,1.7,3.8,1.7
		c1.3,0,2.5-0.4,3.3-1.2c2.1-2.1,2.1-5,0.4-7.5L209.5,147.4z"/>
	<path class="st0" d="M132.7,78.3c0.8,1.2,2.5,1.7,3.8,1.7c1.3,0,2.5-0.4,3.3-1.2c2.1-2.1,2.1-5,0.4-7.5l-15-16.6
		c-2.1-2.1-5-2.1-7.5-0.4c-2.1,2.1-2.1,5-0.4,7.5L132.7,78.3z"/>
	<path class="st1" d="M193.2,145.8c-3.3-3.7-7.1-7-11.3-9.5c-5-2.9-10.9-4.6-17.1-5.4c0-0.4,0-0.8,0-1.7c0-13.2-5-24.8-13.4-33.9
		c-2.9-3.3-6.7-6.2-10.4-8.7c-7.9-5-17.1-7.9-27.1-7.9c-24.2,0-44.7,16.6-49.7,39.3c-5-1.7-10-2.5-15.4-2.5
		C21.7,115.5,0,137.5,0,164c0,26.9,22.1,48.4,48.8,48.4h113.1c23,0,41.3-18.2,41.3-41C202.8,161.9,199.1,152.8,193.2,145.8z
		 M161.5,199.6H48.4c-19.6,0-35.1-15.7-35.1-34.8S29.2,130,48.4,130c6.3,0,12.1,1.7,17.5,4.6c2.1,1.2,4.6,1.2,6.7,0
		c2.1-1.2,3.3-3.3,3.8-5.8c0.4-19.9,17.1-35.6,37.1-35.6c20.5,0,37.1,16.6,37.1,36.8c0,2.5-0.4,4.6-0.8,7c-0.4,2.1,0,4.1,1.7,5.8
		c1.3,1.7,3.3,2.5,5.4,2.5l0,0h4.6c15,0,27.5,12.4,27.5,27.3C189.1,187.6,177,199.6,161.5,199.6z"/>
</g>
</svg>
