<?xml version="1.0" encoding="utf-8"?>
<!-- Generator: Adobe Illustrator 21.1.0, SVG Export Plug-In . SVG Version: 6.00 Build 0)  -->
<svg version="1.1" id="Laag_1" xmlns="http://www.w3.org/2000/svg" xmlns:xlink="http://www.w3.org/1999/xlink" x="0px" y="0px"
	 width="250px" height="250px" viewBox="0 0 250 250" style="enable-background:new 0 0 250 250;" xml:space="preserve">
<style type="text/css">
	.st0{fill:#239BB7;}
	.st1{fill:#333333;}
</style>
<g>
	<g>
		<path class="st0" d="M41.9,219.1c-1.2,0-2.5-0.4-3.7-0.8c-4.2-2.1-5.8-7-4.2-11.2l22-45.6c2.1-4.1,7.1-5.8,11.2-4.1
			c4.2,2.1,5.8,7,4.2,11.2l-22,45.6C48.1,217.1,45.2,219.1,41.9,219.1z"/>
	</g>
	<g>
		<path class="st0" d="M89.2,207.1c-1.2,0-2.5-0.4-3.7-0.8c-4.2-2.1-5.8-7-4.2-11.2l22-45.6c2.1-4.1,7.1-5.8,11.2-4.1
			c4.2,2.1,5.8,7,4.2,11.2l-22,45.6C95.4,205.5,92.1,207.1,89.2,207.1z"/>
	</g>
	<g>
		<path class="st0" d="M116.6,235.7c-1.2,0-2.5-0.4-3.7-0.8c-4.2-2.1-5.8-7-4.2-11.2l22-45.6c2.1-4.1,7.1-5.8,11.2-4.1
			c4.2,2.1,5.8,7,4.2,11.2l-22,45.6C122.9,234.1,119.9,235.7,116.6,235.7z"/>
	</g>
	<g>
		<path class="st0" d="M168.1,215.4c-1.2,0-2.5-0.4-3.7-0.8c-4.2-2.1-5.8-7-4.2-11.2l22-45.6c2.1-4.1,7.1-5.8,11.2-4.1
			c4.2,2.1,5.8,7,4.2,11.2l-22,45.6C174.3,213.8,171,215.4,168.1,215.4z"/>
	</g>
	<g>
		<path class="st1" d="M227.9,168.1c-2.1,0-4.2-0.8-5.8-2.5c-3.3-3.3-3.3-8.7,0-12c6.6-6.2,10-14.9,10-24c0-18.7-15-33.6-33.6-33.6
			H193l0,0c-2.5,0-5-1.2-6.6-2.9c-1.7-2.1-2.1-4.6-1.7-7c0.4-2.9,0.8-5.8,0.8-8.7c0-25.3-20.3-45.6-45.7-45.6
			c-24.9,0-44.9,19.5-45.7,44c0,2.9-1.7,5.8-4.2,7c-2.5,1.2-5.8,1.2-8.3,0c-6.6-3.7-14.1-5.8-21.6-5.8C36.5,76.9,17,96.4,17,120
			c0,11.2,4.2,22,12,30.3c3.3,3.3,3.3,8.7,0,12s-8.7,3.3-12,0c-10.8-11.2-17-26.1-17-41.9c0-33.2,27-60.1,60.2-60.1
			c6.6,0,12.9,1.2,19.1,2.9c6.2-27.8,31.1-48.5,61-48.5c34.5,0,62.7,28.2,62.7,62.6c0,0.8,0,1.2,0,2.1c26.2,2.1,46.9,24,46.9,50.6
			c0,13.7-5.4,26.5-15,36.1C232.1,167.3,230,168.1,227.9,168.1z"/>
	</g>
</g>
</svg>
