<?xml version="1.0" encoding="utf-8"?>
<!-- Generator: Adobe Illustrator 21.1.0, SVG Export Plug-In . SVG Version: 6.00 Build 0)  -->
<svg version="1.1" id="Laag_1" xmlns="http://www.w3.org/2000/svg" xmlns:xlink="http://www.w3.org/1999/xlink" x="0px" y="0px"
	 width="117.9px" height="125px" viewBox="0 0 117.9 125" style="enable-background:new 0 0 117.9 125;" xml:space="preserve">
<g>
	<g>
		<path d="M69.3,34.8c0,0,1.6,18.6-18.8,22.1l-7,4.6l2-6.6l-1.2-1.2l-7.8,1.9l2.7-7.7c0,0-5.1-6.2-8.6-16.3c0,0-9,1.2-17.2,7
			c9.8,7.7,14.5,11.2,23.9,30.2c7,14.3,20.4,26.7,24.7,12.4c0,0-14.5-15.9,3.5-15.9c16.1,0,25.5,26.3,13.3,35.6
			c-12.9,9.7-36-0.8-46.6-22.4C20.7,54.6,15.3,53,7,44.1c-4.7,5.4-7.8,12.8-7,23.2l0,0l0,0c0,0,0,0.8,0.4,2.3
			c0.4,3.5,2,9.7,4.3,11.2c0.4,0,0.4,0.4,0.8,0.4c2.7,0.8,5.5-0.8,7-2.3c1.6-0.8,2.3-1.5,2.3-1.5l3.1,5l6.7-2.3l-1.2,4.6
			c-0.4,3.9,2.7,5-0.4,11.6c-0.8,1.9-1.2,4.3,0,6.2c0,0-6.3-3.5-5.5-7.4c-2.3,1.5-5.9,5.4-5.9,11.2c0,1.2,0,1.9,0,2.7
			c11.5,9.8,26,16,42.4,16c35.2,0,63.8-28.3,63.8-63.1C117.9,31,94.8,5,65,0c11.4,15.5,12.1,33.3,12.1,33.3L69.3,34.8z"/>
	</g>
</g>
</svg>
