<?xml version="1.0" encoding="utf-8"?>
<!-- Generator: Adobe Illustrator 21.1.0, SVG Export Plug-In . SVG Version: 6.00 Build 0)  -->
<svg version="1.1" id="Laag_1" xmlns="http://www.w3.org/2000/svg" xmlns:xlink="http://www.w3.org/1999/xlink" x="0px" y="0px"
	 width="250px" height="250px" viewBox="0 0 250 250" style="enable-background:new 0 0 250 250;" xml:space="preserve">
<style type="text/css">
	.st0{fill:#FFBD00;}
	.st1{fill:#333333;}
	.st2{fill:#239BB7;}
</style>
<g>
	<g>
		<path class="st0" d="M151.7,80c5.4-5.8,12.9-9.2,20.8-8.8c14.2,0.8,25.4,12.9,24.6,27.5c-0.4,10-6.7,18.4-15.4,22.5
			c4.2,2.5,8.3,5.8,11.3,9.6c10.4-7.1,17.1-18.4,17.9-31.3c1.2-22.1-15.8-40.9-37.9-41.7c-12.5-0.4-24.2,4.6-32.1,13.8
			C145,73.8,148.8,76.7,151.7,80z"/>
		<path class="st0" d="M245,95.9l-22.1-1.3c-2.9,0-5.4,2.1-5.4,5s2.1,5.4,5,5.4l22.1,1.3c0,0,0,0,0.4,0c2.9,0,5-2.1,5-5
			C250,98.4,247.9,96.3,245,95.9z"/>
		<path class="st0" d="M173.8,50.8L173.8,50.8c2.9,0,5.4-2.1,5.4-5l1.2-22.1c0-2.9-2.1-5.4-5-5.4s-5.4,2.1-5.4,5l-1.2,22.1
			C168.8,48.3,170.8,50.8,173.8,50.8z"/>
		<path class="st0" d="M209.6,67.9c1.2,0,2.5-0.4,3.3-1.3l16.3-14.6c2.1-2.1,2.1-5,0.4-7.5c-2.1-2.1-5-2.1-7.5-0.4l-16.2,14.6
			c-2.1,2.1-2.1,5-0.4,7.5C206.7,67.5,208.3,67.9,209.6,67.9z"/>
		<path class="st0" d="M209.6,132.2c-2.1-2.1-5-2.1-7.5-0.4c-2.1,2.1-2.1,5-0.4,7.5l14.6,16.3c0.8,1.3,2.5,1.7,3.8,1.7
			c1.2,0,2.5-0.4,3.3-1.3c2.1-2.1,2.1-5,0.4-7.5L209.6,132.2z"/>
		<path class="st0" d="M132.9,62.5c0.8,1.3,2.5,1.7,3.8,1.7c1.2,0,2.5-0.4,3.3-1.3c2.1-2.1,2.1-5,0.4-7.5l-15-16.7
			c-2.1-2.1-5-2.1-7.5-0.4c-2.1,2.1-2.1,5-0.4,7.5L132.9,62.5z"/>
		<path class="st1" d="M193.3,130.5c-3.3-3.8-7.1-7.1-11.2-9.6c-5-2.9-10.8-4.6-17.1-5.4c0-0.4,0-0.8,0-1.7c0-13.3-5-25-13.3-34.2
			c-2.9-3.3-6.7-6.3-10.4-8.8c-7.9-5-17.1-7.9-27.1-7.9c-24.2,0-44.6,16.7-49.6,39.6c-5-1.7-10-2.5-15.4-2.5
			C22.1,100.5,0,122.6,0,149.7s22.1,48.8,48.8,48.8h22.5c3.8,0,7.1-2.9,7.1-7.1c0-3.8-2.9-7.1-7.1-7.1H48.8c-19.6,0-35-15.9-35-35
			c0-19.6,15.8-35,35-35c6.2,0,12.1,1.7,17.5,4.6c2.1,1.3,4.6,1.3,6.7,0c2.1-1.3,3.3-3.3,3.8-5.8c0.4-20,17.1-35.9,37.1-35.9
			c20.4,0,37.1,16.7,37.1,37.1c0,2.5-0.4,4.6-0.8,7.1c-0.4,2.1,0,4.2,1.7,5.8c1.2,1.7,3.3,2.5,5.4,2.5l0,0h4.6
			c15,0,27.5,12.5,27.5,27.5s-12.5,27.5-27.5,27.5h-22.5c-3.8,0-7.1,2.9-7.1,7.1c0,3.8,2.9,7.1,7.1,7.1h22.5
			c22.9,0,41.2-18.4,41.2-41.3C202.9,147.2,199.2,138,193.3,130.5z"/>
	</g>
	<g>
		<g>
			<path class="st1" d="M92.1,232.3c-1.2,0-2.5-0.4-3.8-0.8c-4.6-2.1-6.7-7.5-4.2-12.1l17.9-37.5c2.1-4.6,7.5-6.7,12.1-4.2
				c4.6,2.1,6.7,7.5,4.2,12.1l-17.9,37.5C98.8,230.6,95.4,232.3,92.1,232.3z"/>
		</g>
		<g>
			<path class="st2" d="M92.1,232.3c-1.2,0-2.5-0.4-3.8-0.8c-4.6-2.1-6.7-7.5-4.2-12.1l17.9-37.5c2.1-4.6,7.5-6.7,12.1-4.2
				c4.6,2.1,6.7,7.5,4.2,12.1l-17.9,37.5C98.8,230.6,95.4,232.3,92.1,232.3z"/>
		</g>
	</g>
</g>
</svg>
