<?xml version="1.0" encoding="utf-8"?>
<!-- Generator: Adobe Illustrator 21.1.0, SVG Export Plug-In . SVG Version: 6.00 Build 0)  -->
<svg version="1.1" id="Laag_1" xmlns="http://www.w3.org/2000/svg" xmlns:xlink="http://www.w3.org/1999/xlink" x="0px" y="0px"
	 width="250px" height="250px" viewBox="0 0 250 250" style="enable-background:new 0 0 250 250;" xml:space="preserve">
<style type="text/css">
	.st0{fill:#FFBD00;}
	.st1{fill:#333333;}
	.st2{fill:#BABABA;}
</style>
<g>
	<g>
		<path class="st0" d="M151.9,81.8c5.4-5.9,12.9-9.2,20.9-8.8c7.1,0.4,13.4,3.3,18.4,8.8c4.6,5,7.1,12.1,6.7,18.8
			c-0.4,10-6.7,18.8-15.4,22.6c4.6,2.5,8.3,5.4,11.7,9.2c10.4-7.1,16.7-18.4,17.5-31.4c0.4-10.9-2.9-20.9-10.4-28.9
			c-7.1-7.9-17.1-12.5-27.5-13.4c-12.5-0.4-24.2,4.6-32.5,13.8C144.8,75.5,148.5,78.5,151.9,81.8z"/>
		<path class="st0" d="M245.3,98.1l-22.1-1.3c-2.9,0-5.4,2.1-5.4,5c0,2.9,2.1,5.4,5,5.4l22.1,1.3c0,0,0,0,0.4,0c2.9,0,5-2.1,5-5
			C250.8,100.6,248.3,98.1,245.3,98.1z"/>
		<path class="st0" d="M173.6,52.5L173.6,52.5c2.9,0,5.4-2.1,5.4-5l1.3-22.2c0-2.9-2.1-5.4-5-5.4s-5.4,2.1-5.4,5l-1.3,22.2
			C168.6,50,170.7,52.5,173.6,52.5z"/>
		<path class="st0" d="M209.9,69.7c1.3,0,2.5-0.4,3.3-1.3l16.3-15.1c2.1-2.1,2.5-5,0.4-7.5c-2.1-2.1-5-2.5-7.5-0.4l-16.3,15.1
			c-2.1,2.1-2.5,5-0.4,7.5C207,69.3,208.2,69.7,209.9,69.7z"/>
		<path class="st0" d="M209.9,134.5c-2.1-2.1-5-2.5-7.5-0.4c-2.1,2.1-2.5,5-0.4,7.5l14.6,16.3c0.8,1.3,2.5,1.7,3.8,1.7
			c1.3,0,2.5-0.4,3.3-1.3c2.1-2.1,2.5-5,0.4-7.5L209.9,134.5z"/>
		<path class="st0" d="M132.7,64.2c0.8,1.3,2.5,1.7,3.8,1.7c1.3,0,2.5-0.4,3.3-1.3c2.1-2.1,2.5-5,0.4-7.5l-15-16.7
			c-2.1-2.1-5-2.1-7.5-0.4c-2.1,2.1-2.5,5-0.4,7.5L132.7,64.2z"/>
		<path class="st1" d="M193.6,132.4c-3.3-3.8-7.5-6.7-11.7-9.2c-5-2.5-10-4.2-15.9-4.6c0-0.4,0-0.8,0-1.7c0-13.8-5.4-26.4-14.2-35.6
			c-3.3-3.3-6.7-6.3-10.8-8.8c-7.5-4.6-16.7-7.1-25.9-7.1c-24.6,0-44.6,16.7-50.1,39.7c-5-1.7-10.4-2.5-15.4-2.5
			c-27.1,0-49.2,22.2-49.2,49.4s22.1,49.4,49.2,49.4h17.9c3.8,0,7.1-2.9,7.1-7.1c0-3.8-2.9-7.1-7.1-7.1H49.6
			c-19.6,0-35.5-15.9-35.5-35.6s15.9-35.6,35.5-35.6c6.3,0,12.5,1.7,17.5,4.6c2.1,1.3,4.6,1.3,6.7,0c2.1-1.3,3.3-3.3,3.8-5.9
			c0.4-20.5,17.1-36.4,37.6-36.4s37.6,16.7,37.6,37.6c0,2.5-0.4,4.6-0.8,7.1c-0.4,2.1,0,4.2,1.7,5.9c1.3,1.7,3.3,2.5,5.4,2.5l0,0
			h4.6c15.4,0,27.5,12.5,27.5,27.6s-12.5,27.6-27.5,27.6h-18.8c-3.8,0-7.1,2.9-7.1,7.1c0,3.8,2.9,7.1,7.1,7.1h18.4
			c23,0,41.7-18.8,41.7-41.8C204.5,149.6,200.3,140,193.6,132.4z"/>
	</g>
	<g>
		<polygon class="st2" points="106.4,194.3 114.7,190.2 117.2,198.9 126.4,201.5 121.8,209.8 126.4,218.2 117.2,220.7 114.7,229.9 
			106.4,225.3 98,229.9 95.5,220.7 86.4,218.2 91,209.8 86.4,201.5 95.5,198.9 98,190.2 		"/>
	</g>
</g>
</svg>
