<?xml version="1.0" encoding="utf-8"?>
<!-- Generator: Adobe Illustrator 21.1.0, SVG Export Plug-In . SVG Version: 6.00 Build 0)  -->
<svg version="1.1" id="Laag_1" xmlns="http://www.w3.org/2000/svg" xmlns:xlink="http://www.w3.org/1999/xlink" x="0px" y="0px"
	 width="55px" height="55px" viewBox="0 0 55 55" style="enable-background:new 0 0 55 55;" xml:space="preserve">
<style type="text/css">
	.st0{fill:#E55E23;}
	.st1{fill:#BC1020;}
</style>
<g>
	<g>
		<g>
			<path class="st0" d="M6.8,25.8c0,2.3,3.4,2.3,3.4,0S6.8,23.5,6.8,25.8z"/>
			<path class="st0" d="M13.7,30.9H4.3c-0.5,0-0.9-0.4-0.9-0.9V4.3c0-0.5,0.4-0.9,0.9-0.9l0,0h8.5c0.5,0,0.9,0.4,0.9,0.9V30.9z
				 M51.4,29.1c-0.2,1.1-1.3,1.8-2.7,1.8H32.6c-0.6,0-1.1,0.2-1.3,0.7c-0.4,0.5-0.4,1-0.2,1.6l2.7,8.1c0.4,1.2,0.6,2.7,0.4,3.9
				c-0.2,2.4-1.6,4.8-3.5,6.2c-0.5,0.4-1.3,0-1.3-0.7V49c0-3.2-1.1-6.4-3.1-8.8l-9-11.6V6.2l2.7-1.3c2-1,4-1.5,6.1-1.5H46
				c1,0,1.7,0.6,2,1.5c0.1,0.7-0.2,1.2-0.4,1.3c-0.4,0.4-0.9,0.6-1.3,0.6c-1,0-1.7,0.7-1.7,1.7s0.7,1.7,1.7,1.7h1.5
				c1,0,1.7,0.6,2,1.5c0.1,0.7-0.2,1.2-0.4,1.3c-0.4,0.4-0.9,0.6-1.3,0.6c-1,0-1.7,0.7-1.7,1.7s0.7,1.7,1.7,1.7h0.9
				c1.2,0,2.3,0.7,2.7,1.8c0.2,1.1-0.1,2-0.5,2.3c-0.5,0.6-1.2,1-2.1,1c-1,0-1.7,0.7-1.7,1.7c0,1,0.7,1.7,1.7,1.7
				c0.9,0,1.6,0.4,2.1,1C51.2,27.1,51.6,28,51.4,29.1z"/>
		</g>
	</g>
	<g>
		<path class="st1" d="M6.8,25.8c0,2.3,3.4,2.3,3.4,0S6.8,23.5,6.8,25.8z"/>
		<path class="st1" d="M53.1,24.1c0.2-0.2,0.4-0.4,0.6-0.6c1.1-1.5,1.5-3.4,1-5.3c-0.4-1.3-1.2-2.6-2.3-3.3c0.7-1.1,1-2.4,0.7-3.7
			c-0.2-1.5-1.1-2.7-2.3-3.5c0.6-1,0.9-2.2,0.6-3.4C51,1.8,48.7,0,46.1,0L26,0c-2.7,0-5.2,0.6-7.7,1.8l-1.5,0.7
			c-0.7-1.5-2.2-2.6-4-2.6H4.3C2,0,0,2,0,4.3v25.8c0,2.3,2,4.3,4.3,4.3h11.1l0,0c0.5,0,1-0.2,1.3-0.6l6.7,8.6c1.5,2,2.3,4.3,2.3,6.7
			v1.7c0,2.3,2,4.3,4.3,4.3l0,0c1,0,1.8-0.4,2.6-0.9c2.7-2.1,4.5-5.1,4.9-8.6c0.2-1.8,0-3.7-0.6-5.4l-2-5.7h13.9
			c2.8,0,5.2-1.8,6-4.4c0.5-1.8,0.1-3.8-1-5.3C53.4,24.4,53.3,24.3,53.1,24.1z M13.7,30.9H4.3c-0.5,0-0.9-0.4-0.9-0.9V4.3
			c0-0.5,0.4-0.9,0.9-0.9l0,0h8.5c0.5,0,0.9,0.4,0.9,0.9V30.9z M51.4,29.1c-0.2,1.1-1.3,1.8-2.7,1.8H32.6c-0.6,0-1.1,0.2-1.3,0.7
			c-0.4,0.5-0.4,1-0.2,1.6l2.7,8.1c0.4,1.2,0.6,2.7,0.4,3.9c-0.2,2.4-1.6,4.8-3.5,6.2c-0.5,0.4-1.3,0-1.3-0.7V49
			c0-3.2-1.1-6.4-3.1-8.8l-9-11.6V6.2l2.7-1.3c2-1,4-1.5,6.1-1.5H46c1,0,1.7,0.6,2,1.5c0.1,0.7-0.2,1.2-0.4,1.3
			c-0.4,0.4-0.9,0.6-1.3,0.6c-1,0-1.7,0.7-1.7,1.7s0.7,1.7,1.7,1.7h1.5c1,0,1.7,0.6,2,1.5c0.1,0.7-0.2,1.2-0.4,1.3
			c-0.4,0.4-0.9,0.6-1.3,0.6c-1,0-1.7,0.7-1.7,1.7s0.7,1.7,1.7,1.7h0.9c1.2,0,2.3,0.7,2.7,1.8c0.2,1.1-0.1,2-0.5,2.3
			c-0.5,0.6-1.2,1-2.1,1c-1,0-1.7,0.7-1.7,1.7c0,1,0.7,1.7,1.7,1.7c0.9,0,1.6,0.4,2.1,1C51.2,27.1,51.6,28,51.4,29.1z"/>
	</g>
</g>
</svg>
