<?xml version="1.0" encoding="utf-8"?>
<!-- Generator: Adobe Illustrator 21.1.0, SVG Export Plug-In . SVG Version: 6.00 Build 0)  -->
<svg version="1.1" id="Laag_1" xmlns="http://www.w3.org/2000/svg" xmlns:xlink="http://www.w3.org/1999/xlink" x="0px" y="0px"
	 width="250px" height="250px" viewBox="0 0 250 250" style="enable-background:new 0 0 250 250;" xml:space="preserve">
<style type="text/css">
	.st0{fill:#333333;}
	.st1{fill:#239BB7;}
</style>
<g>
	<g>
		<path class="st0" d="M239.2,103.3c-3.7-4.6-8.7-8.7-14.2-11.7c-6.2-3.7-13.3-5.8-20.8-6.2c0-0.4,0-1.2,0-1.7
			c0-16.2-6.2-30.8-16.2-42.1c-3.7-4.2-8.3-7.9-12.9-10.8c-9.6-6.2-21.2-9.6-33.3-9.6c-30,0-55,20.4-61.2,48.7
			C74.2,67.8,68,67,61.3,67C28,67,0.9,94.1,0.9,127.4s27.1,60.4,60.4,60.4h27.5c4.6,0,8.3-3.7,8.3-8.3s-3.7-8.3-8.3-8.3H61.3
			c-23.7,0-43.3-19.6-43.3-43.3s19.6-43.3,43.3-43.3c7.5,0,15,2.1,21.7,5.8c2.5,1.7,5.8,1.7,8.3,0c2.5-1.2,4.2-4.2,4.2-7.1
			c0.8-25,20.8-44.1,45.8-44.1c25.4,0,45.8,20.4,45.8,45.8c0,2.9-0.4,5.8-0.8,8.7c-0.4,2.5,0,5,1.7,7.1s4.2,2.9,6.7,2.9l0,0h5.4
			c18.7,0,33.7,15,33.7,33.7s-15,33.7-33.7,33.7h-27.9c-4.6,0-8.3,3.7-8.3,8.3s3.7,8.3,8.3,8.3H200c27.9,0,50.8-22.9,50.8-50.8
			C251.3,123.2,246.7,112,239.2,103.3z"/>
	</g>
	<g>
		<g>
			<path class="st0" d="M114.6,228.2c-1.7,0-3.3-0.4-5-1.2c-5.8-2.5-7.9-9.6-5.4-15l22.1-45.8c2.5-5.8,9.6-7.9,15-5.4
				c5.8,2.5,7.9,9.6,5.4,15l-22.1,45.8C123,226.1,118.8,228.2,114.6,228.2z"/>
		</g>
		<g>
			<path class="st1" d="M114.6,228.2c-1.7,0-3.3-0.4-5-1.2c-5.8-2.5-7.9-9.6-5.4-15l22.1-45.8c2.5-5.8,9.6-7.9,15-5.4
				c5.8,2.5,7.9,9.6,5.4,15l-22.1,45.8C123,226.1,118.8,228.2,114.6,228.2z"/>
		</g>
	</g>
</g>
</svg>
