<?xml version="1.0" encoding="utf-8"?>
<!-- Generator: Adobe Illustrator 21.1.0, SVG Export Plug-In . SVG Version: 6.00 Build 0)  -->
<svg version="1.1" id="Laag_1" xmlns="http://www.w3.org/2000/svg" xmlns:xlink="http://www.w3.org/1999/xlink" x="0px" y="0px"
	 width="250px" height="250px" viewBox="0 0 250 250" style="enable-background:new 0 0 250 250;" xml:space="preserve">
<style type="text/css">
	.st0{fill:#333333;}
	.st1{fill:#BABABA;}
</style>
<g>
	<g>
		<path class="st0" d="M198.5,191.2h-22c-4.6,0-8.3-3.7-8.3-8.3s3.7-8.3,8.3-8.3h22c18.7,0,33.6-15,33.6-33.7s-15-33.7-33.6-33.7
			h-5.4l0,0c-2.5,0-5-1.2-6.6-2.9c-1.7-2.1-2.1-4.6-1.7-7.1c0.4-2.9,0.8-5.8,0.8-8.7c0-25.4-20.3-45.7-45.7-45.7
			c-24.9,0-44.9,19.5-45.7,44.1c0,2.9-1.7,5.8-4.2,7.1c-2.5,1.2-5.8,1.2-8.3,0c-6.6-3.7-14.1-5.8-21.6-5.8
			c-23.7,0-43.2,19.5-43.2,43.2s19.5,43.2,43.2,43.2h22c4.6,0,8.3,3.7,8.3,8.3s-3.7,8.3-8.3,8.3h-22C27,191.2,0,164.2,0,130.9
			s27-60.3,60.2-60.3c6.6,0,12.9,0.8,19.1,2.9c6.2-27.9,31.1-48.6,61-48.6c34.5,0,62.7,28.3,62.7,62.8c0,0.8,0,1.2,0,2.1
			c26.2,2.1,46.9,24.1,46.9,50.7C249.2,168.4,226.3,191.2,198.5,191.2z"/>
	</g>
	<g>
		<polygon class="st1" points="129.6,182.1 139.5,176.3 142.9,187.5 153.7,190.4 148.3,200.8 153.7,210.8 142.9,214.1 139.5,224.9 
			129.6,219.5 119.6,224.9 116.3,214.1 105.5,210.8 110.9,200.8 105.5,190.4 116.3,187.5 119.6,176.3 		"/>
	</g>
</g>
</svg>
