<?xml version="1.0" encoding="utf-8"?>
<!-- Generator: Adobe Illustrator 21.1.0, SVG Export Plug-In . SVG Version: 6.00 Build 0)  -->
<svg version="1.1" id="Laag_1" xmlns="http://www.w3.org/2000/svg" xmlns:xlink="http://www.w3.org/1999/xlink" x="0px" y="0px"
	 width="250px" height="250px" viewBox="0 0 250 250" style="enable-background:new 0 0 250 250;" xml:space="preserve">
<style type="text/css">
	.st0{fill:#FFBD00;}
	.st1{fill:#333333;}
	.st2{fill:#239BB7;}
</style>
<g>
	<g>
		<path class="st0" d="M152.3,73.2c5.4-5.8,12.9-9.2,20.8-8.8c7.1,0.4,13.3,3.3,17.9,8.8c4.6,5,7.1,12.1,6.7,18.8
			c-0.4,10-6.2,18.3-15.4,22.5c4.6,2.5,8.3,5.4,11.6,9.2c10.4-7.1,17.1-18.3,17.5-31.3c0.4-10.8-2.9-20.8-10.4-28.8
			c-7.1-7.9-17.1-12.5-27.5-13.3c-12.5-0.8-24.1,4.2-32,13.8C145.7,66.9,149,69.9,152.3,73.2z"/>
		<path class="st0" d="M245.5,89.5l-22-1.3c-2.9,0-5.4,2.1-5.4,5s2.1,5.4,5,5.4l22,1.3c0,0,0,0,0.4,0c2.9,0,5-2.1,5-5
			C250.5,92,248.4,89.5,245.5,89.5z"/>
		<path class="st0" d="M174,44.4C174,44.4,174.4,44.4,174,44.4c2.9,0,5.4-2.1,5.4-5l1.2-22.1c0-2.9-2.1-5.4-5-5.4s-5.4,2.1-5.4,5
			L169,39C169,41.5,171,44,174,44.4z"/>
		<path class="st0" d="M210.2,61.1c1.2,0,2.5-0.4,3.3-1.3l16.2-15c2.1-2.1,2.5-5,0.4-7.5c-2.1-2.1-5-2.5-7.5-0.4l-16.2,15
			c-2.1,2.1-2.1,5-0.4,7.5C207.2,60.7,208.5,61.1,210.2,61.1z"/>
		<path class="st0" d="M210.2,125.7c-2.1-2.1-5-2.5-7.5-0.4c-2.1,2.1-2.5,5-0.4,7.5l14.6,16.3c0.8,1.3,2.5,1.7,3.7,1.7
			s2.5-0.4,3.3-1.3c2.1-2.1,2.1-5,0.4-7.5L210.2,125.7z"/>
		<path class="st0" d="M133.2,56.1c0.8,1.3,2.5,1.7,3.7,1.7c1.2,0,2.5-0.4,3.3-1.3c2.1-2.1,2.5-5,0.4-7.5l-15-16.7
			c-2.1-2.1-5-2.5-7.5-0.4c-2.1,2.1-2.5,5-0.4,7.5L133.2,56.1z"/>
		<path class="st1" d="M193.9,124.1c-3.3-3.8-7.1-7.1-11.6-9.2c-5-2.5-10.4-4.6-16.2-5c0-0.4,0-0.8,0-1.7c0-13.3-5.4-25.9-13.7-35
			c-3.3-3.3-6.7-6.3-10.8-8.8c-7.9-4.6-16.6-7.5-26.6-7.5c-24.5,0-44.5,16.7-49.9,39.6C60,94.9,55,94,49.6,94
			c-27,0-49.1,22.1-49.1,49.2c0,12.9,5,25,13.7,34.2c2.5,2.9,7.1,2.9,9.6,0c2.9-2.5,2.9-7.1,0-9.6c-6.7-6.7-10-15.4-10-24.6
			c0-19.6,15.8-35.4,35.4-35.4c6.2,0,12.5,1.7,17.5,4.6c2.1,1.3,4.6,1.3,6.7,0c2.1-1.3,3.3-3.3,3.7-5.8c0.4-20.4,17.1-36.3,37-36.3
			c20.4,0,37,16.7,37,37.1c0,2.5-0.4,4.6-0.8,7.1c-0.4,2.1,0,4.2,1.7,5.8c1.2,1.7,3.3,2.5,5.4,2.5l0,0h4.6
			c15.4,0,27.5,12.5,27.5,27.5c0,7.5-2.9,14.6-8.3,19.6c-2.9,2.5-2.9,7.1,0,9.6c1.2,1.3,3.3,2.1,5,2.1s3.3-0.8,5-2.1
			c7.9-7.9,12.1-18.3,12.1-29.6C204.3,140.7,200.2,131.2,193.9,124.1z"/>
	</g>
	<g>
		<path class="st2" d="M35.4,224.1c-0.8,0-2.1-0.4-2.9-0.8c-3.3-1.7-5-5.8-3.3-9.2l17.9-37.5c1.7-3.3,5.8-5,9.2-3.3
			c3.3,1.7,5,5.8,3.3,9.2L41.7,220C40.4,222.9,37.9,224.1,35.4,224.1z"/>
	</g>
	<g>
		<path class="st2" d="M74.1,214.5c-0.8,0-2.1-0.4-2.9-0.8c-3.3-1.7-5-5.8-3.3-9.2L85.8,167c1.7-3.3,5.8-5,9.2-3.3
			c3.3,1.7,5,5.8,3.3,9.2l-17.9,37.5C79.1,212.9,76.6,214.5,74.1,214.5z"/>
	</g>
	<g>
		<path class="st2" d="M96.6,237.9c-0.8,0-2.1-0.4-2.9-0.8c-3.3-1.7-5-5.8-3.3-9.2l17.9-37.5c1.7-3.3,5.8-5,9.2-3.3
			c3.3,1.7,5,5.8,3.3,9.2l-17.9,37.5C101.6,236.6,99.1,237.9,96.6,237.9z"/>
	</g>
	<g>
		<path class="st2" d="M138.6,221.2c-0.8,0-2.1-0.4-2.9-0.8c-3.3-1.7-5-5.8-3.3-9.2l17.9-37.5c1.7-3.3,5.8-5,9.2-3.3
			c3.3,1.7,5,5.8,3.3,9.2l-17.9,37.5C143.6,220,141.1,221.2,138.6,221.2z"/>
	</g>
</g>
</svg>
