<?xml version="1.0" encoding="utf-8"?>
<!-- Generator: Adobe Illustrator 21.1.0, SVG Export Plug-In . SVG Version: 6.00 Build 0)  -->
<svg version="1.1" id="Laag_1" xmlns="http://www.w3.org/2000/svg" xmlns:xlink="http://www.w3.org/1999/xlink" x="0px" y="0px"
	 width="250px" height="250px" viewBox="0 0 250 250" style="enable-background:new 0 0 250 250;" xml:space="preserve">
<style type="text/css">
	.st0{fill:#FFBD00;}
	.st1{fill:#BABABA;}
</style>
<g>
	<g>
		<path class="st0" d="M128.1,95.7c-28.3,0-51.2,22.9-51.2,51.2h13.7c0-20.4,16.7-37.5,37.5-37.5c20.4,0,37.5,16.7,37.5,37.5h13.7
			C179.4,118.6,156.1,95.7,128.1,95.7z"/>
		<path class="st0" d="M226.9,137.7h-29.6c-2.5,0-4.6,2.1-4.6,4.6c0,2.5,2.1,4.6,4.6,4.6h29.6c2.5,0,4.6-2.1,4.6-4.6
			C231.5,139.8,229.4,137.7,226.9,137.7z"/>
		<path class="st0" d="M58.1,137.7H29c-2.5,0-4.6,2.1-4.6,4.6c0,2.5,2.1,4.6,4.6,4.6h29.2c2.5,0,4.6-2.1,4.6-4.6
			C62.7,139.8,60.6,137.7,58.1,137.7z"/>
		<path class="st0" d="M128.1,82.3c2.5,0,4.6-2.1,4.6-4.6V48.2c0-2.5-2.1-4.6-4.6-4.6c-2.5,0-4.6,2.1-4.6,4.6v29.6
			C123.1,80.2,125.2,82.3,128.1,82.3z"/>
		<path class="st0" d="M201.1,73.6c-1.7-1.7-4.6-1.7-6.7,0l-20.8,20.8c-1.7,1.7-1.7,4.6,0,6.7c0.8,0.8,2.1,1.2,3.3,1.2
			s2.5-0.4,3.3-1.2l20.8-20.8C203.1,78.6,203.1,75.7,201.1,73.6z"/>
		<path class="st0" d="M82.3,101.5c1.7-1.7,1.7-4.6,0-6.7L61.1,73.6c-1.7-1.7-4.6-1.7-6.7,0c-1.7,1.7-1.7,4.6,0,6.7l21.3,21.2
			c0.8,0.8,2.1,1.2,3.3,1.2C80.2,102.7,81.5,102.3,82.3,101.5z"/>
	</g>
	<g>
		<path class="st1" d="M242.7,205.6H69.8c-3.7,0-7.1-2.9-7.1-7.1c0-3.7,2.9-7.1,7.1-7.1h172.9c3.8,0,7.1,2.9,7.1,7.1
			C249.8,202.3,246.9,205.6,242.7,205.6z"/>
	</g>
	<g>
		<path class="st1" d="M193.6,176H6.9c-3.8,0-7.1-2.9-7.1-7.1c0-3.7,2.9-7.1,7.1-7.1H194c3.8,0,7.1,2.9,7.1,7.1
			C200.6,172.7,197.7,176,193.6,176z"/>
	</g>
</g>
</svg>
