<?xml version="1.0" encoding="utf-8"?>
<!-- Generator: Adobe Illustrator 21.1.0, SVG Export Plug-In . SVG Version: 6.00 Build 0)  -->
<svg version="1.1" id="Laag_1" xmlns="http://www.w3.org/2000/svg" xmlns:xlink="http://www.w3.org/1999/xlink" x="0px" y="0px"
	 width="250px" height="250px" viewBox="0 0 250 250" style="enable-background:new 0 0 250 250;" xml:space="preserve">
<style type="text/css">
	.st0{fill:#FFBD00;}
	.st1{fill:#333333;}
</style>
<g>
	<path class="st0" d="M151.6,95c5.4-5.7,12.9-9,20.9-8.6c14.2,0.8,25.5,12.7,24.6,27c-0.4,9.8-6.7,18-15.4,22.1
		c4.2,2.5,8.3,5.7,11.3,9.4c10.4-6.5,17.1-18,17.9-30.7c1.3-21.7-15.9-40.1-38-40.9c-12.5-0.4-24.2,4.5-32.1,13.5
		C144.9,88.8,148.7,91.7,151.6,95z"/>
	<path class="st0" d="M245.1,110.5l-22.1-1.2c-2.9,0-5.4,2-5.4,4.9c0,2.9,2.1,5.3,5,5.3l22.1,1.2c0,0,0,0,0.4,0c2.9,0,5-2,5-4.9
		C250.1,113,248,110.5,245.1,110.5z"/>
	<path class="st0" d="M173.7,66.3L173.7,66.3c2.9,0,5.4-2,5.4-4.9l1.3-21.7c0-2.9-2.1-5.3-5-5.3s-5.4,2-5.4,4.9L168.7,61
		C168.7,63.9,170.8,66.3,173.7,66.3z"/>
	<path class="st0" d="M209.6,83.1c1.3,0,2.5-0.4,3.3-1.2l16.3-14.3c2.1-2,2.1-4.9,0.4-7.4c-2.1-2-5-2-7.5-0.4l-16.3,14.3
		c-2.1,2-2.1,4.9-0.4,7.4C206.7,82.3,208.4,83.1,209.6,83.1z"/>
	<path class="st0" d="M209.6,146.1c-2.1-2-5-2-7.5-0.4c-2.1,2-2.1,4.9-0.4,7.4l14.6,16c0.8,1.2,2.5,1.6,3.8,1.6s2.5-0.4,3.3-1.2
		c2.1-2,2.1-4.9,0.4-7.4L209.6,146.1z"/>
	<path class="st0" d="M132.8,77.8c0.8,1.2,2.5,1.6,3.8,1.6s2.5-0.4,3.3-1.2c2.1-2,2.1-4.9,0.4-7.4l-15-16.4c-2.1-2-5-2-7.5-0.4
		c-2.1,2-2.1,4.9-0.4,7.4L132.8,77.8z"/>
	<path class="st1" d="M193.3,144.5c-3.3-3.7-7.1-7-11.3-9.4c-5-2.9-10.9-4.5-17.1-5.3c0-0.4,0-0.8,0-1.6c0-13.1-5-24.6-13.4-33.6
		c-2.9-3.3-6.7-6.1-10.4-8.6c-7.9-4.9-17.1-7.8-27.1-7.8c-24.2,0-44.7,16.4-49.7,38.9c-5-1.6-10-2.5-15.4-2.5
		c-27.1,0-48.8,21.7-48.8,47.9c0,26.6,22.1,47.9,48.8,47.9H162c23,0,41.3-18,41.3-40.5C202.9,160.5,199.2,151.5,193.3,144.5z
		 M161.6,197.7H48.5c-19.6,0-35.1-15.6-35.1-34.4s15.9-34.4,35.1-34.4c6.3,0,12.1,1.6,17.5,4.5c2.1,1.2,4.6,1.2,6.7,0
		c2.1-1.2,3.3-3.3,3.8-5.7c0.4-19.6,17.1-35.2,37.1-35.2c20.5,0,37.1,16.4,37.1,36.4c0,2.5-0.4,4.5-0.8,7c-0.4,2,0,4.1,1.7,5.7
		c1.3,1.6,3.3,2.5,5.4,2.5l0,0h4.6c15,0,27.5,12.3,27.5,27S177.1,197.7,161.6,197.7z"/>
</g>
</svg>
