<?xml version="1.0" encoding="utf-8"?>
<!-- Generator: Adobe Illustrator 21.1.0, SVG Export Plug-In . SVG Version: 6.00 Build 0)  -->
<svg version="1.1" id="Laag_1" xmlns="http://www.w3.org/2000/svg" xmlns:xlink="http://www.w3.org/1999/xlink" x="0px" y="0px"
	 width="250px" height="250px" viewBox="0 0 250 250" style="enable-background:new 0 0 250 250;" xml:space="preserve">
<style type="text/css">
	.st0{fill:#333333;}
	.st1{fill:#BABABA;}
</style>
<g>
	<g>
		<path class="st0" d="M199.1,178.8h-7.9c-4.6,0-8.3-3.7-8.3-8.3s3.7-8.3,8.3-8.3h7.9c18.7,0,33.7-15,33.7-33.7s-15-33.7-33.7-33.7
			h-5.4l0,0c-2.5,0-5-1.2-6.7-2.9c-1.7-2.1-2.5-4.6-1.7-7.1c0.4-2.9,0.8-5.8,0.8-8.7c0-25.3-20.4-45.7-45.8-45.7
			c-25,0-44.9,19.5-45.8,44c0,2.9-1.7,5.8-4.2,7.1c-2.5,1.2-5.8,1.2-8.3,0c-6.7-3.7-14.1-5.8-21.6-5.8c-23.7,0-43.3,19.5-43.3,43.2
			s19.6,43.2,43.3,43.2h7.9c4.6,0,8.3,3.7,8.3,8.3s-3.7,8.3-8.3,8.3h-7.9c-33.3,0-60.3-27-60.3-60.3s27-60.3,60.3-60.3
			c6.7,0,12.9,0.8,19.1,2.9c6.2-27.8,31.2-48.6,61.1-48.6c34.5,0,62.8,28.3,62.8,62.7c0,0.8,0,1.2,0,2.1
			c26.2,2.1,46.6,24.1,46.6,50.7C249.9,156,227,178.8,199.1,178.8z"/>
	</g>
	<g>
		<polygon class="st1" points="113.4,130.2 123.4,124.8 126.3,135.6 137.6,138.9 132.2,148.9 137.6,158.9 126.3,162.2 123.4,173 
			113.4,167.6 103,173 100.1,162.2 88.9,158.9 94.3,148.9 88.9,138.9 100.1,135.6 103,124.8 		"/>
	</g>
	<g>
		<polygon class="st1" points="94.3,188.4 104.7,183 107.6,193.8 118.9,197.1 113,207.1 118.9,217.1 107.6,220.4 104.7,231.6 
			94.3,225.8 84.3,231.6 81,220.4 70.2,217.1 75.6,207.1 70.2,197.1 81,193.8 84.3,183 		"/>
	</g>
	<g>
		<polygon class="st1" points="151.3,175.1 161.3,169.7 164.6,180.9 175.8,183.8 170,194.2 175.8,204.2 164.6,207.5 161.3,218.3 
			151.3,212.9 141.3,218.3 138,207.5 127.2,204.2 132.6,194.2 127.2,183.8 138,180.9 141.3,169.7 		"/>
	</g>
</g>
</svg>
