<?xml version="1.0" encoding="utf-8"?>
<!-- Generator: Adobe Illustrator 21.1.0, SVG Export Plug-In . SVG Version: 6.00 Build 0)  -->
<svg version="1.1" id="Laag_1" xmlns="http://www.w3.org/2000/svg" xmlns:xlink="http://www.w3.org/1999/xlink" x="0px" y="0px"
	 width="250px" height="250px" viewBox="0 0 250 250" style="enable-background:new 0 0 250 250;" xml:space="preserve">
<style type="text/css">
	.st0{fill:#FFBD00;}
</style>
<g>
	<g>
		<path class="st0" d="M124.9,186.7c-34.2,0-62.1-27.5-62.1-61.7s27.9-61.7,61.7-61.7c34.2,0,61.7,27.9,61.7,61.7
			S159.1,186.7,124.9,186.7z M124.9,80c-25,0-45,20.4-45,45s20.4,45,45,45c25,0,45-20.4,45-45S149.5,80,124.9,80z"/>
	</g>
	<g>
		<g>
			<path class="st0" d="M244.1,130.4h-35.4c-2.9,0-5.4-2.5-5.4-5.4c0-2.9,2.5-5.4,5.4-5.4h35.8c2.9,0,5.4,2.5,5.4,5.4
				C249.9,127.9,247.4,130.4,244.1,130.4z"/>
		</g>
		<g>
			<path class="st0" d="M40.7,130.4H5.3c-2.9,0-5.4-2.5-5.4-5.4c0-2.9,2.5-5.4,5.4-5.4h35.4c2.9,0,5.4,2.5,5.4,5.4
				C46.2,127.9,43.6,130.4,40.7,130.4z"/>
		</g>
		<g>
			<path class="st0" d="M124.9,250c-2.9,0-5.4-2.5-5.4-5.4v-35.8c0-2.9,2.5-5.4,5.4-5.4c2.9,0,5.4,2.5,5.4,5.4v35.8
				C130.3,247.5,127.8,250,124.9,250z"/>
		</g>
		<g>
			<path class="st0" d="M124.9,47.1c-2.9,0-5.4-2.5-5.4-5.4V5.4c0-2.9,2.5-5.4,5.4-5.4c2.9,0,5.4,2.5,5.4,5.4v35.8
				C130.3,44.6,127.8,47.1,124.9,47.1z"/>
		</g>
		<g>
			<path class="st0" d="M184.1,71.7c-1.2,0-2.9-0.4-3.8-1.7c-2.1-2.1-2.1-5.8,0-7.9l25.4-25.4c2.1-2.1,5.8-2.1,7.9,0
				c2.1,2.1,2.1,5.8,0,7.9L187.8,70C187,70.8,185.3,71.7,184.1,71.7z"/>
		</g>
		<g>
			<path class="st0" d="M40.3,215c-1.3,0-2.9-0.4-3.8-1.7c-2.1-2.1-2.1-5.8,0-7.9l25.4-25c2.1-2.1,5.8-2.1,7.9,0s2.1,5.8,0,7.9
				l-25,25C43.2,214.6,42,215,40.3,215z"/>
		</g>
		<g>
			<path class="st0" d="M209.1,215c-1.2,0-2.9-0.4-3.8-1.7l-25-25c-2.1-2.1-2.1-5.8,0-7.9s5.8-2.1,7.9,0l25,25
				c2.1,2.1,2.1,5.8,0,7.9C212,214.6,210.7,215,209.1,215z"/>
		</g>
		<g>
			<path class="st0" d="M65.7,71.7c-1.2,0-2.9-0.4-3.8-1.7L36.6,44.6c-2.1-2.1-2.1-5.8,0-7.9c2.1-2.1,5.8-2.1,7.9,0l25.4,25.4
				c2.1,2.1,2.1,5.8,0,7.9C68.6,71.2,67.4,71.7,65.7,71.7z"/>
		</g>
	</g>
</g>
</svg>
