<?xml version="1.0" encoding="utf-8"?>
<!-- Generator: Adobe Illustrator 21.1.0, SVG Export Plug-In . SVG Version: 6.00 Build 0)  -->
<svg version="1.1" id="Laag_1" xmlns="http://www.w3.org/2000/svg" xmlns:xlink="http://www.w3.org/1999/xlink" x="0px" y="0px"
	 width="250px" height="250px" viewBox="0 0 250 250" style="enable-background:new 0 0 250 250;" xml:space="preserve">
<style type="text/css">
	.st0{fill:#239BB7;}
	.st1{fill:#FFBD00;}
	.st2{fill:#333333;}
	.st3{fill:#F9C900;}
</style>
<g>
	<g>
		<path class="st0" d="M34.4,204.8c-0.8,0-2.1-0.4-2.9-0.8c-3.3-1.7-5-5.8-3.3-9.2l17.9-37.5c1.7-3.3,5.8-5,9.2-3.3
			c3.3,1.7,5,5.8,3.3,9.2l-17.9,37.5C39.4,203.5,36.9,204.8,34.4,204.8z"/>
	</g>
	<g>
		<path class="st0" d="M56.9,231.9c-0.8,0-2.1-0.4-2.9-0.8c-3.3-1.7-5-5.8-3.3-9.2l17.9-37.5c1.7-3.3,5.8-5,9.2-3.3
			c3.3,1.7,5,5.8,3.3,9.2l-17.9,37.5C61.9,230.2,59.4,231.9,56.9,231.9z"/>
	</g>
	<g>
		<path class="st0" d="M93.9,221c-0.8,0-2.1-0.4-2.9-0.8c-3.3-1.7-5-5.8-3.3-9.2l17.9-37.5c1.7-3.3,5.8-5,9.2-3.3
			c3.3,1.7,5,5.8,3.3,9.2l-17.9,37.5C98.9,219.8,96.4,221,93.9,221z"/>
	</g>
	<g>
		<path class="st1" d="M151.7,68.2c5.4-5.8,12.9-9.2,20.8-8.7c7.1,0.4,13.3,3.3,17.9,8.7c4.6,5,7.1,12.1,6.7,18.7
			c-0.4,10-6.7,18.3-15.4,22.5c4.6,2.5,8.3,5.4,11.6,9.2c10.4-7.1,17.1-18.3,17.5-31.2c0.4-10.8-2.9-20.8-10.4-28.7
			c-7.1-7.9-17.1-12.5-27.5-13.3c-12.5-0.8-24.1,4.2-32,13.7C145.1,61.5,148.4,64.8,151.7,68.2z"/>
		<path class="st1" d="M244.9,84l-22-1.2c-2.9,0-5.4,2.1-5.4,5c0,2.9,2.1,5.4,5,5.4l22,1.2c0,0,0,0,0.4,0c2.9,0,5-2.1,5-5
			C249.9,86.5,247.8,84,244.9,84z"/>
		<path class="st1" d="M173.4,39C173.4,39,173.8,39,173.4,39c2.9,0,5.4-2.1,5.4-5l1.2-22.1c0-2.9-2.1-5.4-5-5.4s-5.4,2.1-5.4,5
			l-1.2,22.1C168.4,36.5,170.4,39,173.4,39z"/>
		<path class="st1" d="M209.6,56.1c1.2,0,2.5-0.4,3.3-1.2l16.2-15c2.1-2.1,2.5-5,0.4-7.5c-2.1-2.1-5-2.5-7.5-0.4l-16.2,15
			c-2.1,2.1-2.5,5-0.4,7.5C206.6,55.2,207.9,56.1,209.6,56.1z"/>
		<path class="st1" d="M209.6,120.6c-2.1-2.1-5-2.5-7.5-0.4c-2.1,2.1-2.5,5-0.4,7.5l14.6,16.2c0.8,1.2,2.5,1.7,3.7,1.7
			c1.2,0,2.5-0.4,3.3-1.2c2.1-2.1,2.1-5,0.4-7.5L209.6,120.6z"/>
		<path class="st1" d="M132.6,50.7c0.8,1.2,2.5,1.7,3.7,1.7s2.5-0.4,3.3-1.2c2.1-2.1,2.5-5,0.4-7.5l-15-16.7c-2.1-2.1-5-2.5-7.5-0.4
			c-2.1,2.1-2.5,5-0.4,7.5L132.6,50.7z"/>
		<path class="st2" d="M193.3,118.6c-3.3-3.7-7.1-7.1-11.6-9.2c-5-2.5-10.4-4.6-16.2-5c0-0.4,0-0.8,0-1.7c0-13.3-5.4-25.8-13.7-35
			c-3.3-3.3-6.7-6.2-10.8-8.7c-7.9-4.6-16.6-7.5-26.6-7.5c-24.5,0-44.5,16.7-49.9,39.6c-5-1.7-10-2.5-15.4-2.5
			c-27,0-49.1,22.1-49.1,49.2c0,12.9,5,25,13.7,34.2c2.5,2.9,7.1,2.9,9.6,0c2.9-2.5,2.9-7.1,0-9.6c-6.7-6.7-10-15.4-10-24.6
			c0-19.6,15.8-35.4,35.4-35.4c6.2,0,12.5,1.7,17.5,4.6c2.1,1.2,4.6,1.2,6.7,0c2.1-1.2,3.3-3.3,3.7-5.8c0.4-20.4,17.1-36.2,37-36.2
			c20.4,0,37,16.7,37,37.1c0,2.5-0.4,4.6-0.8,7.1c-0.4,2.1,0,4.2,1.7,5.8c1.2,1.7,3.3,2.5,5.4,2.5l0,0h4.6c15,0,27.5,12.5,27.5,27.5
			c0,7.5-2.9,14.6-8.3,19.6c-2.9,2.5-2.9,7.1,0,9.6c1.2,1.2,3.3,2.1,5,2.1c1.7,0,3.3-0.8,5-2.1c7.9-7.9,12.1-18.3,12.1-29.6
			C203.7,135.2,199.6,125.6,193.3,118.6z"/>
	</g>
	<g>
		<path class="st3" d="M139.3,171c2.1-3.7,7.1-7.1,11.2-7.1h12.9c4.2,0,6.2,3.3,4.6,7.1l-7.5,15.8c-1.7,3.7,0.4,7.1,4.6,7.1h7.9
			c4.2,0,5.4,2.5,2.5,5.8l-36.6,41.7c-2.9,3.3-4.2,2.5-2.5-1.7l8.3-23.3c1.2-4.2-0.8-7.5-5.4-7.5H128c-4.2,0-6.2-3.3-4.6-7.1
			L139.3,171z"/>
	</g>
</g>
</svg>
