<?xml version="1.0" encoding="utf-8"?>
<!-- Generator: Adobe Illustrator 21.1.0, SVG Export Plug-In . SVG Version: 6.00 Build 0)  -->
<svg version="1.1" id="Laag_1" xmlns="http://www.w3.org/2000/svg" xmlns:xlink="http://www.w3.org/1999/xlink" x="0px" y="0px"
	 width="250px" height="250px" viewBox="0 0 250 250" style="enable-background:new 0 0 250 250;" xml:space="preserve">
<style type="text/css">
	.st0{fill:#333333;}
</style>
<g>
	<path class="st0" d="M199.5,207.9H61.2C28,207.9,1,180.9,1,147.7s27-60.2,60.2-60.2c6.6,0,12.9,0.8,19.1,2.9
		c6.2-27.8,31.1-48.6,61-48.6c34.5,0,62.7,28.2,62.7,62.7c0,0.4,0,1.2,0,1.7c26.2,2.1,46.9,24.1,46.9,50.6
		C250.2,185.5,227.3,207.9,199.5,207.9z M61.2,105C37.5,105,18,124.5,18,148.1c0,23.7,19.5,43.2,43.2,43.2h138.3
		c18.7,0,33.6-14.9,33.6-33.6s-15-33.6-33.6-33.6h-5.4c-2.5,0-5-1.2-6.6-2.9c-1.7-2.1-2.5-4.6-1.7-7.1c0.4-2.9,0.8-5.8,0.8-8.7
		c0-25.3-20.3-45.6-45.7-45.6c-24.9,0-44.9,19.5-45.7,44c0,2.9-1.7,5.8-4.2,7.1c-2.5,1.2-5.8,1.2-8.3,0
		C76.2,107.1,68.7,105,61.2,105z"/>
</g>
</svg>
