<?xml version="1.0" encoding="utf-8"?>
<!-- Generator: Adobe Illustrator 21.1.0, SVG Export Plug-In . SVG Version: 6.00 Build 0)  -->
<svg version="1.1" id="Laag_1" xmlns="http://www.w3.org/2000/svg" xmlns:xlink="http://www.w3.org/1999/xlink" x="0px" y="0px"
	 width="385px" height="1080px" viewBox="0 0 385 1080" style="enable-background:new 0 0 385 1080;" xml:space="preserve">
<style type="text/css">
	.st0{opacity:0.1;fill:#FFFFFF;}
</style>
<path class="st0" d="M-40.6,627.3c25.2,1.8,47.3,28.1,39.1,52.3c-5.8-1.5-11.7-2.3-17.7-2.3c-16.4-0.4-32.2,5.8-43.8,17.3
	c-0.3-0.1-0.6-0.3-0.6-0.3s-1.2,1.8-3.1,5c-1.5,2.2-2.8,4.5-3.8,6.9c-7.4,15.1-16,42.1,0.5,64.7c-38.7,54.1-70.8,120.2-35.6,175
	c-3.7,4.5-6.5,9.6-8.3,15.2c-10.2,17.6-14.4,44.7,9.6,83c0,0,12.6,15.9,3.6,31.5c0,0,39,2.8,36.2-40.5c5.3,13.8,19.1,32,52.9,48.4
	c0,0,26.4,22,5.5,45.8c0,0,70.3-60.4,13.7-104.4c-9-7-16.7-13.1-23.3-18.7c1.2,0.2,2.4,0.4,3.7,0.4c30.9,0.7,47.9-31.3,36.5-26.2
	c-0.2,0.1-0.3,0.2-0.5,0.2C12.5,985.3,0.7,976-19,956.1c-6.9-7.6-15.5-13.6-24.9-17.7c-14.9-10-34.1-11-49.8-2.5
	c-12.1-26.6-17.7-74,36.7-139.3c1.4-1.7,2.7-3.2,4-4.9c22.7,31.1,32.1,65.9-0.1,77c0,0,44.4-1.3,45.7-38c1.1-31.7-25-52.7-8.4-72.2
	c27.9-1.3,50.2-18.9,50.2-40.6c-0.3-10.1-4.8-19.5-12.5-26c9-19.7,9.8-37.6,8-67.8c3.6-1,7.2-2.2,10.8-3.5c1,14.3,2.5,28,9.4,37.2
	c5.5,7.7,14.1,12.6,23.6,13.5c65.2,6.6,55.5,36.8,55.5,36.8c-7.4,9,9,19.6,9,19.6c45.6-18.8,29.3,45,17.1,31.9
	c-12.2-13.1-26.1,5.7-26.1,5.7c-12.2,10.6,9.8,48.2,17.9,52.4c8.1,4.2-0.8,28.7-0.8,28.7c11.4,8.9,40.7-2.5,40.7-2.5
	c5.7,13.1-7.4,34.4-7.4,34.4c15.5,7.4,26.1-13.1,26.1-13.1c4.9,3.3,17.4,37.9,17.4,37.9c3,9.3,10.6,16.3,20.1,18.5
	c-1.1-10.9,11.9-12,11.9-12c2.7,0,5.3-0.8,7.6-2.2c0.5-1.6,19-14.2,24.5-2.2c4.6,9.1,12.3,16.3,21.7,20.2c4.9,2.2,17.9-6,17.9-6
	c4.3,4,9.9,6.3,15.8,6.6c5.9-10.5,8-22.6,5.9-34.4c4.1,0,8.1,0.7,11.9,2.2c2.7-9.4,3.6-19.2,2.7-28.9h6.5
	c2.5-16.9-4.6-33.7-18.5-43.6c-5.4-21.8-47.8-4.4-46.2,3.8c0.3,7-1.2,13.9-4.4,20.2c-0.5,11-31.5-4.9-33.7-16.9
	s-18.5-34.4-18.5-34.4c6.5-1.1,12-25.6,12-25.6c15.2,0,36.4,28.9,36.4,28.9c6.5-7.6,3.2-32.7,3.2-32.7s1.1,12,25.5,11.5
	c13.3-1,26.5,3.5,36.4,12.5c2.7-19.6-24.4-40.9-24.4-40.9c14.2-6,9.3-16.9,9.3-16.9c-1.6,4.9-26.1,1.7-26.1,1.7
	c5.9-3.8,9.2-10.5,8.7-17.5c-2.7,4.4-11.5-3.8-11.5-3.8c10.9-3.9,9.3-19.1,9.3-19.1c-31,10.9-33.2-17.5-46.7-14.7
	c-6.9,2.1-14.4,0.1-19.4-5.1c-42.3-76.7-121.5-110.3-148.4-123.2v-0.1c23.7,2.7,47.6,2,71.1-2.2c-18.9-1.8-40-35.6-54.3-63.6
	c3.4-7.4,7.4-14.6,11.8-21.5c13,42.6,81.5,55.7,81.5,55.7c-14.1-9.5-24.8-25.7-29.7-63.4c4.9,2.6,9.2,6.3,12.6,10.7
	c-2.5-6.2,5.5-15,5.5-15l16,10.1c-10.1-9.5,3.5-22.1,3.5-22.1l6,2.6c5.4-7.9,11.2-16.6,11.2-16.6c7,5.1,19.2-1.9,19.2-1.9
	c-0.1,0-0.1-0.1-0.1-0.1c5.4,1.6,10.9,2.7,16.5,3.3c1.1-6.4,1.3-12.8,0.8-19.3c2.9-1.1,5.4-3,7.2-5.4c3.9,7.8,8.6,15.1,14.2,21.8
	c6.8-8.1,13.1-16.6,19-25.5c0,0.3,0,0.7-0.1,1c1.3,1.6,3.5,2.2,5.4,1.4c3.2,9,8.1,17.3,14.5,24.4c5-9.9,8.9-20.4,11.6-31.1
	c1.3,0.3,2.1,0.6,2.1,0.6c12.4-26.4-15.1-31.2-23.9-32c-7.9-1.1-15.7-2.7-23.4-5c2.5-55.3-45.5-43.4-45.5-43.4
	c-15.1,23.1-75.8,47.8-75.8,47.8s-1,2.5-2.6,6.7c-2.9-16.8-9.5-32.7-19.2-46.7c-1.3-4.8-2-9.8-2.2-14.7c0.4-6.7,3.5-13,8.8-17.3
	c2,4.2,5,8,8.5,11.1c-1.5-2-2-4.5-1.5-6.9c3.4-6.6,4.7-14.2,3.7-21.6l0.2-6.2l-10,3.7l-4.9-7.9c-13.6,12.8-18.9,1.1-18.9,1.1
	c-6.8-25.2-1.2-41.6,8-52.3c16.5,18.5,30.9,38.7,43,60.3c9.5,18.9,46.2,40,66,27.6s3.6-50.6-20.2-55s-8.3,22.1-8.3,22.1
	c-7.5,20.9-28.6-10.2-28.6-10.2c-9.6-21-24.3-39.2-42.8-53c7.9-5.4,16.8-9,26.2-10.7c2.8,9.1,7.1,17.5,12.9,25.1l-3.9,11.7l11.7-3.1
	l1.9,1.9l-3.2,9.9l10.4-7.7c17.2-1.5,30.1-16.5,28.8-33.8l11.6-2.1c-1.7-25-12.9-48.4-31.2-65.4c-0.2-11.4-3.7-22.6-10.1-32.1
	c-10.2-13.3-35.3-25.2-40.7-31.2c-13.2-17.5-31-31.1-51.3-39.4c-5.8-3-8.2-9.9-5.6-15.8c0,0-14.2,6.2-17.2,13
	c0,0-27.6-10.2-30.7-21.4c0,0-19.2,9.5-14.7,38.2c0,0-26.7,14.2-40.3,60c-3.5,3.7-9.3,3.9-13,0.4c-0.4-0.3-0.7-0.7-1-1.1l-10.5,31.7
	l-10.5-31.7c-3.1,4-8.8,4.8-12.8,1.7c-0.4-0.3-0.7-0.6-1.1-1c-13.6-45.8-40.3-60-40.3-60C-61.1,9.5-80.4,0-80.4,0
	c-3.1,11.2-30.7,21.4-30.7,21.4c-2.9-6.7-17.2-13-17.2-13c2.6,5.9,0.1,12.9-5.6,15.8c-20.4,8.2-38.1,21.8-51.3,39.4
	c-5.5,6-30.6,17.8-40.7,31.2c-6.4,9.5-9.9,20.6-10.1,32.1c-18.3,17.1-29.4,40.5-31.2,65.4l11.6,2.1c-1.2,17.2,11.6,32.3,28.8,33.8
	l10.4,7.7l-3.2-10l1.9-1.9l11.7,3.1l-3.9-11.7c5.8-7.5,10.1-16,12.9-25.1c9.4,1.7,18.3,5.3,26.2,10.7c-18.5,13.7-33.3,32-42.8,53
	c0,0-21,31.1-28.6,10.2c0,0,15.6-26.5-8.3-22.1s-40.1,42.6-20.2,55c19.8,12.4,56.5-8.7,66-27.6c12.1-21.6,26.5-41.8,43-60.3
	c9.2,10.7,14.7,27.2,7.9,52.3c0,0-5.3,11.7-18.9-1.1l-4.9,7.9l-9.9-3.7l0.1,6.2c-1,7.4,0.3,14.9,3.7,21.6c0.5,2.4-0.1,4.9-1.5,6.9
	c3.6-3.1,6.5-6.8,8.5-11.1c5.2,4.3,8.4,10.6,8.8,17.3c-0.1,5-0.9,9.9-2.2,14.7c-9.8,14-16.3,29.9-19.2,46.7
	c-1.6-4.2-2.6-6.7-2.6-6.7s-60.7-24.7-75.8-47.8c0,0-48-11.8-45.5,43.4c-7.7,2.3-15.5,4-23.4,5c-8.8,0.8-36.3,5.6-23.9,32
	c0,0,0.8-0.3,2.1-0.6c2.8,10.8,6.7,21.2,11.6,31.1c6.4-7.1,11.4-15.4,14.5-24.4c1.9,0.8,4.1,0.2,5.4-1.4c-0.1-0.3-0.1-0.7-0.1-1
	c5.8,8.9,12.2,17.4,19,25.5c5.6-6.7,10.3-14,14.2-21.8c1.8,2.5,4.3,4.4,7.2,5.4c-0.5,6.4-0.3,12.9,0.8,19.3
	c5.6-0.6,11.1-1.7,16.4-3.3c0,0.1,0,0.1-0.1,0.1c0,0,12.2,7,19.2,1.9c0,0,5.8,8.7,11.2,16.6l6-2.6c0,0,13.6,12.5,3.5,22.1l16-10.1
	c0,0,8,8.8,5.5,15c3.4-4.4,7.7-8.1,12.6-10.7c-4.9,37.7-15.6,53.9-29.7,63.4c0,0,68.5-13.1,81.5-55.7c4.5,6.9,8.4,14,11.9,21.5
	c-14.4,28-35.5,61.8-54.3,63.6c23.5,4.2,47.4,4.9,71.1,2.2v0.1c-26.9,12.8-106.1,46.5-148.4,123.2c-5,5.3-12.5,7.3-19.4,5.1
	c-13.6-2.8-15.8,25.7-46.7,14.7c0,0-1.6,15.3,9.3,19.1c0,0-8.7,8.2-11.5,3.8c-0.5,7,2.8,13.7,8.7,17.5c0,0-24.5,3.3-26.1-1.7
	c0,0-4.9,10.9,9.3,16.9c0,0-27.2,21.3-24.4,40.9c9.9-9,23.1-13.5,36.4-12.5c24.4,0.5,25.5-11.5,25.5-11.5s-3.3,25.1,3.2,32.7
	c0,0,21.3-28.9,36.4-28.9c0,0,5.4,24.5,12,25.6c0,0-16.3,22.4-18.5,34.4c-2.2,12-33.2,27.8-33.7,16.9c-3.2-6.2-4.7-13.2-4.4-20.2
	c1.6-8.2-40.8-25.7-46.2-3.8c-13.8,9.9-21,26.8-18.5,43.6h6.5c-0.9,9.7,0.1,19.5,2.7,28.9c3.8-1.5,7.9-2.3,11.9-2.2
	c-2,11.8,0.1,24,6,34.4c5.9-0.3,11.4-2.6,15.8-6.6c0,0,13.1,8.2,17.9,6c9.4-3.9,17.1-11.1,21.7-20.2c5.4-12,23.9,0.6,24.5,2.2
	c2.3,1.4,4.9,2.2,7.6,2.2c0,0,13.1,1.1,12,12c9.5-2.3,17.1-9.3,20.1-18.5c0,0,12.4-34.6,17.4-37.9c0,0,10.6,20.4,26.1,13.1
	c0,0-13.1-21.3-7.4-34.4c0,0,29.4,11.4,40.7,2.5c0,0-9-24.5-0.8-28.7c8.2-4.1,30.2-41.8,17.9-52.4c0,0-13.8-18.9-26.1-5.7
	c-12.3,13.1-28.5-50.7,17.1-31.9c0,0,16.4-10.6,9-19.6c0,0-9.7-30.3,55.5-36.8c9.4-0.9,18.1-5.8,23.6-13.5
	c7.1-8.6,11.1-19.3,11.4-30.4L-40.6,627.3z M-397.8,1639.3h-8.2v-104.9h8.2V1639.3z M-291.1,1639.3h-8.2l-49.3-89.4v89.4h-8.2
	v-104.9h8.2l49.4,89.5v-89.5h8.1L-291.1,1639.3L-291.1,1639.3z M-193.9,1542.2h-29.7v97.1h-8.2v-97.1h-29.6v-7.8h67.6V1542.2z
	 M-113.7,1589.1h-40.5v42.6h46.6v7.6h-54.8v-104.9h54.5v7.8h-46.3v39.3h40.5L-113.7,1589.1L-113.7,1589.1z M-42.2,1595.7h-24.4v43.7
	h-8.3v-104.9h28.6c4.3-0.1,8.5,0.6,12.5,2c3.6,1.2,6.8,3.3,9.4,5.9c2.7,2.8,4.7,6.1,6,9.7c1.5,4.3,2.2,8.8,2.1,13.3
	c0,3.3-0.4,6.6-1.3,9.7c-0.8,2.9-2,5.7-3.7,8.2c-1.5,2.4-3.5,4.6-5.7,6.4c-2.2,1.8-4.7,3.2-7.4,4.1l21.7,44.6v0.9h-8.8L-42.2,1595.7
	z M-66.6,1588h21.8c3.1,0.1,6.1-0.6,8.9-1.9c2.5-1.2,4.6-2.9,6.4-5c1.7-2.2,3-4.6,3.8-7.2c0.9-2.8,1.3-5.7,1.3-8.6
	c0-3.3-0.4-6.5-1.4-9.6c-0.8-2.7-2.3-5.2-4.2-7.3c-1.9-2-4.2-3.6-6.8-4.6c-3-1.1-6.2-1.7-9.4-1.6h-20.4L-66.6,1588L-66.6,1588z
	 M86.5,1639.3h-8.1L29.1,1550v89.4h-8.2v-104.9h8.2l49.4,89.5v-89.5h8.1L86.5,1639.3L86.5,1639.3z M174.8,1589.1h-40.6v42.6h46.7
	v7.6h-54.8v-104.9h54.5v7.8h-46.3v39.3h40.5L174.8,1589.1L174.8,1589.1z M275,1542.2h-29.7v97.1h-8.2v-97.1h-29.6v-7.8H275
	L275,1542.2L275,1542.2z M364.8,1582.3c-1.6-2.3-3-4.4-4.3-6.6c-1.2-2-2.3-4.1-3.2-6.3c-0.8-2-1.5-4.1-2-6.2
	c-0.5-2.1-0.7-4.2-0.7-6.3c0-3.4,0.4-6.8,1.4-10c0.8-2.8,2.2-5.3,4.1-7.5c1.8-2.1,4-3.7,6.5-4.7c2.7-1.1,5.6-1.7,8.5-1.7
	c2.8-0.1,5.5,0.5,8.1,1.7c2.3,1.1,4.4,2.6,6,4.5c1.7,1.9,3,4.1,3.8,6.6c0.9,2.6,1.3,5.2,1.3,7.9c0,2.3-0.3,4.6-1,6.7
	c-0.7,2.1-1.5,4-2.6,5.9c-1.1,1.8-2.3,3.5-3.8,5.1c-1.4,1.6-2.9,3-4.4,4.4l-7.8,7.1l23.5,33c1.7-3.4,2.9-7,3.7-10.7
	c0.9-4.2,1.4-8.4,1.4-12.7h7.3c0.4,10.5-2.3,20.9-7.7,30l12.1,17h-9.6l-7.3-10.2c-3,3.6-6.7,6.5-10.9,8.6c-4,2-8.4,3.1-12.9,3.1
	c-3.9,0.1-7.8-0.6-11.5-2.1c-3.2-1.3-6.2-3.2-8.6-5.8c-2.4-2.6-4.3-5.6-5.4-8.9c-1.3-3.7-1.9-7.6-1.9-11.5c0-3,0.4-5.9,1.3-8.8
	c0.9-2.7,2.1-5.2,3.6-7.6c1.6-2.5,3.4-4.8,5.5-6.9c2.1-2.2,4.4-4.4,6.9-6.6L364.8,1582.3z M374.3,1633.3c3.6,0,7.2-1,10.4-2.7
	c3.5-2,6.5-4.6,9-7.7l-24.2-34l-0.7-0.9l-2.6,2.4c-2.2,2.1-4.3,4.5-6,7c-1.3,1.9-2.5,3.9-3.4,6.1c-0.7,1.6-1.3,3.3-1.6,5
	c-0.2,1.3-0.3,2.7-0.4,4c0,2.7,0.4,5.4,1.2,8c0.7,2.4,2,4.7,3.6,6.6c1.7,1.9,3.8,3.5,6.1,4.5
	C368.5,1632.8,371.4,1633.4,374.3,1633.3 M362.6,1556.6c0,3.4,0.8,6.7,2.1,9.7c1.6,3.7,3.6,7.3,5.9,10.7l7.5-6.9
	c2.4-2.1,4.5-4.5,6.2-7.2c1.7-2.8,2.5-6,2.4-9.3c0-1.7-0.3-3.3-0.8-4.9c-0.5-1.5-1.2-3-2.2-4.2c-1-1.2-2.2-2.2-3.7-2.9
	c-1.6-0.7-3.3-1.1-5-1.1c-1.9,0-3.8,0.4-5.4,1.3c-1.5,0.9-2.9,2.1-3.9,3.5c-1.1,1.6-1.9,3.3-2.3,5.2
	C362.9,1552.4,362.7,1554.5,362.6,1556.6 M-395.4,1682l31.6,92.3l31.8-92.3h10.9v104.9h-8.2v-45.6l0.7-45.6l-32,91.2h-6.3
	l-31.9-90.8l0.7,45.2v45.6h-8.2V1682L-395.4,1682L-395.4,1682z M-232.9,1757.6H-272l-8.9,29.3h-8.5l33.3-104.9h7.6l33.3,104.9h-8.5
	L-232.9,1757.6z M-269.7,1749.9h34.4l-17.2-56.3L-269.7,1749.9z M-152.6,1743.2H-177v43.7h-8.3V1682h28.5c4.3-0.1,8.5,0.6,12.5,2
	c3.6,1.2,6.8,3.3,9.4,5.9c2.7,2.8,4.7,6.1,6,9.7c1.5,4.3,2.2,8.8,2.1,13.3c0,3.3-0.4,6.6-1.3,9.7c-0.8,2.9-2,5.7-3.7,8.2
	c-1.6,2.4-3.5,4.6-5.7,6.4c-2.2,1.8-4.7,3.2-7.4,4.1l21.7,44.6v0.9h-8.7L-152.6,1743.2z M-177,1735.6h21.8c3.1,0.1,6.1-0.6,8.9-1.9
	c2.5-1.2,4.6-2.9,6.4-5c1.7-2.2,3-4.6,3.8-7.2c0.9-2.8,1.3-5.6,1.3-8.5c0-3.3-0.4-6.5-1.4-9.6c-0.8-2.7-2.3-5.2-4.2-7.3
	c-1.9-2-4.2-3.6-6.8-4.6c-3-1.1-6.2-1.7-9.4-1.6H-177L-177,1735.6L-177,1735.6z M-69.3,1735.2l-12.1,14.1v37.6h-8.3V1682h8.2v55.9
	l11.5-14.4l32.4-41.5h10.3l-36.5,46.7l39.3,58.2h-10L-69.3,1735.2z M54.5,1736.7H14v42.6h46.6v7.6H5.7V1682h54.5v7.8H13.9v39.3h40.5
	L54.5,1736.7L54.5,1736.7z M154.7,1689.8h-29.8v97.1h-8.3v-97.1H87.1v-7.8h67.6L154.7,1689.8L154.7,1689.8z M195.9,1786.9h-8.2V1682
	h8.2V1786.9L195.9,1786.9z M302.6,1786.9h-8.2l-49.4-89.3v89.3h-8.2V1682h8.2l49.4,89.5V1682h8.1L302.6,1786.9L302.6,1786.9z
	 M405.7,1774.7c-1.1,1.4-2.3,2.7-3.5,3.9c-1.8,1.7-3.8,3.2-6,4.5c-2.8,1.6-5.8,2.8-8.9,3.7c-4,1.1-8.1,1.6-12.2,1.6
	c-4.9,0.1-9.7-0.9-14.2-2.7c-4.2-1.8-8-4.5-11-8c-3.2-3.9-5.6-8.4-7.1-13.2c-1.8-5.9-2.6-12.1-2.5-18.3v-24.1
	c-0.1-6.1,0.7-12.1,2.3-17.9c1.3-4.7,3.5-9.2,6.5-13c2.8-3.4,6.4-6.2,10.6-7.9c4.5-1.8,9.3-2.7,14.2-2.7c4.5-0.1,8.9,0.6,13.1,2.1
	c3.6,1.3,6.9,3.4,9.7,6.1c2.7,2.8,4.8,6.1,6.2,9.8c1.6,4.2,2.5,8.6,2.7,13.1h-8.2c-0.3-3.3-1-6.6-2.1-9.7c-0.9-2.7-2.4-5.2-4.4-7.3
	c-2-2.1-4.4-3.6-7-4.6c-3.2-1.1-6.6-1.6-10-1.6c-7.4-0.5-14.6,2.7-19.1,8.5c-4.7,7.5-7,16.2-6.4,25v24.2c-0.1,5,0.6,10.1,1.9,15
	c1.1,3.9,2.9,7.6,5.3,10.8c2.2,2.8,5.1,5.1,8.4,6.6c3.5,1.5,7.3,2.3,11.1,2.2c3,0,5.9-0.3,8.8-1c2.3-0.6,4.4-1.4,6.5-2.4
	c1.6-0.8,3.1-1.8,4.5-2.9c1.1-1,2-1.8,2.7-2.4v-27.3h-22.9v-7.7h31.2L405.7,1774.7L405.7,1774.7z M-316.5,1435.1
	c0-3.6-0.3-7.1-1.1-10.6c-0.8-3.3-2.4-6.3-4.6-8.8c-2.9-3.2-6.2-5.9-10-8c-5.5-3.2-11.2-6-17.2-8.3c-8.3-3.2-16.5-6.9-24.3-11.1
	c-7.4-4-14.3-8.9-20.4-14.7c-5.8-5.7-10.6-12.3-14-19.7c-3.6-8.2-5.4-17.1-5.2-26c-0.1-8.9,1.7-17.8,5.3-26
	c3.4-7.7,8.5-14.6,14.8-20.1c6.7-5.7,14.4-10.1,22.7-12.9c9.3-3.2,19.1-4.7,29-4.6c10.1-0.2,20.1,1.6,29.5,5.2
	c8.4,3.2,16,8.2,22.4,14.5c6.2,6.3,11.1,13.9,14.2,22.2c3.4,9.1,5.1,18.7,5,28.3h-45.6c0-4.4-0.5-8.9-1.5-13.2
	c-0.8-3.7-2.4-7.2-4.7-10.3c-2.1-2.9-4.9-5.2-8.2-6.7c-3.8-1.7-7.9-2.5-12-2.4c-3.9-0.1-7.7,0.6-11.3,2c-3,1.2-5.7,3.1-7.9,5.5
	c-2.1,2.4-3.7,5.3-4.7,8.4c-1.1,3.3-1.6,6.8-1.6,10.3c-0.1,3.5,0.8,7,2.4,10.2c1.8,3.2,4.1,6,6.9,8.4c3.3,2.8,6.9,5.3,10.7,7.3
	c4.2,2.3,8.8,4.5,13.9,6.7c9.6,3.4,18.9,7.7,27.7,12.8c7.4,4.3,14,9.6,19.7,15.9c5.2,5.8,9.2,12.7,11.8,20.1
	c2.7,8.1,4,16.7,3.9,25.2c0.2,9.1-1.5,18.2-4.9,26.7c-3.1,7.6-7.9,14.3-14,19.8c-6.5,5.6-14,9.8-22.2,12.3c-9.4,3-19.2,4.4-29.1,4.3
	c-9.7,0-19.4-1.5-28.7-4.4c-9.2-2.9-17.7-7.5-25.1-13.7c-7.6-6.4-13.6-14.3-17.8-23.3c-4.7-10.5-7.1-21.9-6.8-33.4h45.9
	c-0.1,5.9,0.6,11.8,2,17.5c1.1,4.3,3.2,8.3,6.1,11.6c2.8,3,6.3,5.2,10.2,6.4c4.6,1.4,9.4,2.1,14.2,2c3.8,0.1,7.6-0.6,11.1-2
	c2.9-1.2,5.4-3,7.5-5.3c2-2.3,3.4-5.1,4.1-8c0.9-3.3,1.3-6.7,1.2-10.1 M-93.7,1305.6h-56v189.1h-45.8v-189.1h-55.1v-38.3h156.9
	L-93.7,1305.6L-93.7,1305.6z M49.5,1396.3h-71.2v60.3h84.3v38.1h-130v-227.3H62.3v38.3h-84v53.7h71.2L49.5,1396.3L49.5,1396.3z
	 M157.4,1411.6h-22.7v83.1H89v-227.3h72.9c10.3-0.2,20.5,1.3,30.3,4.4c8.4,2.7,16.1,7.2,22.6,13.1c6.3,6,11.1,13.3,14.1,21.5
	c3.4,9.5,5.1,19.6,4.9,29.7c0.1,7.5-0.7,14.9-2.2,22.2c-1.3,6.2-3.5,12.1-6.5,17.7c-2.7,5-6.2,9.6-10.3,13.5
	c-4.1,3.9-8.7,7.3-13.7,10l39.6,93.1v2.2h-49.1L157.4,1411.6z M134.7,1373.4h26c7.9,0.6,15.6-2.9,20.5-9.1
	c4.9-7.2,7.3-15.8,6.8-24.4c0.1-4.8-0.4-9.5-1.5-14.1c-0.8-3.9-2.4-7.5-4.7-10.8c-2.1-2.9-4.9-5.3-8.2-6.9
	c-3.7-1.7-7.7-2.5-11.8-2.4h-27.2L134.7,1373.4L134.7,1373.4z M418.6,1419c-1.1,25.9-8.4,45.5-21.8,58.9c-13.4,13.3-32.2,20-56.6,20
	c-11.5,0.2-22.9-1.9-33.6-6.2c-9.7-4.1-18.2-10.5-24.9-18.6c-7.2-9-12.4-19.4-15.5-30.5c-3.8-13.6-5.6-27.7-5.4-41.9v-38.7
	c-0.2-14.2,1.6-28.3,5.5-42c3.2-11.2,8.6-21.6,15.9-30.6c6.8-8.1,15.4-14.5,25.2-18.7c10.5-4.3,21.9-6.5,33.3-6.3
	c24.7,0,43.4,6.9,56.2,20.8c12.8,13.8,20.1,33.7,21.9,59.6h-45.9c-0.1-6.8-0.8-13.7-2.1-20.4c-0.9-4.7-2.7-9.1-5.5-13
	c-2.5-3.2-5.9-5.6-9.7-6.9c-4.8-1.5-9.8-2.2-14.8-2c-5.4-0.2-10.7,0.9-15.6,3.1c-4.4,2.2-8.1,5.7-10.5,10.1
	c-3.1,5.7-5.1,11.9-6,18.3c-1.4,9.2-2.1,18.4-2,27.7v39c-0.1,9.1,0.4,18.1,1.6,27.2c0.7,6.4,2.5,12.6,5.4,18.3
	c2.3,4.4,5.9,8.1,10.3,10.4c5.1,2.4,10.6,3.5,16.2,3.3c4.9,0.1,9.7-0.5,14.4-1.8c3.8-1.1,7.3-3.3,9.9-6.3c2.9-3.7,4.9-7.9,5.9-12.5
	c1.5-6.6,2.3-13.4,2.5-20.2L418.6,1419L418.6,1419z"/>
</svg>
