<?xml version="1.0" encoding="utf-8"?>
<!-- Generator: Adobe Illustrator 21.1.0, SVG Export Plug-In . SVG Version: 6.00 Build 0)  -->
<svg version="1.1" id="Laag_1" xmlns="http://www.w3.org/2000/svg" xmlns:xlink="http://www.w3.org/1999/xlink" x="0px" y="0px"
	 width="108px" height="230.5px" viewBox="0 0 108 230.5" style="enable-background:new 0 0 108 230.5;" xml:space="preserve">
<style type="text/css">
	.st0{fill:#FFFFFF;}
</style>
<path class="st0" d="M48.8,80.7c3.3,0.2,6.1,3.6,5,6.7c-0.7-0.2-1.5-0.3-2.3-0.3c-2.1-0.1-4.2,0.7-5.7,2.2c0,0-0.1,0-0.1,0
	s-0.2,0.2-0.4,0.6c-0.2,0.3-0.4,0.6-0.5,0.9c-1,1.9-2.1,5.4,0.1,8.3c-5,7-9.1,15.5-4.6,22.5c-0.5,0.6-0.8,1.2-1.1,1.9
	c-1.3,2.3-1.9,5.8,1.2,10.7c0,0,1.6,2,0.5,4c0,0,5,0.4,4.7-5.2c0.7,1.8,2.5,4.1,6.8,6.2c0,0,3.4,2.8,0.7,5.9c0,0,9.1-7.8,1.8-13.4
	c-1.2-0.9-2.1-1.7-3-2.4c0.2,0,0.3,0,0.5,0.1c4,0.1,6.2-4,4.7-3.4c0,0,0,0-0.1,0c-1.5,0.6-3-0.6-5.5-3.2c-0.9-1-2-1.8-3.2-2.3
	c-1.9-1.3-4.4-1.4-6.4-0.3c-1.6-3.4-2.3-9.5,4.7-17.9c0.2-0.2,0.3-0.4,0.5-0.6c2.9,4,4.1,8.5,0,9.9c0,0,5.7-0.2,5.9-4.9
	c0.1-4.1-3.2-6.8-1.1-9.3c3.6-0.2,6.5-2.4,6.5-5.2c0-1.3-0.6-2.5-1.6-3.3c1.2-2.5,1.3-4.8,1-8.7c0.5-0.1,0.9-0.3,1.4-0.5
	c0.1,1.8,0.3,3.6,1.2,4.8c0.7,1,1.8,1.6,3,1.7c8.4,0.9,7.1,4.7,7.1,4.7c-0.9,1.2,1.2,2.5,1.2,2.5c5.9-2.4,3.8,5.8,2.2,4.1
	c-1.6-1.7-3.4,0.7-3.4,0.7c-1.6,1.4,1.3,6.2,2.3,6.7s-0.1,3.7-0.1,3.7c1.5,1.2,5.3-0.3,5.3-0.3c0.7,1.7-0.9,4.4-0.9,4.4
	c2,0.9,3.4-1.7,3.4-1.7c0.6,0.4,2.2,4.9,2.2,4.9c0.4,1.2,1.4,2.1,2.6,2.4c-0.1-1.4,1.5-1.5,1.5-1.5c0.3,0,0.7-0.1,1-0.3
	c0.1-0.2,2.5-1.8,3.2-0.3c0.6,1.2,1.6,2.1,2.8,2.6c0.6,0.3,2.3-0.8,2.3-0.8c0.6,0.5,1.3,0.8,2,0.8c0.8-1.3,1-2.9,0.8-4.4
	c0.5,0,1.1,0.1,1.5,0.3c0.3-1.2,0.5-2.5,0.4-3.7h0.8c0.3-2.2-0.6-4.3-2.4-5.6c-0.7-2.8-6.2-0.6-6,0.5c0,0.9-0.1,1.8-0.6,2.6
	c-0.1,1.4-4.1-0.6-4.3-2.2s-2.4-4.4-2.4-4.4c0.8-0.1,1.5-3.3,1.5-3.3c2,0,4.7,3.7,4.7,3.7c0.8-1,0.4-4.2,0.4-4.2s0.1,1.5,3.3,1.5
	c1.7-0.1,3.4,0.5,4.7,1.6c0.3-2.5-3.1-5.3-3.1-5.3c1.8-0.8,1.2-2.2,1.2-2.2c-0.2,0.6-3.4,0.2-3.4,0.2c0.8-0.5,1.2-1.4,1.1-2.3
	c-0.4,0.6-1.5-0.5-1.5-0.5c1.4-0.5,1.2-2.5,1.2-2.5c-4,1.4-4.3-2.3-6-1.9c-0.9,0.3-1.9,0-2.5-0.7C82.2,76.6,72,72.3,68.5,70.6v0
	c3.1,0.4,6.1,0.3,9.2-0.3c-2.4-0.2-5.2-4.6-7-8.2c0.4-1,1-1.9,1.5-2.8c1.7,5.5,10.5,7.2,10.5,7.2c-1.8-1.2-3.2-3.3-3.8-8.2
	c0.6,0.3,1.2,0.8,1.6,1.4c-0.3-0.8,0.7-1.9,0.7-1.9l2.1,1.3c-1.3-1.2,0.4-2.8,0.4-2.8l0.8,0.3c0.7-1,1.4-2.1,1.4-2.1
	c0.9,0.7,2.5-0.2,2.5-0.2c0,0,0,0,0,0c0.7,0.2,1.4,0.3,2.1,0.4c0.1-0.8,0.2-1.7,0.1-2.5c0.4-0.1,0.7-0.4,0.9-0.7
	c0.5,1,1.1,1.9,1.8,2.8c0.9-1,1.7-2.1,2.4-3.3c0,0,0,0.1,0,0.1c0.2,0.2,0.5,0.3,0.7,0.2c0.4,1.2,1,2.2,1.9,3.1
	c0.6-1.3,1.1-2.6,1.5-4c0.2,0,0.3,0.1,0.3,0.1c1.6-3.4-1.9-4-3.1-4.1c-1-0.1-2-0.4-3-0.6c0.3-7.1-5.9-5.6-5.9-5.6
	c-1.9,3-9.8,6.2-9.8,6.2s-0.1,0.3-0.3,0.9c-0.4-2.2-1.2-4.2-2.5-6c-0.2-0.6-0.3-1.3-0.3-1.9c0-0.9,0.5-1.7,1.1-2.2
	c0.3,0.5,0.6,1,1.1,1.4c-0.2-0.3-0.3-0.6-0.2-0.9c0.4-0.9,0.6-1.8,0.5-2.8l0-0.8l-1.3,0.5l-0.6-1c-1.8,1.6-2.4,0.1-2.4,0.1
	c-0.9-3.2-0.2-5.4,1-6.7c2.1,2.4,4,5,5.5,7.8c1.2,2.4,6,5.1,8.5,3.6c2.6-1.6,0.5-6.5-2.6-7.1S85,34,85,34c-1,2.7-3.7-1.3-3.7-1.3
	c-1.2-2.7-3.1-5-5.5-6.8c1-0.7,2.2-1.2,3.4-1.4c0.4,1.2,0.9,2.3,1.7,3.2l-0.5,1.5l1.5-0.4l0.2,0.2l-0.4,1.3l1.3-1
	c2.2-0.2,3.9-2.1,3.7-4.3l1.5-0.3c-0.2-3.2-1.7-6.2-4-8.4c0-1.5-0.5-2.9-1.3-4.1c-1.3-1.7-4.5-3.2-5.2-4c-1.7-2.3-4-4-6.6-5.1
	c-0.7-0.4-1.1-1.3-0.7-2c0,0-1.8,0.8-2.2,1.7c0,0-3.6-1.3-4-2.8c0,0-2.5,1.2-1.9,4.9c0,0-3.4,1.8-5.2,7.7c-0.4,0.5-1.2,0.5-1.7,0.1
	c0,0-0.1-0.1-0.1-0.1l-1.3,4.1l-1.3-4.1c-0.4,0.5-1.1,0.6-1.7,0.2c0,0-0.1-0.1-0.1-0.1c-1.8-5.9-5.2-7.7-5.2-7.7
	C46.1,1.2,43.6,0,43.6,0c-0.4,1.4-4,2.8-4,2.8c-0.4-0.9-2.2-1.7-2.2-1.7c0.3,0.8,0,1.7-0.7,2c-2.6,1.1-4.9,2.8-6.6,5.1
	c-0.7,0.8-3.9,2.3-5.2,4c-0.8,1.2-1.3,2.7-1.3,4.1c-2.4,2.2-3.8,5.2-4,8.4l1.5,0.3c-0.2,2.2,1.5,4.2,3.7,4.3l1.3,1L25.7,29l0.2-0.2
	l1.5,0.4L27,27.7c0.7-1,1.3-2.1,1.7-3.2c1.2,0.2,2.4,0.7,3.4,1.4c-2.4,1.8-4.3,4.1-5.5,6.8c0,0-2.7,4-3.7,1.3c0,0,2-3.4-1.1-2.8
	c-3.1,0.6-5.2,5.5-2.6,7.1s7.3-1.1,8.5-3.6c1.6-2.8,3.4-5.4,5.5-7.8c1.2,1.4,1.9,3.5,1,6.7c0,0-0.7,1.5-2.4-0.1l-0.6,1L29.9,34
	l0,0.8c-0.1,1,0,1.9,0.5,2.8c0.1,0.3,0,0.6-0.2,0.9c0.5-0.4,0.8-0.9,1.1-1.4c0.7,0.6,1.1,1.4,1.1,2.2c0,0.6-0.1,1.3-0.3,1.9
	c-1.3,1.8-2.1,3.8-2.5,6c-0.2-0.5-0.3-0.9-0.3-0.9s-7.8-3.2-9.8-6.2c0,0-6.2-1.5-5.9,5.6c-1,0.3-2,0.5-3,0.6
	c-1.1,0.1-4.7,0.7-3.1,4.1c0,0,0.1,0,0.3-0.1c0.4,1.4,0.9,2.7,1.5,4c0.8-0.9,1.5-2,1.9-3.1c0.2,0.1,0.5,0,0.7-0.2c0,0,0-0.1,0-0.1
	c0.8,1.1,1.6,2.2,2.4,3.3c0.7-0.9,1.3-1.8,1.8-2.8c0.2,0.3,0.6,0.6,0.9,0.7c-0.1,0.8,0,1.7,0.1,2.5c0.7-0.1,1.4-0.2,2.1-0.4
	c0,0,0,0,0,0c0,0,1.6,0.9,2.5,0.2c0,0,0.7,1.1,1.4,2.1l0.8-0.3c0,0,1.8,1.6,0.4,2.8l2.1-1.3c0,0,1,1.1,0.7,1.9c0.4-0.6,1-1,1.6-1.4
	c-0.6,4.8-2,6.9-3.8,8.2c0,0,8.8-1.7,10.5-7.2c0.6,0.9,1.1,1.8,1.5,2.8c-1.9,3.6-4.6,7.9-7,8.2c3,0.5,6.1,0.6,9.2,0.3v0
	c-3.5,1.7-13.7,6-19.1,15.8c-0.6,0.7-1.6,0.9-2.5,0.7c-1.8-0.4-2,3.3-6,1.9c0,0-0.2,2,1.2,2.5c0,0-1.1,1-1.5,0.5
	c-0.1,0.9,0.4,1.8,1.1,2.3c0,0-3.2,0.4-3.4-0.2c0,0-0.6,1.4,1.2,2.2c0,0-3.5,2.7-3.1,5.3c1.3-1.2,3-1.7,4.7-1.6
	c3.1,0.1,3.3-1.5,3.3-1.5s-0.4,3.2,0.4,4.2c0,0,2.7-3.7,4.7-3.7c0,0,0.7,3.2,1.5,3.3c0,0-2.1,2.9-2.4,4.4c-0.3,1.5-4.3,3.6-4.3,2.2
	c-0.4-0.8-0.6-1.7-0.6-2.6c0.2-1.1-5.3-3.3-6-0.5c-1.8,1.3-2.7,3.4-2.4,5.6H7c-0.1,1.3,0,2.5,0.4,3.7c0.5-0.2,1-0.3,1.5-0.3
	c-0.3,1.5,0,3.1,0.8,4.4c0.8,0,1.5-0.3,2-0.8c0,0,1.7,1.1,2.3,0.8c1.2-0.5,2.2-1.4,2.8-2.6c0.7-1.5,3.1,0.1,3.2,0.3
	c0.3,0.2,0.6,0.3,1,0.3c0,0,1.7,0.1,1.5,1.5c1.2-0.3,2.2-1.2,2.6-2.4c0,0,1.6-4.5,2.2-4.9c0,0,1.4,2.6,3.4,1.7c0,0-1.7-2.7-0.9-4.4
	c0,0,3.8,1.5,5.2,0.3c0,0-1.2-3.2-0.1-3.7c1.1-0.5,3.9-5.4,2.3-6.7c0,0-1.8-2.4-3.4-0.7s-3.7-6.5,2.2-4.1c0,0,2.1-1.4,1.2-2.5
	c0,0-1.3-3.9,7.1-4.7c1.2-0.1,2.3-0.7,3-1.7C48.2,83.5,48.8,82.1,48.8,80.7L48.8,80.7z M2.7,210.8H1.7v-13.5h1.1V210.8z M16.5,210.8
	h-1.1l-6.4-11.5v11.5H8v-13.5h1.1l6.4,11.5v-11.5h1L16.5,210.8L16.5,210.8z M29,198.3h-3.8v12.5h-1.1v-12.5h-3.8v-1H29V198.3z
	 M39.3,204.4h-5.2v5.5h6v1h-7.1v-13.5h7v1h-6v5.1h5.2L39.3,204.4L39.3,204.4z M48.6,205.2h-3.1v5.6h-1.1v-13.5H48
	c0.5,0,1.1,0.1,1.6,0.3c0.5,0.2,0.9,0.4,1.2,0.8c0.3,0.4,0.6,0.8,0.8,1.2c0.2,0.5,0.3,1.1,0.3,1.7c0,0.4-0.1,0.8-0.2,1.3
	c-0.1,0.4-0.3,0.7-0.5,1.1c-0.2,0.3-0.4,0.6-0.7,0.8c-0.3,0.2-0.6,0.4-0.9,0.5l2.8,5.7v0.1h-1.1L48.6,205.2z M45.4,204.2h2.8
	c0.4,0,0.8-0.1,1.1-0.2c0.3-0.2,0.6-0.4,0.8-0.6c0.2-0.3,0.4-0.6,0.5-0.9c0.1-0.4,0.2-0.7,0.2-1.1c0-0.4-0.1-0.8-0.2-1.2
	c-0.1-0.3-0.3-0.7-0.5-0.9c-0.2-0.3-0.5-0.5-0.9-0.6c-0.4-0.1-0.8-0.2-1.2-0.2h-2.6L45.4,204.2L45.4,204.2z M65.1,210.8h-1
	l-6.4-11.5v11.5h-1.1v-13.5h1.1l6.4,11.5v-11.5h1L65.1,210.8L65.1,210.8z M76.5,204.4h-5.2v5.5h6v1h-7.1v-13.5h7v1h-6v5.1h5.2
	L76.5,204.4L76.5,204.4z M89.4,198.3h-3.8v12.5h-1.1v-12.5h-3.8v-1h8.7L89.4,198.3L89.4,198.3z M101,203.5c-0.2-0.3-0.4-0.6-0.6-0.8
	c-0.2-0.3-0.3-0.5-0.4-0.8c-0.1-0.3-0.2-0.5-0.3-0.8c-0.1-0.3-0.1-0.5-0.1-0.8c0-0.4,0.1-0.9,0.2-1.3c0.1-0.4,0.3-0.7,0.5-1
	c0.2-0.3,0.5-0.5,0.8-0.6c0.3-0.1,0.7-0.2,1.1-0.2c0.4,0,0.7,0.1,1,0.2c0.3,0.1,0.6,0.3,0.8,0.6c0.2,0.2,0.4,0.5,0.5,0.8
	c0.1,0.3,0.2,0.7,0.2,1c0,0.3,0,0.6-0.1,0.9c-0.1,0.3-0.2,0.5-0.3,0.8c-0.1,0.2-0.3,0.5-0.5,0.7c-0.2,0.2-0.4,0.4-0.6,0.6l-1,0.9
	l3,4.2c0.2-0.4,0.4-0.9,0.5-1.4c0.1-0.5,0.2-1.1,0.2-1.6h0.9c0,1.4-0.3,2.7-1,3.9l1.6,2.2h-1.2l-0.9-1.3c-0.4,0.5-0.9,0.8-1.4,1.1
	c-0.5,0.3-1.1,0.4-1.7,0.4c-0.5,0-1-0.1-1.5-0.3c-0.4-0.2-0.8-0.4-1.1-0.7c-0.3-0.3-0.5-0.7-0.7-1.1c-0.2-0.5-0.3-1-0.2-1.5
	c0-0.4,0.1-0.8,0.2-1.1c0.1-0.3,0.3-0.7,0.5-1c0.2-0.3,0.4-0.6,0.7-0.9C100.3,204.1,100.6,203.8,101,203.5L101,203.5z M102.2,210.1
	c0.5,0,0.9-0.1,1.3-0.4c0.4-0.3,0.8-0.6,1.2-1l-3.1-4.4l-0.1-0.1l-0.3,0.3c-0.3,0.3-0.5,0.6-0.8,0.9c-0.2,0.2-0.3,0.5-0.4,0.8
	c-0.1,0.2-0.2,0.4-0.2,0.6c0,0.2,0,0.3,0,0.5c0,0.3,0,0.7,0.2,1c0.1,0.3,0.3,0.6,0.5,0.9c0.2,0.2,0.5,0.4,0.8,0.6
	C101.5,210,101.9,210.1,102.2,210.1 M100.7,200.2c0,0.4,0.1,0.9,0.3,1.3c0.2,0.5,0.5,0.9,0.8,1.4l1-0.9c0.3-0.3,0.6-0.6,0.8-0.9
	c0.2-0.4,0.3-0.8,0.3-1.2c0-0.2,0-0.4-0.1-0.6c-0.1-0.2-0.2-0.4-0.3-0.5c-0.1-0.2-0.3-0.3-0.5-0.4c-0.2-0.1-0.4-0.1-0.6-0.1
	c-0.2,0-0.5,0.1-0.7,0.2c-0.2,0.1-0.4,0.3-0.5,0.4c-0.1,0.2-0.2,0.4-0.3,0.7C100.8,199.7,100.7,199.9,100.7,200.2 M3,216.3l4.1,11.9
	l4.1-11.9h1.4v13.5h-1.1V224l0.1-5.9l-4.1,11.7H6.7l-4.1-11.7l0.1,5.8v5.9H1.6v-13.5L3,216.3L3,216.3z M24,226h-5.1l-1.1,3.8h-1.1
	l4.3-13.5h1l4.3,13.5h-1.1L24,226z M19.2,225.1h4.4l-2.2-7.2L19.2,225.1z M34.3,224.2h-3.1v5.6h-1.1v-13.5h3.7
	c0.5,0,1.1,0.1,1.6,0.3c0.5,0.2,0.9,0.4,1.2,0.8c0.3,0.4,0.6,0.8,0.8,1.2c0.2,0.5,0.3,1.1,0.3,1.7c0,0.4-0.1,0.8-0.2,1.3
	c-0.1,0.4-0.3,0.7-0.5,1.1c-0.2,0.3-0.4,0.6-0.7,0.8c-0.3,0.2-0.6,0.4-0.9,0.5l2.8,5.7v0.1H37L34.3,224.2z M31.2,223.2H34
	c0.4,0,0.8-0.1,1.1-0.2c0.3-0.2,0.6-0.4,0.8-0.6c0.2-0.3,0.4-0.6,0.5-0.9c0.1-0.4,0.2-0.7,0.2-1.1c0-0.4-0.1-0.8-0.2-1.2
	c-0.1-0.3-0.3-0.7-0.5-0.9c-0.2-0.3-0.5-0.5-0.9-0.6c-0.4-0.1-0.8-0.2-1.2-0.2h-2.6L31.2,223.2L31.2,223.2z M45.1,223.2l-1.6,1.8
	v4.8h-1.1v-13.5h1.1v7.2l1.5-1.9l4.2-5.3h1.3l-4.7,6l5.1,7.5h-1.3L45.1,223.2z M61,223.4h-5.2v5.5h6v1h-7.1v-13.5h7v1h-6v5.1H61
	L61,223.4L61,223.4z M73.9,217.3h-3.8v12.5H69v-12.5h-3.8v-1h8.7L73.9,217.3L73.9,217.3z M79.2,229.8h-1.1v-13.5h1.1V229.8
	L79.2,229.8z M93,229.8h-1.1l-6.4-11.5v11.5h-1.1v-13.5h1.1l6.4,11.5v-11.5h1L93,229.8L93,229.8z M106.3,228.3
	c-0.1,0.2-0.3,0.3-0.5,0.5c-0.2,0.2-0.5,0.4-0.8,0.6c-0.4,0.2-0.8,0.4-1.2,0.5c-0.5,0.1-1,0.2-1.6,0.2c-0.6,0-1.3-0.1-1.8-0.4
	c-0.5-0.2-1-0.6-1.4-1c-0.4-0.5-0.7-1.1-0.9-1.7c-0.2-0.8-0.3-1.6-0.3-2.3v-3.1c0-0.8,0.1-1.6,0.3-2.3c0.2-0.6,0.5-1.2,0.8-1.7
	c0.4-0.4,0.8-0.8,1.4-1c0.6-0.2,1.2-0.4,1.8-0.3c0.6,0,1.1,0.1,1.7,0.3c0.5,0.2,0.9,0.4,1.2,0.8c0.4,0.4,0.6,0.8,0.8,1.3
	c0.2,0.5,0.3,1.1,0.4,1.7h-1.1c0-0.4-0.1-0.8-0.3-1.3c-0.1-0.4-0.3-0.7-0.6-0.9c-0.3-0.3-0.6-0.5-0.9-0.6c-0.4-0.1-0.9-0.2-1.3-0.2
	c-1-0.1-1.9,0.3-2.5,1.1c-0.6,1-0.9,2.1-0.8,3.2v3.1c0,0.6,0.1,1.3,0.2,1.9c0.1,0.5,0.4,1,0.7,1.4c0.3,0.4,0.7,0.7,1.1,0.8
	c0.4,0.2,0.9,0.3,1.4,0.3c0.4,0,0.8,0,1.1-0.1c0.3-0.1,0.6-0.2,0.8-0.3c0.2-0.1,0.4-0.2,0.6-0.4c0.1-0.1,0.3-0.2,0.3-0.3v-3.5h-3v-1
	h4L106.3,228.3L106.3,228.3z M13.2,184.6c0-0.5,0-0.9-0.1-1.4c-0.1-0.4-0.3-0.8-0.6-1.1c-0.4-0.4-0.8-0.8-1.3-1
	c-0.7-0.4-1.4-0.8-2.2-1.1c-1.1-0.4-2.1-0.9-3.1-1.4c-1-0.5-1.8-1.1-2.6-1.9c-0.7-0.7-1.4-1.6-1.8-2.5c-0.5-1.1-0.7-2.2-0.7-3.3
	c0-1.2,0.2-2.3,0.7-3.3c0.4-1,1.1-1.9,1.9-2.6c0.9-0.7,1.9-1.3,2.9-1.7c1.2-0.4,2.5-0.6,3.7-0.6c1.3,0,2.6,0.2,3.8,0.7
	c1.1,0.4,2.1,1.1,2.9,1.9c0.8,0.8,1.4,1.8,1.8,2.9c0.4,1.2,0.7,2.4,0.6,3.6h-5.9c0-0.6-0.1-1.1-0.2-1.7c-0.1-0.5-0.3-0.9-0.6-1.3
	c-0.3-0.4-0.6-0.7-1.1-0.9c-0.5-0.2-1-0.3-1.5-0.3c-0.5,0-1,0.1-1.5,0.3c-0.4,0.2-0.7,0.4-1,0.7c-0.3,0.3-0.5,0.7-0.6,1.1
	c-0.1,0.4-0.2,0.9-0.2,1.3c0,0.5,0.1,0.9,0.3,1.3c0.2,0.4,0.5,0.8,0.9,1.1c0.4,0.4,0.9,0.7,1.4,0.9c0.5,0.3,1.1,0.6,1.8,0.9
	c1.2,0.4,2.4,1,3.6,1.6c0.9,0.5,1.8,1.2,2.5,2c0.7,0.8,1.2,1.6,1.5,2.6c0.3,1,0.5,2.1,0.5,3.2c0,1.2-0.2,2.3-0.6,3.4
	c-0.4,1-1,1.8-1.8,2.5c-0.8,0.7-1.8,1.3-2.9,1.6c-1.2,0.4-2.5,0.6-3.7,0.6c-1.3,0-2.5-0.2-3.7-0.6c-1.2-0.4-2.3-1-3.2-1.8
	c-1-0.8-1.8-1.8-2.3-3C0.3,186,0,184.5,0,183h5.9c0,0.8,0.1,1.5,0.3,2.2c0.1,0.6,0.4,1.1,0.8,1.5c0.4,0.4,0.8,0.7,1.3,0.8
	c0.6,0.2,1.2,0.3,1.8,0.3c0.5,0,1-0.1,1.4-0.3c0.4-0.1,0.7-0.4,1-0.7c0.3-0.3,0.4-0.7,0.5-1C13.1,185.4,13.2,185,13.2,184.6
	 M41.9,167.9h-7.2v24.3h-5.9v-24.3h-7.1V163h20.2L41.9,167.9L41.9,167.9z M60.4,179.6h-9.2v7.8h10.9v4.9H45.3V163H62v4.9H51.2v6.9
	h9.2L60.4,179.6L60.4,179.6z M74.3,181.6h-2.9v10.7h-5.9V163h9.4c1.3,0,2.6,0.2,3.9,0.6c1.1,0.3,2.1,0.9,2.9,1.7
	c0.8,0.8,1.4,1.7,1.8,2.8c0.4,1.2,0.7,2.5,0.6,3.8c0,1-0.1,1.9-0.3,2.9c-0.2,0.8-0.5,1.6-0.8,2.3c-0.4,0.6-0.8,1.2-1.3,1.7
	c-0.5,0.5-1.1,0.9-1.8,1.3l5.1,12v0.3h-6.3L74.3,181.6z M71.4,176.6h3.3c1,0.1,2-0.4,2.6-1.2c0.6-0.9,0.9-2,0.9-3.1
	c0-0.6-0.1-1.2-0.2-1.8c-0.1-0.5-0.3-1-0.6-1.4c-0.3-0.4-0.6-0.7-1.1-0.9c-0.5-0.2-1-0.3-1.5-0.3h-3.5L71.4,176.6L71.4,176.6z
	 M108,182.5c-0.1,3.3-1.1,5.9-2.8,7.6c-1.7,1.7-4.2,2.6-7.3,2.6c-1.5,0-3-0.2-4.3-0.8c-1.3-0.5-2.4-1.3-3.2-2.4
	c-0.9-1.2-1.6-2.5-2-3.9c-0.5-1.8-0.7-3.6-0.7-5.4v-5c0-1.8,0.2-3.6,0.7-5.4c0.4-1.4,1.1-2.8,2.1-3.9c0.9-1,2-1.9,3.2-2.4
	c1.4-0.6,2.8-0.8,4.3-0.8c3.2,0,5.6,0.9,7.2,2.7c1.6,1.8,2.6,4.3,2.8,7.7h-5.9c0-0.9-0.1-1.8-0.3-2.6c-0.1-0.6-0.4-1.2-0.7-1.7
	c-0.3-0.4-0.8-0.7-1.3-0.9c-0.6-0.2-1.3-0.3-1.9-0.3c-0.7,0-1.4,0.1-2,0.4c-0.6,0.3-1,0.7-1.4,1.3c-0.4,0.7-0.7,1.5-0.8,2.3
	c-0.2,1.2-0.3,2.4-0.3,3.6v5c0,1.2,0.1,2.3,0.2,3.5c0.1,0.8,0.3,1.6,0.7,2.4c0.3,0.6,0.8,1,1.3,1.3c0.7,0.3,1.4,0.4,2.1,0.4
	c0.6,0,1.2-0.1,1.9-0.2c0.5-0.1,0.9-0.4,1.3-0.8c0.4-0.5,0.6-1,0.8-1.6c0.2-0.9,0.3-1.7,0.3-2.6L108,182.5L108,182.5z"/>
</svg>
