<?xml version="1.0" encoding="utf-8"?>
<!-- Generator: Adobe Illustrator 21.1.0, SVG Export Plug-In . SVG Version: 6.00 Build 0)  -->
<svg version="1.1" id="Laag_1" xmlns="http://www.w3.org/2000/svg" xmlns:xlink="http://www.w3.org/1999/xlink" x="0px" y="0px"
	 width="115px" height="41px" viewBox="0 0 115 41" style="enable-background:new 0 0 115 41;" xml:space="preserve">
<style type="text/css">
	.st0{fill:#858E8E;}
	.st1{fill:#EE3224;}
	.st2{fill:none;enable-background:new    ;}
</style>
<g>
	<path class="st0" d="M33.9,40.2V1H23.6v10.7c0,3.2,0.1,8.4,0.3,10.1c-0.8-1.6-4.3-6.8-6-9.2L9.4,1H0v39.2h10.3v-12
		c0-3.2-0.1-8.4-0.3-10.1c1,1.7,4.3,6.8,6,9.2l9.2,12.9H33.9L33.9,40.2z"/>
	<path class="st0" d="M115,28.1c0-7.3-4.3-10.4-14-12.7c-5-1.2-6.4-1.8-6.4-3.3c0-1.4,0.8-2.4,4-2.4c3.9,0,7.3,1.3,10.8,3.7l5.2-8.5
		c-4.1-2.9-8.8-4.5-15.4-4.5c-9.3,0-15.2,5-15.2,12.4c0,7.8,4.5,10.4,13.8,12.6c5.2,1.2,6.6,2.1,6.6,3.6c0,1.8-1.2,2.5-5,2.5
		c-3.6,0-8.5-2-11.3-3.9L82.7,36c4,2.7,10.1,4.8,16.3,4.8C108.3,40.8,115,37.1,115,28.1L115,28.1z"/>
	<path class="st1" d="M59.6,0C48.4,0,39.3,9.2,39.3,20.5c0,11.3,9.1,20.5,20.2,20.5c11.2,0,20.2-9.2,20.2-20.5
		C79.8,9.2,70.7,0,59.6,0z M59.6,30.6c-5.5,0-9.9-4.5-9.9-10.1c0-5.6,4.4-10.1,9.9-10.1c5.5,0,9.9,4.5,9.9,10.1
		C69.5,26.1,65,30.6,59.6,30.6z"/>
</g>
<path class="st2" d="z"/>
</svg>
