<?xml version="1.0" encoding="utf-8"?>
<!-- Generator: Adobe Illustrator 21.1.0, SVG Export Plug-In . SVG Version: 6.00 Build 0)  -->
<svg version="1.1" id="Laag_1" xmlns="http://www.w3.org/2000/svg" xmlns:xlink="http://www.w3.org/1999/xlink" x="0px" y="0px"
	 width="115px" height="41px" viewBox="0 0 115 41" style="enable-background:new 0 0 115 41;" xml:space="preserve">
<style type="text/css">
	.st0{fill:none;enable-background:new    ;}
	.st1{fill:#FFFFFF;}
</style>
<path class="st0" d="z"/>
<g id="sZkec1.tif">
	<g>
		<path class="st1" d="M21,0.2C19.7,0.1,18.4,0,17.1,0c-1.2,0-2.5,0-3.7,0.2C9.2,0.8,6.6,4,6.3,8.1c-0.2,2.1-0.1,4.2-0.1,6.4
			c0,0.2,0,0.4,0,0.6c-2.1,0-4.2,0-6.2,0c0,2.4,0,4.8,0,7.2c2.1,0,4.1,0,6.2,0c0,6.3,0,12.5,0,18.7c2.5,0,4.9,0,7.4,0
			c0-6.3,0-12.5,0-18.7c2.1,0,4.1,0,6.2,0c0.3-2.4,0.6-4.8,0.9-7.2c-2.4,0-4.8,0-7.1,0c0-1.8-0.1-3.6,0-5.3C13.7,8,14.4,7.2,16.2,7
			c1.3-0.1,2.6-0.1,3.9-0.1c0.3,0,0.6,0,0.9,0C21,4.7,21,2.5,21,0.2z"/>
		<path class="st1" d="M21,0.2c0,2.3,0,4.4,0,6.7c-0.3,0-0.6,0-0.9,0c-1.3,0-2.6-0.1-3.9,0.1c-1.7,0.2-2.5,1-2.6,2.8
			c-0.1,1.8,0,3.5,0,5.3c2.4,0,4.7,0,7.1,0c-0.3,2.4-0.6,4.8-0.9,7.2c-2.1,0-4.1,0-6.2,0c0,6.3,0,12.5,0,18.7c-2.5,0-4.9,0-7.4,0
			c0-6.2,0-12.5,0-18.7c-2.1,0-4.1,0-6.2,0c0-2.4,0-4.8,0-7.2c2,0,4.1,0,6.2,0c0-0.2,0-0.4,0-0.6c0-2.1-0.1-4.3,0.1-6.4
			C6.6,4,9.2,0.8,13.4,0.2C14.6,0,15.9,0,17.1,0C18.4,0,19.7,0.1,21,0.2z"/>
	</g>
</g>
</svg>
