<?xml version="1.0" encoding="utf-8"?>
<!-- Generator: Adobe Illustrator 21.1.0, SVG Export Plug-In . SVG Version: 6.00 Build 0)  -->
<svg version="1.1" id="Laag_1" xmlns="http://www.w3.org/2000/svg" xmlns:xlink="http://www.w3.org/1999/xlink" x="0px" y="0px"
	 width="80px" height="141px" viewBox="0 0 80 141" style="enable-background:new 0 0 80 141;" xml:space="preserve">
<style type="text/css">
	.st0{fill:#858E8E;}
	.st1{fill:#EE3224;}
	.st2{fill:#FFFFFF;}
</style>
<g>
	<path class="st0" d="M24,37.4V9.7h-7v7.6c0,2.3,0.1,5.9,0.2,7.1c-0.5-1.1-2.9-4.8-4.1-6.5L7.4,9.7H1v27.7h7v-8.5
		c0-2.3-0.1-5.9-0.2-7.1c0.7,1.2,2.9,4.8,4.1,6.5l6.2,9.1H24L24,37.4z"/>
	<path class="st0" d="M79,28.9c0-5.2-2.9-7.4-9.5-9c-3.4-0.8-4.3-1.3-4.3-2.3s0.5-1.7,2.7-1.7c2.6,0,5,0.9,7.3,2.6l3.5-6
		c-2.8-2.1-6-3.2-10.4-3.2C62,9.3,58,12.8,58,18.1c0,5.5,3.1,7.4,9.4,8.9c3.5,0.8,4.5,1.5,4.5,2.5c0,1.3-0.8,1.8-3.4,1.8
		c-2.4,0-5.8-1.4-7.7-2.8l-3.7,5.9c2.7,1.9,6.9,3.4,11.1,3.4C74.5,37.9,79,35.2,79,28.9L79,28.9z"/>
	<path class="st1" d="M41.4,9c-7.6,0-13.8,6.5-13.8,14.5S33.8,38,41.4,38s13.7-6.5,13.7-14.5C55.1,15.5,49,9,41.4,9z M41.4,30.6
		c-3.7,0-6.7-3.2-6.7-7.1s3-7.1,6.7-7.1s6.7,3.2,6.7,7.1S45.1,30.6,41.4,30.6z"/>
</g>
<path class="st1" d="M0,0"/>
<g id="sZkec1.tif">
	<g>
		<path class="st2" d="M22,50.2c-1.3-0.1-2.6-0.2-3.9-0.2c-1.2,0-2.5,0-3.7,0.2c-4.2,0.6-6.8,3.8-7.1,7.9c-0.2,2.1-0.1,4.2-0.1,6.4
			c0,0.2,0,0.4,0,0.6c-2.1,0-4.2,0-6.2,0c0,2.4,0,4.8,0,7.2c2.1,0,4.1,0,6.2,0c0,6.3,0,12.5,0,18.7c2.5,0,4.9,0,7.4,0
			c0-6.3,0-12.5,0-18.7c2.1,0,4.1,0,6.2,0c0.3-2.4,0.6-4.8,0.9-7.2c-2.4,0-4.8,0-7.1,0c0-1.8-0.1-3.6,0-5.3c0.1-1.8,0.8-2.6,2.6-2.8
			c1.3-0.1,2.6-0.1,3.9-0.1c0.3,0,0.6,0,0.9,0C22,54.7,22,52.5,22,50.2z"/>
		<path class="st2" d="M22,50.2c0,2.3,0,4.4,0,6.7c-0.3,0-0.6,0-0.9,0c-1.3,0-2.6-0.1-3.9,0.1c-1.7,0.2-2.5,1-2.6,2.8s0,3.5,0,5.3
			c2.4,0,4.7,0,7.1,0c-0.3,2.4-0.6,4.8-0.9,7.2c-2.1,0-4.1,0-6.2,0c0,6.3,0,12.5,0,18.7c-2.5,0-4.9,0-7.4,0c0-6.2,0-12.5,0-18.7
			c-2.1,0-4.1,0-6.2,0c0-2.4,0-4.8,0-7.2c2,0,4.1,0,6.2,0c0-0.2,0-0.4,0-0.6c0-2.1-0.1-4.3,0.1-6.4c0.3-4.1,2.9-7.3,7.1-7.9
			c1.2-0.2,2.5-0.2,3.7-0.2C19.4,50,20.7,50.1,22,50.2z"/>
	</g>
</g>
<g id="nu-logo-128" transform="translate(0,192.7944)">
	<path class="st2" d="M31.2-75.3c0-2.7,2-4.9,4.5-5.3c-2.2-7.3-9-12.7-17-12.7C8.9-93.3,1-85.2,1-75.3c0,9.9,7.9,18,17.7,18
		c8,0,14.7-5.3,17-12.7C33.1-70.3,31.2-72.6,31.2-75.3z M17.9-68c0,0.3-0.2,0.5-0.5,0.5h-4.2c-0.3,0-0.4-0.2-0.4-0.5v-10.8
		c0-0.8-1.2-0.7-1.2,0V-68c0,0.3-0.2,0.5-0.5,0.5H7c-0.3,0-0.5-0.2-0.5-0.5v-14.5c0-0.3,0.3-0.6,0.5-0.6h10.4c0.3,0,0.5,0.3,0.5,0.6
		V-68z M30.3-68c0,0.3-0.1,0.5-0.4,0.5H19.4c-0.3,0-0.3-0.2-0.3-0.5v-14.5c0-0.3,0-0.6,0.3-0.6h4.1c0.3,0,0.4,0.3,0.4,0.6v10.8
		c0,0.7,1.2,0.8,1.2,0v-10.8c0-0.3,0.2-0.6,0.5-0.6h4.2c0.3,0,0.4,0.3,0.4,0.6V-68z"/>
	<path class="st2" d="M36.6-79.9c-2.4,0-4.4,2-4.4,4.5c0,2.5,2,4.5,4.4,4.5c2.4,0,4.4-2,4.4-4.5C41-77.9,39-79.9,36.6-79.9z
		 M37.1-73.6h-0.7v-1.3c0-0.3,0-0.5,0-0.5c0-0.1-0.1-0.1-0.1-0.2c-0.1,0-0.1-0.1-0.2-0.1c-0.1,0-0.2,0-0.3,0.1
		c-0.1,0.1-0.2,0.2-0.2,0.3c0,0.1-0.1,0.3-0.1,0.6v1.2h-0.7v-2.6h0.6v0.4c0.2-0.3,0.5-0.4,0.9-0.4c0.2,0,0.3,0,0.4,0.1
		c0.1,0.1,0.2,0.1,0.3,0.2c0.1,0.1,0.1,0.2,0.1,0.3c0,0.1,0,0.3,0,0.5V-73.6z M38.4-73.6h-0.7v-3.6h0.7V-73.6z"/>
</g>
</svg>
