<?xml version="1.0" encoding="utf-8"?>
<!-- Generator: Adobe Illustrator 21.1.0, SVG Export Plug-In . SVG Version: 6.00 Build 0)  -->
<svg version="1.1" id="Laag_1" xmlns="http://www.w3.org/2000/svg" xmlns:xlink="http://www.w3.org/1999/xlink" x="0px" y="0px"
	 width="1920px" height="1080px" viewBox="0 0 1920 1080" style="enable-background:new 0 0 1920 1080;" xml:space="preserve">
<style type="text/css">
	.st0{opacity:0.1;fill:#FFFFFF;}
</style>
<path class="st0" d="M1527,1292.7l-5.8,5.8l-74.2-74.2l5.8-5.8L1527,1292.7z M1602.4,1217.3l-5.8,5.8l-98-28.3l63.2,63.2l-5.8,5.8
	l-74.2-74.2l5.8-5.8l98.2,28.4l-63.3-63.3l5.7-5.7L1602.4,1217.3L1602.4,1217.3z M1602.4,1079.8l-21,21l68.7,68.7l-5.8,5.8
	l-68.7-68.7l-21,21l-5.5-5.5l47.8-47.8L1602.4,1079.8z M1692.3,1056.3l-28.7,28.7l30.1,30.1l33-33l5.4,5.4l-38.8,38.8l-74.2-74.2
	l38.5-38.5l5.5,5.5l-32.7,32.7l27.8,27.8l28.7-28.7L1692.3,1056.3L1692.3,1056.3z M1747.5,1010.3l-17.3,17.3l30.9,30.9l-5.8,5.8
	l-74.2-74.2l20.2-20.2c3-3.1,6.4-5.6,10.3-7.4c3.4-1.6,7.1-2.5,10.9-2.5c3.8,0.1,7.6,1,11.1,2.6c4.1,2,7.7,4.7,10.9,7.9
	c2.3,2.3,4.3,4.9,6,7.8c1.5,2.6,2.6,5.5,3.2,8.4c0.6,2.8,0.8,5.7,0.5,8.5c-0.3,2.8-1.1,5.6-2.3,8.1l46.9,16.2l0.7,0.7l-6.2,6.2
	L1747.5,1010.3z M1724.9,1022.2l15.4-15.4c2.2-2.1,3.9-4.7,4.9-7.6c0.9-2.6,1.2-5.3,1-8c-0.3-2.7-1.1-5.4-2.4-7.8
	c-1.3-2.6-3.1-4.9-5.1-7c-2.3-2.3-4.9-4.3-7.8-5.8c-2.5-1.3-5.3-2.1-8.1-2.2c-2.8-0.1-5.5,0.4-8.1,1.6c-2.9,1.3-5.6,3.2-7.8,5.5
	l-14.4,14.4L1724.9,1022.2L1724.9,1022.2z M1869.4,950.2l-5.8,5.8l-98-28.3l63.2,63.2l-5.8,5.8l-74.2-74.2l5.8-5.8l98.2,28.4
	l-63.3-63.3l5.7-5.7L1869.4,950.2L1869.4,950.2z M1896.3,852.3l-28.7,28.7l30.1,30.1l33-33l5.4,5.4l-38.8,38.8l-74.2-74.2l38.5-38.5
	l5.5,5.5l-32.7,32.7l27.8,27.8l28.7-28.7L1896.3,852.3L1896.3,852.3z M1934,748.2l-21,21l68.7,68.7l-5.8,5.8l-68.7-68.7l-21,21
	l-5.5-5.5l47.8-47.8L1934,748.2L1934,748.2z M2025.8,713.1c-2.7-0.5-5.3-1-7.7-1.6c-2.3-0.6-4.5-1.3-6.7-2.2c-2-0.8-4-1.8-5.8-3
	c-1.8-1.1-3.5-2.5-5-4c-2.4-2.4-4.5-5.1-6-8.1c-1.4-2.6-2.2-5.4-2.4-8.2c-0.2-2.7,0.2-5.4,1.2-8c1.1-2.7,2.7-5.1,4.8-7.2
	c1.9-2,4.3-3.5,6.9-4.5c2.4-0.9,4.9-1.3,7.4-1.1c2.5,0.2,5,0.8,7.3,2c2.4,1.2,4.6,2.8,6.5,4.7c1.6,1.6,3,3.5,4,5.5
	c1,1.9,1.8,3.9,2.3,6c0.5,2,0.8,4.1,0.9,6.2c0.1,2.1,0.1,4.2,0,6.2l-0.5,10.6l40,6.7c-1.3-3.6-2.9-7-4.9-10.2c-2.3-3.6-5-6.9-8-9.9
	l5.2-5.2c7.7,7.2,13.2,16.4,15.8,26.6l20.6,3.5l-6.8,6.8l-12.4-2.1c0.4,4.7-0.2,9.3-1.6,13.8c-1.4,4.3-3.8,8.2-6.9,11.3
	c-2.7,2.8-6,5.1-9.6,6.6c-3.2,1.4-6.7,2.1-10.2,2c-3.5-0.1-7-0.9-10.1-2.5c-3.5-1.7-6.8-4-9.5-6.8c-2.1-2.1-3.9-4.5-5.3-7.1
	c-1.3-2.5-2.2-5.2-2.8-7.9c-0.6-2.9-0.9-5.8-1-8.7c-0.1-3.1,0-6.2,0.2-9.5L2025.8,713.1z M2068.7,742.5c2.6-2.6,4.4-5.8,5.4-9.3
	c1.1-3.8,1.4-7.9,0.9-11.8l-41.2-7l-1.1-0.1l-0.1,3.5c-0.1,3.1,0.2,6.2,0.7,9.2c0.4,2.3,1,4.5,1.8,6.7c0.6,1.7,1.4,3.2,2.5,4.7
	c0.8,1.1,1.6,2.1,2.6,3.1c1.9,1.9,4.1,3.5,6.5,4.8c2.2,1.2,4.7,1.9,7.3,2.1c2.6,0.2,5.1-0.2,7.5-1.1
	C2064.2,746.2,2066.7,744.6,2068.7,742.5 M2006.1,696.5c2.4,2.3,5.2,4.2,8.4,5.4c3.8,1.5,7.7,2.6,11.7,3.3l0.4-10.2
	c0.2-3.2,0-6.4-0.7-9.5c-0.8-3.1-2.5-6-4.8-8.3c-1.2-1.2-2.5-2.2-4-2.9c-1.4-0.7-3-1.2-4.6-1.4c-1.6-0.2-3.2,0-4.6,0.5
	c-1.6,0.6-3.1,1.5-4.3,2.8c-1.4,1.3-2.4,2.9-2.9,4.8c-0.5,1.7-0.6,3.5-0.3,5.2c0.3,1.9,1,3.7,2,5.3
	C2003.4,693.3,2004.7,695,2006.1,696.5 M1558.8,1321.1l87.7,42.9l-42.8-87.8l7.7-7.7l74.2,74.2l-5.8,5.8l-32.3-32.3l-31.7-32.8
	l41.9,87.1l-4.5,4.5l-86.7-41.7l32.5,31.4l32.3,32.3l-5.8,5.8l-74.2-74.2L1558.8,1321.1L1558.8,1321.1z M1727.2,1259.7l-27.7,27.7
	l14.4,27l-6,6l-50.6-97.7l5.4-5.4l97.7,50.6l-6,6L1727.2,1259.7z M1695.7,1280.2l24.4-24.4l-52-27.6L1695.7,1280.2z M1773.8,1192.7
	l-17.2,17.2l30.9,30.9l-5.8,5.8l-74.2-74.2l20.2-20.2c3-3.1,6.4-5.6,10.3-7.4c3.4-1.6,7.1-2.5,10.9-2.5c3.8,0.1,7.6,1,11.1,2.6
	c4,2,7.7,4.7,10.9,7.9c2.3,2.3,4.3,4.9,6,7.8c1.5,2.6,2.6,5.5,3.2,8.4c0.6,2.8,0.8,5.7,0.5,8.5c-0.3,2.8-1.1,5.6-2.3,8.1l46.9,16.2
	l0.7,0.7l-6.2,6.2L1773.8,1192.7z M1751.2,1204.6l15.4-15.4c2.2-2.1,3.9-4.7,4.9-7.6c0.9-2.6,1.2-5.3,1-8c-0.3-2.7-1.1-5.4-2.4-7.8
	c-1.3-2.6-3.1-4.9-5.1-7c-2.3-2.3-4.9-4.3-7.8-5.8c-2.5-1.3-5.3-2.1-8.1-2.2c-2.8-0.1-5.5,0.4-8.1,1.6c-2.9,1.3-5.6,3.2-7.8,5.5
	l-14.4,14.4L1751.2,1204.6L1751.2,1204.6z M1827,1128.1l1.4,18.6l26.6,26.6l-5.8,5.8L1775,1105l5.8-5.8l39.5,39.5l-2.1-18.3
	l-6.5-52.2l7.3-7.3l7.2,58.8l68.9,13.4l-7.1,7.1L1827,1128.1z M1915.6,1041.7l-28.7,28.7l30.1,30.1l32.9-32.9l5.4,5.4l-38.8,38.8
	l-74.2-74.2L1881,999l5.5,5.5l-32.7,32.7l27.8,27.8l28.7-28.7L1915.6,1041.7L1915.6,1041.7z M1953.3,937.6l-21.1,21.1l68.7,68.7
	l-5.8,5.8l-68.7-68.7l-21,21l-5.5-5.5l47.8-47.8L1953.3,937.6L1953.3,937.6z M2051.1,977.2l-5.8,5.8l-74.2-74.2l5.8-5.8
	L2051.1,977.2L2051.1,977.2z M2126.5,901.8l-5.8,5.8l-98.1-28.2l63.2,63.2l-5.8,5.8l-74.2-74.2l5.8-5.8l98.2,28.4l-63.3-63.3
	l5.7-5.7L2126.5,901.8L2126.5,901.8z M2190.9,820.2c0.2,1.7,0.3,3.5,0.3,5.2c0,2.5-0.4,5-1.1,7.4c-0.9,3.1-2.1,6.1-3.7,8.9
	c-2,3.6-4.6,6.9-7.5,9.7c-3.4,3.5-7.5,6.3-12,8.1c-4.2,1.8-8.9,2.5-13.4,2.1c-5-0.5-9.9-1.9-14.3-4.3c-5.4-2.9-10.4-6.7-14.7-11.1
	l-17-17c-4.3-4.2-8.1-9-11.1-14.3c-2.5-4.2-4-9-4.6-13.8c-0.4-4.4,0.2-8.9,1.9-13c1.9-4.5,4.7-8.5,8.2-11.9
	c3.1-3.2,6.7-5.8,10.7-7.8c3.5-1.7,7.3-2.5,11.1-2.6c3.9,0,7.8,0.9,11.3,2.5c4.1,1.9,7.9,4.3,11.2,7.4l-5.8,5.8
	c-2.6-2.1-5.4-3.9-8.4-5.4c-2.6-1.3-5.4-2-8.3-2.1c-2.8-0.1-5.7,0.5-8.2,1.7c-3.1,1.5-5.8,3.5-8.2,6c-5.6,4.9-8.4,12.2-7.5,19.6
	c1.9,8.6,6.6,16.4,13.2,22.2l17.1,17.1c3.5,3.6,7.5,6.7,11.9,9.2c3.5,2,7.4,3.3,11.4,3.9c3.6,0.4,7.2,0,10.6-1.2
	c3.6-1.4,6.8-3.5,9.4-6.3c2.1-2.1,4-4.4,5.5-6.9c1.2-2,2.2-4.1,2.9-6.3c0.6-1.7,0.9-3.4,1.1-5.2c0.1-1.5,0.2-2.7,0.2-3.6l-19.3-19.3
	l-16.2,16.2l-5.5-5.5l22-22L2190.9,820.2L2190.9,820.2z M1440,1090.8c-2.5-2.5-5.3-4.8-8.3-6.7c-2.9-1.7-6.1-2.8-9.5-3
	c-4.3-0.2-8.6,0.2-12.7,1.3c-6.1,1.6-12.2,3.7-18,6.3c-8.1,3.7-16.5,6.8-25.1,9.4c-8.1,2.5-16.4,3.8-24.8,4
	c-8.1,0.1-16.2-1.3-23.8-4c-8.3-3.2-15.9-8.2-22.1-14.7c-6.4-6.2-11.4-13.8-14.6-22.1c-3-7.9-4.3-16.3-3.7-24.7
	c0.7-8.7,3.1-17.3,7-25.1c4.4-8.8,10.2-16.9,17.2-23.8c7-7.2,15.3-13,24.6-17.1c8.2-3.6,17.1-5.5,26.1-5.6c8.9,0,17.6,2,25.7,5.6
	c8.8,4,16.8,9.6,23.6,16.5l-32.2,32.2c-3.1-3.2-6.6-5.9-10.4-8.3c-3.2-2-6.8-3.4-10.6-4c-3.5-0.5-7.2-0.2-10.5,1
	c-3.9,1.5-7.3,3.8-10.2,6.8c-2.8,2.7-5,5.9-6.5,9.4c-1.2,3-1.8,6.2-1.6,9.5c0.2,3.2,1.1,6.4,2.6,9.2c1.6,3.1,3.7,5.9,6.2,8.4
	c2.5,2.5,5.5,4.4,8.9,5.5c3.5,1,7.2,1.4,10.8,1.1c4.3-0.3,8.6-1.1,12.8-2.4c4.6-1.3,9.4-3,14.6-5.1c9.2-4.4,18.8-7.9,28.6-10.5
	c8.2-2.2,16.7-3.1,25.2-2.7c7.8,0.4,15.5,2.4,22.5,5.8c7.7,3.8,14.6,8.9,20.6,15.1c6.6,6.4,11.8,14,15.4,22.4
	c3.2,7.5,4.6,15.7,4.1,23.8c-0.6,8.5-3,16.8-7,24.4c-4.5,8.8-10.4,16.7-17.5,23.6c-6.9,6.9-14.8,12.7-23.4,17.2
	c-8.5,4.5-17.8,7.2-27.4,8.1c-9.9,0.8-19.8-0.5-29.1-3.8c-10.8-4.1-20.5-10.5-28.4-18.8l32.4-32.4c4.1,4.2,8.7,7.9,13.8,10.9
	c3.8,2.3,8.1,3.6,12.6,3.9c4.1,0.1,8.1-0.8,11.7-2.7c4.2-2.3,8.1-5.2,11.4-8.6c2.8-2.6,5-5.8,6.5-9.2c1.2-2.8,1.7-5.9,1.5-9
	c-0.3-3-1.2-6-2.8-8.6c-1.7-2.9-3.9-5.7-6.3-8 M1506,841.7l-39.6,39.6l133.7,133.7l-32.4,32.4L1434,913.6l-39,39l-27.1-27.1
	L1479,814.6L1506,841.7L1506,841.7z M1671.4,804.5l-50.3,50.3l42.6,42.6l59.6-59.6l26.9,26.9l-91.9,91.9L1497.6,796l91.7-91.7
	l27.1,27.1l-59.4,59.4l38,38l50.4-50.4L1671.4,804.5L1671.4,804.5z M1758.5,739.1l-16.1,16.1l58.7,58.7l-32.3,32.3l-160.7-160.7
	l51.6-51.6c7.1-7.4,15.4-13.5,24.5-18.3c7.8-4,16.4-6.3,25.2-6.7c8.7-0.2,17.3,1.6,25.2,5.2c9.1,4.3,17.4,10.2,24.4,17.5
	c5.3,5.2,10.1,11,14.1,17.3c3.4,5.3,6.1,11.1,7.9,17.1c1.6,5.5,2.4,11.2,2.2,16.9c-0.2,5.7-1,11.3-2.6,16.7l93.8,37.8l1.5,1.5
	l-34.7,34.7L1758.5,739.1z M1715.4,728.1l18.4-18.4c6-5.2,9-13.1,8.1-21c-1.6-8.5-6-16.3-12.4-22.1c-3.3-3.4-7-6.4-11-9
	c-3.3-2.1-7-3.6-10.9-4.3c-3.6-0.6-7.2-0.3-10.6,0.9c-3.8,1.4-7.3,3.7-10.1,6.6l-19.2,19.2L1715.4,728.1L1715.4,728.1z
	 M1948.4,559.5c17.5,19.1,26.3,38.1,26.2,57c0,18.9-8.7,36.9-25.9,54.1c-8,8.3-17.6,14.9-28.1,19.4c-9.7,4-20.3,5.5-30.8,4.4
	c-11.4-1.3-22.5-5-32.5-10.6c-12.3-7-23.6-15.7-33.4-25.8l-27.4-27.4c-10.2-9.9-18.9-21.2-25.8-33.6c-5.7-10.1-9.2-21.3-10.4-32.9
	c-0.9-10.6,0.7-21.2,4.6-31c4.4-10.5,10.9-20.1,19.1-28c17.4-17.4,35.6-25.8,54.4-25.1c18.8,0.7,38.1,9.6,57.7,26.7l-32.4,32.4
	c-4.9-4.8-10.2-9.1-15.9-12.9c-3.9-2.7-8.4-4.5-13.1-5.3c-4-0.5-8.1,0.2-11.7,2c-4.4,2.4-8.5,5.4-11.9,9.1
	c-3.9,3.7-6.9,8.2-8.9,13.2c-1.6,4.7-1.7,9.8-0.3,14.5c1.9,6.2,4.8,12,8.7,17.2c5.5,7.5,11.6,14.5,18.2,21l27.6,27.6
	c6.4,6.5,13.1,12.5,20.3,18.1c5,4,10.7,7.1,16.8,9.1c4.7,1.5,9.8,1.6,14.6,0.1c5.2-1.9,10-5,13.8-9.1c3.5-3.4,6.5-7.2,8.9-11.4
	c1.9-3.5,2.8-7.5,2.5-11.4c-0.5-4.6-2.1-9.1-4.7-13c-3.6-5.8-7.8-11.1-12.5-16L1948.4,559.5L1948.4,559.5z"/>
</svg>
