<?xml version="1.0" encoding="utf-8"?>
<!-- Generator: Adobe Illustrator 18.0.0, SVG Export Plug-In . SVG Version: 6.00 Build 0)  -->
<!DOCTYPE svg PUBLIC "-//W3C//DTD SVG 1.1//EN" "http://www.w3.org/Graphics/SVG/1.1/DTD/svg11.dtd">
<svg version="1.1" id="Laag_1" xmlns="http://www.w3.org/2000/svg" xmlns:xlink="http://www.w3.org/1999/xlink" x="0px" y="0px"
	 width="148px" height="224px" viewBox="0 0 148 224" enable-background="new 0 0 148 224" xml:space="preserve">
<path fill="#E4005B" d="M66.2,124.5c5,0.4,9.4,5.6,7.8,10.4c-1.1-0.3-2.3-0.5-3.5-0.5c-3.6,0-6.8,1.4-8.7,3.4
	c-0.1,0-0.1-0.1-0.1-0.1s-0.2,0.4-0.6,1c-0.3,0.4-0.6,0.9-0.8,1.4c-1.5,3-3.2,8.3,0.1,12.8c-7.7,10.7-14.1,23.8-7.1,34.7
	c-0.7,0.9-1.3,1.9-1.7,3c-2,3.5-2.9,8.9,1.9,16.5c0,0,2.5,3.1,0.7,6.2c0,0,7.8,0.6,7.2-8c1.1,2.7,3.8,6.3,10.5,9.6
	c0,0,5.3,4.4,1.1,9.1c0,0,14-12,2.7-20.7c-1.8-1.4-3.3-2.6-4.6-3.7c0.2,0,0.5,0.1,0.7,0.1c6.2,0.1,9.5-6.2,7.3-5.2H79
	c-2.3,0.9-4.6-0.9-8.5-4.9c-2-2.1-3.7-3-5-3.5c-3.1-2-6.9-2.2-9.9-0.5c-2.4-5.3-3.5-14.7,7.3-27.6c0.3-0.3,0.5-0.6,0.8-1
	c4.5,6.2,6.4,13.1,0,15.3c0,0,8.9-0.3,9.1-7.5c0.2-6.3-5-10.5-1.7-14.3c5.6-0.3,10-3.8,10-8c0-2-0.9-3.8-2.5-5.2
	c1.8-3.9,1.9-7.5,1.6-13.4c0.7-0.2,1.4-0.4,2.1-0.7c0.2,2.8,0.5,5.6,1.9,7.4c1.1,1.5,2.7,2.5,4.7,2.7c13,1.3,11.1,7.3,11.1,7.3
	c-1.5,1.8,1.8,3.9,1.8,3.9c9.1-3.7,5.8,8.9,3.4,6.3c-2.4-2.6-5.2,1.1-5.2,1.1c-2.4,2.1,1.9,9.6,3.6,10.4c1.6,0.8-0.2,5.7-0.2,5.7
	c2.3,1.8,8.1-0.5,8.1-0.5c1.1,2.6-1.5,6.8-1.5,6.8c3.1,1.5,5.2-2.6,5.2-2.6c1,0.6,3.5,7.5,3.5,7.5c0.9,3,4,3.7,4,3.7
	c-0.2-2.2,2.4-2.4,2.4-2.4s1.4-0.1,1.5-0.4c0.1-0.3,3.8-2.8,4.9-0.4s3.4,3.6,4.3,4c1,0.4,3.6-1.2,3.6-1.2c1,1.2,3.1,1.3,3.1,1.3
	c1.9-2.9,1.2-6.8,1.2-6.8c0.5-0.2,2.4,0.4,2.4,0.4c0.9-2.5,0.5-5.7,0.5-5.7h1.3c0.8-5.8-3.7-8.7-3.7-8.7c-1.1-4.3-9.5-0.9-9.2,0.8
	c0.3,1.6-0.9,4-0.9,4c-0.1,2.2-6.3-1-6.7-3.3c-0.4-2.4-3.7-6.8-3.7-6.8c1.3-0.2,2.4-5.1,2.4-5.1c3,0,7.3,5.7,7.3,5.7
	c1.3-1.5,0.6-6.5,0.6-6.5s0.2,2.4,5.1,2.3c4.9-0.1,7.3,2.5,7.3,2.5c0.5-3.9-4.9-8.1-4.9-8.1c2.8-1.2,1.8-3.4,1.8-3.4
	c-0.3,1-5.2,0.3-5.2,0.3c1.9-1.1,1.7-3.5,1.7-3.5c-0.5,0.9-2.3-0.7-2.3-0.7c2.2-0.8,1.8-3.8,1.8-3.8c-6.2,2.2-6.6-3.5-9.3-2.9
	c-2.7,0.5-3.9-1-3.9-1c-8.4-15.2-24.2-21.9-29.6-24.4l0,0c7.9,0.9,14.2-0.4,14.2-0.4c-3.8-0.4-8-7.1-10.8-12.6
	c1.2-2.6,2.4-4.3,2.4-4.3c2.6,8.4,16.2,11,16.2,11c-2.8-1.9-4.9-5.1-5.9-12.6c1.1,0.4,2.5,2.1,2.5,2.1c-0.5-1.2,1.1-3,1.1-3l3.2,2
	c-2-1.9,0.7-4.4,0.7-4.4l1.2,0.5c1.1-1.6,2.2-3.3,2.2-3.3c1.4,1,3.8-0.4,3.8-0.4l0,0c1.7,0.5,3.3,0.7,3.3,0.7c0.3-0.6,0.2-3,0.2-3.8
	c0.8-0.3,1.2-0.8,1.4-1.1c1,2.1,2.8,4.3,2.8,4.3c0.5-0.4,3-4,3.8-5.1c0,0.1,0,0.2,0,0.2c0.5,0.4,0.8,0.4,1.1,0.3
	c0.5,2.2,2.9,4.8,2.9,4.8c1-1.5,2.1-5.3,2.3-6.2c0.3,0.1,0.4,0.1,0.4,0.1c2.5-5.2-3-6.2-4.8-6.3c-1.8-0.1-4.7-1-4.7-1
	c0.5-11-9.1-8.6-9.1-8.6c-3,4.6-15.1,9.5-15.1,9.5s-0.2,0.5-0.5,1.3c-0.8-4.1-2.3-7.2-3.8-9.3c-0.2-0.9-0.5-1.8-0.4-2.9
	c0.1-1.8,1.2-2.9,1.7-3.4c0,0.7,1.7,2.2,1.7,2.2c-0.5-0.5-0.3-1.4-0.3-1.4c1-2,0.8-3.6,0.7-4.3v-1.2l-2,0.7l-1-1.6
	c-2.7,2.5-3.8,0.2-3.8,0.2c-1.4-5-0.2-8.3,1.6-10.4c2.6,2.7,7,8.9,8.6,12c1.9,3.7,9.2,7.9,13.2,5.5c4-2.5,0.7-10-4-10.9
	c-4.8-0.9-1.6,4.4-1.6,4.4c-1.5,4.1-5.7-2-5.7-2c-1.8-4.5-5.5-8.1-8.5-10.5c2.5-1.7,5.2-2.1,5.2-2.1c1,3.1,2.6,5,2.6,5l-0.8,2.3
	l2.3-0.6l0.4,0.4l-0.6,2l2.1-1.5c6.3-1,5.7-6.7,5.7-6.7l2.3-0.4c0,0-0.3-7.9-6.2-13c0,0,0-3.7-2-6.4c-2-2.6-7-5-8.1-6.2
	c-1.1-1.2-3-4.5-10.2-7.8c0,0-2-1.1-1.1-3.1c0,0-2.8,1.2-3.4,2.6c0,0-5.5-2-6.1-4.3c0,0-3.8,1.9-2.9,7.6c0,0-5.3,2.8-8,11.9
	c0,0-1.3,1.4-2.8-0.1l-2,6.2L72,19.3c-1.5,1.5-2.8,0.1-2.8,0.1c-2.7-9.1-8-11.9-8-11.9C62,1.9,58.2,0,58.2,0C57.5,2.2,52,4.3,52,4.3
	c-0.6-1.3-3.4-2.6-3.4-2.6c0.9,2.1-1.1,3.1-1.1,3.1c-7.2,3.3-9.2,6.6-10.2,7.8c-1.1,1.2-6.1,3.5-8.1,6.2s-2,6.4-2,6.4
	c-5.9,5.1-6.2,13-6.2,13l2.3,0.4c0,0-0.5,5.7,5.7,6.7l2.1,1.5l-0.6-2l0.4-0.4l2.3,0.6l-0.8-2.3c0,0,1.6-1.9,2.6-5
	c0,0,2.7,0.4,5.2,2.1c-3,2.4-6.7,6-8.5,10.5c0,0-4.2,6.2-5.7,2c0,0,3.1-5.3-1.7-4.4s-8,8.5-4,10.9c4,2.5,11.3-1.7,13.2-5.5
	c1.6-3.1,6-9.3,8.6-12c1.8,2.1,2.9,5.4,1.6,10.4c0,0-1.1,2.3-3.8-0.2l-1,1.6l-2-0.7v1.2c-0.1,0.6-0.2,2.3,0.7,4.3
	c0,0,0.2,0.8-0.3,1.4c0,0,1.7-1.5,1.7-2.2c0.6,0.5,1.7,1.7,1.7,3.4c0,1.1-0.3,2-0.4,2.9c-1.5,2.1-3,5.1-3.8,9.3
	c-0.3-0.8-0.5-1.3-0.5-1.3S23.8,66.5,20.8,62c0,0-9.6-2.3-9.1,8.6c0,0-2.9,0.9-4.7,1c-1.8,0.2-7.2,1.1-4.8,6.3c0,0,0.2-0.1,0.4-0.1
	C3,78.7,4.1,82.5,5.1,84c0,0,2.4-2.7,2.9-4.8c0.3,0.1,0.6,0.1,1.1-0.3c0,0,0-0.1,0-0.2c0.8,1.1,3.2,4.7,3.8,5.1c0,0,1.9-2.2,2.8-4.3
	c0.2,0.3,0.6,0.8,1.4,1.1c0,0.9-0.1,3.2,0.2,3.8c0,0,1.6-0.1,3.3-0.7l0,0c0,0,2.4,1.4,3.8,0.4c0,0,1.2,1.7,2.2,3.3l1.2-0.5
	c0,0,2.7,2.5,0.7,4.4l3.2-2c0,0,1.6,1.8,1.1,3c0,0,1.4-1.8,2.5-2.1c-1,7.5-3.1,10.7-5.9,12.6c0,0,13.7-2.6,16.2-11
	c0,0,1.1,1.7,2.4,4.3c-2.9,5.6-7.1,12.3-10.8,12.6c0,0,6.3,1.3,14.2,0.4l0,0c-5.4,2.5-21.2,9.2-29.6,24.4c0,0-1.2,1.6-3.9,1
	c-2.7-0.5-3.1,5.1-9.3,2.9c0,0-0.3,3,1.8,3.8c0,0-1.7,1.6-2.3,0.7c0,0-0.2,2.4,1.7,3.5c0,0-4.9,0.6-5.2-0.3c0,0-1,2.2,1.8,3.4
	c0,0-5.4,4.2-4.9,8.1c0,0,2.4-2.6,7.3-2.5s5.1-2.3,5.1-2.3s-0.6,5,0.6,6.5c0,0,4.2-5.7,7.3-5.7c0,0,1.1,4.9,2.4,5.1
	c0,0-3.2,4.4-3.7,6.8c-0.4,2.4-6.6,5.5-6.7,3.3c0,0-1.2-2.4-0.9-4s-8.1-5.1-9.2-0.8c0,0-4.4,2.8-3.7,8.7h1.3c0,0-0.3,3.3,0.5,5.7
	c0,0,1.8-0.7,2.4-0.4c0,0-0.8,3.9,1.2,6.8c0,0,2.2-0.1,3.1-1.3c0,0,2.6,1.6,3.6,1.2c1-0.4,3.2-1.6,4.3-4s4.8,0.1,4.9,0.4
	c0.1,0.3,1.5,0.4,1.5,0.4s2.6,0.2,2.4,2.4c0,0,3.1-0.6,4-3.7c0,0,2.5-6.9,3.5-7.5c0,0,2.1,4.1,5.2,2.6c0,0-2.6-4.2-1.5-6.8
	c0,0,5.9,2.3,8.1,0.5c0,0-1.8-4.9-0.2-5.7c1.6-0.8,6-8.3,3.6-10.4c0,0-2.8-3.7-5.2-1.1c-2.4,2.6-5.7-10.1,3.4-6.3
	c0,0,3.3-2.1,1.8-3.9c0,0-1.9-6,11.1-7.3c2-0.2,3.6-1.2,4.7-2.7C65.3,128.8,66,127.4,66.2,124.5L66.2,124.5z"/>
</svg>
